<svg width="78" height="66" viewBox="0 0 78 66" fill="none" xmlns="http://www.w3.org/2000/svg">
<rect x="14" width="49" height="49" stroke="black"/>
<path d="M38.3177 32.2017C40.3654 30.1528 43.0243 28.8239 45.8939 28.4151C48.7639 28.009 51.4241 26.6827 53.4738 24.6358L58.698 19.4187C58.9475 19.1705 59.1455 18.8756 59.2806 18.5509C59.4157 18.2261 59.4852 17.8779 59.4852 17.5263C59.4852 17.1746 59.4157 16.8264 59.2806 16.5017C59.1455 16.1769 58.9475 15.882 58.698 15.6339L47.3245 4.27588C47.076 4.02672 46.7807 3.82901 46.4555 3.6941C46.1304 3.55919 45.7817 3.48975 45.4296 3.48975C45.0774 3.48975 44.7288 3.55919 44.4036 3.6941C44.0784 3.82901 43.7831 4.02672 43.5346 4.27588L38.3177 9.48385C36.2184 11.5778 34.8761 14.3096 34.5021 17.2491C34.1605 19.9334 32.9364 22.4285 31.0218 24.3431L20.0421 35.3078C19.0989 36.2089 18.5032 37.4126 18.3592 38.7082C18.2151 40.0038 18.5321 41.3087 19.2545 42.3944C19.7065 43.0297 20.2917 43.5588 20.9694 43.9451C21.6472 44.3313 22.4011 44.5653 23.1786 44.6308C23.9562 44.6963 24.7387 44.5916 25.4716 44.3242C26.2045 44.0567 26.8702 43.6329 27.4223 43.0822L38.3177 32.2017ZM24.5776 38.3499L25.5265 37.4023L24.5776 38.3499Z" fill="black"/>
<path d="M24.5776 38.3499L25.5265 37.4023M38.3177 32.2017C40.3654 30.1528 43.0243 28.8239 45.8939 28.4151C48.7639 28.009 51.4241 26.6827 53.4738 24.6358L58.698 19.4187C58.9475 19.1705 59.1455 18.8756 59.2806 18.5509C59.4157 18.2261 59.4852 17.8779 59.4852 17.5263C59.4852 17.1746 59.4157 16.8264 59.2806 16.5017C59.1455 16.1769 58.9475 15.882 58.698 15.6339L47.3245 4.27588C47.076 4.02672 46.7807 3.82901 46.4555 3.6941C46.1304 3.55919 45.7817 3.48975 45.4296 3.48975C45.0774 3.48975 44.7288 3.55919 44.4036 3.6941C44.0784 3.82901 43.7831 4.02672 43.5346 4.27588L38.3177 9.48384C36.2184 11.5778 34.8761 14.3096 34.5021 17.2491C34.1605 19.9334 32.9364 22.4285 31.0218 24.3431L20.0421 35.3078C19.0989 36.2089 18.5032 37.4126 18.3592 38.7082C18.2151 40.0038 18.5321 41.3087 19.2545 42.3944C19.7065 43.0297 20.2917 43.5588 20.9694 43.9451C21.6472 44.3313 22.4011 44.5653 23.1786 44.6308C23.9562 44.6963 24.7387 44.5916 25.4716 44.3242C26.2045 44.0567 26.8702 43.6329 27.4223 43.0822L38.3177 32.2017Z" stroke="black" stroke-width="3" stroke-linecap="round" stroke-linejoin="round"/>
<path d="M47.1584 10.8583L52.112 15.812C52.4406 16.1407 52.6252 16.5865 52.6252 17.0513C52.6252 17.5161 52.4406 17.9619 52.112 18.2906L49.3173 21.0853C48.6606 21.7412 47.7704 22.1096 46.8423 22.1096C45.9141 22.1096 45.0239 21.7412 44.3672 21.0853L41.8886 18.6067C41.2327 17.9495 40.8646 17.0586 40.8652 16.13C40.8659 15.2015 41.2353 14.3111 41.8922 13.6549L44.6852 10.8601C45.0137 10.5332 45.4583 10.3496 45.9218 10.3496C46.3853 10.3496 46.8299 10.5314 47.1584 10.8583Z" fill="white" stroke="black" stroke-width="3" stroke-linecap="round" stroke-linejoin="round"/>
<rect x="24" y="37.8286" width="4" height="1" rx="0.5" transform="rotate(-45 24 37.8286)" fill="white"/>
<path d="M0.0880682 63V54.2727H3.1392C3.74716 54.2727 4.24858 54.3778 4.64347 54.5881C5.03835 54.7955 5.33239 55.0753 5.52557 55.4276C5.71875 55.777 5.81534 56.1648 5.81534 56.5909C5.81534 56.9659 5.74858 57.2756 5.61506 57.5199C5.48438 57.7642 5.31108 57.9574 5.09517 58.0994C4.8821 58.2415 4.65057 58.3466 4.40057 58.4148V58.5C4.66761 58.517 4.93608 58.6108 5.20597 58.7812C5.47585 58.9517 5.7017 59.196 5.88352 59.5142C6.06534 59.8324 6.15625 60.2216 6.15625 60.6818C6.15625 61.1193 6.05682 61.5128 5.85795 61.8622C5.65909 62.2116 5.34517 62.4886 4.91619 62.6932C4.48722 62.8977 3.92898 63 3.24148 63H0.0880682ZM1.14489 62.0625H3.24148C3.93182 62.0625 4.42188 61.929 4.71165 61.6619C5.00426 61.392 5.15057 61.0653 5.15057 60.6818C5.15057 60.3864 5.07528 60.1136 4.92472 59.8636C4.77415 59.6108 4.55966 59.4091 4.28125 59.2585C4.00284 59.1051 3.6733 59.0284 3.29261 59.0284H1.14489V62.0625ZM1.14489 58.108H3.10511C3.4233 58.108 3.71023 58.0455 3.96591 57.9205C4.22443 57.7955 4.42898 57.6193 4.57955 57.392C4.73295 57.1648 4.80966 56.8977 4.80966 56.5909C4.80966 56.2074 4.67614 55.8821 4.40909 55.6151C4.14205 55.3452 3.71875 55.2102 3.1392 55.2102H1.14489V58.108ZM10.4155 63.1364C9.82457 63.1364 9.30611 62.9957 8.86009 62.7145C8.4169 62.4332 8.07031 62.0398 7.82031 61.5341C7.57315 61.0284 7.44957 60.4375 7.44957 59.7614C7.44957 59.0795 7.57315 58.4844 7.82031 57.9759C8.07031 57.4673 8.4169 57.0724 8.86009 56.7912C9.30611 56.5099 9.82457 56.3693 10.4155 56.3693C11.0064 56.3693 11.5234 56.5099 11.9666 56.7912C12.4126 57.0724 12.7592 57.4673 13.0064 57.9759C13.2564 58.4844 13.3814 59.0795 13.3814 59.7614C13.3814 60.4375 13.2564 61.0284 13.0064 61.5341C12.7592 62.0398 12.4126 62.4332 11.9666 62.7145C11.5234 62.9957 11.0064 63.1364 10.4155 63.1364ZM10.4155 62.233C10.8643 62.233 11.2337 62.1179 11.5234 61.8878C11.8132 61.6577 12.0277 61.3551 12.1669 60.9801C12.3061 60.6051 12.3757 60.1989 12.3757 59.7614C12.3757 59.3239 12.3061 58.9162 12.1669 58.5384C12.0277 58.1605 11.8132 57.8551 11.5234 57.6222C11.2337 57.3892 10.8643 57.2727 10.4155 57.2727C9.96662 57.2727 9.5973 57.3892 9.30753 57.6222C9.01776 57.8551 8.80327 58.1605 8.66406 58.5384C8.52486 58.9162 8.45526 59.3239 8.45526 59.7614C8.45526 60.1989 8.52486 60.6051 8.66406 60.9801C8.80327 61.3551 9.01776 61.6577 9.30753 61.8878C9.5973 62.1179 9.96662 62.233 10.4155 62.233ZM17.7631 56.4545V57.3068H14.3711V56.4545H17.7631ZM15.3597 54.8864H16.3654V61.125C16.3654 61.4091 16.4066 61.6222 16.489 61.7642C16.5742 61.9034 16.6822 61.9972 16.8129 62.0455C16.9464 62.0909 17.087 62.1136 17.2347 62.1136C17.3455 62.1136 17.4364 62.108 17.5075 62.0966C17.5785 62.0824 17.6353 62.071 17.6779 62.0625L17.8825 62.9659C17.8143 62.9915 17.7191 63.017 17.5969 63.0426C17.4748 63.071 17.32 63.0852 17.1325 63.0852C16.8484 63.0852 16.57 63.0241 16.2972 62.902C16.0273 62.7798 15.8029 62.5938 15.6239 62.3438C15.4478 62.0938 15.3597 61.7784 15.3597 61.3977V54.8864ZM22.1225 56.4545V57.3068H18.7305V56.4545H22.1225ZM19.7191 54.8864H20.7248V61.125C20.7248 61.4091 20.766 61.6222 20.8484 61.7642C20.9336 61.9034 21.0415 61.9972 21.1722 62.0455C21.3058 62.0909 21.4464 62.1136 21.5941 62.1136C21.7049 62.1136 21.7958 62.108 21.8668 62.0966C21.9379 62.0824 21.9947 62.071 22.0373 62.0625L22.2418 62.9659C22.1737 62.9915 22.0785 63.017 21.9563 63.0426C21.8342 63.071 21.6793 63.0852 21.4918 63.0852C21.2077 63.0852 20.9293 63.0241 20.6566 62.902C20.3867 62.7798 20.1623 62.5938 19.9833 62.3438C19.8072 62.0938 19.7191 61.7784 19.7191 61.3977V54.8864ZM24.7816 54.2727V63H23.7759V54.2727H24.7816ZM29.3679 63.1364C28.7372 63.1364 28.1932 62.9972 27.7358 62.7188C27.2812 62.4375 26.9304 62.0455 26.6832 61.5426C26.4389 61.0369 26.3168 60.4489 26.3168 59.7784C26.3168 59.108 26.4389 58.517 26.6832 58.0057C26.9304 57.4915 27.2741 57.0909 27.7145 56.804C28.1577 56.5142 28.6747 56.3693 29.2656 56.3693C29.6065 56.3693 29.9432 56.4261 30.2756 56.5398C30.608 56.6534 30.9105 56.8381 31.1832 57.0938C31.456 57.3466 31.6733 57.6818 31.8352 58.0994C31.9972 58.517 32.0781 59.0312 32.0781 59.642V60.0682H27.0327V59.1989H31.0554C31.0554 58.8295 30.9815 58.5 30.8338 58.2102C30.6889 57.9205 30.4815 57.6918 30.2116 57.5241C29.9446 57.3565 29.6293 57.2727 29.2656 57.2727C28.8651 57.2727 28.5185 57.3722 28.2259 57.571C27.9361 57.767 27.7131 58.0227 27.5568 58.3381C27.4006 58.6534 27.3224 58.9915 27.3224 59.3523V59.9318C27.3224 60.4261 27.4077 60.8452 27.5781 61.1889C27.7514 61.5298 27.9915 61.7898 28.2983 61.9688C28.6051 62.1449 28.9616 62.233 29.3679 62.233C29.6321 62.233 29.8707 62.196 30.0838 62.1222C30.2997 62.0455 30.4858 61.9318 30.642 61.7812C30.7983 61.6278 30.919 61.4375 31.0043 61.2102L31.9759 61.483C31.8736 61.8125 31.7017 62.1023 31.4602 62.3523C31.2188 62.5994 30.9205 62.7926 30.5653 62.9318C30.2102 63.0682 29.8111 63.1364 29.3679 63.1364ZM44.483 58.6364C44.483 59.5568 44.3168 60.3523 43.9844 61.0227C43.652 61.6932 43.196 62.2102 42.6165 62.5739C42.0369 62.9375 41.375 63.1193 40.6307 63.1193C39.8864 63.1193 39.2244 62.9375 38.6449 62.5739C38.0653 62.2102 37.6094 61.6932 37.277 61.0227C36.9446 60.3523 36.7784 59.5568 36.7784 58.6364C36.7784 57.7159 36.9446 56.9205 37.277 56.25C37.6094 55.5795 38.0653 55.0625 38.6449 54.6989C39.2244 54.3352 39.8864 54.1534 40.6307 54.1534C41.375 54.1534 42.0369 54.3352 42.6165 54.6989C43.196 55.0625 43.652 55.5795 43.9844 56.25C44.3168 56.9205 44.483 57.7159 44.483 58.6364ZM43.4602 58.6364C43.4602 57.8807 43.3338 57.2429 43.081 56.723C42.831 56.2031 42.4915 55.8097 42.0625 55.5426C41.6364 55.2756 41.1591 55.142 40.6307 55.142C40.1023 55.142 39.6236 55.2756 39.1946 55.5426C38.7685 55.8097 38.429 56.2031 38.1761 56.723C37.9261 57.2429 37.8011 57.8807 37.8011 58.6364C37.8011 59.392 37.9261 60.0298 38.1761 60.5497C38.429 61.0696 38.7685 61.4631 39.1946 61.7301C39.6236 61.9972 40.1023 62.1307 40.6307 62.1307C41.1591 62.1307 41.6364 61.9972 42.0625 61.7301C42.4915 61.4631 42.831 61.0696 43.081 60.5497C43.3338 60.0298 43.4602 59.392 43.4602 58.6364ZM46.1236 65.4545V56.4545H47.0952V57.4943H47.2145C47.2884 57.3807 47.3906 57.2358 47.5213 57.0597C47.6548 56.8807 47.8452 56.7216 48.0923 56.5824C48.3423 56.4403 48.6804 56.3693 49.1065 56.3693C49.6577 56.3693 50.1435 56.5071 50.5639 56.7827C50.9844 57.0582 51.3125 57.4489 51.5483 57.9545C51.7841 58.4602 51.902 59.0568 51.902 59.7443C51.902 60.4375 51.7841 61.0384 51.5483 61.5469C51.3125 62.0526 50.9858 62.4446 50.5682 62.723C50.1506 62.9986 49.669 63.1364 49.1236 63.1364C48.7031 63.1364 48.3665 63.0668 48.1136 62.9276C47.8608 62.7855 47.6662 62.625 47.5298 62.446C47.3935 62.2642 47.2884 62.1136 47.2145 61.9943H47.1293V65.4545H46.1236ZM47.1122 59.7273C47.1122 60.2216 47.1847 60.6577 47.3295 61.0355C47.4744 61.4105 47.6861 61.7045 47.9645 61.9176C48.2429 62.1278 48.5838 62.233 48.9872 62.233C49.4077 62.233 49.7585 62.1222 50.0398 61.9006C50.3239 61.6761 50.5369 61.375 50.679 60.9972C50.8239 60.6165 50.8963 60.1932 50.8963 59.7273C50.8963 59.267 50.8253 58.8523 50.6832 58.483C50.544 58.1108 50.3324 57.8168 50.0483 57.6009C49.767 57.3821 49.4134 57.2727 48.9872 57.2727C48.5781 57.2727 48.2344 57.3764 47.956 57.5838C47.6776 57.7884 47.4673 58.0753 47.3253 58.4446C47.1832 58.8111 47.1122 59.2386 47.1122 59.7273ZM56.1804 63.1364C55.5497 63.1364 55.0057 62.9972 54.5483 62.7188C54.0938 62.4375 53.7429 62.0455 53.4957 61.5426C53.2514 61.0369 53.1293 60.4489 53.1293 59.7784C53.1293 59.108 53.2514 58.517 53.4957 58.0057C53.7429 57.4915 54.0866 57.0909 54.527 56.804C54.9702 56.5142 55.4872 56.3693 56.0781 56.3693C56.419 56.3693 56.7557 56.4261 57.0881 56.5398C57.4205 56.6534 57.723 56.8381 57.9957 57.0938C58.2685 57.3466 58.4858 57.6818 58.6477 58.0994C58.8097 58.517 58.8906 59.0312 58.8906 59.642V60.0682H53.8452V59.1989H57.8679C57.8679 58.8295 57.794 58.5 57.6463 58.2102C57.5014 57.9205 57.294 57.6918 57.0241 57.5241C56.7571 57.3565 56.4418 57.2727 56.0781 57.2727C55.6776 57.2727 55.331 57.3722 55.0384 57.571C54.7486 57.767 54.5256 58.0227 54.3693 58.3381C54.2131 58.6534 54.1349 58.9915 54.1349 59.3523V59.9318C54.1349 60.4261 54.2202 60.8452 54.3906 61.1889C54.5639 61.5298 54.804 61.7898 55.1108 61.9688C55.4176 62.1449 55.7741 62.233 56.1804 62.233C56.4446 62.233 56.6832 62.196 56.8963 62.1222C57.1122 62.0455 57.2983 61.9318 57.4545 61.7812C57.6108 61.6278 57.7315 61.4375 57.8168 61.2102L58.7884 61.483C58.6861 61.8125 58.5142 62.1023 58.2727 62.3523C58.0313 62.5994 57.733 62.7926 57.3778 62.9318C57.0227 63.0682 56.6236 63.1364 56.1804 63.1364ZM61.4261 59.0625V63H60.4205V56.4545H61.392V57.4773H61.4773C61.6307 57.1449 61.8636 56.8778 62.1761 56.6761C62.4886 56.4716 62.892 56.3693 63.3864 56.3693C63.8295 56.3693 64.2173 56.4602 64.5497 56.642C64.8821 56.821 65.1406 57.0938 65.3253 57.4602C65.5099 57.8239 65.6023 58.2841 65.6023 58.8409V63H64.5966V58.9091C64.5966 58.3949 64.4631 57.9943 64.196 57.7074C63.929 57.4176 63.5625 57.2727 63.0966 57.2727C62.7756 57.2727 62.4886 57.3423 62.2358 57.4815C61.9858 57.6207 61.7884 57.8239 61.6435 58.0909C61.4986 58.358 61.4261 58.6818 61.4261 59.0625ZM70.1843 63.1364C69.5536 63.1364 69.0096 62.9972 68.5522 62.7188C68.0977 62.4375 67.7468 62.0455 67.4996 61.5426C67.2553 61.0369 67.1332 60.4489 67.1332 59.7784C67.1332 59.108 67.2553 58.517 67.4996 58.0057C67.7468 57.4915 68.0906 57.0909 68.5309 56.804C68.9741 56.5142 69.4911 56.3693 70.082 56.3693C70.4229 56.3693 70.7596 56.4261 71.092 56.5398C71.4244 56.6534 71.7269 56.8381 71.9996 57.0938C72.2724 57.3466 72.4897 57.6818 72.6516 58.0994C72.8136 58.517 72.8945 59.0312 72.8945 59.642V60.0682H67.8491V59.1989H71.8718C71.8718 58.8295 71.7979 58.5 71.6502 58.2102C71.5053 57.9205 71.2979 57.6918 71.0281 57.5241C70.761 57.3565 70.4457 57.2727 70.082 57.2727C69.6815 57.2727 69.3349 57.3722 69.0423 57.571C68.7525 57.767 68.5295 58.0227 68.3732 58.3381C68.217 58.6534 68.1388 58.9915 68.1388 59.3523V59.9318C68.1388 60.4261 68.2241 60.8452 68.3945 61.1889C68.5678 61.5298 68.8079 61.7898 69.1147 61.9688C69.4215 62.1449 69.7781 62.233 70.1843 62.233C70.4485 62.233 70.6871 62.196 70.9002 62.1222C71.1161 62.0455 71.3022 61.9318 71.4585 61.7812C71.6147 61.6278 71.7354 61.4375 71.8207 61.2102L72.7923 61.483C72.69 61.8125 72.5181 62.1023 72.2766 62.3523C72.0352 62.5994 71.7369 62.7926 71.3817 62.9318C71.0266 63.0682 70.6275 63.1364 70.1843 63.1364ZM74.4244 63V56.4545H75.396V57.4432H75.4641C75.5835 57.1193 75.7994 56.8565 76.1119 56.6548C76.4244 56.4531 76.7766 56.3523 77.1687 56.3523C77.2425 56.3523 77.3349 56.3537 77.4457 56.3565C77.5565 56.3594 77.6403 56.3636 77.6971 56.3693V57.392C77.663 57.3835 77.5849 57.3707 77.4627 57.3537C77.3434 57.3338 77.217 57.3239 77.0835 57.3239C76.7653 57.3239 76.4812 57.3906 76.2312 57.5241C75.984 57.6548 75.788 57.8366 75.6431 58.0696C75.5011 58.2997 75.43 58.5625 75.43 58.858V63H74.4244Z" fill="black"/>
</svg>
