<svg width="60" height="66" viewBox="0 0 60 66" fill="none" xmlns="http://www.w3.org/2000/svg">
<path d="M49.4225 5.279L48.4912 7.14359C47.7575 8.61514 46.9032 10.0234 45.9371 11.354C47.7662 13.6478 48.7662 16.2582 48.6725 19.0519C48.5621 22.3936 46.8975 25.6269 43.9704 28.554C43.7371 28.754 43.4975 28.9457 43.2725 29.1582C42.9538 29.4561 42.5225 29.9082 42.0892 30.4978C41.2225 31.679 40.41 33.3394 40.4142 35.4103C40.4225 38.9228 39.81 41.8998 37.2933 44.4165C32.2975 49.4144 24.1537 49.3498 19.2225 44.4165C17.7808 42.9748 16.3121 41.5623 15.6704 39.3248C13.435 38.6832 12.0204 37.2144 10.5788 35.7728C5.64542 30.8394 5.58083 22.6978 10.5788 17.6998C13.0975 15.1873 16.0746 14.5769 19.5871 14.5832C21.6579 14.5873 23.3162 13.7748 24.4996 12.9082C25.0892 12.4748 25.5413 12.0436 25.8392 11.7248C26.0517 11.4998 26.2433 11.2603 26.4433 11.0269C29.3288 8.13942 32.4642 6.38317 35.7308 6.17484C38.3162 6.01025 40.735 6.83109 42.9079 8.42692C43.6121 7.40609 44.2142 6.37692 44.7642 5.28109L45.6954 3.4165L49.4225 5.279Z" fill="black"/>
<path d="M18.1779 63V54.2727H21.1268C21.8114 54.2727 22.3711 54.3963 22.8058 54.6435C23.2433 54.8878 23.5671 55.2188 23.7773 55.6364C23.9876 56.054 24.0927 56.5199 24.0927 57.0341C24.0927 57.5483 23.9876 58.0156 23.7773 58.4361C23.57 58.8565 23.2489 59.1918 22.8143 59.4418C22.3796 59.6889 21.8228 59.8125 21.1438 59.8125H19.0302V58.875H21.1097C21.5785 58.875 21.9549 58.794 22.239 58.6321C22.5231 58.4702 22.729 58.2514 22.8569 57.9759C22.9876 57.6974 23.0529 57.3835 23.0529 57.0341C23.0529 56.6847 22.9876 56.3722 22.8569 56.0966C22.729 55.821 22.5217 55.6051 22.2347 55.4489C21.9478 55.2898 21.5671 55.2102 21.0927 55.2102H19.2347V63H18.1779ZM28.3327 63.1364C27.7021 63.1364 27.158 62.9972 26.7006 62.7188C26.2461 62.4375 25.8952 62.0455 25.6481 61.5426C25.4038 61.0369 25.2816 60.4489 25.2816 59.7784C25.2816 59.108 25.4038 58.517 25.6481 58.0057C25.8952 57.4915 26.239 57.0909 26.6793 56.804C27.1225 56.5142 27.6396 56.3693 28.2305 56.3693C28.5714 56.3693 28.908 56.4261 29.2404 56.5398C29.5728 56.6534 29.8754 56.8381 30.1481 57.0938C30.4208 57.3466 30.6381 57.6818 30.8001 58.0994C30.962 58.517 31.043 59.0312 31.043 59.642V60.0682H25.9975V59.1989H30.0202C30.0202 58.8295 29.9464 58.5 29.7987 58.2102C29.6538 57.9205 29.4464 57.6918 29.1765 57.5241C28.9094 57.3565 28.5941 57.2727 28.2305 57.2727C27.8299 57.2727 27.4833 57.3722 27.1907 57.571C26.9009 57.767 26.6779 58.0227 26.5217 58.3381C26.3654 58.6534 26.2873 58.9915 26.2873 59.3523V59.9318C26.2873 60.4261 26.3725 60.8452 26.543 61.1889C26.7163 61.5298 26.9563 61.7898 27.2631 61.9688C27.57 62.1449 27.9265 62.233 28.3327 62.233C28.5969 62.233 28.8356 62.196 29.0487 62.1222C29.2646 62.0455 29.4506 61.9318 29.6069 61.7812C29.7631 61.6278 29.8839 61.4375 29.9691 61.2102L30.9407 61.483C30.8384 61.8125 30.6665 62.1023 30.4251 62.3523C30.1836 62.5994 29.8853 62.7926 29.5302 62.9318C29.1751 63.0682 28.7759 63.1364 28.3327 63.1364ZM34.4989 63.1534C34.0842 63.1534 33.7077 63.0753 33.3697 62.919C33.0316 62.7599 32.7631 62.5312 32.5643 62.233C32.3654 61.9318 32.266 61.5682 32.266 61.142C32.266 60.767 32.3398 60.4631 32.4876 60.2301C32.6353 59.9943 32.8327 59.8097 33.0799 59.6761C33.3271 59.5426 33.5998 59.4432 33.8981 59.3778C34.1992 59.3097 34.5018 59.2557 34.8058 59.2159C35.2035 59.1648 35.5259 59.1264 35.7731 59.1009C36.0231 59.0724 36.2049 59.0256 36.3185 58.9602C36.435 58.8949 36.4933 58.7812 36.4933 58.6193V58.5852C36.4933 58.1648 36.3782 57.8381 36.1481 57.6051C35.9208 57.3722 35.5756 57.2557 35.1126 57.2557C34.6325 57.2557 34.256 57.3608 33.9833 57.571C33.7106 57.7812 33.5188 58.0057 33.408 58.2443L32.4535 57.9034C32.6239 57.5057 32.8512 57.196 33.1353 56.9744C33.4222 56.75 33.7347 56.5937 34.0728 56.5057C34.4137 56.4148 34.7489 56.3693 35.0785 56.3693C35.2887 56.3693 35.5302 56.3949 35.8029 56.446C36.0785 56.4943 36.3441 56.5952 36.5998 56.7486C36.8583 56.902 37.0728 57.1335 37.2433 57.4432C37.4137 57.7528 37.4989 58.1676 37.4989 58.6875V63H36.4933V62.1136H36.4421C36.3739 62.2557 36.2603 62.4077 36.1012 62.5696C35.9421 62.7315 35.7305 62.8693 35.4663 62.983C35.2021 63.0966 34.8796 63.1534 34.4989 63.1534ZM34.6523 62.25C35.0501 62.25 35.3853 62.1719 35.658 62.0156C35.9336 61.8594 36.141 61.6577 36.2802 61.4105C36.4222 61.1634 36.4933 60.9034 36.4933 60.6307V59.7102C36.4506 59.7614 36.3569 59.8082 36.212 59.8509C36.07 59.8906 35.9052 59.9261 35.7177 59.9574C35.533 59.9858 35.3526 60.0114 35.1765 60.0341C35.0032 60.054 34.8626 60.071 34.7546 60.0852C34.4933 60.1193 34.2489 60.1747 34.0217 60.2514C33.7972 60.3253 33.6154 60.4375 33.4762 60.5881C33.3398 60.7358 33.2717 60.9375 33.2717 61.1932C33.2717 61.5426 33.4009 61.8068 33.6594 61.9858C33.9208 62.1619 34.2518 62.25 34.6523 62.25ZM39.3345 63V56.4545H40.3061V57.4432H40.3743C40.4936 57.1193 40.7095 56.8565 41.022 56.6548C41.3345 56.4531 41.6868 56.3523 42.0788 56.3523C42.1527 56.3523 42.245 56.3537 42.3558 56.3565C42.4666 56.3594 42.5504 56.3636 42.6072 56.3693V57.392C42.5732 57.3835 42.495 57.3707 42.3729 57.3537C42.2536 57.3338 42.1271 57.3239 41.9936 57.3239C41.6754 57.3239 41.3913 57.3906 41.1413 57.5241C40.8942 57.6548 40.6982 57.8366 40.5533 58.0696C40.4112 58.2997 40.3402 58.5625 40.3402 58.858V63H39.3345Z" fill="black"/>
</svg>
