<svg width="57" height="72" viewBox="0 0 57 72" fill="none" xmlns="http://www.w3.org/2000/svg">
<path d="M43.6787 7.8125C43.6774 6.56969 43.1831 5.37816 42.3043 4.49936C41.4256 3.62057 40.234 3.12629 38.9912 3.125H17.1162C15.8734 3.12629 14.6819 3.62057 13.8031 4.49936C12.9243 5.37816 12.43 6.56969 12.4287 7.8125V42.1875C12.43 43.4303 12.9243 44.6218 13.8031 45.5006C14.6819 46.3794 15.8734 46.8737 17.1162 46.875H38.9912C40.234 46.8737 41.4256 46.3794 42.3043 45.5006C43.1831 44.6218 43.6774 43.4303 43.6787 42.1875V7.8125ZM19.46 42.1875C18.9964 42.1875 18.5433 42.05 18.1578 41.7925C17.7724 41.535 17.472 41.1689 17.2946 40.7407C17.1172 40.3124 17.0708 39.8412 17.1612 39.3865C17.2517 38.9319 17.4749 38.5142 17.8027 38.1865C18.1305 37.8587 18.5481 37.6355 19.0027 37.545C19.4574 37.4546 19.9286 37.501 20.3569 37.6784C20.7851 37.8558 21.1512 38.1562 21.4087 38.5416C21.6663 38.9271 21.8037 39.3802 21.8037 39.8438C21.8037 40.4654 21.5568 41.0615 21.1172 41.501C20.6777 41.9406 20.0816 42.1875 19.46 42.1875ZM19.46 34.375C18.9964 34.375 18.5433 34.2375 18.1578 33.98C17.7724 33.7225 17.472 33.3564 17.2946 32.9282C17.1172 32.4999 17.0708 32.0287 17.1612 31.574C17.2517 31.1194 17.4749 30.7017 17.8027 30.374C18.1305 30.0462 18.5481 29.823 19.0027 29.7325C19.4574 29.6421 19.9286 29.6885 20.3569 29.8659C20.7851 30.0433 21.1512 30.3437 21.4087 30.7291C21.6663 31.1146 21.8037 31.5677 21.8037 32.0312C21.8037 32.6529 21.5568 33.249 21.1172 33.6885C20.6777 34.1281 20.0816 34.375 19.46 34.375ZM19.46 26.5625C18.9964 26.5625 18.5433 26.425 18.1578 26.1675C17.7724 25.91 17.472 25.5439 17.2946 25.1157C17.1172 24.6874 17.0708 24.2162 17.1612 23.7615C17.2517 23.3069 17.4749 22.8892 17.8027 22.5615C18.1305 22.2337 18.5481 22.0105 19.0027 21.92C19.4574 21.8296 19.9286 21.876 20.3569 22.0534C20.7851 22.2308 21.1512 22.5312 21.4087 22.9166C21.6663 23.3021 21.8037 23.7552 21.8037 24.2188C21.8037 24.8404 21.5568 25.4365 21.1172 25.876C20.6777 26.3156 20.0816 26.5625 19.46 26.5625ZM28.0537 42.1875C27.5902 42.1875 27.137 42.05 26.7516 41.7925C26.3662 41.535 26.0658 41.1689 25.8884 40.7407C25.711 40.3124 25.6646 39.8412 25.755 39.3865C25.8454 38.9319 26.0687 38.5142 26.3964 38.1865C26.7242 37.8587 27.1418 37.6355 27.5965 37.545C28.0511 37.4546 28.5224 37.501 28.9506 37.6784C29.3789 37.8558 29.7449 38.1562 30.0025 38.5416C30.26 38.9271 30.3975 39.3802 30.3975 39.8438C30.3975 40.4654 30.1505 41.0615 29.711 41.501C29.2715 41.9406 28.6753 42.1875 28.0537 42.1875ZM28.0537 34.375C27.5902 34.375 27.137 34.2375 26.7516 33.98C26.3662 33.7225 26.0658 33.3564 25.8884 32.9282C25.711 32.4999 25.6646 32.0287 25.755 31.574C25.8454 31.1194 26.0687 30.7017 26.3964 30.374C26.7242 30.0462 27.1418 29.823 27.5965 29.7325C28.0511 29.6421 28.5224 29.6885 28.9506 29.8659C29.3789 30.0433 29.7449 30.3437 30.0025 30.7291C30.26 31.1146 30.3975 31.5677 30.3975 32.0312C30.3975 32.6529 30.1505 33.249 29.711 33.6885C29.2715 34.1281 28.6753 34.375 28.0537 34.375ZM28.0537 26.5625C27.5902 26.5625 27.137 26.425 26.7516 26.1675C26.3662 25.91 26.0658 25.5439 25.8884 25.1157C25.711 24.6874 25.6646 24.2162 25.755 23.7615C25.8454 23.3069 26.0687 22.8892 26.3964 22.5615C26.7242 22.2337 27.1418 22.0105 27.5965 21.92C28.0511 21.8296 28.5224 21.876 28.9506 22.0534C29.3789 22.2308 29.7449 22.5312 30.0025 22.9166C30.26 23.3021 30.3975 23.7552 30.3975 24.2188C30.3975 24.8404 30.1505 25.4365 29.711 25.876C29.2715 26.3156 28.6753 26.5625 28.0537 26.5625ZM38.9912 39.8438C38.9912 40.4654 38.7443 41.0615 38.3047 41.501C37.8652 41.9406 37.2691 42.1875 36.6475 42.1875C36.0259 42.1875 35.4297 41.9406 34.9902 41.501C34.5506 41.0615 34.3037 40.4654 34.3037 39.8438V32.0312C34.3037 31.4096 34.5506 30.8135 34.9902 30.374C35.4297 29.9344 36.0259 29.6875 36.6475 29.6875C37.2691 29.6875 37.8652 29.9344 38.3047 30.374C38.7443 30.8135 38.9912 31.4096 38.9912 32.0312V39.8438ZM36.6475 26.5625C36.1839 26.5625 35.7308 26.425 35.3453 26.1675C34.9599 25.91 34.6595 25.5439 34.4821 25.1157C34.3047 24.6874 34.2583 24.2162 34.3487 23.7615C34.4392 23.3069 34.6624 22.8892 34.9902 22.5615C35.318 22.2337 35.7356 22.0105 36.1902 21.92C36.6449 21.8296 37.1161 21.876 37.5444 22.0534C37.9726 22.2308 38.3387 22.5312 38.5962 22.9166C38.8538 23.3021 38.9912 23.7552 38.9912 24.2188C38.9912 24.8404 38.7443 25.4365 38.3047 25.876C37.8652 26.3156 37.2691 26.5625 36.6475 26.5625ZM38.5332 16.7295C38.2403 17.0226 37.843 17.1873 37.4287 17.1875H18.6787C18.2643 17.1875 17.8669 17.0229 17.5739 16.7299C17.2808 16.4368 17.1162 16.0394 17.1162 15.625V9.375C17.1162 8.9606 17.2808 8.56317 17.5739 8.27015C17.8669 7.97712 18.2643 7.8125 18.6787 7.8125H37.4287C37.8431 7.8125 38.2405 7.97712 38.5336 8.27015C38.8266 8.56317 38.9912 8.9606 38.9912 9.375V15.625C38.991 16.0393 38.8263 16.4366 38.5332 16.7295Z" fill="black"/>
<path d="M7.36373 63H6.30691C6.24441 62.696 6.13503 62.429 5.97878 62.1989C5.82537 61.9688 5.63787 61.7756 5.41628 61.6193C5.19753 61.4602 4.95463 61.3409 4.68759 61.2614C4.42054 61.1818 4.14213 61.142 3.85236 61.142C3.32395 61.142 2.84526 61.2756 2.41628 61.5426C1.99015 61.8097 1.65066 62.2031 1.39782 62.723C1.14782 63.2429 1.02282 63.8807 1.02282 64.6364C1.02282 65.392 1.14782 66.0298 1.39782 66.5497C1.65066 67.0696 1.99015 67.4631 2.41628 67.7301C2.84526 67.9972 3.32395 68.1307 3.85236 68.1307C4.14213 68.1307 4.42054 68.0909 4.68759 68.0114C4.95463 67.9318 5.19753 67.8139 5.41628 67.6577C5.63787 67.4986 5.82537 67.304 5.97878 67.0739C6.13503 66.8409 6.24441 66.5739 6.30691 66.2727H7.36373C7.28418 66.7187 7.13929 67.1179 6.92907 67.4702C6.71884 67.8224 6.45748 68.1222 6.14498 68.3693C5.83248 68.6136 5.48162 68.7997 5.09242 68.9276C4.70605 69.0554 4.2927 69.1193 3.85236 69.1193C3.10804 69.1193 2.44611 68.9375 1.86657 68.5739C1.28702 68.2102 0.831055 67.6932 0.498668 67.0227C0.166282 66.3523 8.88109e-05 65.5568 8.88109e-05 64.6364C8.88109e-05 63.7159 0.166282 62.9205 0.498668 62.25C0.831055 61.5795 1.28702 61.0625 1.86657 60.6989C2.44611 60.3352 3.10804 60.1534 3.85236 60.1534C4.2927 60.1534 4.70605 60.2173 5.09242 60.3452C5.48162 60.473 5.83248 60.6605 6.14498 60.9077C6.45748 61.152 6.71884 61.4503 6.92907 61.8026C7.13929 62.152 7.28418 62.5511 7.36373 63ZM10.8612 69.1534C10.4465 69.1534 10.07 69.0753 9.73198 68.919C9.39391 68.7599 9.12544 68.5312 8.92658 68.233C8.72772 67.9318 8.62828 67.5682 8.62828 67.142C8.62828 66.767 8.70215 66.4631 8.84988 66.2301C8.9976 65.9943 9.19505 65.8097 9.44221 65.6761C9.68936 65.5426 9.96209 65.4432 10.2604 65.3778C10.5615 65.3097 10.8641 65.2557 11.1681 65.2159C11.5658 65.1648 11.8882 65.1264 12.1354 65.1009C12.3854 65.0724 12.5672 65.0256 12.6808 64.9602C12.7973 64.8949 12.8556 64.7812 12.8556 64.6193V64.5852C12.8556 64.1648 12.7405 63.8381 12.5104 63.6051C12.2831 63.3722 11.9379 63.2557 11.4749 63.2557C10.9948 63.2557 10.6183 63.3608 10.3456 63.571C10.0729 63.7812 9.88113 64.0057 9.77033 64.2443L8.81578 63.9034C8.98624 63.5057 9.21351 63.196 9.4976 62.9744C9.78453 62.75 10.097 62.5937 10.4351 62.5057C10.776 62.4148 11.1112 62.3693 11.4408 62.3693C11.651 62.3693 11.8925 62.3949 12.1652 62.446C12.4408 62.4943 12.7064 62.5952 12.9621 62.7486C13.2206 62.902 13.4351 63.1335 13.6056 63.4432C13.776 63.7528 13.8612 64.1676 13.8612 64.6875V69H12.8556V68.1136H12.8044C12.7362 68.2557 12.6226 68.4077 12.4635 68.5696C12.3044 68.7315 12.0928 68.8693 11.8286 68.983C11.5644 69.0966 11.2419 69.1534 10.8612 69.1534ZM11.0146 68.25C11.4124 68.25 11.7476 68.1719 12.0203 68.0156C12.2959 67.8594 12.5033 67.6577 12.6425 67.4105C12.7845 67.1634 12.8556 66.9034 12.8556 66.6307V65.7102C12.8129 65.7614 12.7192 65.8082 12.5743 65.8509C12.4323 65.8906 12.2675 65.9261 12.08 65.9574C11.8953 65.9858 11.7149 66.0114 11.5388 66.0341C11.3655 66.054 11.2249 66.071 11.1169 66.0852C10.8556 66.1193 10.6112 66.1747 10.384 66.2514C10.1595 66.3253 9.97772 66.4375 9.83851 66.5881C9.70215 66.7358 9.63397 66.9375 9.63397 67.1932C9.63397 67.5426 9.76323 67.8068 10.0218 67.9858C10.2831 68.1619 10.6141 68.25 11.0146 68.25ZM16.7025 60.2727V69H15.6968V60.2727H16.7025ZM21.2036 69.1364C20.5899 69.1364 20.0615 68.9915 19.6183 68.7017C19.1752 68.4119 18.8343 68.0128 18.5956 67.5043C18.357 66.9957 18.2377 66.4148 18.2377 65.7614C18.2377 65.0966 18.3598 64.5099 18.6041 64.0014C18.8513 63.4901 19.195 63.0909 19.6354 62.804C20.0786 62.5142 20.5956 62.3693 21.1865 62.3693C21.6468 62.3693 22.0615 62.4545 22.4308 62.625C22.8002 62.7955 23.1027 63.0341 23.3385 63.3409C23.5743 63.6477 23.7206 64.0057 23.7774 64.4148H22.7718C22.695 64.1165 22.5246 63.8523 22.2604 63.6222C21.999 63.3892 21.6468 63.2727 21.2036 63.2727C20.8115 63.2727 20.4678 63.375 20.1723 63.5795C19.8797 63.7812 19.651 64.0668 19.4862 64.4361C19.3243 64.8026 19.2433 65.233 19.2433 65.7273C19.2433 66.233 19.3229 66.6733 19.482 67.0483C19.6439 67.4233 19.8712 67.7145 20.1638 67.9219C20.4593 68.1293 20.8058 68.233 21.2036 68.233C21.4649 68.233 21.7021 68.1875 21.9152 68.0966C22.1283 68.0057 22.3087 67.875 22.4564 67.7045C22.6041 67.5341 22.7093 67.3295 22.7718 67.0909H23.7774C23.7206 67.4773 23.58 67.8253 23.3556 68.1349C23.134 68.4418 22.8399 68.6861 22.4735 68.8679C22.1098 69.0469 21.6865 69.1364 21.2036 69.1364ZM29.3726 66.3239V62.4545H30.3783V69H29.3726V67.892H29.3044C29.151 68.2244 28.9124 68.5071 28.5885 68.7401C28.2646 68.9702 27.8556 69.0852 27.3612 69.0852C26.9521 69.0852 26.5885 68.9957 26.2703 68.8168C25.9521 68.6349 25.7021 68.3622 25.5203 67.9986C25.3385 67.6321 25.2476 67.1705 25.2476 66.6136V62.4545H26.2533V66.5455C26.2533 67.0227 26.3868 67.4034 26.6539 67.6875C26.9237 67.9716 27.2675 68.1136 27.6851 68.1136C27.9351 68.1136 28.1894 68.0497 28.4479 67.9219C28.7093 67.794 28.928 67.598 29.1041 67.3338C29.2831 67.0696 29.3726 66.733 29.3726 66.3239ZM33.2259 60.2727V69H32.2203V60.2727H33.2259ZM36.9941 69.1534C36.5793 69.1534 36.2029 69.0753 35.8648 68.919C35.5267 68.7599 35.2583 68.5312 35.0594 68.233C34.8605 67.9318 34.7611 67.5682 34.7611 67.142C34.7611 66.767 34.835 66.4631 34.9827 66.2301C35.1304 65.9943 35.3279 65.8097 35.575 65.6761C35.8222 65.5426 36.0949 65.4432 36.3932 65.3778C36.6943 65.3097 36.9969 65.2557 37.3009 65.2159C37.6986 65.1648 38.021 65.1264 38.2682 65.1009C38.5182 65.0724 38.7 65.0256 38.8137 64.9602C38.9301 64.8949 38.9884 64.7812 38.9884 64.6193V64.5852C38.9884 64.1648 38.8733 63.8381 38.6432 63.6051C38.4159 63.3722 38.0708 63.2557 37.6077 63.2557C37.1276 63.2557 36.7512 63.3608 36.4784 63.571C36.2057 63.7812 36.0139 64.0057 35.9031 64.2443L34.9486 63.9034C35.1191 63.5057 35.3463 63.196 35.6304 62.9744C35.9173 62.75 36.2298 62.5937 36.5679 62.5057C36.9088 62.4148 37.2441 62.3693 37.5736 62.3693C37.7838 62.3693 38.0253 62.3949 38.298 62.446C38.5736 62.4943 38.8392 62.5952 39.0949 62.7486C39.3534 62.902 39.5679 63.1335 39.7384 63.4432C39.9088 63.7528 39.9941 64.1676 39.9941 64.6875V69H38.9884V68.1136H38.9372C38.8691 68.2557 38.7554 68.4077 38.5963 68.5696C38.4372 68.7315 38.2256 68.8693 37.9614 68.983C37.6972 69.0966 37.3747 69.1534 36.9941 69.1534ZM37.1475 68.25C37.5452 68.25 37.8804 68.1719 38.1531 68.0156C38.4287 67.8594 38.6361 67.6577 38.7753 67.4105C38.9173 67.1634 38.9884 66.9034 38.9884 66.6307V65.7102C38.9458 65.7614 38.852 65.8082 38.7071 65.8509C38.5651 65.8906 38.4003 65.9261 38.2128 65.9574C38.0281 65.9858 37.8477 66.0114 37.6716 66.0341C37.4983 66.054 37.3577 66.071 37.2497 66.0852C36.9884 66.1193 36.7441 66.1747 36.5168 66.2514C36.2923 66.3253 36.1105 66.4375 35.9713 66.5881C35.835 66.7358 35.7668 66.9375 35.7668 67.1932C35.7668 67.5426 35.896 67.8068 36.1546 67.9858C36.4159 68.1619 36.7469 68.25 37.1475 68.25ZM44.6762 62.4545V63.3068H41.2842V62.4545H44.6762ZM42.2728 60.8864H43.2785V67.125C43.2785 67.4091 43.3197 67.6222 43.4021 67.7642C43.4873 67.9034 43.5953 67.9972 43.7259 68.0455C43.8595 68.0909 44.0001 68.1136 44.1478 68.1136C44.2586 68.1136 44.3495 68.108 44.4205 68.0966C44.4916 68.0824 44.5484 68.071 44.591 68.0625L44.7955 68.9659C44.7274 68.9915 44.6322 69.017 44.51 69.0426C44.3879 69.071 44.233 69.0852 44.0455 69.0852C43.7615 69.0852 43.483 69.0241 43.2103 68.902C42.9404 68.7798 42.716 68.5938 42.537 68.3438C42.3609 68.0938 42.2728 67.7784 42.2728 67.3977V60.8864ZM48.7778 69.1364C48.1869 69.1364 47.6684 68.9957 47.2224 68.7145C46.7792 68.4332 46.4326 68.0398 46.1826 67.5341C45.9355 67.0284 45.8119 66.4375 45.8119 65.7614C45.8119 65.0795 45.9355 64.4844 46.1826 63.9759C46.4326 63.4673 46.7792 63.0724 47.2224 62.7912C47.6684 62.5099 48.1869 62.3693 48.7778 62.3693C49.3687 62.3693 49.8857 62.5099 50.3289 62.7912C50.7749 63.0724 51.1215 63.4673 51.3687 63.9759C51.6187 64.4844 51.7437 65.0795 51.7437 65.7614C51.7437 66.4375 51.6187 67.0284 51.3687 67.5341C51.1215 68.0398 50.7749 68.4332 50.3289 68.7145C49.8857 68.9957 49.3687 69.1364 48.7778 69.1364ZM48.7778 68.233C49.2267 68.233 49.596 68.1179 49.8857 67.8878C50.1755 67.6577 50.39 67.3551 50.5292 66.9801C50.6684 66.6051 50.738 66.1989 50.738 65.7614C50.738 65.3239 50.6684 64.9162 50.5292 64.5384C50.39 64.1605 50.1755 63.8551 49.8857 63.6222C49.596 63.3892 49.2267 63.2727 48.7778 63.2727C48.3289 63.2727 47.9596 63.3892 47.6698 63.6222C47.3801 63.8551 47.1656 64.1605 47.0264 64.5384C46.8872 64.9162 46.8176 65.3239 46.8176 65.7614C46.8176 66.1989 46.8872 66.6051 47.0264 66.9801C47.1656 67.3551 47.3801 67.6577 47.6698 67.8878C47.9596 68.1179 48.3289 68.233 48.7778 68.233ZM53.2789 69V62.4545H54.2504V63.4432H54.3186C54.4379 63.1193 54.6539 62.8565 54.9664 62.6548C55.2789 62.4531 55.6311 62.3523 56.0232 62.3523C56.097 62.3523 56.1894 62.3537 56.3002 62.3565C56.411 62.3594 56.4948 62.3636 56.5516 62.3693V63.392C56.5175 63.3835 56.4394 63.3707 56.3172 63.3537C56.1979 63.3338 56.0715 63.3239 55.9379 63.3239C55.6198 63.3239 55.3357 63.3906 55.0857 63.5241C54.8385 63.6548 54.6425 63.8366 54.4976 64.0696C54.3556 64.2997 54.2845 64.5625 54.2845 64.858V69H53.2789Z" fill="black"/>
</svg>
