<svg width="41" height="71" viewBox="0 0 41 71" fill="none" xmlns="http://www.w3.org/2000/svg">
<path fill-rule="evenodd" clip-rule="evenodd" d="M18.6334 0.214126C18.311 0.055015 17.9614 -0.0170637 17.6111 0.00340186C17.2609 0.0238674 16.9194 0.136335 16.6126 0.332206C16.3059 0.528076 16.0421 0.802162 15.8415 1.13351C15.6408 1.46485 15.5085 1.84468 15.4548 2.24394C15.3914 2.84824 15.2224 3.43147 14.958 3.95843C14.728 4.39566 14.383 4.84349 13.7758 5.49536C12.5798 6.77261 11.8507 8.3016 11.6552 9.94984C11.4856 11.4667 11.7487 13.006 12.405 14.3354C13.5366 16.6859 15.832 18.5514 18.2769 18.5514C21.4555 18.5514 25.4 15.9916 25.4 11.1158C25.4 8.61694 24.4294 6.26913 23.2242 4.45926C22.0098 2.63878 20.3653 1.07004 18.6334 0.216777M11.6 21.2013C10.38 21.2013 9.20998 21.7597 8.34731 22.7536C7.48464 23.7475 7 25.0955 7 26.5011V47.7002C7 49.1058 7.48464 50.4538 8.34731 51.4477C9.20998 52.4416 10.38 53 11.6 53H25.4C26.62 53 27.79 52.4416 28.6527 51.4477C29.5154 50.4538 30 49.1058 30 47.7002V26.5011C30 25.0955 29.5154 23.7475 28.6527 22.7536C27.79 21.7597 26.62 21.2013 25.4 21.2013H11.6Z" fill="black"/>
<path d="M8.07955 62H7.02273C6.96023 61.696 6.85085 61.429 6.6946 61.1989C6.54119 60.9688 6.35369 60.7756 6.1321 60.6193C5.91335 60.4602 5.67045 60.3409 5.40341 60.2614C5.13636 60.1818 4.85795 60.142 4.56818 60.142C4.03977 60.142 3.56108 60.2756 3.1321 60.5426C2.70597 60.8097 2.36648 61.2031 2.11364 61.723C1.86364 62.2429 1.73864 62.8807 1.73864 63.6364C1.73864 64.392 1.86364 65.0298 2.11364 65.5497C2.36648 66.0696 2.70597 66.4631 3.1321 66.7301C3.56108 66.9972 4.03977 67.1307 4.56818 67.1307C4.85795 67.1307 5.13636 67.0909 5.40341 67.0114C5.67045 66.9318 5.91335 66.8139 6.1321 66.6577C6.35369 66.4986 6.54119 66.304 6.6946 66.0739C6.85085 65.8409 6.96023 65.5739 7.02273 65.2727H8.07955C8 65.7187 7.85511 66.1179 7.64489 66.4702C7.43466 66.8224 7.1733 67.1222 6.8608 67.3693C6.5483 67.6136 6.19744 67.7997 5.80824 67.9276C5.42188 68.0554 5.00852 68.1193 4.56818 68.1193C3.82386 68.1193 3.16193 67.9375 2.58239 67.5739C2.00284 67.2102 1.54688 66.6932 1.21449 66.0227C0.882102 65.3523 0.715909 64.5568 0.715909 63.6364C0.715909 62.7159 0.882102 61.9205 1.21449 61.25C1.54688 60.5795 2.00284 60.0625 2.58239 59.6989C3.16193 59.3352 3.82386 59.1534 4.56818 59.1534C5.00852 59.1534 5.42188 59.2173 5.80824 59.3452C6.19744 59.473 6.5483 59.6605 6.8608 59.9077C7.1733 60.152 7.43466 60.4503 7.64489 60.8026C7.85511 61.152 8 61.5511 8.07955 62ZM11.5771 68.1534C11.1623 68.1534 10.7859 68.0753 10.4478 67.919C10.1097 67.7599 9.84126 67.5312 9.6424 67.233C9.44354 66.9318 9.34411 66.5682 9.34411 66.142C9.34411 65.767 9.41797 65.4631 9.5657 65.2301C9.71342 64.9943 9.91087 64.8097 10.158 64.6761C10.4052 64.5426 10.6779 64.4432 10.9762 64.3778C11.2773 64.3097 11.5799 64.2557 11.8839 64.2159C12.2816 64.1648 12.604 64.1264 12.8512 64.1009C13.1012 64.0724 13.283 64.0256 13.3967 63.9602C13.5131 63.8949 13.5714 63.7812 13.5714 63.6193V63.5852C13.5714 63.1648 13.4563 62.8381 13.2262 62.6051C12.9989 62.3722 12.6538 62.2557 12.1907 62.2557C11.7106 62.2557 11.3342 62.3608 11.0614 62.571C10.7887 62.7812 10.5969 63.0057 10.4862 63.2443L9.53161 62.9034C9.70206 62.5057 9.92933 62.196 10.2134 61.9744C10.5004 61.75 10.8129 61.5937 11.1509 61.5057C11.4918 61.4148 11.8271 61.3693 12.1566 61.3693C12.3668 61.3693 12.6083 61.3949 12.881 61.446C13.1566 61.4943 13.4222 61.5952 13.6779 61.7486C13.9364 61.902 14.1509 62.1335 14.3214 62.4432C14.4918 62.7528 14.5771 63.1676 14.5771 63.6875V68H13.5714V67.1136H13.5202C13.4521 67.2557 13.3384 67.4077 13.1793 67.5696C13.0202 67.7315 12.8086 67.8693 12.5444 67.983C12.2802 68.0966 11.9577 68.1534 11.5771 68.1534ZM11.7305 67.25C12.1282 67.25 12.4634 67.1719 12.7362 67.0156C13.0117 66.8594 13.2191 66.6577 13.3583 66.4105C13.5004 66.1634 13.5714 65.9034 13.5714 65.6307V64.7102C13.5288 64.7614 13.435 64.8082 13.2901 64.8509C13.1481 64.8906 12.9833 64.9261 12.7958 64.9574C12.6112 64.9858 12.4308 65.0114 12.2546 65.0341C12.0813 65.054 11.9407 65.071 11.8327 65.0852C11.5714 65.1193 11.3271 65.1747 11.0998 65.2514C10.8754 65.3253 10.6935 65.4375 10.5543 65.5881C10.418 65.7358 10.3498 65.9375 10.3498 66.1932C10.3498 66.5426 10.479 66.8068 10.7376 66.9858C10.9989 67.1619 11.3299 67.25 11.7305 67.25ZM17.4183 64.0625V68H16.4126V61.4545H17.3842V62.4773H17.4695C17.6229 62.1449 17.8558 61.8778 18.1683 61.6761C18.4808 61.4716 18.8842 61.3693 19.3786 61.3693C19.8217 61.3693 20.2095 61.4602 20.5419 61.642C20.8743 61.821 21.1328 62.0938 21.3175 62.4602C21.5021 62.8239 21.5945 63.2841 21.5945 63.8409V68H20.5888V63.9091C20.5888 63.3949 20.4553 62.9943 20.1882 62.7074C19.9212 62.4176 19.5547 62.2727 19.0888 62.2727C18.7678 62.2727 18.4808 62.3423 18.228 62.4815C17.978 62.6207 17.7805 62.8239 17.6357 63.0909C17.4908 63.358 17.4183 63.6818 17.4183 64.0625ZM25.9038 68.1364C25.3583 68.1364 24.8768 67.9986 24.4592 67.723C24.0415 67.4446 23.7148 67.0526 23.479 66.5469C23.2433 66.0384 23.1254 65.4375 23.1254 64.7443C23.1254 64.0568 23.2433 63.4602 23.479 62.9545C23.7148 62.4489 24.043 62.0582 24.4634 61.7827C24.8839 61.5071 25.3697 61.3693 25.9208 61.3693C26.3469 61.3693 26.6836 61.4403 26.9308 61.5824C27.1808 61.7216 27.3711 61.8807 27.5018 62.0597C27.6353 62.2358 27.739 62.3807 27.8129 62.4943H27.8981V59.2727H28.9038V68H27.9322V66.9943H27.8129C27.739 67.1136 27.6339 67.2642 27.4975 67.446C27.3612 67.625 27.1665 67.7855 26.9137 67.9276C26.6609 68.0668 26.3242 68.1364 25.9038 68.1364ZM26.0401 67.233C26.4435 67.233 26.7844 67.1278 27.0629 66.9176C27.3413 66.7045 27.5529 66.4105 27.6978 66.0355C27.8427 65.6577 27.9151 65.2216 27.9151 64.7273C27.9151 64.2386 27.8441 63.8111 27.7021 63.4446C27.56 63.0753 27.3498 62.7884 27.0714 62.5838C26.793 62.3764 26.4492 62.2727 26.0401 62.2727C25.614 62.2727 25.2589 62.3821 24.9748 62.6009C24.6935 62.8168 24.4819 63.1108 24.3398 63.483C24.2006 63.8523 24.131 64.267 24.131 64.7273C24.131 65.1932 24.2021 65.6165 24.3441 65.9972C24.489 66.375 24.7021 66.6761 24.9833 66.9006C25.2674 67.1222 25.6197 67.233 26.0401 67.233ZM31.891 59.2727V68H30.8853V59.2727H31.891ZM36.4773 68.1364C35.8466 68.1364 35.3026 67.9972 34.8452 67.7188C34.3906 67.4375 34.0398 67.0455 33.7926 66.5426C33.5483 66.0369 33.4261 65.4489 33.4261 64.7784C33.4261 64.108 33.5483 63.517 33.7926 63.0057C34.0398 62.4915 34.3835 62.0909 34.8239 61.804C35.267 61.5142 35.7841 61.3693 36.375 61.3693C36.7159 61.3693 37.0526 61.4261 37.3849 61.5398C37.7173 61.6534 38.0199 61.8381 38.2926 62.0938C38.5653 62.3466 38.7827 62.6818 38.9446 63.0994C39.1065 63.517 39.1875 64.0312 39.1875 64.642V65.0682H34.142V64.1989H38.1648C38.1648 63.8295 38.0909 63.5 37.9432 63.2102C37.7983 62.9205 37.5909 62.6918 37.321 62.5241C37.054 62.3565 36.7386 62.2727 36.375 62.2727C35.9744 62.2727 35.6278 62.3722 35.3352 62.571C35.0455 62.767 34.8224 63.0227 34.6662 63.3381C34.5099 63.6534 34.4318 63.9915 34.4318 64.3523V64.9318C34.4318 65.4261 34.517 65.8452 34.6875 66.1889C34.8608 66.5298 35.1009 66.7898 35.4077 66.9688C35.7145 67.1449 36.071 67.233 36.4773 67.233C36.7415 67.233 36.9801 67.196 37.1932 67.1222C37.4091 67.0455 37.5952 66.9318 37.7514 66.7812C37.9077 66.6278 38.0284 66.4375 38.1136 66.2102L39.0852 66.483C38.983 66.8125 38.8111 67.1023 38.5696 67.3523C38.3281 67.5994 38.0298 67.7926 37.6747 67.9318C37.3196 68.0682 36.9205 68.1364 36.4773 68.1364Z" fill="black"/>
</svg>
