<svg width="50" height="69" viewBox="0 0 50 69" fill="none" xmlns="http://www.w3.org/2000/svg">
<g clip-path="url(#clip0_607_709)">
<path d="M47.7576 2.24247C45.5024 -0.0127012 42.4461 -0.579107 40.4245 0.598529C34.672 3.94931 22.7243 -4.58477 9.06975 9.06982C-4.58484 22.7244 3.94934 34.672 0.598556 40.4243C-0.579081 42.446 -0.0127727 45.5023 2.2424 47.7576C4.49777 50.013 7.55412 50.579 9.5759 49.4014C15.3279 46.0508 27.2757 54.5849 40.9302 40.9304C54.5847 27.2759 46.0508 15.3281 49.4015 9.57578C50.5791 7.5541 50.0129 4.49775 47.7576 2.24247ZM23.8165 9.32831C18.134 10.7489 10.7493 18.1325 9.32844 23.8164C9.151 24.5264 8.51379 25.0004 7.81369 25.0004C7.6883 25.0004 7.56076 24.9851 7.43352 24.9534C6.59641 24.744 6.08742 23.8958 6.2966 23.0586C7.99816 16.2526 16.2418 8.00097 23.0585 6.29667C23.8959 6.0874 24.7442 6.59638 24.9533 7.43359C25.1625 8.27079 24.6536 9.11904 23.8165 9.32831Z" fill="black"/>
</g>
<path d="M6.88494 66V57.2727H7.94176V65.0625H11.9986V66H6.88494ZM16.2429 66.1364C15.6122 66.1364 15.0682 65.9972 14.6108 65.7188C14.1562 65.4375 13.8054 65.0455 13.5582 64.5426C13.3139 64.0369 13.1918 63.4489 13.1918 62.7784C13.1918 62.108 13.3139 61.517 13.5582 61.0057C13.8054 60.4915 14.1491 60.0909 14.5895 59.804C15.0327 59.5142 15.5497 59.3693 16.1406 59.3693C16.4815 59.3693 16.8182 59.4261 17.1506 59.5398C17.483 59.6534 17.7855 59.8381 18.0582 60.0938C18.331 60.3466 18.5483 60.6818 18.7102 61.0994C18.8722 61.517 18.9531 62.0312 18.9531 62.642V63.0682H13.9077V62.1989H17.9304C17.9304 61.8295 17.8565 61.5 17.7088 61.2102C17.5639 60.9205 17.3565 60.6918 17.0866 60.5241C16.8196 60.3565 16.5043 60.2727 16.1406 60.2727C15.7401 60.2727 15.3935 60.3722 15.1009 60.571C14.8111 60.767 14.5881 61.0227 14.4318 61.3381C14.2756 61.6534 14.1974 61.9915 14.1974 62.3523V62.9318C14.1974 63.4261 14.2827 63.8452 14.4531 64.1889C14.6264 64.5298 14.8665 64.7898 15.1733 64.9688C15.4801 65.1449 15.8366 65.233 16.2429 65.233C16.5071 65.233 16.7457 65.196 16.9588 65.1222C17.1747 65.0455 17.3608 64.9318 17.517 64.7812C17.6733 64.6278 17.794 64.4375 17.8793 64.2102L18.8509 64.483C18.7486 64.8125 18.5767 65.1023 18.3352 65.3523C18.0938 65.5994 17.7955 65.7926 17.4403 65.9318C17.0852 66.0682 16.6861 66.1364 16.2429 66.1364ZM20.483 66V59.4545H21.4545V60.4773H21.5398C21.6761 60.1278 21.8963 59.8565 22.2003 59.6634C22.5043 59.4673 22.8693 59.3693 23.2955 59.3693C23.7273 59.3693 24.0866 59.4673 24.3736 59.6634C24.6634 59.8565 24.8892 60.1278 25.0511 60.4773H25.1193C25.2869 60.1392 25.5384 59.8707 25.8736 59.6719C26.2088 59.4702 26.6108 59.3693 27.0795 59.3693C27.6648 59.3693 28.1435 59.5526 28.5156 59.919C28.8878 60.2827 29.0739 60.8494 29.0739 61.6193V66H28.0682V61.6193C28.0682 61.1364 27.9361 60.7912 27.6719 60.5838C27.4077 60.3764 27.0966 60.2727 26.7386 60.2727C26.2784 60.2727 25.9219 60.4119 25.669 60.6903C25.4162 60.9659 25.2898 61.3153 25.2898 61.7386V66H24.267V61.517C24.267 61.1449 24.1463 60.8452 23.9048 60.6179C23.6634 60.3878 23.3523 60.2727 22.9716 60.2727C22.7102 60.2727 22.4659 60.3423 22.2386 60.4815C22.0142 60.6207 21.8324 60.8139 21.6932 61.0611C21.5568 61.3054 21.4886 61.5881 21.4886 61.9091V66H20.483ZM33.5717 66.1364C32.9808 66.1364 32.4624 65.9957 32.0163 65.7145C31.5732 65.4332 31.2266 65.0398 30.9766 64.5341C30.7294 64.0284 30.6058 63.4375 30.6058 62.7614C30.6058 62.0795 30.7294 61.4844 30.9766 60.9759C31.2266 60.4673 31.5732 60.0724 32.0163 59.7912C32.4624 59.5099 32.9808 59.3693 33.5717 59.3693C34.1626 59.3693 34.6797 59.5099 35.1229 59.7912C35.5689 60.0724 35.9155 60.4673 36.1626 60.9759C36.4126 61.4844 36.5376 62.0795 36.5376 62.7614C36.5376 63.4375 36.4126 64.0284 36.1626 64.5341C35.9155 65.0398 35.5689 65.4332 35.1229 65.7145C34.6797 65.9957 34.1626 66.1364 33.5717 66.1364ZM33.5717 65.233C34.0206 65.233 34.3899 65.1179 34.6797 64.8878C34.9695 64.6577 35.1839 64.3551 35.3232 63.9801C35.4624 63.6051 35.532 63.1989 35.532 62.7614C35.532 62.3239 35.4624 61.9162 35.3232 61.5384C35.1839 61.1605 34.9695 60.8551 34.6797 60.6222C34.3899 60.3892 34.0206 60.2727 33.5717 60.2727C33.1229 60.2727 32.7536 60.3892 32.4638 60.6222C32.174 60.8551 31.9595 61.1605 31.8203 61.5384C31.6811 61.9162 31.6115 62.3239 31.6115 62.7614C31.6115 63.1989 31.6811 63.6051 31.8203 63.9801C31.9595 64.3551 32.174 64.6577 32.4638 64.8878C32.7536 65.1179 33.1229 65.233 33.5717 65.233ZM39.0785 62.0625V66H38.0728V59.4545H39.0444V60.4773H39.1296C39.283 60.1449 39.516 59.8778 39.8285 59.6761C40.141 59.4716 40.5444 59.3693 41.0387 59.3693C41.4819 59.3693 41.8697 59.4602 42.2021 59.642C42.5344 59.821 42.793 60.0938 42.9776 60.4602C43.1623 60.8239 43.2546 61.2841 43.2546 61.8409V66H42.2489V61.9091C42.2489 61.3949 42.1154 60.9943 41.8484 60.7074C41.5813 60.4176 41.2148 60.2727 40.7489 60.2727C40.4279 60.2727 40.141 60.3423 39.8881 60.4815C39.6381 60.6207 39.4407 60.8239 39.2958 61.0909C39.1509 61.358 39.0785 61.6818 39.0785 62.0625Z" fill="black"/>
<defs>
<clipPath id="clip0_607_709">
<rect width="50" height="50" fill="white"/>
</clipPath>
</defs>
</svg>
