<svg width="72" height="65" viewBox="0 0 72 65" fill="none" xmlns="http://www.w3.org/2000/svg">
<path d="M20.1867 12.4999C20.6986 10.5405 21.9062 8.83448 23.5839 7.7003C25.2616 6.56611 27.2948 6.08133 29.3038 6.33648C31.3128 6.59162 33.1602 7.56924 34.5012 9.0868C35.8421 10.6044 36.5849 12.5581 36.5908 14.5832C36.5909 15.7655 36.3394 16.9342 35.853 18.0118C35.3667 19.0894 34.6566 20.0512 33.77 20.8332H45.9179C48.7908 20.8332 50.1325 18.4999 50.1325 15.6249C57.4242 22.9165 56.3179 31.2499 56.3179 31.2499C56.3179 38.5415 49.0908 43.7499 37.6325 43.7499H29.2783C27.775 43.7485 26.2866 43.451 24.8982 42.8745C23.5098 42.2979 22.2485 41.4535 21.1865 40.3895C20.1244 39.3255 19.2823 38.0627 18.7083 36.6733C18.1342 35.2838 17.8395 33.7949 17.8408 32.2915C17.8394 30.1285 18.4502 28.0092 19.6026 26.1788C20.7551 24.3483 22.4022 22.8814 24.3533 21.9478C22.9707 21.2141 21.8228 20.1058 21.0408 18.7499M20.1867 12.4999L14.7158 14.5832C15.1117 16.6665 16.9304 18.7499 21.0387 18.7499M20.1867 12.4999L21.4096 14.2811C21.8729 14.9544 22.089 15.7672 22.0214 16.5817C21.9539 17.3961 21.6067 18.1622 21.0387 18.7499" fill="black"/>
<path d="M20.1867 12.4999C20.6986 10.5405 21.9062 8.83448 23.5839 7.7003C25.2616 6.56611 27.2948 6.08133 29.3038 6.33648C31.3128 6.59162 33.1602 7.56924 34.5012 9.0868C35.8421 10.6044 36.5849 12.5581 36.5908 14.5832C36.5909 15.7655 36.3394 16.9342 35.853 18.0118C35.3667 19.0894 34.6566 20.0512 33.77 20.8332H45.9179C48.7908 20.8332 50.1325 18.4999 50.1325 15.6249C57.4242 22.9165 56.3179 31.2499 56.3179 31.2499C56.3179 38.5415 49.0908 43.7499 37.6325 43.7499H29.2783C27.775 43.7485 26.2866 43.451 24.8982 42.8745C23.5098 42.2979 22.2485 41.4535 21.1865 40.3895C20.1244 39.3255 19.2823 38.0627 18.7083 36.6733C18.1342 35.2838 17.8395 33.7949 17.8408 32.2915C17.8394 30.1285 18.4502 28.0092 19.6026 26.1788C20.7551 24.3483 22.4022 22.8814 24.3533 21.9478C22.9707 21.2141 21.8228 20.1058 21.0408 18.7499M20.1867 12.4999L14.7158 14.5832C15.1117 16.6665 16.9304 18.7499 21.0387 18.7499C21.6067 18.1622 21.9539 17.3961 22.0214 16.5817C22.089 15.7672 21.8729 14.9544 21.4096 14.2811L20.1867 12.4999Z" stroke="black" stroke-width="3" stroke-linejoin="round"/>
<path d="M33.4661 37.4997H36.5911C41.1953 37.4997 47.0078 31.6872 47.0078 27.083H33.4661C32.0848 27.083 30.76 27.6317 29.7833 28.6085C28.8065 29.5852 28.2578 30.91 28.2578 32.2913C28.2578 33.6727 28.8065 34.9974 29.7833 35.9742C30.76 36.9509 32.0848 37.4997 33.4661 37.4997Z" stroke="white" stroke-width="3" stroke-linecap="round" stroke-linejoin="round"/>
<path d="M26.1738 12.5V12.5192V12.5Z" fill="white"/>
<path d="M26.1738 12.5V12.5192" stroke="white" stroke-width="3" stroke-linecap="round"/>
<path d="M0.000177622 62V53.2727H2.94904C3.63086 53.2727 4.19052 53.3892 4.62802 53.6222C5.06552 53.8523 5.38938 54.169 5.59961 54.5724C5.80984 54.9759 5.91495 55.4347 5.91495 55.9489C5.91495 56.4631 5.80984 56.919 5.59961 57.3168C5.38938 57.7145 5.06694 58.027 4.63228 58.2543C4.19762 58.4787 3.64222 58.5909 2.96609 58.5909H0.579723V57.6364H2.932C3.3979 57.6364 3.7729 57.5682 4.057 57.4318C4.34393 57.2955 4.55131 57.1023 4.67915 56.8523C4.80984 56.5994 4.87518 56.2983 4.87518 55.9489C4.87518 55.5994 4.80984 55.294 4.67915 55.0327C4.54847 54.7713 4.33967 54.5696 4.05273 54.4276C3.7658 54.2827 3.38654 54.2102 2.91495 54.2102H1.057V62H0.000177622ZM4.10813 58.0795L6.25586 62H5.02859L2.91495 58.0795H4.10813ZM11.6646 59.3239V55.4545H12.6703V62H11.6646V60.892H11.5964C11.443 61.2244 11.2044 61.5071 10.8805 61.7401C10.5566 61.9702 10.1475 62.0852 9.65323 62.0852C9.24414 62.0852 8.8805 61.9957 8.56232 61.8168C8.24414 61.6349 7.99414 61.3622 7.81232 60.9986C7.6305 60.6321 7.5396 60.1705 7.5396 59.6136V55.4545H8.54528V59.5455C8.54528 60.0227 8.6788 60.4034 8.94585 60.6875C9.21573 60.9716 9.55948 61.1136 9.9771 61.1136C10.2271 61.1136 10.4814 61.0497 10.7399 60.9219C11.0012 60.794 11.22 60.598 11.3961 60.3338C11.5751 60.0696 11.6646 59.733 11.6646 59.3239ZM14.6486 62V53.2727H15.6543V56.4943H15.7395C15.8134 56.3807 15.9157 56.2358 16.0463 56.0597C16.1799 55.8807 16.3702 55.7216 16.6174 55.5824C16.8674 55.4403 17.2054 55.3693 17.6316 55.3693C18.1827 55.3693 18.6685 55.5071 19.089 55.7827C19.5094 56.0582 19.8375 56.4489 20.0733 56.9545C20.3091 57.4602 20.427 58.0568 20.427 58.7443C20.427 59.4375 20.3091 60.0384 20.0733 60.5469C19.8375 61.0526 19.5108 61.4446 19.0932 61.723C18.6756 61.9986 18.1941 62.1364 17.6486 62.1364C17.2282 62.1364 16.8915 62.0668 16.6387 61.9276C16.3858 61.7855 16.1912 61.625 16.0549 61.446C15.9185 61.2642 15.8134 61.1136 15.7395 60.9943H15.6202V62H14.6486ZM15.6373 58.7273C15.6373 59.2216 15.7097 59.6577 15.8546 60.0355C15.9995 60.4105 16.2111 60.7045 16.4895 60.9176C16.7679 61.1278 17.1088 61.233 17.5123 61.233C17.9327 61.233 18.2836 61.1222 18.5648 60.9006C18.8489 60.6761 19.062 60.375 19.204 59.9972C19.3489 59.6165 19.4213 59.1932 19.4213 58.7273C19.4213 58.267 19.3503 57.8523 19.2083 57.483C19.0691 57.1108 18.8574 56.8168 18.5733 56.6009C18.2921 56.3821 17.9384 56.2727 17.5123 56.2727C17.1032 56.2727 16.7594 56.3764 16.481 56.5838C16.2026 56.7884 15.9924 57.0753 15.8503 57.4446C15.7083 57.8111 15.6373 58.2386 15.6373 58.7273ZM22.1017 62V53.2727H23.1074V56.4943H23.1926C23.2665 56.3807 23.3688 56.2358 23.4995 56.0597C23.633 55.8807 23.8233 55.7216 24.0705 55.5824C24.3205 55.4403 24.6586 55.3693 25.0847 55.3693C25.6358 55.3693 26.1216 55.5071 26.5421 55.7827C26.9625 56.0582 27.2907 56.4489 27.5265 56.9545C27.7623 57.4602 27.8801 58.0568 27.8801 58.7443C27.8801 59.4375 27.7623 60.0384 27.5265 60.5469C27.2907 61.0526 26.964 61.4446 26.5463 61.723C26.1287 61.9986 25.6472 62.1364 25.1017 62.1364C24.6813 62.1364 24.3446 62.0668 24.0918 61.9276C23.839 61.7855 23.6444 61.625 23.508 61.446C23.3716 61.2642 23.2665 61.1136 23.1926 60.9943H23.0733V62H22.1017ZM23.0904 58.7273C23.0904 59.2216 23.1628 59.6577 23.3077 60.0355C23.4526 60.4105 23.6642 60.7045 23.9426 60.9176C24.2211 61.1278 24.562 61.233 24.9654 61.233C25.3858 61.233 25.7367 61.1222 26.0179 60.9006C26.302 60.6761 26.5151 60.375 26.6571 59.9972C26.802 59.6165 26.8745 59.1932 26.8745 58.7273C26.8745 58.267 26.8034 57.8523 26.6614 57.483C26.5222 57.1108 26.3105 56.8168 26.0265 56.6009C25.7452 56.3821 25.3915 56.2727 24.9654 56.2727C24.5563 56.2727 24.2125 56.3764 23.9341 56.5838C23.6557 56.7884 23.4455 57.0753 23.3034 57.4446C23.1614 57.8111 23.0904 58.2386 23.0904 58.7273ZM32.1628 62.1364C31.5321 62.1364 30.9881 61.9972 30.5307 61.7188C30.0762 61.4375 29.7253 61.0455 29.4782 60.5426C29.2338 60.0369 29.1117 59.4489 29.1117 58.7784C29.1117 58.108 29.2338 57.517 29.4782 57.0057C29.7253 56.4915 30.0691 56.0909 30.5094 55.804C30.9526 55.5142 31.4696 55.3693 32.0605 55.3693C32.4015 55.3693 32.7381 55.4261 33.0705 55.5398C33.4029 55.6534 33.7054 55.8381 33.9782 56.0938C34.2509 56.3466 34.4682 56.6818 34.6301 57.0994C34.7921 57.517 34.873 58.0312 34.873 58.642V59.0682H29.8276V58.1989H33.8503C33.8503 57.8295 33.7765 57.5 33.6287 57.2102C33.4838 56.9205 33.2765 56.6918 33.0066 56.5241C32.7395 56.3565 32.4242 56.2727 32.0605 56.2727C31.66 56.2727 31.3134 56.3722 31.0208 56.571C30.731 56.767 30.508 57.0227 30.3517 57.3381C30.1955 57.6534 30.1174 57.9915 30.1174 58.3523V58.9318C30.1174 59.4261 30.2026 59.8452 30.373 60.1889C30.5463 60.5298 30.7864 60.7898 31.0932 60.9688C31.4 61.1449 31.7566 61.233 32.1628 61.233C32.427 61.233 32.6657 61.196 32.8787 61.1222C33.0946 61.0455 33.2807 60.9318 33.437 60.7812C33.5932 60.6278 33.714 60.4375 33.7992 60.2102L34.7708 60.483C34.6685 60.8125 34.4966 61.1023 34.2551 61.3523C34.0137 61.5994 33.7154 61.7926 33.3603 61.9318C33.0051 62.0682 32.606 62.1364 32.1628 62.1364ZM36.4029 62V55.4545H37.3745V56.4432H37.4426C37.562 56.1193 37.7779 55.8565 38.0904 55.6548C38.4029 55.4531 38.7551 55.3523 39.1472 55.3523C39.2211 55.3523 39.3134 55.3537 39.4242 55.3565C39.535 55.3594 39.6188 55.3636 39.6756 55.3693V56.392C39.6415 56.3835 39.5634 56.3707 39.4412 56.3537C39.3219 56.3338 39.1955 56.3239 39.062 56.3239C38.7438 56.3239 38.4597 56.3906 38.2097 56.5241C37.9625 56.6548 37.7665 56.8366 37.6216 57.0696C37.4796 57.2997 37.4086 57.5625 37.4086 57.858V62H36.4029ZM47.0723 62H44.3791V53.2727H47.1916C48.0382 53.2727 48.7626 53.4474 49.3649 53.7969C49.9672 54.1435 50.4288 54.642 50.7498 55.2926C51.0708 55.9403 51.2314 56.7159 51.2314 57.6193C51.2314 58.5284 51.0694 59.3111 50.7456 59.9673C50.4217 60.6207 49.9501 61.1236 49.3308 61.4759C48.7115 61.8253 47.9586 62 47.0723 62ZM45.4359 61.0625H47.0041C47.7257 61.0625 48.3237 60.9233 48.7981 60.6449C49.2725 60.3665 49.6262 59.9702 49.8592 59.456C50.0922 58.9418 50.2086 58.3295 50.2086 57.6193C50.2086 56.9148 50.0936 56.3082 49.8635 55.7997C49.6333 55.2884 49.2896 54.8963 48.8322 54.6236C48.3748 54.348 47.8052 54.2102 47.1234 54.2102H45.4359V61.0625ZM56.9927 59.3239V55.4545H57.9984V62H56.9927V60.892H56.9245C56.7711 61.2244 56.5325 61.5071 56.2086 61.7401C55.8848 61.9702 55.4757 62.0852 54.9814 62.0852C54.5723 62.0852 54.2086 61.9957 53.8904 61.8168C53.5723 61.6349 53.3223 61.3622 53.1404 60.9986C52.9586 60.6321 52.8677 60.1705 52.8677 59.6136V55.4545H53.8734V59.5455C53.8734 60.0227 54.0069 60.4034 54.274 60.6875C54.5439 60.9716 54.8876 61.1136 55.3052 61.1136C55.5552 61.1136 55.8095 61.0497 56.068 60.9219C56.3294 60.794 56.5481 60.598 56.7243 60.3338C56.9032 60.0696 56.9927 59.733 56.9927 59.3239ZM62.4995 62.1364C61.8858 62.1364 61.3574 61.9915 60.9142 61.7017C60.4711 61.4119 60.1301 61.0128 59.8915 60.5043C59.6529 59.9957 59.5336 59.4148 59.5336 58.7614C59.5336 58.0966 59.6557 57.5099 59.9 57.0014C60.1472 56.4901 60.4909 56.0909 60.9313 55.804C61.3745 55.5142 61.8915 55.3693 62.4824 55.3693C62.9426 55.3693 63.3574 55.4545 63.7267 55.625C64.0961 55.7955 64.3986 56.0341 64.6344 56.3409C64.8702 56.6477 65.0165 57.0057 65.0733 57.4148H64.0676C63.9909 57.1165 63.8205 56.8523 63.5563 56.6222C63.2949 56.3892 62.9426 56.2727 62.4995 56.2727C62.1074 56.2727 61.7637 56.375 61.4682 56.5795C61.1756 56.7812 60.9469 57.0668 60.7821 57.4361C60.6202 57.8026 60.5392 58.233 60.5392 58.7273C60.5392 59.233 60.6188 59.6733 60.7779 60.0483C60.9398 60.4233 61.1671 60.7145 61.4597 60.9219C61.7551 61.1293 62.1017 61.233 62.4995 61.233C62.7608 61.233 62.998 61.1875 63.2111 61.0966C63.4242 61.0057 63.6046 60.875 63.7523 60.7045C63.9 60.5341 64.0051 60.3295 64.0676 60.0909H65.0733C65.0165 60.4773 64.8759 60.8253 64.6515 61.1349C64.4299 61.4418 64.1358 61.6861 63.7694 61.8679C63.4057 62.0469 62.9824 62.1364 62.4995 62.1364ZM67.481 59.6136L67.464 58.3693H67.6685L70.5321 55.4545H71.7765L68.7253 58.5398H68.6401L67.481 59.6136ZM66.5435 62V53.2727H67.5492V62H66.5435ZM70.7026 62L68.1458 58.7614L68.8617 58.0625L71.981 62H70.7026Z" fill="black"/>
</svg>
