<svg width="59" height="74" viewBox="0 0 59 74" fill="none" xmlns="http://www.w3.org/2000/svg">
<path fill-rule="evenodd" clip-rule="evenodd" d="M9.83301 19.6665C9.83301 16.7325 10.9985 13.9188 13.0731 11.8441C15.1478 9.76951 17.9615 8.604 20.8955 8.604H45.4788C46.4568 8.604 47.3948 8.99251 48.0863 9.68405C48.7778 10.3756 49.1663 11.3135 49.1663 12.2915V49.1665C49.1663 49.8185 48.9073 50.4438 48.4463 50.9048C47.9853 51.3658 47.36 51.6248 46.708 51.6248H18.4372C16.3678 51.6254 14.3675 50.8801 12.8031 49.5255C11.2386 48.171 10.2147 46.298 9.91905 44.2498H9.83301V19.6665ZM45.4788 38.104H18.4372C17.1332 38.104 15.8826 38.622 14.9606 39.5441C14.0385 40.4661 13.5205 41.7167 13.5205 43.0207C13.5205 44.3246 14.0385 45.5752 14.9606 46.4973C15.8826 47.4193 17.1332 47.9373 18.4372 47.9373H45.4788V38.104ZM20.2809 19.6665C20.2809 19.1775 20.4752 18.7085 20.8209 18.3628C21.1667 18.017 21.6357 17.8228 22.1247 17.8228H39.333C39.822 17.8228 40.291 18.017 40.6367 18.3628C40.9825 18.7085 41.1768 19.1775 41.1768 19.6665C41.1768 20.1555 40.9825 20.6245 40.6367 20.9702C40.291 21.316 39.822 21.5103 39.333 21.5103H22.1247C21.6357 21.5103 21.1667 21.316 20.8209 20.9702C20.4752 20.6245 20.2809 20.1555 20.2809 19.6665ZM22.1247 25.1978C21.6357 25.1978 21.1667 25.392 20.8209 25.7378C20.4752 26.0835 20.2809 26.5525 20.2809 27.0415C20.2809 27.5305 20.4752 27.9995 20.8209 28.3452C21.1667 28.691 21.6357 28.8853 22.1247 28.8853H34.4163C34.9053 28.8853 35.3743 28.691 35.7201 28.3452C36.0658 27.9995 36.2601 27.5305 36.2601 27.0415C36.2601 26.5525 36.0658 26.0835 35.7201 25.7378C35.3743 25.392 34.9053 25.1978 34.4163 25.1978H22.1247Z" fill="black"/>
<path d="M16.2306 71V62.2727H19.2818C19.8897 62.2727 20.3912 62.3778 20.786 62.5881C21.1809 62.7955 21.475 63.0753 21.6681 63.4276C21.8613 63.777 21.9579 64.1648 21.9579 64.5909C21.9579 64.9659 21.8912 65.2756 21.7576 65.5199C21.627 65.7642 21.4537 65.9574 21.2377 66.0994C21.0247 66.2415 20.7931 66.3466 20.5431 66.4148V66.5C20.8102 66.517 21.0787 66.6108 21.3485 66.7812C21.6184 66.9517 21.8443 67.196 22.0261 67.5142C22.2079 67.8324 22.2988 68.2216 22.2988 68.6818C22.2988 69.1193 22.1994 69.5128 22.0005 69.8622C21.8017 70.2116 21.4877 70.4886 21.0588 70.6932C20.6298 70.8977 20.0716 71 19.3841 71H16.2306ZM17.2875 70.0625H19.3841C20.0744 70.0625 20.5645 69.929 20.8542 69.6619C21.1468 69.392 21.2931 69.0653 21.2931 68.6818C21.2931 68.3864 21.2179 68.1136 21.0673 67.8636C20.9167 67.6108 20.7022 67.4091 20.4238 67.2585C20.1454 67.1051 19.8159 67.0284 19.4352 67.0284H17.2875V70.0625ZM17.2875 66.108H19.2477C19.5659 66.108 19.8528 66.0455 20.1085 65.9205C20.367 65.7955 20.5716 65.6193 20.7221 65.392C20.8755 65.1648 20.9522 64.8977 20.9522 64.5909C20.9522 64.2074 20.8187 63.8821 20.5517 63.6151C20.2846 63.3452 19.8613 63.2102 19.2818 63.2102H17.2875V66.108ZM26.5581 71.1364C25.9672 71.1364 25.4487 70.9957 25.0027 70.7145C24.5595 70.4332 24.2129 70.0398 23.9629 69.5341C23.7157 69.0284 23.5922 68.4375 23.5922 67.7614C23.5922 67.0795 23.7157 66.4844 23.9629 65.9759C24.2129 65.4673 24.5595 65.0724 25.0027 64.7912C25.4487 64.5099 25.9672 64.3693 26.5581 64.3693C27.149 64.3693 27.666 64.5099 28.1092 64.7912C28.5552 65.0724 28.9018 65.4673 29.149 65.9759C29.399 66.4844 29.524 67.0795 29.524 67.7614C29.524 68.4375 29.399 69.0284 29.149 69.5341C28.9018 70.0398 28.5552 70.4332 28.1092 70.7145C27.666 70.9957 27.149 71.1364 26.5581 71.1364ZM26.5581 70.233C27.0069 70.233 27.3762 70.1179 27.666 69.8878C27.9558 69.6577 28.1703 69.3551 28.3095 68.9801C28.4487 68.6051 28.5183 68.1989 28.5183 67.7614C28.5183 67.3239 28.4487 66.9162 28.3095 66.5384C28.1703 66.1605 27.9558 65.8551 27.666 65.6222C27.3762 65.3892 27.0069 65.2727 26.5581 65.2727C26.1092 65.2727 25.7399 65.3892 25.4501 65.6222C25.1603 65.8551 24.9458 66.1605 24.8066 66.5384C24.6674 66.9162 24.5978 67.3239 24.5978 67.7614C24.5978 68.1989 24.6674 68.6051 24.8066 68.9801C24.9458 69.3551 25.1603 69.6577 25.4501 69.8878C25.7399 70.1179 26.1092 70.233 26.5581 70.233ZM33.7182 71.1364C33.1273 71.1364 32.6088 70.9957 32.1628 70.7145C31.7196 70.4332 31.373 70.0398 31.123 69.5341C30.8759 69.0284 30.7523 68.4375 30.7523 67.7614C30.7523 67.0795 30.8759 66.4844 31.123 65.9759C31.373 65.4673 31.7196 65.0724 32.1628 64.7912C32.6088 64.5099 33.1273 64.3693 33.7182 64.3693C34.3091 64.3693 34.8262 64.5099 35.2694 64.7912C35.7154 65.0724 36.062 65.4673 36.3091 65.9759C36.5591 66.4844 36.6841 67.0795 36.6841 67.7614C36.6841 68.4375 36.5591 69.0284 36.3091 69.5341C36.062 70.0398 35.7154 70.4332 35.2694 70.7145C34.8262 70.9957 34.3091 71.1364 33.7182 71.1364ZM33.7182 70.233C34.1671 70.233 34.5364 70.1179 34.8262 69.8878C35.1159 69.6577 35.3304 69.3551 35.4696 68.9801C35.6088 68.6051 35.6784 68.1989 35.6784 67.7614C35.6784 67.3239 35.6088 66.9162 35.4696 66.5384C35.3304 66.1605 35.1159 65.8551 34.8262 65.6222C34.5364 65.3892 34.1671 65.2727 33.7182 65.2727C33.2694 65.2727 32.9 65.3892 32.6103 65.6222C32.3205 65.8551 32.106 66.1605 31.9668 66.5384C31.8276 66.9162 31.758 67.3239 31.758 67.7614C31.758 68.1989 31.8276 68.6051 31.9668 68.9801C32.106 69.3551 32.3205 69.6577 32.6103 69.8878C32.9 70.1179 33.2694 70.233 33.7182 70.233ZM39.1568 68.6136L39.1397 67.3693H39.3443L42.2079 64.4545H43.4522L40.4011 67.5398H40.3159L39.1568 68.6136ZM38.2193 71V62.2727H39.225V71H38.2193ZM42.3784 71L39.8216 67.7614L40.5375 67.0625L43.6568 71H42.3784Z" fill="black"/>
</svg>
