<svg width="62" height="70" viewBox="0 0 62 70" fill="none" xmlns="http://www.w3.org/2000/svg">
<path d="M34.6523 40.3555L40.8203 26.7715C42.7869 25.1249 44.1993 22.9131 44.866 20.4363C45.5326 17.9596 45.4212 15.3377 44.5468 12.9264C43.6725 10.5151 42.0775 8.43114 39.9783 6.95728C37.8792 5.48341 35.3774 4.69098 32.8125 4.6875C32.7261 4.68786 32.6399 4.69505 32.5547 4.70898L5.73633 9.17969C5.00672 9.30127 4.34389 9.67771 3.86574 10.2421C3.38758 10.8064 3.12511 11.522 3.125 12.2617V22.1133C3.12511 22.853 3.38758 23.5686 3.86574 24.1329C4.34389 24.6973 5.00672 25.0737 5.73633 25.1953L25 28.4062V39.0625C25 39.8913 25.3292 40.6862 25.9153 41.2722C26.5013 41.8583 27.2962 42.1875 28.125 42.1875C28.125 44.2595 28.9481 46.2466 30.4132 47.7118C31.8784 49.1769 33.8655 50 35.9375 50H39.0625C39.4769 50 39.8743 49.8354 40.1674 49.5424C40.4604 49.2493 40.625 48.8519 40.625 48.4375C40.625 48.0231 40.4604 47.6257 40.1674 47.3326C39.8743 47.0396 39.4769 46.875 39.0625 46.875H35.9375C34.6943 46.875 33.502 46.3811 32.6229 45.5021C31.7439 44.623 31.25 43.4307 31.25 42.1875H31.8066C32.4068 42.1876 32.9943 42.0149 33.499 41.6901C34.0036 41.3652 34.404 40.9019 34.6523 40.3555ZM37.5 17.1875C37.5 18.1146 37.2251 19.0209 36.71 19.7917C36.1949 20.5626 35.4629 21.1634 34.6063 21.5182C33.7498 21.873 32.8073 21.9658 31.898 21.7849C30.9887 21.6041 30.1535 21.1576 29.4979 20.5021C28.8424 19.8465 28.3959 19.0113 28.2151 18.102C28.0342 17.1927 28.127 16.2502 28.4818 15.3937C28.8366 14.5371 29.4374 13.8051 30.2083 13.29C30.9791 12.7749 31.8854 12.5 32.8125 12.5C34.0557 12.5 35.248 12.9939 36.1271 13.8729C37.0061 14.752 37.5 15.9443 37.5 17.1875ZM32.5547 29.666C32.6399 29.68 32.7261 29.6871 32.8125 29.6875C33.9903 29.6872 35.162 29.5202 36.293 29.1914L31.8008 39.0625H28.125V28.9277L32.5547 29.666Z" fill="black"/>
<path d="M3.29901 67V58.2727H4.35582V62.1591H9.00923V58.2727H10.0661V67H9.00923V63.0966H4.35582V67H3.29901ZM13.9716 67.1534C13.5568 67.1534 13.1804 67.0753 12.8423 66.919C12.5043 66.7599 12.2358 66.5312 12.0369 66.233C11.8381 65.9318 11.7386 65.5682 11.7386 65.142C11.7386 64.767 11.8125 64.4631 11.9602 64.2301C12.108 63.9943 12.3054 63.8097 12.5526 63.6761C12.7997 63.5426 13.0724 63.4432 13.3707 63.3778C13.6719 63.3097 13.9744 63.2557 14.2784 63.2159C14.6761 63.1648 14.9986 63.1264 15.2457 63.1009C15.4957 63.0724 15.6776 63.0256 15.7912 62.9602C15.9077 62.8949 15.9659 62.7812 15.9659 62.6193V62.5852C15.9659 62.1648 15.8509 61.8381 15.6207 61.6051C15.3935 61.3722 15.0483 61.2557 14.5852 61.2557C14.1051 61.2557 13.7287 61.3608 13.456 61.571C13.1832 61.7812 12.9915 62.0057 12.8807 62.2443L11.9261 61.9034C12.0966 61.5057 12.3239 61.196 12.608 60.9744C12.8949 60.75 13.2074 60.5937 13.5455 60.5057C13.8864 60.4148 14.2216 60.3693 14.5511 60.3693C14.7614 60.3693 15.0028 60.3949 15.2756 60.446C15.5511 60.4943 15.8168 60.5952 16.0724 60.7486C16.331 60.902 16.5455 61.1335 16.7159 61.4432C16.8864 61.7528 16.9716 62.1676 16.9716 62.6875V67H15.9659V66.1136H15.9148C15.8466 66.2557 15.733 66.4077 15.5739 66.5696C15.4148 66.7315 15.2031 66.8693 14.9389 66.983C14.6747 67.0966 14.3523 67.1534 13.9716 67.1534ZM14.125 66.25C14.5227 66.25 14.858 66.1719 15.1307 66.0156C15.4063 65.8594 15.6136 65.6577 15.7528 65.4105C15.8949 65.1634 15.9659 64.9034 15.9659 64.6307V63.7102C15.9233 63.7614 15.8295 63.8082 15.6847 63.8509C15.5426 63.8906 15.3778 63.9261 15.1903 63.9574C15.0057 63.9858 14.8253 64.0114 14.6491 64.0341C14.4759 64.054 14.3352 64.071 14.2273 64.0852C13.9659 64.1193 13.7216 64.1747 13.4943 64.2514C13.2699 64.3253 13.0881 64.4375 12.9489 64.5881C12.8125 64.7358 12.7443 64.9375 12.7443 65.1932C12.7443 65.5426 12.8736 65.8068 13.1321 65.9858C13.3935 66.1619 13.7244 66.25 14.125 66.25ZM18.8072 67V60.4545H19.8129V67H18.8072ZM19.3185 59.3636C19.1225 59.3636 18.9535 59.2969 18.8114 59.1634C18.6722 59.0298 18.6026 58.8693 18.6026 58.6818C18.6026 58.4943 18.6722 58.3338 18.8114 58.2003C18.9535 58.0668 19.1225 58 19.3185 58C19.5146 58 19.6822 58.0668 19.8214 58.2003C19.9634 58.3338 20.0344 58.4943 20.0344 58.6818C20.0344 58.8693 19.9634 59.0298 19.8214 59.1634C19.6822 59.2969 19.5146 59.3636 19.3185 59.3636ZM21.6548 67V60.4545H22.6264V61.4432H22.6946C22.8139 61.1193 23.0298 60.8565 23.3423 60.6548C23.6548 60.4531 24.0071 60.3523 24.3991 60.3523C24.473 60.3523 24.5653 60.3537 24.6761 60.3565C24.7869 60.3594 24.8707 60.3636 24.9276 60.3693V61.392C24.8935 61.3835 24.8153 61.3707 24.6932 61.3537C24.5739 61.3338 24.4474 61.3239 24.3139 61.3239C23.9957 61.3239 23.7116 61.3906 23.4616 61.5241C23.2145 61.6548 23.0185 61.8366 22.8736 62.0696C22.7315 62.2997 22.6605 62.5625 22.6605 62.858V67H21.6548ZM32.3242 67H29.631V58.2727H32.4435C33.2901 58.2727 34.0146 58.4474 34.6168 58.7969C35.2191 59.1435 35.6808 59.642 36.0018 60.2926C36.3228 60.9403 36.4833 61.7159 36.4833 62.6193C36.4833 63.5284 36.3214 64.3111 35.9975 64.9673C35.6737 65.6207 35.2021 66.1236 34.5827 66.4759C33.9634 66.8253 33.2106 67 32.3242 67ZM30.6879 66.0625H32.256C32.9776 66.0625 33.5756 65.9233 34.0501 65.6449C34.5245 65.3665 34.8782 64.9702 35.1112 64.456C35.3441 63.9418 35.4606 63.3295 35.4606 62.6193C35.4606 61.9148 35.3455 61.3082 35.1154 60.7997C34.8853 60.2884 34.5415 59.8963 34.0842 59.6236C33.6268 59.348 33.0572 59.2102 32.3754 59.2102H30.6879V66.0625ZM38.1197 67V60.4545H39.0913V61.4432H39.1594C39.2788 61.1193 39.4947 60.8565 39.8072 60.6548C40.1197 60.4531 40.4719 60.3523 40.864 60.3523C40.9379 60.3523 41.0302 60.3537 41.141 60.3565C41.2518 60.3594 41.3356 60.3636 41.3924 60.3693V61.392C41.3583 61.3835 41.2802 61.3707 41.158 61.3537C41.0387 61.3338 40.9123 61.3239 40.7788 61.3239C40.4606 61.3239 40.1765 61.3906 39.9265 61.5241C39.6793 61.6548 39.4833 61.8366 39.3384 62.0696C39.1964 62.2997 39.1254 62.5625 39.1254 62.858V67H38.1197ZM43.4315 69.4545C43.261 69.4545 43.109 69.4403 42.9755 69.4119C42.842 69.3864 42.7496 69.3608 42.6985 69.3352L42.9542 68.4489C43.1985 68.5114 43.4144 68.5341 43.6019 68.517C43.7894 68.5 43.9556 68.4162 44.1005 68.2656C44.2482 68.1179 44.3832 67.8778 44.5053 67.5455L44.6928 67.0341L42.2724 60.4545H43.3633L45.1701 65.6705H45.2383L47.0451 60.4545H48.136L45.3576 67.9545C45.2326 68.2926 45.0778 68.5724 44.8931 68.794C44.7085 69.0185 44.494 69.1847 44.2496 69.2926C44.0082 69.4006 43.7354 69.4545 43.4315 69.4545ZM51.9734 67.1364C51.3427 67.1364 50.7987 66.9972 50.3413 66.7188C49.8867 66.4375 49.5359 66.0455 49.2887 65.5426C49.0444 65.0369 48.9222 64.4489 48.9222 63.7784C48.9222 63.108 49.0444 62.517 49.2887 62.0057C49.5359 61.4915 49.8796 61.0909 50.32 60.804C50.7631 60.5142 51.2802 60.3693 51.8711 60.3693C52.212 60.3693 52.5487 60.4261 52.881 60.5398C53.2134 60.6534 53.516 60.8381 53.7887 61.0938C54.0614 61.3466 54.2788 61.6818 54.4407 62.0994C54.6026 62.517 54.6836 63.0312 54.6836 63.642V64.0682H49.6381V63.1989H53.6609C53.6609 62.8295 53.587 62.5 53.4393 62.2102C53.2944 61.9205 53.087 61.6918 52.8171 61.5241C52.5501 61.3565 52.2347 61.2727 51.8711 61.2727C51.4705 61.2727 51.1239 61.3722 50.8313 61.571C50.5415 61.767 50.3185 62.0227 50.1623 62.3381C50.006 62.6534 49.9279 62.9915 49.9279 63.3523V63.9318C49.9279 64.4261 50.0131 64.8452 50.1836 65.1889C50.3569 65.5298 50.5969 65.7898 50.9038 65.9688C51.2106 66.1449 51.5671 66.233 51.9734 66.233C52.2376 66.233 52.4762 66.196 52.6893 66.1222C52.9052 66.0455 53.0913 65.9318 53.2475 65.7812C53.4038 65.6278 53.5245 65.4375 53.6097 65.2102L54.5813 65.483C54.479 65.8125 54.3072 66.1023 54.0657 66.3523C53.8242 66.5994 53.5259 66.7926 53.1708 66.9318C52.8157 67.0682 52.4165 67.1364 51.9734 67.1364ZM56.2134 67V60.4545H57.185V61.4432H57.2532C57.3725 61.1193 57.5884 60.8565 57.9009 60.6548C58.2134 60.4531 58.5657 60.3523 58.9577 60.3523C59.0316 60.3523 59.1239 60.3537 59.2347 60.3565C59.3455 60.3594 59.4293 60.3636 59.4862 60.3693V61.392C59.4521 61.3835 59.3739 61.3707 59.2518 61.3537C59.1325 61.3338 59.006 61.3239 58.8725 61.3239C58.5543 61.3239 58.2702 61.3906 58.0202 61.5241C57.7731 61.6548 57.5771 61.8366 57.4322 62.0696C57.2901 62.2997 57.2191 62.5625 57.2191 62.858V67H56.2134Z" fill="black"/>
</svg>
