<svg width="50" height="66" viewBox="0 0 50 66" fill="none" xmlns="http://www.w3.org/2000/svg">
<path d="M27.3594 23.71L24.8096 21.1592C24.2256 20.575 23.434 20.2458 22.608 20.2436C21.7819 20.2414 20.9886 20.5664 20.4014 21.1475L2.6739 37.5078C2.02839 38.1162 1.60456 38.8916 1.5655 39.7598C1.54665 40.1904 1.61679 40.6202 1.77154 41.0225C1.92629 41.4247 2.16233 41.7907 2.46491 42.0977L6.27351 45.9482C6.27556 45.9507 6.27785 45.953 6.28034 45.9551C6.86895 46.5416 7.66522 46.8722 8.49616 46.875H8.6114C9.47956 46.8428 10.2569 46.4355 10.8741 45.7842L27.3487 28.1377C27.6408 27.8481 27.8729 27.5036 28.0316 27.1241C28.1903 26.7446 28.2725 26.3374 28.2735 25.9261C28.2745 25.5147 28.1943 25.1072 28.0374 24.7269C27.8806 24.3466 27.6502 24.001 27.3594 23.71ZM47.8516 18.5547L47.8214 18.5244L44.4747 15.2119C44.2786 15.0165 44.0459 14.8619 43.7897 14.757C43.5336 14.6521 43.2593 14.5989 42.9825 14.6006C42.5341 14.6011 42.0971 14.7425 41.7335 15.0049C41.7335 14.9629 41.7393 14.9219 41.7423 14.8857C41.7862 14.251 41.8546 13.292 41.2344 12.4229C40.4972 11.4291 39.6877 10.491 38.8126 9.61621C38.8102 9.61337 38.8076 9.61075 38.8048 9.6084C37.504 8.32715 34.6729 5.91407 30.336 4.14551C28.6912 3.47059 26.9303 3.12392 25.1524 3.125C22.0704 3.125 19.7266 4.51563 18.8292 5.33985C18.321 5.82525 17.8576 6.35538 17.4444 6.92383C17.247 7.19626 17.1429 7.52512 17.1474 7.86151C17.1519 8.19789 17.2648 8.52383 17.4695 8.79087C17.6741 9.05791 17.9594 9.25178 18.283 9.34365C18.6067 9.43552 18.9513 9.42049 19.2657 9.30078C19.5396 9.19852 19.8194 9.11276 20.1036 9.04395C20.6955 8.91883 21.3025 8.88099 21.9053 8.93164C23.1934 9.03809 24.7169 9.67774 25.3907 10.21C26.5333 11.1289 27.0831 12.3672 27.1739 14.2227C27.1915 14.5957 26.42 15.9941 25.2208 17.5898C24.9923 17.891 24.8808 18.2647 24.9068 18.6418C24.9329 19.0189 25.0947 19.3737 25.3624 19.6406L28.7227 23.001C29.0051 23.284 29.3852 23.4481 29.7849 23.4593C30.1845 23.4706 30.5733 23.3282 30.8712 23.0615C31.8214 22.2129 33.2686 20.9336 33.7745 20.6201C34.5255 20.1582 35.0626 20.0693 35.21 20.0537C35.5927 20.0163 35.9776 20.0975 36.3126 20.2861C36.3142 20.3029 36.3124 20.3197 36.3072 20.3357C36.302 20.3517 36.2935 20.3664 36.2823 20.3789L36.1046 20.5479L36.0753 20.5752C35.8789 20.7709 35.7231 21.0034 35.617 21.2595C35.5109 21.5156 35.4565 21.7902 35.457 22.0674C35.4574 22.3446 35.5127 22.619 35.6197 22.8748C35.7266 23.1305 35.8831 23.3626 36.0802 23.5576L39.4259 26.8691C39.6219 27.0644 39.8548 27.2189 40.1109 27.3236C40.367 27.4284 40.6413 27.4814 40.918 27.4795C41.4737 27.4803 42.0075 27.2629 42.4044 26.874L47.8243 21.5205C47.8428 21.502 47.8614 21.4824 47.879 21.4629C48.2426 21.0643 48.4419 20.5429 48.4368 20.0034C48.4317 19.4639 48.2227 18.9464 47.8516 18.5547Z" fill="black"/>
<path d="M2.08026 63V54.2727H3.13707V58.1591H7.79048V54.2727H8.8473V63H7.79048V59.0966H3.13707V63H2.08026ZM12.7528 63.1534C12.3381 63.1534 11.9616 63.0753 11.6236 62.919C11.2855 62.7599 11.017 62.5312 10.8182 62.233C10.6193 61.9318 10.5199 61.5682 10.5199 61.142C10.5199 60.767 10.5938 60.4631 10.7415 60.2301C10.8892 59.9943 11.0866 59.8097 11.3338 59.6761C11.581 59.5426 11.8537 59.4432 12.152 59.3778C12.4531 59.3097 12.7557 59.2557 13.0597 59.2159C13.4574 59.1648 13.7798 59.1264 14.027 59.1009C14.277 59.0724 14.4588 59.0256 14.5724 58.9602C14.6889 58.8949 14.7472 58.7812 14.7472 58.6193V58.5852C14.7472 58.1648 14.6321 57.8381 14.402 57.6051C14.1747 57.3722 13.8295 57.2557 13.3665 57.2557C12.8864 57.2557 12.5099 57.3608 12.2372 57.571C11.9645 57.7812 11.7727 58.0057 11.6619 58.2443L10.7074 57.9034C10.8778 57.5057 11.1051 57.196 11.3892 56.9744C11.6761 56.75 11.9886 56.5937 12.3267 56.5057C12.6676 56.4148 13.0028 56.3693 13.3324 56.3693C13.5426 56.3693 13.7841 56.3949 14.0568 56.446C14.3324 56.4943 14.598 56.5952 14.8537 56.7486C15.1122 56.902 15.3267 57.1335 15.4972 57.4432C15.6676 57.7528 15.7528 58.1676 15.7528 58.6875V63H14.7472V62.1136H14.696C14.6278 62.2557 14.5142 62.4077 14.3551 62.5696C14.196 62.7315 13.9844 62.8693 13.7202 62.983C13.456 63.0966 13.1335 63.1534 12.7528 63.1534ZM12.9062 62.25C13.304 62.25 13.6392 62.1719 13.9119 62.0156C14.1875 61.8594 14.3949 61.6577 14.5341 61.4105C14.6761 61.1634 14.7472 60.9034 14.7472 60.6307V59.7102C14.7045 59.7614 14.6108 59.8082 14.4659 59.8509C14.3239 59.8906 14.1591 59.9261 13.9716 59.9574C13.7869 59.9858 13.6065 60.0114 13.4304 60.0341C13.2571 60.054 13.1165 60.071 13.0085 60.0852C12.7472 60.1193 12.5028 60.1747 12.2756 60.2514C12.0511 60.3253 11.8693 60.4375 11.7301 60.5881C11.5938 60.7358 11.5256 60.9375 11.5256 61.1932C11.5256 61.5426 11.6548 61.8068 11.9134 61.9858C12.1747 62.1619 12.5057 62.25 12.9062 62.25ZM17.5884 63V56.4545H18.56V57.4773H18.6452C18.7816 57.1278 19.0018 56.8565 19.3058 56.6634C19.6097 56.4673 19.9748 56.3693 20.4009 56.3693C20.8327 56.3693 21.1921 56.4673 21.479 56.6634C21.7688 56.8565 21.9947 57.1278 22.1566 57.4773H22.2248C22.3924 57.1392 22.6438 56.8707 22.979 56.6719C23.3143 56.4702 23.7163 56.3693 24.185 56.3693C24.7702 56.3693 25.2489 56.5526 25.6211 56.919C25.9933 57.2827 26.1793 57.8494 26.1793 58.6193V63H25.1737V58.6193C25.1737 58.1364 25.0415 57.7912 24.7773 57.5838C24.5131 57.3764 24.2021 57.2727 23.8441 57.2727C23.3839 57.2727 23.0273 57.4119 22.7745 57.6903C22.5217 57.9659 22.3952 58.3153 22.3952 58.7386V63H21.3725V58.517C21.3725 58.1449 21.2518 57.8452 21.0103 57.6179C20.7688 57.3878 20.4577 57.2727 20.0771 57.2727C19.8157 57.2727 19.5714 57.3423 19.3441 57.4815C19.1197 57.6207 18.9379 57.8139 18.7987 58.0611C18.6623 58.3054 18.5941 58.5881 18.5941 58.9091V63H17.5884ZM28.0181 63V56.4545H28.9897V57.4773H29.0749C29.2113 57.1278 29.4315 56.8565 29.7354 56.6634C30.0394 56.4673 30.4045 56.3693 30.8306 56.3693C31.2624 56.3693 31.6218 56.4673 31.9087 56.6634C32.1985 56.8565 32.4244 57.1278 32.5863 57.4773H32.6545C32.8221 57.1392 33.0735 56.8707 33.4087 56.6719C33.744 56.4702 34.146 56.3693 34.6147 56.3693C35.1999 56.3693 35.6786 56.5526 36.0508 56.919C36.4229 57.2827 36.609 57.8494 36.609 58.6193V63H35.6033V58.6193C35.6033 58.1364 35.4712 57.7912 35.207 57.5838C34.9428 57.3764 34.6317 57.2727 34.2738 57.2727C33.8136 57.2727 33.457 57.4119 33.2042 57.6903C32.9513 57.9659 32.8249 58.3153 32.8249 58.7386V63H31.8022V58.517C31.8022 58.1449 31.6815 57.8452 31.44 57.6179C31.1985 57.3878 30.8874 57.2727 30.5067 57.2727C30.2454 57.2727 30.0011 57.3423 29.7738 57.4815C29.5494 57.6207 29.3675 57.8139 29.2283 58.0611C29.092 58.3054 29.0238 58.5881 29.0238 58.9091V63H28.0181ZM41.1921 63.1364C40.5614 63.1364 40.0174 62.9972 39.56 62.7188C39.1055 62.4375 38.7546 62.0455 38.5075 61.5426C38.2631 61.0369 38.141 60.4489 38.141 59.7784C38.141 59.108 38.2631 58.517 38.5075 58.0057C38.7546 57.4915 39.0984 57.0909 39.5387 56.804C39.9819 56.5142 40.4989 56.3693 41.0898 56.3693C41.4308 56.3693 41.7674 56.4261 42.0998 56.5398C42.4322 56.6534 42.7347 56.8381 43.0075 57.0938C43.2802 57.3466 43.4975 57.6818 43.6594 58.0994C43.8214 58.517 43.9023 59.0312 43.9023 59.642V60.0682H38.8569V59.1989H42.8796C42.8796 58.8295 42.8058 58.5 42.658 58.2102C42.5131 57.9205 42.3058 57.6918 42.0359 57.5241C41.7688 57.3565 41.4535 57.2727 41.0898 57.2727C40.6893 57.2727 40.3427 57.3722 40.0501 57.571C39.7603 57.767 39.5373 58.0227 39.381 58.3381C39.2248 58.6534 39.1467 58.9915 39.1467 59.3523V59.9318C39.1467 60.4261 39.2319 60.8452 39.4023 61.1889C39.5756 61.5298 39.8157 61.7898 40.1225 61.9688C40.4293 62.1449 40.7859 62.233 41.1921 62.233C41.4563 62.233 41.695 62.196 41.908 62.1222C42.1239 62.0455 42.31 61.9318 42.4663 61.7812C42.6225 61.6278 42.7433 61.4375 42.8285 61.2102L43.8001 61.483C43.6978 61.8125 43.5259 62.1023 43.2844 62.3523C43.043 62.5994 42.7447 62.7926 42.3896 62.9318C42.0344 63.0682 41.6353 63.1364 41.1921 63.1364ZM45.4322 63V56.4545H46.4038V57.4432H46.4719C46.5913 57.1193 46.8072 56.8565 47.1197 56.6548C47.4322 56.4531 47.7844 56.3523 48.1765 56.3523C48.2504 56.3523 48.3427 56.3537 48.4535 56.3565C48.5643 56.3594 48.6481 56.3636 48.7049 56.3693V57.392C48.6708 57.3835 48.5927 57.3707 48.4705 57.3537C48.3512 57.3338 48.2248 57.3239 48.0913 57.3239C47.7731 57.3239 47.489 57.3906 47.239 57.5241C46.9918 57.6548 46.7958 57.8366 46.6509 58.0696C46.5089 58.2997 46.4379 58.5625 46.4379 58.858V63H45.4322Z" fill="black"/>
</svg>
