<svg width="63" height="65" viewBox="0 0 63 65" fill="none" xmlns="http://www.w3.org/2000/svg">
<path d="M17.9353 7.43164L12.8756 30.0293C14.3227 31.7285 16.4784 32.8125 18.9 32.8125H44.1C46.5216 32.8125 48.6773 31.7285 50.1244 30.0293L45.0647 7.43164C44.5036 4.91211 42.2494 3.125 39.6506 3.125C38.4497 3.125 37.2783 3.51562 36.3234 4.22852L35.8608 4.57031C33.2719 6.49414 29.7183 6.49414 27.1392 4.57031L26.6766 4.22852C25.7119 3.51562 24.5503 3.125 23.3494 3.125C20.7506 3.125 18.4964 4.91211 17.9353 7.43164ZM6.3 25C6.3 23.2715 4.89234 21.875 3.15 21.875C1.40766 21.875 0 23.2715 0 25C0 35.3516 8.46562 43.75 18.9 43.75H44.1C54.5344 43.75 63 35.3516 63 25C63 23.2715 61.5923 21.875 59.85 21.875C58.1077 21.875 56.7 23.2715 56.7 25C56.7 31.9043 51.0595 37.5 44.1 37.5H18.9C11.9405 37.5 6.3 31.9043 6.3 25Z" fill="black"/>
<path d="M22.5549 62V53.2727H23.6117V57.1591H28.2651V53.2727H29.3219V62H28.2651V58.0966H23.6117V62H22.5549ZM33.2275 62.1534C32.8127 62.1534 32.4363 62.0753 32.0982 61.919C31.7601 61.7599 31.4917 61.5312 31.2928 61.233C31.0939 60.9318 30.9945 60.5682 30.9945 60.142C30.9945 59.767 31.0684 59.4631 31.2161 59.2301C31.3638 58.9943 31.5613 58.8097 31.8084 58.6761C32.0556 58.5426 32.3283 58.4432 32.6266 58.3778C32.9277 58.3097 33.2303 58.2557 33.5343 58.2159C33.932 58.1648 34.2544 58.1264 34.5016 58.1009C34.7516 58.0724 34.9334 58.0256 35.0471 57.9602C35.1635 57.8949 35.2218 57.7812 35.2218 57.6193V57.5852C35.2218 57.1648 35.1067 56.8381 34.8766 56.6051C34.6493 56.3722 34.3042 56.2557 33.8411 56.2557C33.361 56.2557 32.9846 56.3608 32.7118 56.571C32.4391 56.7812 32.2473 57.0057 32.1365 57.2443L31.182 56.9034C31.3525 56.5057 31.5797 56.196 31.8638 55.9744C32.1507 55.75 32.4632 55.5937 32.8013 55.5057C33.1422 55.4148 33.4775 55.3693 33.807 55.3693C34.0172 55.3693 34.2587 55.3949 34.5314 55.446C34.807 55.4943 35.0726 55.5952 35.3283 55.7486C35.5868 55.902 35.8013 56.1335 35.9718 56.4432C36.1422 56.7528 36.2275 57.1676 36.2275 57.6875V62H35.2218V61.1136H35.1706C35.1025 61.2557 34.9888 61.4077 34.8297 61.5696C34.6706 61.7315 34.459 61.8693 34.1948 61.983C33.9306 62.0966 33.6081 62.1534 33.2275 62.1534ZM33.3809 61.25C33.7786 61.25 34.1138 61.1719 34.3865 61.0156C34.6621 60.8594 34.8695 60.6577 35.0087 60.4105C35.1507 60.1634 35.2218 59.9034 35.2218 59.6307V58.7102C35.1792 58.7614 35.0854 58.8082 34.9405 58.8509C34.7985 58.8906 34.6337 58.9261 34.4462 58.9574C34.2615 58.9858 34.0811 59.0114 33.905 59.0341C33.7317 59.054 33.5911 59.071 33.4831 59.0852C33.2218 59.1193 32.9775 59.1747 32.7502 59.2514C32.5257 59.3253 32.3439 59.4375 32.2047 59.5881C32.0684 59.7358 32.0002 59.9375 32.0002 60.1932C32.0002 60.5426 32.1294 60.8068 32.388 60.9858C32.6493 61.1619 32.9803 61.25 33.3809 61.25ZM40.9096 55.4545V56.3068H37.5176V55.4545H40.9096ZM38.5062 53.8864H39.5119V60.125C39.5119 60.4091 39.5531 60.6222 39.6355 60.7642C39.7207 60.9034 39.8287 60.9972 39.9593 61.0455C40.0929 61.0909 40.2335 61.1136 40.3812 61.1136C40.492 61.1136 40.5829 61.108 40.6539 61.0966C40.725 61.0824 40.7818 61.071 40.8244 61.0625L41.0289 61.9659C40.9608 61.9915 40.8656 62.017 40.7434 62.0426C40.6213 62.071 40.4664 62.0852 40.2789 62.0852C39.9949 62.0852 39.7164 62.0241 39.4437 61.902C39.1738 61.7798 38.9494 61.5938 38.7704 61.3438C38.5943 61.0938 38.5062 60.7784 38.5062 60.3977V53.8864Z" fill="black"/>
</svg>
