<svg width="50" height="68" viewBox="0 0 50 68" fill="none" xmlns="http://www.w3.org/2000/svg">
<path d="M25.498 2.42175C24.8828 2.42175 24.2578 2.46374 23.623 2.53699C20.2441 2.92859 17.2949 4.25476 15.2148 6.15613C13.125 8.05847 11.875 10.6053 12.1875 13.3007C12.4609 15.703 13.9258 17.7147 16.0059 19.1014C16.2598 18.496 16.582 17.9393 16.9043 17.4901C15.1855 16.3573 14.1309 14.8241 13.9355 13.0956C13.7109 11.1718 14.5898 9.23035 16.3574 7.61316C18.1348 5.99499 20.7813 4.77527 23.8379 4.42175C26.8945 4.06726 29.7559 4.64929 31.8555 5.81824C33.9453 6.98816 35.2441 8.68054 35.4688 10.5956C35.6836 12.4803 34.8633 14.3846 33.1836 15.9667C32.145 15.3178 30.9509 14.9602 29.7266 14.9315H29.5117C29.0137 14.9413 28.5254 14.9999 28.0176 15.1073C24.3555 15.9569 22.0801 19.5507 22.9199 23.1835C23.4375 25.4296 25.0293 27.1483 27.041 27.9198L30.918 44.7362L35.5078 47.578L38.3887 43.0175L36.0938 41.6014L37.5391 39.3163L35.2441 37.8905L36.6797 35.6151L34.3848 34.1893L35.8301 31.9042L34.5117 26.201C35.9863 24.6288 36.6602 22.3827 36.1426 20.1268C35.8789 18.9843 35.3418 17.9784 34.5996 17.1581C36.4453 15.3026 37.5098 12.91 37.2168 10.4003C36.9043 7.70984 35.1074 5.51355 32.6367 4.13953C30.6348 3.02136 28.1641 2.40417 25.498 2.42175ZM23.5254 15.6542C20.9961 15.7616 18.6523 17.2948 17.627 19.7753C16.7383 21.9139 17.041 24.2382 18.2324 26.0448L11.6113 41.9628L13.6914 46.9432L18.6914 44.9022L17.6465 42.412L20.1465 41.3964L19.1113 38.9061L21.6113 37.8905L20.5664 35.4003L23.0664 34.3749L25.293 29.0233C23.291 27.9003 21.7578 25.9764 21.2012 23.5741C20.5273 20.6151 21.5039 17.6561 23.5254 15.6542ZM29.1895 16.3573C30.0586 16.3475 30.8789 16.6991 31.4746 17.2753C30.9375 17.6171 30.3418 17.9198 29.7168 18.1932C29.5605 18.1346 29.3945 18.1151 29.2188 18.1151C29.1602 18.1151 29.1113 18.1151 29.0625 18.1249C28.3789 18.203 27.8711 18.7206 27.7832 19.3651C27.7637 19.4628 27.7637 19.5604 27.7637 19.6483C27.7734 19.6776 27.7734 19.7167 27.7734 19.746C27.8711 20.5663 28.584 21.1327 29.4043 21.035C30.0684 20.9569 30.5762 20.4589 30.6738 19.8339C31.2793 19.5604 31.8457 19.2577 32.3828 18.9159C32.4023 19.0135 32.4219 19.1112 32.4316 19.2089C32.6367 20.9667 31.3574 22.578 29.5996 22.7831C27.8516 22.9882 26.2305 21.7089 26.0352 19.951C25.8301 18.1932 27.1094 16.5819 28.8672 16.3768C28.9746 16.3671 29.082 16.3573 29.1895 16.3573Z" fill="black"/>
<path d="M12.5158 65V56.2727H13.5726V60.6023H13.6749L17.5953 56.2727H18.976L15.3113 60.2102L18.976 65H17.6976L14.6635 60.9432L13.5726 62.1705V65H12.5158ZM22.4714 65.1364C21.8407 65.1364 21.2967 64.9972 20.8393 64.7188C20.3848 64.4375 20.0339 64.0455 19.7868 63.5426C19.5424 63.0369 19.4203 62.4489 19.4203 61.7784C19.4203 61.108 19.5424 60.517 19.7868 60.0057C20.0339 59.4915 20.3777 59.0909 20.818 58.804C21.2612 58.5142 21.7782 58.3693 22.3691 58.3693C22.71 58.3693 23.0467 58.4261 23.3791 58.5398C23.7115 58.6534 24.014 58.8381 24.2868 59.0938C24.5595 59.3466 24.7768 59.6818 24.9387 60.0994C25.1007 60.517 25.1816 61.0312 25.1816 61.642V62.0682H20.1362V61.1989H24.1589C24.1589 60.8295 24.085 60.5 23.9373 60.2102C23.7924 59.9205 23.585 59.6918 23.3152 59.5241C23.0481 59.3565 22.7328 59.2727 22.3691 59.2727C21.9686 59.2727 21.622 59.3722 21.3294 59.571C21.0396 59.767 20.8166 60.0227 20.6603 60.3381C20.5041 60.6534 20.426 60.9915 20.426 61.3523V61.9318C20.426 62.4261 20.5112 62.8452 20.6816 63.1889C20.8549 63.5298 21.095 63.7898 21.4018 63.9688C21.7086 64.1449 22.0652 64.233 22.4714 64.233C22.7356 64.233 22.9743 64.196 23.1873 64.1222C23.4032 64.0455 23.5893 63.9318 23.7456 63.7812C23.9018 63.6278 24.0225 63.4375 24.1078 63.2102L25.0794 63.483C24.9771 63.8125 24.8052 64.1023 24.5637 64.3523C24.3223 64.5994 24.024 64.7926 23.6689 64.9318C23.3137 65.0682 22.9146 65.1364 22.4714 65.1364ZM27.16 67.4545C26.9895 67.4545 26.8375 67.4403 26.704 67.4119C26.5705 67.3864 26.4782 67.3608 26.427 67.3352L26.6827 66.4489C26.927 66.5114 27.1429 66.5341 27.3304 66.517C27.5179 66.5 27.6841 66.4162 27.829 66.2656C27.9767 66.1179 28.1117 65.8778 28.2338 65.5455L28.4213 65.0341L26.0009 58.4545H27.0918L28.8986 63.6705H28.9668L30.7736 58.4545H31.8645L29.0861 65.9545C28.9611 66.2926 28.8063 66.5724 28.6216 66.794C28.437 67.0185 28.2225 67.1847 27.9782 67.2926C27.7367 67.4006 27.464 67.4545 27.16 67.4545ZM37.8283 59.9205L36.9249 60.1761C36.8681 60.0256 36.7843 59.8793 36.6735 59.7372C36.5655 59.5923 36.4178 59.473 36.2303 59.3793C36.0428 59.2855 35.8027 59.2386 35.5101 59.2386C35.1096 59.2386 34.7757 59.331 34.5087 59.5156C34.2445 59.6974 34.1124 59.929 34.1124 60.2102C34.1124 60.4602 34.2033 60.6577 34.3851 60.8026C34.5669 60.9474 34.851 61.0682 35.2374 61.1648L36.209 61.4034C36.7942 61.5455 37.2303 61.7628 37.5172 62.0554C37.8042 62.3452 37.9476 62.7187 37.9476 63.1761C37.9476 63.5511 37.8397 63.8864 37.6238 64.1818C37.4107 64.4773 37.1124 64.7102 36.7289 64.8807C36.3453 65.0511 35.8993 65.1364 35.3908 65.1364C34.7232 65.1364 34.1706 64.9915 33.7331 64.7017C33.2956 64.4119 33.0186 63.9886 32.9022 63.4318L33.8567 63.1932C33.9476 63.5455 34.1195 63.8097 34.3723 63.9858C34.628 64.1619 34.9618 64.25 35.3738 64.25C35.8425 64.25 36.2147 64.1506 36.4902 63.9517C36.7686 63.75 36.9078 63.5085 36.9078 63.2273C36.9078 63 36.8283 62.8097 36.6692 62.6562C36.5101 62.5 36.2658 62.3835 35.9363 62.3068L34.8453 62.0511C34.2459 61.9091 33.8056 61.6889 33.5243 61.3906C33.2459 61.0895 33.1067 60.7131 33.1067 60.2614C33.1067 59.892 33.2104 59.5653 33.4178 59.2812C33.628 58.9972 33.9135 58.7741 34.2743 58.6122C34.638 58.4503 35.0499 58.3693 35.5101 58.3693C36.1578 58.3693 36.6664 58.5114 37.0357 58.7955C37.4078 59.0795 37.6721 59.4545 37.8283 59.9205Z" fill="black"/>
</svg>
