<svg width="47" height="66" viewBox="0 0 47 66" fill="none" xmlns="http://www.w3.org/2000/svg">
<path d="M34.7857 2.96854C31.4857 1.41433 27.7481 1.05574 24.2128 1.95416C20.6775 2.85258 17.5646 4.95213 15.407 7.89326L7.71076 18.3801C1.36136 27.0281 4.49714 39.3245 14.2026 43.8879C22.7713 47.9211 32.9615 44.1905 36.9301 35.6115C38.1146 33.0549 39.296 30.4968 40.4742 27.9373L42.3791 23.7998C45.9923 15.9567 42.6068 6.65951 34.7857 2.96854ZM17.7761 9.63079C19.5304 7.23976 22.0612 5.53282 24.9353 4.80217C27.8095 4.07151 30.8482 4.36256 33.5314 5.62551C39.8984 8.63057 42.6509 16.1946 39.7134 22.5705L37.8084 26.7065V26.7094C36.8537 28.7803 36.8317 28.8303 34.2643 34.3763C30.9787 41.4836 22.5437 44.5665 15.4555 41.2295C7.41995 37.4504 4.82614 27.2734 10.0799 20.1177L17.7761 9.63079Z" fill="black"/>
<path d="M34.7857 2.96854C31.4857 1.41433 27.7481 1.05574 24.2128 1.95416C20.6775 2.85258 17.5646 4.95213 15.407 7.89326L7.71076 18.3801C1.36136 27.0281 4.49714 39.3245 14.2026 43.8879C22.7713 47.9211 32.9615 44.1905 36.9301 35.6115C38.1146 33.0549 39.296 30.4968 40.4742 27.9373L42.3791 23.7998C45.9923 15.9567 42.6068 6.65951 34.7857 2.96854ZM17.7761 9.63079C19.5304 7.23976 22.0612 5.53282 24.9353 4.80217C27.8095 4.07151 30.8482 4.36256 33.5314 5.62551C39.8984 8.63057 42.6509 16.1946 39.7134 22.5705L37.8084 26.7065V26.7094C36.8537 28.7803 36.8317 28.8303 34.2643 34.3763C30.9787 41.4836 22.5437 44.5665 15.4555 41.2295C7.41995 37.4504 4.82614 27.2734 10.0799 20.1177L17.7761 9.63079Z" fill="black" fill-opacity="0.96"/>
<path d="M7.51965 21.62L17.8596 7.05004L24.4396 3.29004L32.8996 4.23004L39.9496 8.46004L42.7696 17.39L39.0096 28.2L32.4296 39.95L24.9096 44.18L18.3296 43.71L12.2196 41.36L7.98965 35.72L5.63965 28.67L7.51965 21.62Z" fill="black"/>
<path d="M29.3258 11.6706C29.5958 11.6706 29.8632 11.6174 30.1127 11.5141C30.3622 11.4107 30.5888 11.2593 30.7798 11.0683C30.9707 10.8774 31.1222 10.6507 31.2255 10.4012C31.3288 10.1518 31.382 9.88439 31.382 9.61436C31.382 9.34433 31.3288 9.07694 31.2255 8.82746C31.1222 8.57799 30.9707 8.35131 30.7798 8.16037C30.5888 7.96943 30.3622 7.81796 30.1127 7.71463C29.8632 7.61129 29.5958 7.55811 29.3258 7.55811C28.7804 7.55811 28.2574 7.77475 27.8718 8.16037C27.4862 8.54599 27.2695 9.069 27.2695 9.61436C27.2695 10.1597 27.4862 10.6827 27.8718 11.0683C28.2574 11.454 28.7804 11.6706 29.3258 11.6706ZM29.8545 19.8222C29.8545 20.535 29.5714 21.2187 29.0673 21.7227C28.5632 22.2268 27.8796 22.51 27.1667 22.51C26.4539 22.51 25.7702 22.2268 25.2661 21.7227C24.7621 21.2187 24.4789 20.535 24.4789 19.8222C24.4789 19.1093 24.7621 18.4257 25.2661 17.9216C25.7702 17.4175 26.4539 17.1344 27.1667 17.1344C27.8796 17.1344 28.5632 17.4175 29.0673 17.9216C29.5714 18.4257 29.8545 19.1093 29.8545 19.8222ZM17.1498 27.915C17.1498 28.5694 16.8899 29.197 16.4271 29.6598C15.9644 30.1225 15.3368 30.3825 14.6823 30.3825C14.0279 30.3825 13.4003 30.1225 12.9376 29.6598C12.4748 29.197 12.2148 28.5694 12.2148 27.915C12.2148 27.2606 12.4748 26.6329 12.9376 26.1702C13.4003 25.7074 14.0279 25.4475 14.6823 25.4475C15.3368 25.4475 15.9644 25.7074 16.4271 26.1702C16.8899 26.6329 17.1498 27.2606 17.1498 27.915ZM16.6064 36.7715C17.0583 36.7715 17.4916 36.592 17.8111 36.2725C18.1307 35.953 18.3102 35.5197 18.3102 35.0678C18.3102 34.6159 18.1307 34.1826 17.8111 33.8631C17.4916 33.5435 17.0583 33.364 16.6064 33.364C16.1545 33.364 15.7212 33.5435 15.4017 33.8631C15.0822 34.1826 14.9027 34.6159 14.9027 35.0678C14.9027 35.5197 15.0822 35.953 15.4017 36.2725C15.7212 36.592 16.1545 36.7715 16.6064 36.7715ZM37.683 21.5259C37.683 21.9778 37.5035 22.4111 37.184 22.7307C36.8644 23.0502 36.4311 23.2297 35.9792 23.2297C35.5274 23.2297 35.094 23.0502 34.7745 22.7307C34.455 22.4111 34.2755 21.9778 34.2755 21.5259C34.2755 21.0741 34.455 20.6407 34.7745 20.3212C35.094 20.0017 35.5274 19.8222 35.9792 19.8222C36.4311 19.8222 36.8644 20.0017 37.184 20.3212C37.5035 20.6407 37.683 21.0741 37.683 21.5259Z" fill="white"/>
<path d="M5.91815 63V54.2727H8.86701C9.55167 54.2727 10.1113 54.3963 10.546 54.6435C10.9835 54.8878 11.3074 55.2188 11.5176 55.6364C11.7278 56.054 11.8329 56.5199 11.8329 57.0341C11.8329 57.5483 11.7278 58.0156 11.5176 58.4361C11.3102 58.8565 10.9892 59.1918 10.5545 59.4418C10.1199 59.6889 9.56303 59.8125 8.88406 59.8125H6.77042V58.875H8.84996C9.31871 58.875 9.69514 58.794 9.97923 58.6321C10.2633 58.4702 10.4693 58.2514 10.5971 57.9759C10.7278 57.6974 10.7931 57.3835 10.7931 57.0341C10.7931 56.6847 10.7278 56.3722 10.5971 56.0966C10.4693 55.821 10.2619 55.6051 9.97496 55.4489C9.68803 55.2898 9.30735 55.2102 8.83292 55.2102H6.97496V63H5.91815ZM15.9877 63.1364C15.3968 63.1364 14.8784 62.9957 14.4324 62.7145C13.9892 62.4332 13.6426 62.0398 13.3926 61.5341C13.1454 61.0284 13.0218 60.4375 13.0218 59.7614C13.0218 59.0795 13.1454 58.4844 13.3926 57.9759C13.6426 57.4673 13.9892 57.0724 14.4324 56.7912C14.8784 56.5099 15.3968 56.3693 15.9877 56.3693C16.5787 56.3693 17.0957 56.5099 17.5389 56.7912C17.9849 57.0724 18.3315 57.4673 18.5787 57.9759C18.8287 58.4844 18.9537 59.0795 18.9537 59.7614C18.9537 60.4375 18.8287 61.0284 18.5787 61.5341C18.3315 62.0398 17.9849 62.4332 17.5389 62.7145C17.0957 62.9957 16.5787 63.1364 15.9877 63.1364ZM15.9877 62.233C16.4366 62.233 16.8059 62.1179 17.0957 61.8878C17.3855 61.6577 17.6 61.3551 17.7392 60.9801C17.8784 60.6051 17.948 60.1989 17.948 59.7614C17.948 59.3239 17.8784 58.9162 17.7392 58.5384C17.6 58.1605 17.3855 57.8551 17.0957 57.6222C16.8059 57.3892 16.4366 57.2727 15.9877 57.2727C15.5389 57.2727 15.1696 57.3892 14.8798 57.6222C14.59 57.8551 14.3755 58.1605 14.2363 58.5384C14.0971 58.9162 14.0275 59.3239 14.0275 59.7614C14.0275 60.1989 14.0971 60.6051 14.2363 60.9801C14.3755 61.3551 14.59 61.6577 14.8798 61.8878C15.1696 62.1179 15.5389 62.233 15.9877 62.233ZM23.3354 56.4545V57.3068H19.9434V56.4545H23.3354ZM20.932 54.8864H21.9377V61.125C21.9377 61.4091 21.9789 61.6222 22.0613 61.7642C22.1465 61.9034 22.2544 61.9972 22.3851 62.0455C22.5186 62.0909 22.6593 62.1136 22.807 62.1136C22.9178 62.1136 23.0087 62.108 23.0797 62.0966C23.1507 62.0824 23.2076 62.071 23.2502 62.0625L23.4547 62.9659C23.3865 62.9915 23.2914 63.017 23.1692 63.0426C23.0471 63.071 22.8922 63.0852 22.7047 63.0852C22.4206 63.0852 22.1422 63.0241 21.8695 62.902C21.5996 62.7798 21.3752 62.5938 21.1962 62.3438C21.0201 62.0938 20.932 61.7784 20.932 61.3977V54.8864ZM26.7743 63.1534C26.3596 63.1534 25.9831 63.0753 25.6451 62.919C25.307 62.7599 25.0385 62.5312 24.8397 62.233C24.6408 61.9318 24.5414 61.5682 24.5414 61.142C24.5414 60.767 24.6152 60.4631 24.763 60.2301C24.9107 59.9943 25.1081 59.8097 25.3553 59.6761C25.6025 59.5426 25.8752 59.4432 26.1735 59.3778C26.4746 59.3097 26.7772 59.2557 27.0811 59.2159C27.4789 59.1648 27.8013 59.1264 28.0485 59.1009C28.2985 59.0724 28.4803 59.0256 28.5939 58.9602C28.7104 58.8949 28.7686 58.7812 28.7686 58.6193V58.5852C28.7686 58.1648 28.6536 57.8381 28.4235 57.6051C28.1962 57.3722 27.851 57.2557 27.388 57.2557C26.9078 57.2557 26.5314 57.3608 26.2587 57.571C25.986 57.7812 25.7942 58.0057 25.6834 58.2443L24.7289 57.9034C24.8993 57.5057 25.1266 57.196 25.4107 56.9744C25.6976 56.75 26.0101 56.5937 26.3482 56.5057C26.6891 56.4148 27.0243 56.3693 27.3539 56.3693C27.5641 56.3693 27.8056 56.3949 28.0783 56.446C28.3539 56.4943 28.6195 56.5952 28.8752 56.7486C29.1337 56.902 29.3482 57.1335 29.5186 57.4432C29.6891 57.7528 29.7743 58.1676 29.7743 58.6875V63H28.7686V62.1136H28.7175C28.6493 62.2557 28.5357 62.4077 28.3766 62.5696C28.2175 62.7315 28.0059 62.8693 27.7417 62.983C27.4775 63.0966 27.155 63.1534 26.7743 63.1534ZM26.9277 62.25C27.3255 62.25 27.6607 62.1719 27.9334 62.0156C28.209 61.8594 28.4164 61.6577 28.5556 61.4105C28.6976 61.1634 28.7686 60.9034 28.7686 60.6307V59.7102C28.726 59.7614 28.6323 59.8082 28.4874 59.8509C28.3453 59.8906 28.1806 59.9261 27.9931 59.9574C27.8084 59.9858 27.628 60.0114 27.4519 60.0341C27.2786 60.054 27.138 60.071 27.03 60.0852C26.7686 60.1193 26.5243 60.1747 26.2971 60.2514C26.0726 60.3253 25.8908 60.4375 25.7516 60.5881C25.6152 60.7358 25.5471 60.9375 25.5471 61.1932C25.5471 61.5426 25.6763 61.8068 25.9348 61.9858C26.1962 62.1619 26.5272 62.25 26.9277 62.25ZM34.4565 56.4545V57.3068H31.0645V56.4545H34.4565ZM32.0531 54.8864H33.0588V61.125C33.0588 61.4091 33.1 61.6222 33.1824 61.7642C33.2676 61.9034 33.3755 61.9972 33.5062 62.0455C33.6397 62.0909 33.7804 62.1136 33.9281 62.1136C34.0389 62.1136 34.1298 62.108 34.2008 62.0966C34.2718 62.0824 34.3287 62.071 34.3713 62.0625L34.5758 62.9659C34.5076 62.9915 34.4125 63.017 34.2903 63.0426C34.1681 63.071 34.0133 63.0852 33.8258 63.0852C33.5417 63.0852 33.2633 63.0241 32.9906 62.902C32.7207 62.7798 32.4963 62.5938 32.3173 62.3438C32.1412 62.0938 32.0531 61.7784 32.0531 61.3977V54.8864ZM38.5581 63.1364C37.9672 63.1364 37.4487 62.9957 37.0027 62.7145C36.5595 62.4332 36.2129 62.0398 35.9629 61.5341C35.7157 61.0284 35.5922 60.4375 35.5922 59.7614C35.5922 59.0795 35.7157 58.4844 35.9629 57.9759C36.2129 57.4673 36.5595 57.0724 37.0027 56.7912C37.4487 56.5099 37.9672 56.3693 38.5581 56.3693C39.149 56.3693 39.666 56.5099 40.1092 56.7912C40.5552 57.0724 40.9018 57.4673 41.149 57.9759C41.399 58.4844 41.524 59.0795 41.524 59.7614C41.524 60.4375 41.399 61.0284 41.149 61.5341C40.9018 62.0398 40.5552 62.4332 40.1092 62.7145C39.666 62.9957 39.149 63.1364 38.5581 63.1364ZM38.5581 62.233C39.0069 62.233 39.3762 62.1179 39.666 61.8878C39.9558 61.6577 40.1703 61.3551 40.3095 60.9801C40.4487 60.6051 40.5183 60.1989 40.5183 59.7614C40.5183 59.3239 40.4487 58.9162 40.3095 58.5384C40.1703 58.1605 39.9558 57.8551 39.666 57.6222C39.3762 57.3892 39.0069 57.2727 38.5581 57.2727C38.1092 57.2727 37.7399 57.3892 37.4501 57.6222C37.1603 57.8551 36.9458 58.1605 36.8066 58.5384C36.6674 58.9162 36.5978 59.3239 36.5978 59.7614C36.5978 60.1989 36.6674 60.6051 36.8066 60.9801C36.9458 61.3551 37.1603 61.6577 37.4501 61.8878C37.7399 62.1179 38.1092 62.233 38.5581 62.233Z" fill="black"/>
</svg>
