<svg width="68" height="65" viewBox="0 0 68 65" fill="none" xmlns="http://www.w3.org/2000/svg">
<path d="M51.5864 3.91032C49.9603 2.28654 47.7562 1.37451 45.4582 1.37451C43.1602 1.37451 40.9561 2.28654 39.33 3.91032L30.1794 13.0627C29.9239 13.3174 29.7213 13.6201 29.5832 13.9534C29.4452 14.2867 29.3744 14.6441 29.375 15.0049V17.8752H26.4823C25.8833 17.8767 25.3008 18.072 24.822 18.432C24.7723 18.47 24.7252 18.5114 24.6811 18.5558L23.3061 19.9308C23.0506 20.1862 22.848 20.4893 22.7098 20.823C22.5716 21.1567 22.5004 21.5144 22.5004 21.8756C22.5004 22.2367 22.5716 22.5944 22.7098 22.9281C22.848 23.2618 23.0506 23.565 23.3061 23.8203L26.5201 27.0361L13.2858 40.2791C13.158 40.4068 13.0567 40.5585 12.9875 40.7254C12.9184 40.8923 12.8828 41.0712 12.8828 41.2519C12.8828 41.4326 12.9184 41.6115 12.9875 41.7784C13.0567 41.9453 13.158 42.0969 13.2858 42.2247C13.5438 42.4827 13.8937 42.6276 14.2586 42.6276C14.4392 42.6276 14.6181 42.5921 14.7851 42.5229C14.952 42.4538 15.1036 42.3524 15.2314 42.2247L28.4658 28.98L31.6815 32.1958C32.1972 32.7111 32.8964 33.0006 33.6255 33.0006C34.3545 33.0006 35.0537 32.7111 35.5694 32.1958L36.9444 30.8208C36.9888 30.7761 37.0302 30.7285 37.0681 30.6781C37.4303 30.2004 37.6265 29.6174 37.6267 29.0178V26.1252H40.4953C40.8564 26.1259 41.214 26.0548 41.5474 25.9161C41.8809 25.7775 42.1834 25.5739 42.4375 25.3174L51.5864 16.1684C52.3913 15.3636 53.0298 14.408 53.4654 13.3564C53.901 12.3048 54.1252 11.1777 54.1252 10.0394C54.1252 8.90111 53.901 7.77397 53.4654 6.72235C53.0298 5.67072 52.3913 4.71519 51.5864 3.91032ZM46.8478 10.5945L37.2228 20.2195C37.0952 20.3473 36.9436 20.4487 36.7768 20.5178C36.61 20.587 36.4312 20.6227 36.2506 20.6227C36.07 20.6228 35.8912 20.5873 35.7243 20.5183C35.5574 20.4493 35.4058 20.348 35.278 20.2204C35.1503 20.0928 35.0489 19.9412 34.9797 19.7744C34.9106 19.6076 34.8749 19.4288 34.8748 19.2482C34.8747 18.8835 35.0194 18.5336 35.2772 18.2756L44.9022 8.65063C45.1602 8.39263 45.5101 8.24768 45.875 8.24768C46.2399 8.24768 46.5898 8.39263 46.8478 8.65063C47.1058 8.90864 47.2508 9.25857 47.2508 9.62345C47.2508 9.98832 47.1058 10.3383 46.8478 10.5963V10.5945Z" fill="black"/>
<path d="M5.43306 55.4545C5.38192 55.0227 5.17454 54.6875 4.8109 54.4489C4.44727 54.2102 4.00124 54.0909 3.47283 54.0909C3.08647 54.0909 2.7484 54.1534 2.45863 54.2784C2.1717 54.4034 1.94727 54.5753 1.78533 54.794C1.62624 55.0128 1.5467 55.2614 1.5467 55.5398C1.5467 55.7727 1.6021 55.973 1.71289 56.1406C1.82653 56.3054 1.97141 56.4432 2.14755 56.554C2.32369 56.6619 2.50835 56.7514 2.70153 56.8224C2.89471 56.8906 3.07227 56.946 3.2342 56.9886L4.12056 57.2273C4.34783 57.2869 4.60067 57.3693 4.87908 57.4744C5.16033 57.5795 5.4288 57.723 5.68448 57.9048C5.943 58.0838 6.15607 58.3139 6.32369 58.5952C6.4913 58.8764 6.57511 59.2216 6.57511 59.6307C6.57511 60.1023 6.45153 60.5284 6.20437 60.9091C5.96005 61.2898 5.6021 61.5923 5.1305 61.8168C4.66175 62.0412 4.09215 62.1534 3.4217 62.1534C2.7967 62.1534 2.2555 62.0526 1.79812 61.8509C1.34357 61.6491 0.985618 61.3679 0.724254 61.0071C0.465732 60.6463 0.319425 60.2273 0.285334 59.75H1.37624C1.40465 60.0795 1.51545 60.3523 1.70863 60.5682C1.90465 60.7812 2.15181 60.9403 2.45011 61.0455C2.75124 61.1477 3.07511 61.1989 3.4217 61.1989C3.82511 61.1989 4.18732 61.1335 4.50835 61.0028C4.82937 60.8693 5.08363 60.6847 5.27113 60.4489C5.45863 60.2102 5.55238 59.9318 5.55238 59.6136C5.55238 59.3239 5.47141 59.0881 5.30948 58.9062C5.14755 58.7244 4.93448 58.5767 4.67028 58.4631C4.40607 58.3494 4.12056 58.25 3.81374 58.1648L2.73988 57.858C2.05806 57.6619 1.51829 57.3821 1.12056 57.0185C0.722834 56.6548 0.52397 56.179 0.52397 55.5909C0.52397 55.1023 0.656072 54.6761 0.920277 54.3125C1.18732 53.946 1.54528 53.6619 1.99414 53.4602C2.44585 53.2557 2.95011 53.1534 3.50692 53.1534C4.06942 53.1534 4.56942 53.2543 5.00692 53.456C5.44442 53.6548 5.79102 53.9276 6.0467 54.2741C6.30522 54.6207 6.44158 55.0142 6.45579 55.4545H5.43306ZM10.8354 62.1364C10.2218 62.1364 9.69336 61.9915 9.25018 61.7017C8.807 61.4119 8.46609 61.0128 8.22745 60.5043C7.98881 59.9957 7.8695 59.4148 7.8695 58.7614C7.8695 58.0966 7.99165 57.5099 8.23597 57.0014C8.48313 56.4901 8.82688 56.0909 9.26722 55.804C9.7104 55.5142 10.2275 55.3693 10.8184 55.3693C11.2786 55.3693 11.6934 55.4545 12.0627 55.625C12.432 55.7955 12.7346 56.0341 12.9703 56.3409C13.2061 56.6477 13.3525 57.0057 13.4093 57.4148H12.4036C12.3269 57.1165 12.1564 56.8523 11.8922 56.6222C11.6309 56.3892 11.2786 56.2727 10.8354 56.2727C10.4434 56.2727 10.0996 56.375 9.80415 56.5795C9.51154 56.7812 9.28285 57.0668 9.11808 57.4361C8.95614 57.8026 8.87518 58.233 8.87518 58.7273C8.87518 59.233 8.95472 59.6733 9.11381 60.0483C9.27575 60.4233 9.50302 60.7145 9.79563 60.9219C10.0911 61.1293 10.4377 61.233 10.8354 61.233C11.0968 61.233 11.334 61.1875 11.5471 61.0966C11.7601 61.0057 11.9405 60.875 12.0882 60.7045C12.236 60.5341 12.3411 60.3295 12.4036 60.0909H13.4093C13.3525 60.4773 13.2118 60.8253 12.9874 61.1349C12.7658 61.4418 12.4718 61.6861 12.1053 61.8679C11.7417 62.0469 11.3184 62.1364 10.8354 62.1364ZM14.8794 62V55.4545H15.851V56.4432H15.9192C16.0385 56.1193 16.2544 55.8565 16.5669 55.6548C16.8794 55.4531 17.2317 55.3523 17.6238 55.3523C17.6976 55.3523 17.79 55.3537 17.9007 55.3565C18.0115 55.3594 18.0953 55.3636 18.1522 55.3693V56.392C18.1181 56.3835 18.04 56.3707 17.9178 56.3537C17.7985 56.3338 17.6721 56.3239 17.5385 56.3239C17.2203 56.3239 16.9363 56.3906 16.6863 56.5241C16.4391 56.6548 16.2431 56.8366 16.0982 57.0696C15.9561 57.2997 15.8851 57.5625 15.8851 57.858V62H14.8794ZM21.8894 62.1364C21.2587 62.1364 20.7147 61.9972 20.2573 61.7188C19.8027 61.4375 19.4519 61.0455 19.2047 60.5426C18.9604 60.0369 18.8382 59.4489 18.8382 58.7784C18.8382 58.108 18.9604 57.517 19.2047 57.0057C19.4519 56.4915 19.7956 56.0909 20.236 55.804C20.6792 55.5142 21.1962 55.3693 21.7871 55.3693C22.128 55.3693 22.4647 55.4261 22.7971 55.5398C23.1294 55.6534 23.432 55.8381 23.7047 56.0938C23.9775 56.3466 24.1948 56.6818 24.3567 57.0994C24.5186 57.517 24.5996 58.0312 24.5996 58.642V59.0682H19.5542V58.1989H23.5769C23.5769 57.8295 23.503 57.5 23.3553 57.2102C23.2104 56.9205 23.003 56.6918 22.7331 56.5241C22.4661 56.3565 22.1507 56.2727 21.7871 56.2727C21.3865 56.2727 21.04 56.3722 20.7473 56.571C20.4576 56.767 20.2346 57.0227 20.0783 57.3381C19.9221 57.6534 19.8439 57.9915 19.8439 58.3523V58.9318C19.8439 59.4261 19.9292 59.8452 20.0996 60.1889C20.2729 60.5298 20.513 60.7898 20.8198 60.9688C21.1266 61.1449 21.4831 61.233 21.8894 61.233C22.1536 61.233 22.3922 61.196 22.6053 61.1222C22.8212 61.0455 23.0073 60.9318 23.1635 60.7812C23.3198 60.6278 23.4405 60.4375 23.5257 60.2102L24.4973 60.483C24.3951 60.8125 24.2232 61.1023 23.9817 61.3523C23.7402 61.5994 23.4419 61.7926 23.0868 61.9318C22.7317 62.0682 22.3326 62.1364 21.8894 62.1364ZM27.6124 62L25.6181 55.4545H26.6749L28.0897 60.4659H28.1578L29.5556 55.4545H30.6294L32.0101 60.4489H32.0783L33.4931 55.4545H34.5499L32.5556 62H31.5669L30.1351 56.9716H30.0328L28.601 62H27.6124ZM38.1284 62.1364C37.5829 62.1364 37.1014 61.9986 36.6838 61.723C36.2662 61.4446 35.9395 61.0526 35.7037 60.5469C35.4679 60.0384 35.35 59.4375 35.35 58.7443C35.35 58.0568 35.4679 57.4602 35.7037 56.9545C35.9395 56.4489 36.2676 56.0582 36.688 55.7827C37.1085 55.5071 37.5943 55.3693 38.1454 55.3693C38.5716 55.3693 38.9082 55.4403 39.1554 55.5824C39.4054 55.7216 39.5957 55.8807 39.7264 56.0597C39.8599 56.2358 39.9636 56.3807 40.0375 56.4943H40.1227V53.2727H41.1284V62H40.1568V60.9943H40.0375C39.9636 61.1136 39.8585 61.2642 39.7221 61.446C39.5858 61.625 39.3912 61.7855 39.1383 61.9276C38.8855 62.0668 38.5488 62.1364 38.1284 62.1364ZM38.2647 61.233C38.6681 61.233 39.0091 61.1278 39.2875 60.9176C39.5659 60.7045 39.7775 60.4105 39.9224 60.0355C40.0673 59.6577 40.1397 59.2216 40.1397 58.7273C40.1397 58.2386 40.0687 57.8111 39.9267 57.4446C39.7846 57.0753 39.5744 56.7884 39.296 56.5838C39.0176 56.3764 38.6738 56.2727 38.2647 56.2727C37.8386 56.2727 37.4835 56.3821 37.1994 56.6009C36.9181 56.8168 36.7065 57.1108 36.5645 57.483C36.4252 57.8523 36.3556 58.267 36.3556 58.7273C36.3556 59.1932 36.4267 59.6165 36.5687 59.9972C36.7136 60.375 36.9267 60.6761 37.2079 60.9006C37.492 61.1222 37.8443 61.233 38.2647 61.233ZM43.1099 62V55.4545H44.0815V56.4432H44.1497C44.269 56.1193 44.4849 55.8565 44.7974 55.6548C45.1099 55.4531 45.4622 55.3523 45.8542 55.3523C45.9281 55.3523 46.0204 55.3537 46.1312 55.3565C46.242 55.3594 46.3258 55.3636 46.3826 55.3693V56.392C46.3485 56.3835 46.2704 56.3707 46.1483 56.3537C46.0289 56.3338 45.9025 56.3239 45.769 56.3239C45.4508 56.3239 45.1667 56.3906 44.9167 56.5241C44.6696 56.6548 44.4735 56.8366 44.3287 57.0696C44.1866 57.2997 44.1156 57.5625 44.1156 57.858V62H43.1099ZM47.5748 62V55.4545H48.5804V62H47.5748ZM48.0861 54.3636C47.8901 54.3636 47.7211 54.2969 47.579 54.1634C47.4398 54.0298 47.3702 53.8693 47.3702 53.6818C47.3702 53.4943 47.4398 53.3338 47.579 53.2003C47.7211 53.0668 47.8901 53 48.0861 53C48.2821 53 48.4498 53.0668 48.589 53.2003C48.731 53.3338 48.802 53.4943 48.802 53.6818C48.802 53.8693 48.731 54.0298 48.589 54.1634C48.4498 54.2969 48.2821 54.3636 48.0861 54.3636ZM55.7747 55.4545L53.3542 62H52.3315L49.911 55.4545H51.002L52.8088 60.6705H52.877L54.6838 55.4545H55.7747ZM59.612 62.1364C58.9814 62.1364 58.4373 61.9972 57.9799 61.7188C57.5254 61.4375 57.1745 61.0455 56.9274 60.5426C56.6831 60.0369 56.5609 59.4489 56.5609 58.7784C56.5609 58.108 56.6831 57.517 56.9274 57.0057C57.1745 56.4915 57.5183 56.0909 57.9586 55.804C58.4018 55.5142 58.9189 55.3693 59.5098 55.3693C59.8507 55.3693 60.1873 55.4261 60.5197 55.5398C60.8521 55.6534 61.1547 55.8381 61.4274 56.0938C61.7001 56.3466 61.9174 56.6818 62.0794 57.0994C62.2413 57.517 62.3223 58.0312 62.3223 58.642V59.0682H57.2768V58.1989H61.2995C61.2995 57.8295 61.2257 57.5 61.0779 57.2102C60.9331 56.9205 60.7257 56.6918 60.4558 56.5241C60.1887 56.3565 59.8734 56.2727 59.5098 56.2727C59.1092 56.2727 58.7626 56.3722 58.47 56.571C58.1802 56.767 57.9572 57.0227 57.801 57.3381C57.6447 57.6534 57.5666 57.9915 57.5666 58.3523V58.9318C57.5666 59.4261 57.6518 59.8452 57.8223 60.1889C57.9956 60.5298 58.2356 60.7898 58.5424 60.9688C58.8493 61.1449 59.2058 61.233 59.612 61.233C59.8762 61.233 60.1149 61.196 60.3279 61.1222C60.5439 61.0455 60.7299 60.9318 60.8862 60.7812C61.0424 60.6278 61.1632 60.4375 61.2484 60.2102L62.22 60.483C62.1177 60.8125 61.9458 61.1023 61.7044 61.3523C61.4629 61.5994 61.1646 61.7926 60.8095 61.9318C60.4544 62.0682 60.0552 62.1364 59.612 62.1364ZM63.8521 62V55.4545H64.8237V56.4432H64.8919C65.0112 56.1193 65.2271 55.8565 65.5396 55.6548C65.8521 55.4531 66.2044 55.3523 66.5964 55.3523C66.6703 55.3523 66.7626 55.3537 66.8734 55.3565C66.9842 55.3594 67.068 55.3636 67.1248 55.3693V56.392C67.0907 56.3835 67.0126 56.3707 66.8904 56.3537C66.7711 56.3338 66.6447 56.3239 66.5112 56.3239C66.193 56.3239 65.9089 56.3906 65.6589 56.5241C65.4118 56.6548 65.2157 56.8366 65.0708 57.0696C64.9288 57.2997 64.8578 57.5625 64.8578 57.858V62H63.8521Z" fill="black"/>
</svg>
