<svg width="69" height="66" viewBox="0 0 69 66" fill="none" xmlns="http://www.w3.org/2000/svg">
<path d="M46.8123 19.389C40.6923 14.697 40.1523 6.118 40.1523 4.6H35.6523V9.2H23.6523V4.6H17.6523C17.6523 2.07 20.3523 0 23.6523 0H44.6523V2.3C44.6523 2.484 44.7723 12.949 49.9923 16.951L46.8123 19.389ZM47.6523 0V4.6H50.6523V0H47.6523ZM41.6523 23C35.6523 18.4 35.6523 11.5 35.6523 11.5H23.6523V16.1C23.6523 18.4 23.6523 18.4 20.6523 20.7C17.6523 23 17.6523 25.3 17.6523 25.3V41.4C17.6523 43.93 20.3523 46 23.6523 46H35.6523C38.9523 46 41.6523 43.93 41.6523 41.4V23Z" fill="black"/>
<path d="M5.1479 56.4545C5.09677 56.0227 4.88938 55.6875 4.52575 55.4489C4.16211 55.2102 3.71609 55.0909 3.18768 55.0909C2.80131 55.0909 2.46325 55.1534 2.17347 55.2784C1.88654 55.4034 1.66211 55.5753 1.50018 55.794C1.34109 56.0128 1.26154 56.2614 1.26154 56.5398C1.26154 56.7727 1.31694 56.973 1.42773 57.1406C1.54137 57.3054 1.68626 57.4432 1.86239 57.554C2.03853 57.6619 2.22319 57.7514 2.41637 57.8224C2.60955 57.8906 2.78711 57.946 2.94904 57.9886L3.8354 58.2273C4.06268 58.2869 4.31552 58.3693 4.59393 58.4744C4.87518 58.5795 5.14364 58.723 5.39933 58.9048C5.65785 59.0838 5.87092 59.3139 6.03853 59.5952C6.20614 59.8764 6.28995 60.2216 6.28995 60.6307C6.28995 61.1023 6.16637 61.5284 5.91921 61.9091C5.67489 62.2898 5.31694 62.5923 4.84535 62.8168C4.3766 63.0412 3.807 63.1534 3.13654 63.1534C2.51154 63.1534 1.97035 63.0526 1.51296 62.8509C1.05842 62.6491 0.700462 62.3679 0.439098 62.0071C0.180575 61.6463 0.0342685 61.2273 0.000177577 60.75H1.09109C1.1195 61.0795 1.23029 61.3523 1.42347 61.5682C1.6195 61.7812 1.86665 61.9403 2.16495 62.0455C2.46609 62.1477 2.78995 62.1989 3.13654 62.1989C3.53995 62.1989 3.90217 62.1335 4.22319 62.0028C4.54421 61.8693 4.79847 61.6847 4.98597 61.4489C5.17347 61.2102 5.26722 60.9318 5.26722 60.6136C5.26722 60.3239 5.18626 60.0881 5.02433 59.9062C4.86239 59.7244 4.64933 59.5767 4.38512 59.4631C4.12092 59.3494 3.8354 59.25 3.52859 59.1648L2.45472 58.858C1.7729 58.6619 1.23313 58.3821 0.835405 58.0185C0.437678 57.6548 0.238814 57.179 0.238814 56.5909C0.238814 56.1023 0.370916 55.6761 0.635121 55.3125C0.902166 54.946 1.26012 54.6619 1.70898 54.4602C2.16069 54.2557 2.66495 54.1534 3.22177 54.1534C3.78427 54.1534 4.28427 54.2543 4.72177 54.456C5.15927 54.6548 5.50586 54.9276 5.76154 55.2741C6.02006 55.6207 6.15643 56.0142 6.17063 56.4545H5.1479ZM7.89116 65.4545V56.4545H8.86275V57.4943H8.98207C9.05593 57.3807 9.1582 57.2358 9.28889 57.0597C9.42241 56.8807 9.61275 56.7216 9.85991 56.5824C10.1099 56.4403 10.448 56.3693 10.8741 56.3693C11.4252 56.3693 11.911 56.5071 12.3315 56.7827C12.752 57.0582 13.0801 57.4489 13.3159 57.9545C13.5517 58.4602 13.6696 59.0568 13.6696 59.7443C13.6696 60.4375 13.5517 61.0384 13.3159 61.5469C13.0801 62.0526 12.7534 62.4446 12.3358 62.723C11.9181 62.9986 11.4366 63.1364 10.8912 63.1364C10.4707 63.1364 10.1341 63.0668 9.88121 62.9276C9.62837 62.7855 9.43377 62.625 9.29741 62.446C9.16104 62.2642 9.05593 62.1136 8.98207 61.9943H8.89684V65.4545H7.89116ZM8.87979 59.7273C8.87979 60.2216 8.95224 60.6577 9.09712 61.0355C9.24201 61.4105 9.45366 61.7045 9.73207 61.9176C10.0105 62.1278 10.3514 62.233 10.7548 62.233C11.1752 62.233 11.5261 62.1222 11.8074 61.9006C12.0914 61.6761 12.3045 61.375 12.4466 60.9972C12.5914 60.6165 12.6639 60.1932 12.6639 59.7273C12.6639 59.267 12.5929 58.8523 12.4508 58.483C12.3116 58.1108 12.1 57.8168 11.8159 57.6009C11.5346 57.3821 11.1809 57.2727 10.7548 57.2727C10.3457 57.2727 10.002 57.3764 9.72354 57.5838C9.44514 57.7884 9.23491 58.0753 9.09286 58.4446C8.95082 58.8111 8.87979 59.2386 8.87979 59.7273ZM15.2037 63V56.4545H16.1752V57.4432H16.2434C16.3627 57.1193 16.5787 56.8565 16.8912 56.6548C17.2037 56.4531 17.5559 56.3523 17.948 56.3523C18.0218 56.3523 18.1142 56.3537 18.225 56.3565C18.3358 56.3594 18.4196 56.3636 18.4764 56.3693V57.392C18.4423 57.3835 18.3642 57.3707 18.242 57.3537C18.1227 57.3338 17.9963 57.3239 17.8627 57.3239C17.5446 57.3239 17.2605 57.3906 17.0105 57.5241C16.7633 57.6548 16.5673 57.8366 16.4224 58.0696C16.2804 58.2997 16.2093 58.5625 16.2093 58.858V63H15.2037ZM21.5946 63.1534C21.1799 63.1534 20.8034 63.0753 20.4654 62.919C20.1273 62.7599 19.8588 62.5312 19.66 62.233C19.4611 61.9318 19.3617 61.5682 19.3617 61.142C19.3617 60.767 19.4355 60.4631 19.5833 60.2301C19.731 59.9943 19.9284 59.8097 20.1756 59.6761C20.4228 59.5426 20.6955 59.4432 20.9938 59.3778C21.2949 59.3097 21.5975 59.2557 21.9015 59.2159C22.2992 59.1648 22.6216 59.1264 22.8688 59.1009C23.1188 59.0724 23.3006 59.0256 23.4142 58.9602C23.5307 58.8949 23.589 58.7812 23.589 58.6193V58.5852C23.589 58.1648 23.4739 57.8381 23.2438 57.6051C23.0165 57.3722 22.6713 57.2557 22.2083 57.2557C21.7282 57.2557 21.3517 57.3608 21.079 57.571C20.8063 57.7812 20.6145 58.0057 20.5037 58.2443L19.5492 57.9034C19.7196 57.5057 19.9469 57.196 20.231 56.9744C20.5179 56.75 20.8304 56.5937 21.1685 56.5057C21.5094 56.4148 21.8446 56.3693 22.1742 56.3693C22.3844 56.3693 22.6259 56.3949 22.8986 56.446C23.1742 56.4943 23.4398 56.5952 23.6955 56.7486C23.954 56.902 24.1685 57.1335 24.339 57.4432C24.5094 57.7528 24.5946 58.1676 24.5946 58.6875V63H23.589V62.1136H23.5378C23.4696 62.2557 23.356 62.4077 23.1969 62.5696C23.0378 62.7315 22.8262 62.8693 22.562 62.983C22.2978 63.0966 21.9753 63.1534 21.5946 63.1534ZM21.748 62.25C22.1458 62.25 22.481 62.1719 22.7537 62.0156C23.0293 61.8594 23.2367 61.6577 23.3759 61.4105C23.5179 61.1634 23.589 60.9034 23.589 60.6307V59.7102C23.5463 59.7614 23.4526 59.8082 23.3077 59.8509C23.1657 59.8906 23.0009 59.9261 22.8134 59.9574C22.6287 59.9858 22.4483 60.0114 22.2722 60.0341C22.0989 60.054 21.9583 60.071 21.8503 60.0852C21.589 60.1193 21.3446 60.1747 21.1174 60.2514C20.8929 60.3253 20.7111 60.4375 20.5719 60.5881C20.4355 60.7358 20.3674 60.9375 20.3674 61.1932C20.3674 61.5426 20.4966 61.8068 20.7551 61.9858C21.0165 62.1619 21.3475 62.25 21.748 62.25ZM26.8436 65.4545C26.6731 65.4545 26.5211 65.4403 26.3876 65.4119C26.2541 65.3864 26.1618 65.3608 26.1106 65.3352L26.3663 64.4489C26.6106 64.5114 26.8265 64.5341 27.014 64.517C27.2015 64.5 27.3677 64.4162 27.5126 64.2656C27.6603 64.1179 27.7953 63.8778 27.9174 63.5455L28.1049 63.0341L25.6845 56.4545H26.7754L28.5822 61.6705H28.6504L30.4572 56.4545H31.5481L28.7697 63.9545C28.6447 64.2926 28.4899 64.5724 28.3052 64.794C28.1206 65.0185 27.9061 65.1847 27.6618 65.2926C27.4203 65.4006 27.1475 65.4545 26.8436 65.4545ZM36.3869 63V54.2727H39.438C40.046 54.2727 40.5474 54.3778 40.9423 54.5881C41.3372 54.7955 41.6312 55.0753 41.8244 55.4276C42.0176 55.777 42.1142 56.1648 42.1142 56.5909C42.1142 56.9659 42.0474 57.2756 41.9139 57.5199C41.7832 57.7642 41.6099 57.9574 41.394 58.0994C41.1809 58.2415 40.9494 58.3466 40.6994 58.4148V58.5C40.9664 58.517 41.2349 58.6108 41.5048 58.7812C41.7747 58.9517 42.0005 59.196 42.1824 59.5142C42.3642 59.8324 42.4551 60.2216 42.4551 60.6818C42.4551 61.1193 42.3556 61.5128 42.1568 61.8622C41.9579 62.2116 41.644 62.4886 41.215 62.6932C40.786 62.8977 40.2278 63 39.5403 63H36.3869ZM37.4437 62.0625H39.5403C40.2306 62.0625 40.7207 61.929 41.0105 61.6619C41.3031 61.392 41.4494 61.0653 41.4494 60.6818C41.4494 60.3864 41.3741 60.1136 41.2235 59.8636C41.073 59.6108 40.8585 59.4091 40.5801 59.2585C40.3017 59.1051 39.9721 59.0284 39.5914 59.0284H37.4437V62.0625ZM37.4437 58.108H39.4039C39.7221 58.108 40.0091 58.0455 40.2647 57.9205C40.5233 57.7955 40.7278 57.6193 40.8784 57.392C41.0318 57.1648 41.1085 56.8977 41.1085 56.5909C41.1085 56.2074 40.975 55.8821 40.7079 55.6151C40.4409 55.3452 40.0176 55.2102 39.438 55.2102H37.4437V58.108ZM46.7143 63.1364C46.1234 63.1364 45.6049 62.9957 45.1589 62.7145C44.7157 62.4332 44.3691 62.0398 44.1191 61.5341C43.872 61.0284 43.7484 60.4375 43.7484 59.7614C43.7484 59.0795 43.872 58.4844 44.1191 57.9759C44.3691 57.4673 44.7157 57.0724 45.1589 56.7912C45.6049 56.5099 46.1234 56.3693 46.7143 56.3693C47.3052 56.3693 47.8223 56.5099 48.2654 56.7912C48.7115 57.0724 49.0581 57.4673 49.3052 57.9759C49.5552 58.4844 49.6802 59.0795 49.6802 59.7614C49.6802 60.4375 49.5552 61.0284 49.3052 61.5341C49.0581 62.0398 48.7115 62.4332 48.2654 62.7145C47.8223 62.9957 47.3052 63.1364 46.7143 63.1364ZM46.7143 62.233C47.1632 62.233 47.5325 62.1179 47.8223 61.8878C48.112 61.6577 48.3265 61.3551 48.4657 60.9801C48.6049 60.6051 48.6745 60.1989 48.6745 59.7614C48.6745 59.3239 48.6049 58.9162 48.4657 58.5384C48.3265 58.1605 48.112 57.8551 47.8223 57.6222C47.5325 57.3892 47.1632 57.2727 46.7143 57.2727C46.2654 57.2727 45.8961 57.3892 45.6064 57.6222C45.3166 57.8551 45.1021 58.1605 44.9629 58.5384C44.8237 58.9162 44.7541 59.3239 44.7541 59.7614C44.7541 60.1989 44.8237 60.6051 44.9629 60.9801C45.1021 61.3551 45.3166 61.6577 45.6064 61.8878C45.8961 62.1179 46.2654 62.233 46.7143 62.233ZM54.062 56.4545V57.3068H50.6699V56.4545H54.062ZM51.6586 54.8864H52.6642V61.125C52.6642 61.4091 52.7054 61.6222 52.7878 61.7642C52.873 61.9034 52.981 61.9972 53.1117 62.0455C53.2452 62.0909 53.3858 62.1136 53.5336 62.1136C53.6444 62.1136 53.7353 62.108 53.8063 62.0966C53.8773 62.0824 53.9341 62.071 53.9767 62.0625L54.1813 62.9659C54.1131 62.9915 54.0179 63.017 53.8958 63.0426C53.7736 63.071 53.6188 63.0852 53.4313 63.0852C53.1472 63.0852 52.8688 63.0241 52.5961 62.902C52.3262 62.7798 52.1017 62.5938 51.9228 62.3438C51.7466 62.0938 51.6586 61.7784 51.6586 61.3977V54.8864ZM58.4213 56.4545V57.3068H55.0293V56.4545H58.4213ZM56.0179 54.8864H57.0236V61.125C57.0236 61.4091 57.0648 61.6222 57.1472 61.7642C57.2324 61.9034 57.3404 61.9972 57.4711 62.0455C57.6046 62.0909 57.7452 62.1136 57.8929 62.1136C58.0037 62.1136 58.0946 62.108 58.1657 62.0966C58.2367 62.0824 58.2935 62.071 58.3361 62.0625L58.5407 62.9659C58.4725 62.9915 58.3773 63.017 58.2551 63.0426C58.133 63.071 57.9782 63.0852 57.7907 63.0852C57.5066 63.0852 57.2282 63.0241 56.9554 62.902C56.6855 62.7798 56.4611 62.5938 56.2821 62.3438C56.106 62.0938 56.0179 61.7784 56.0179 61.3977V54.8864ZM61.0804 54.2727V63H60.0748V54.2727H61.0804ZM65.6667 63.1364C65.036 63.1364 64.492 62.9972 64.0346 62.7188C63.5801 62.4375 63.2292 62.0455 62.9821 61.5426C62.7377 61.0369 62.6156 60.4489 62.6156 59.7784C62.6156 59.108 62.7377 58.517 62.9821 58.0057C63.2292 57.4915 63.573 57.0909 64.0133 56.804C64.4565 56.5142 64.9735 56.3693 65.5645 56.3693C65.9054 56.3693 66.242 56.4261 66.5744 56.5398C66.9068 56.6534 67.2093 56.8381 67.4821 57.0938C67.7548 57.3466 67.9721 57.6818 68.1341 58.0994C68.296 58.517 68.377 59.0312 68.377 59.642V60.0682H63.3315V59.1989H67.3542C67.3542 58.8295 67.2804 58.5 67.1326 58.2102C66.9877 57.9205 66.7804 57.6918 66.5105 57.5241C66.2434 57.3565 65.9281 57.2727 65.5645 57.2727C65.1639 57.2727 64.8173 57.3722 64.5247 57.571C64.2349 57.767 64.0119 58.0227 63.8556 58.3381C63.6994 58.6534 63.6213 58.9915 63.6213 59.3523V59.9318C63.6213 60.4261 63.7065 60.8452 63.877 61.1889C64.0502 61.5298 64.2903 61.7898 64.5971 61.9688C64.9039 62.1449 65.2605 62.233 65.6667 62.233C65.9309 62.233 66.1696 62.196 66.3826 62.1222C66.5985 62.0455 66.7846 61.9318 66.9409 61.7812C67.0971 61.6278 67.2179 61.4375 67.3031 61.2102L68.2747 61.483C68.1724 61.8125 68.0005 62.1023 67.7591 62.3523C67.5176 62.5994 67.2193 62.7926 66.8642 62.9318C66.5091 63.0682 66.1099 63.1364 65.6667 63.1364Z" fill="black"/>
</svg>
