<svg width="50" height="65" viewBox="0 0 50 65" fill="none" xmlns="http://www.w3.org/2000/svg">
<path d="M4.37598 32.3656L17.6354 45.6249L45.6249 17.6354L32.3656 4.37598M9.53223 27.2104L16.8979 34.576M15.4249 21.3176L22.7895 28.6833M21.3176 15.4249L28.6822 22.7906M27.2093 9.53223L34.5749 16.8979M13.2156 41.2051L41.2051 13.2156" stroke="black" stroke-width="4" stroke-linecap="round" stroke-linejoin="round"/>
<path d="M16.1928 56H15.136C15.0735 55.696 14.9641 55.429 14.8079 55.1989C14.6545 54.9688 14.467 54.7756 14.2454 54.6193C14.0266 54.4602 13.7837 54.3409 13.5167 54.2614C13.2496 54.1818 12.9712 54.142 12.6815 54.142C12.1531 54.142 11.6744 54.2756 11.2454 54.5426C10.8192 54.8097 10.4798 55.2031 10.2269 55.723C9.97692 56.2429 9.85192 56.8807 9.85192 57.6364C9.85192 58.392 9.97692 59.0298 10.2269 59.5497C10.4798 60.0696 10.8192 60.4631 11.2454 60.7301C11.6744 60.9972 12.1531 61.1307 12.6815 61.1307C12.9712 61.1307 13.2496 61.0909 13.5167 61.0114C13.7837 60.9318 14.0266 60.8139 14.2454 60.6577C14.467 60.4986 14.6545 60.304 14.8079 60.0739C14.9641 59.8409 15.0735 59.5739 15.136 59.2727H16.1928C16.1133 59.7187 15.9684 60.1179 15.7582 60.4702C15.5479 60.8224 15.2866 61.1222 14.9741 61.3693C14.6616 61.6136 14.3107 61.7997 13.9215 61.9276C13.5352 62.0554 13.1218 62.1193 12.6815 62.1193C11.9371 62.1193 11.2752 61.9375 10.6957 61.5739C10.1161 61.2102 9.66016 60.6932 9.32777 60.0227C8.99538 59.3523 8.82919 58.5568 8.82919 57.6364C8.82919 56.7159 8.99538 55.9205 9.32777 55.25C9.66016 54.5795 10.1161 54.0625 10.6957 53.6989C11.2752 53.3352 11.9371 53.1534 12.6815 53.1534C13.1218 53.1534 13.5352 53.2173 13.9215 53.3452C14.3107 53.473 14.6616 53.6605 14.9741 53.9077C15.2866 54.152 15.5479 54.4503 15.7582 54.8026C15.9684 55.152 16.1133 55.5511 16.1928 56ZM20.4233 62.1364C19.8324 62.1364 19.3139 61.9957 18.8679 61.7145C18.4247 61.4332 18.0781 61.0398 17.8281 60.5341C17.581 60.0284 17.4574 59.4375 17.4574 58.7614C17.4574 58.0795 17.581 57.4844 17.8281 56.9759C18.0781 56.4673 18.4247 56.0724 18.8679 55.7912C19.3139 55.5099 19.8324 55.3693 20.4233 55.3693C21.0142 55.3693 21.5313 55.5099 21.9744 55.7912C22.4205 56.0724 22.767 56.4673 23.0142 56.9759C23.2642 57.4844 23.3892 58.0795 23.3892 58.7614C23.3892 59.4375 23.2642 60.0284 23.0142 60.5341C22.767 61.0398 22.4205 61.4332 21.9744 61.7145C21.5313 61.9957 21.0142 62.1364 20.4233 62.1364ZM20.4233 61.233C20.8722 61.233 21.2415 61.1179 21.5312 60.8878C21.821 60.6577 22.0355 60.3551 22.1747 59.9801C22.3139 59.6051 22.3835 59.1989 22.3835 58.7614C22.3835 58.3239 22.3139 57.9162 22.1747 57.5384C22.0355 57.1605 21.821 56.8551 21.5312 56.6222C21.2415 56.3892 20.8722 56.2727 20.4233 56.2727C19.9744 56.2727 19.6051 56.3892 19.3153 56.6222C19.0256 56.8551 18.8111 57.1605 18.6719 57.5384C18.5327 57.9162 18.4631 58.3239 18.4631 58.7614C18.4631 59.1989 18.5327 59.6051 18.6719 59.9801C18.8111 60.3551 19.0256 60.6577 19.3153 60.8878C19.6051 61.1179 19.9744 61.233 20.4233 61.233ZM24.9244 62V55.4545H25.896V56.4773H25.9812C26.1175 56.1278 26.3377 55.8565 26.6417 55.6634C26.9457 55.4673 27.3107 55.3693 27.7369 55.3693C28.1687 55.3693 28.5281 55.4673 28.815 55.6634C29.1048 55.8565 29.3306 56.1278 29.4925 56.4773H29.5607C29.7283 56.1392 29.9798 55.8707 30.315 55.6719C30.6502 55.4702 31.0522 55.3693 31.521 55.3693C32.1062 55.3693 32.5849 55.5526 32.957 55.919C33.3292 56.2827 33.5153 56.8494 33.5153 57.6193V62H32.5096V57.6193C32.5096 57.1364 32.3775 56.7912 32.1133 56.5838C31.8491 56.3764 31.538 56.2727 31.18 56.2727C30.7198 56.2727 30.3633 56.4119 30.1104 56.6903C29.8576 56.9659 29.7312 57.3153 29.7312 57.7386V62H28.7085V57.517C28.7085 57.1449 28.5877 56.8452 28.3462 56.6179C28.1048 56.3878 27.7937 56.2727 27.413 56.2727C27.1516 56.2727 26.9073 56.3423 26.68 56.4815C26.4556 56.6207 26.2738 56.8139 26.1346 57.0611C25.9982 57.3054 25.93 57.5881 25.93 57.9091V62H24.9244ZM35.4904 62V53.2727H36.4961V56.4943H36.5813C36.6552 56.3807 36.7575 56.2358 36.8881 56.0597C37.0217 55.8807 37.212 55.7216 37.4592 55.5824C37.7092 55.4403 38.0472 55.3693 38.4734 55.3693C39.0245 55.3693 39.5103 55.5071 39.9308 55.7827C40.3512 56.0582 40.6793 56.4489 40.9151 56.9545C41.1509 57.4602 41.2688 58.0568 41.2688 58.7443C41.2688 59.4375 41.1509 60.0384 40.9151 60.5469C40.6793 61.0526 40.3526 61.4446 39.935 61.723C39.5174 61.9986 39.0359 62.1364 38.4904 62.1364C38.07 62.1364 37.7333 62.0668 37.4805 61.9276C37.2276 61.7855 37.033 61.625 36.8967 61.446C36.7603 61.2642 36.6552 61.1136 36.5813 60.9943H36.462V62H35.4904ZM36.479 58.7273C36.479 59.2216 36.5515 59.6577 36.6964 60.0355C36.8413 60.4105 37.0529 60.7045 37.3313 60.9176C37.6097 61.1278 37.9506 61.233 38.354 61.233C38.7745 61.233 39.1254 61.1222 39.4066 60.9006C39.6907 60.6761 39.9038 60.375 40.0458 59.9972C40.1907 59.6165 40.2631 59.1932 40.2631 58.7273C40.2631 58.267 40.1921 57.8523 40.0501 57.483C39.9109 57.1108 39.6992 56.8168 39.4151 56.6009C39.1339 56.3821 38.7802 56.2727 38.354 56.2727C37.945 56.2727 37.6012 56.3764 37.3228 56.5838C37.0444 56.7884 36.8342 57.0753 36.6921 57.4446C36.5501 57.8111 36.479 58.2386 36.479 58.7273Z" fill="black"/>
</svg>
