<svg width="52" height="72" viewBox="0 0 52 72" fill="none" xmlns="http://www.w3.org/2000/svg">
<path d="M27.3361 3.40923C27.5258 3.48749 27.6983 3.60236 27.8436 3.74727C27.9889 3.89218 28.1043 4.0643 28.1831 4.2538C28.2618 4.44329 28.3025 4.64645 28.3028 4.85168C28.303 5.0569 28.2629 5.26016 28.1846 5.44986C27.4111 7.32486 26.5174 11.5514 27.5455 16.1795C28.6603 16.0249 29.7952 16.1058 30.8768 16.417C31.4473 15.4951 32.2 14.6992 33.0888 14.0783C33.9776 13.4573 34.9838 13.0243 36.0458 12.8058C37.1078 12.5872 38.2032 12.5877 39.265 12.8073C40.3267 13.0268 41.3325 13.4608 42.2207 14.0826C43.109 14.7044 43.8609 15.5009 44.4306 16.4234C45.0003 17.3459 45.3756 18.375 45.5337 19.4477C45.6918 20.5203 45.6293 21.6139 45.3501 22.6616C45.0708 23.7092 44.5806 24.6889 43.9096 25.5405C45.0204 26.9446 45.6239 28.6829 45.6221 30.4733C45.6231 31.6205 45.3758 32.7544 44.8974 33.797C44.4189 34.8397 43.7206 35.7665 42.8502 36.5139C43.3771 37.4749 43.7 38.5343 43.7989 39.6257C43.8977 40.7172 43.7703 41.8173 43.4246 42.8573C43.0789 43.8973 42.5223 44.8548 41.7898 45.6699C41.0572 46.485 40.1643 47.1402 39.1669 47.5946C38.1696 48.0489 37.0893 48.2926 35.9935 48.3103C34.8977 48.3281 33.81 48.1197 32.7984 47.6979C31.7869 47.2762 30.8732 46.6504 30.1145 45.8595C29.3559 45.0686 28.7685 44.1296 28.3893 43.1014C26.4801 43.1894 24.603 42.5883 23.1 41.4078C21.5971 40.2272 20.5685 38.5458 20.2018 36.6702C20.108 36.6733 20.0127 36.6749 19.9158 36.6749C18.8087 36.6746 17.7137 36.4436 16.7009 35.9965C15.688 35.5495 14.7794 34.8963 14.0331 34.0785C13.2867 33.2607 12.719 32.2964 12.3661 31.247C12.0133 30.1976 11.883 29.0862 11.9836 27.9836C12.0842 26.881 12.4135 25.8116 12.9505 24.8434C13.4875 23.8752 14.2204 23.0295 15.1025 22.3604C15.9845 21.6912 16.9963 21.2132 18.0734 20.9569C19.1504 20.7006 20.2691 20.6716 21.358 20.8717C21.659 20.1863 22.0551 19.5467 22.5346 18.9717L16.6127 21.1467C15.4887 21.5595 14.2944 21.7467 13.0979 21.6979C11.9015 21.649 10.7265 21.3649 9.63985 20.8619C8.55324 20.3588 7.57636 19.6467 6.765 18.7661C5.95364 17.8855 5.32369 16.8536 4.91113 15.7295L13.4689 12.5874C15.4498 11.8613 17.6211 11.8441 19.6133 12.5386C21.6054 13.2331 23.2954 14.5965 24.3955 16.3967C23.3564 11.1983 24.3674 6.50611 25.2955 4.25767C25.3738 4.06795 25.4886 3.89552 25.6335 3.7502C25.7785 3.60488 25.9506 3.48954 26.1401 3.41075C26.3296 3.33196 26.5327 3.29128 26.738 3.29102C26.9432 3.29076 27.1464 3.33093 27.3361 3.40923ZM20.6908 23.928C19.8012 23.7841 18.889 23.8913 18.0569 24.2375C17.2249 24.5838 16.506 25.1554 15.9812 25.8881C15.4563 26.6207 15.1463 27.4853 15.0861 28.3845C15.0259 29.2837 15.2178 30.1819 15.6403 30.9779C16.0628 31.774 16.699 32.4364 17.4775 32.8905C18.2559 33.3446 19.1457 33.5725 20.0466 33.5485C20.9475 33.5245 21.8238 33.2495 22.5769 32.7545C23.3301 32.2595 23.9301 31.5642 24.3096 30.7467C23.1781 30.0098 22.2524 28.9975 21.6194 27.8048C20.9864 26.6121 20.6669 25.2781 20.6908 23.928ZM27.2158 31.9061C26.4299 33.6919 25.0184 35.1289 23.2471 35.9467C23.3742 36.7072 23.681 37.4264 24.142 38.0444C24.603 38.6624 25.2049 39.1615 25.8976 39.5C26.5904 39.8386 27.3539 40.0069 28.1248 39.991C28.8956 39.975 29.6516 39.7753 30.3297 39.4083C31.0078 39.0414 31.5885 38.5179 32.0236 37.8813C32.4586 37.2447 32.7354 36.5135 32.831 35.7484C32.9265 34.9833 32.838 34.2065 32.5729 33.4825C32.3077 32.7585 31.8735 32.1082 31.3064 31.5858C29.9942 32.0478 28.5839 32.1582 27.2158 31.9061ZM34.0502 29.9327C35.2756 31.3471 35.9618 33.149 35.9877 35.0202C36.9684 35.3801 38.0392 35.4133 39.0402 35.1147C40.0413 34.8161 40.919 34.2018 41.5422 33.3634C42.1655 32.525 42.5009 31.5076 42.4984 30.4629C42.4959 29.4183 42.1556 28.4024 41.5283 27.567C40.608 28.0776 39.5961 28.4015 38.5504 28.5203C37.5047 28.639 36.4459 28.5503 35.4346 28.2592C35.0533 28.8788 34.5873 29.442 34.0502 29.9327ZM36.5268 25.3155C36.8893 25.4019 37.2653 25.4457 37.6549 25.4467C38.4891 25.4467 39.3091 25.2312 40.0355 24.821C40.762 24.4109 41.3701 23.82 41.801 23.1057C42.2319 22.3914 42.4709 21.5779 42.4949 20.744C42.519 19.9101 42.3271 19.0842 41.9381 18.3463C41.549 17.6084 40.976 16.9835 40.2744 16.5322C39.5728 16.0809 38.7665 15.8185 37.9337 15.7704C37.1009 15.7223 36.2698 15.8903 35.5209 16.2579C34.7721 16.6255 34.1309 17.1803 33.6596 17.8686C34.7512 18.7473 35.5912 19.8987 36.0947 21.2064C36.5982 22.5141 36.7473 23.9317 36.5268 25.3155ZM37.6549 38.4405C36.8966 38.4409 36.1421 38.333 35.4143 38.1202C34.6652 39.9708 33.2513 41.4744 31.4502 42.3358C31.7153 42.9322 32.0981 43.4689 32.5758 43.9137C33.0535 44.3584 33.6161 44.702 34.2299 44.9239C34.8437 45.1458 35.496 45.2413 36.1477 45.2048C36.7993 45.1682 37.4369 45.0004 38.022 44.7113C38.6072 44.4222 39.1279 44.0178 39.5528 43.5224C39.9778 43.0271 40.2982 42.4509 40.495 41.8286C40.6917 41.2063 40.7606 40.5506 40.6976 39.901C40.6346 39.2514 40.441 38.6212 40.1283 38.0483C39.3486 38.303 38.5189 38.4405 37.6549 38.4405ZM23.8158 24.0686C23.8043 24.7117 23.921 25.3507 24.1591 25.9482C24.3972 26.5457 24.752 27.0898 25.2027 27.5486C25.6534 28.0075 26.191 28.372 26.7841 28.6208C27.3773 28.8696 28.014 28.9978 28.6572 28.9978C29.3004 28.9978 29.9372 28.8696 30.5303 28.6208C31.1235 28.372 31.6611 28.0075 32.1118 27.5486C32.5625 27.0898 32.9173 26.5457 33.1554 25.9482C33.3935 25.3507 33.5102 24.7117 33.4986 24.0686C33.4758 22.7997 32.9557 21.5904 32.0503 20.701C31.1448 19.8117 29.9264 19.3134 28.6572 19.3134C27.3881 19.3134 26.1696 19.8117 25.2642 20.701C24.3587 21.5904 23.8386 22.7997 23.8158 24.0686Z" fill="black"/>
<path d="M35.5 14.5L41 15C42 16 44 18.1 44 18.5C44 19 44 22.5 43.5 23C43.1 23.4 43 25.5 43 26.5L43.5 31.5L41.5 35.5L42.5 39L39.5 46L34 46.5L29 42L26 41.5L22 36.5L17.5 34L14 30.5L15 25L21.5 22L24 19.5L30 18L35.5 14.5Z" fill="black" stroke="black"/>
<path d="M12.6673 63C12.5735 62.7131 12.4499 62.456 12.2965 62.2287C12.146 61.9986 11.9656 61.8026 11.7553 61.6406C11.5479 61.4787 11.3121 61.3551 11.0479 61.2699C10.7837 61.1847 10.494 61.142 10.1786 61.142C9.66158 61.142 9.19141 61.2756 8.76811 61.5426C8.34482 61.8097 8.00817 62.2031 7.75817 62.723C7.50817 63.2429 7.38317 63.8807 7.38317 64.6364C7.38317 65.392 7.50959 66.0298 7.76243 66.5497C8.01527 67.0696 8.3576 67.4631 8.78942 67.7301C9.22124 67.9972 9.70703 68.1307 10.2468 68.1307C10.7468 68.1307 11.1871 68.0241 11.5678 67.8111C11.9513 67.5952 12.2496 67.2912 12.4627 66.8991C12.6786 66.5043 12.7866 66.0398 12.7866 65.5057L13.1104 65.5739H10.4854V64.6364H13.8093V65.5739C13.8093 66.2926 13.6559 66.9176 13.3491 67.4489C13.0451 67.9801 12.6246 68.392 12.0877 68.6847C11.5536 68.9744 10.94 69.1193 10.2468 69.1193C9.47408 69.1193 8.7951 68.9375 8.20987 68.5739C7.62749 68.2102 7.17294 67.6932 6.84624 67.0227C6.52237 66.3523 6.36044 65.5568 6.36044 64.6364C6.36044 63.946 6.45277 63.3253 6.63743 62.7741C6.82493 62.2202 7.08913 61.7486 7.43004 61.3594C7.77095 60.9702 8.17436 60.6719 8.64027 60.4645C9.10618 60.2571 9.61896 60.1534 10.1786 60.1534C10.6388 60.1534 11.0678 60.223 11.4656 60.3622C11.8661 60.4986 12.2227 60.6932 12.5352 60.946C12.8505 61.196 13.1133 61.4957 13.3235 61.8452C13.5337 62.1918 13.6786 62.5767 13.7582 63H12.6673ZM15.483 69V62.4545H16.4545V63.4432H16.5227C16.642 63.1193 16.858 62.8565 17.1705 62.6548C17.483 62.4531 17.8352 62.3523 18.2273 62.3523C18.3011 62.3523 18.3935 62.3537 18.5043 62.3565C18.6151 62.3594 18.6989 62.3636 18.7557 62.3693V63.392C18.7216 63.3835 18.6435 63.3707 18.5213 63.3537C18.402 63.3338 18.2756 63.3239 18.142 63.3239C17.8239 63.3239 17.5398 63.3906 17.2898 63.5241C17.0426 63.6548 16.8466 63.8366 16.7017 64.0696C16.5597 64.2997 16.4886 64.5625 16.4886 64.858V69H15.483ZM21.8739 69.1534C21.4592 69.1534 21.0827 69.0753 20.7447 68.919C20.4066 68.7599 20.1381 68.5312 19.9393 68.233C19.7404 67.9318 19.641 67.5682 19.641 67.142C19.641 66.767 19.7148 66.4631 19.8626 66.2301C20.0103 65.9943 20.2077 65.8097 20.4549 65.6761C20.7021 65.5426 20.9748 65.4432 21.2731 65.3778C21.5742 65.3097 21.8768 65.2557 22.1808 65.2159C22.5785 65.1648 22.9009 65.1264 23.1481 65.1009C23.3981 65.0724 23.5799 65.0256 23.6935 64.9602C23.81 64.8949 23.8683 64.7812 23.8683 64.6193V64.5852C23.8683 64.1648 23.7532 63.8381 23.5231 63.6051C23.2958 63.3722 22.9506 63.2557 22.4876 63.2557C22.0075 63.2557 21.631 63.3608 21.3583 63.571C21.0856 63.7812 20.8938 64.0057 20.783 64.2443L19.8285 63.9034C19.9989 63.5057 20.2262 63.196 20.5103 62.9744C20.7972 62.75 21.1097 62.5937 21.4478 62.5057C21.7887 62.4148 22.1239 62.3693 22.4535 62.3693C22.6637 62.3693 22.9052 62.3949 23.1779 62.446C23.4535 62.4943 23.7191 62.5952 23.9748 62.7486C24.2333 62.902 24.4478 63.1335 24.6183 63.4432C24.7887 63.7528 24.8739 64.1676 24.8739 64.6875V69H23.8683V68.1136H23.8171C23.7489 68.2557 23.6353 68.4077 23.4762 68.5696C23.3171 68.7315 23.1055 68.8693 22.8413 68.983C22.5771 69.0966 22.2546 69.1534 21.8739 69.1534ZM22.0273 68.25C22.4251 68.25 22.7603 68.1719 23.033 68.0156C23.3086 67.8594 23.516 67.6577 23.6552 67.4105C23.7972 67.1634 23.8683 66.9034 23.8683 66.6307V65.7102C23.8256 65.7614 23.7319 65.8082 23.587 65.8509C23.445 65.8906 23.2802 65.9261 23.0927 65.9574C22.908 65.9858 22.7276 66.0114 22.5515 66.0341C22.3782 66.054 22.2376 66.071 22.1296 66.0852C21.8683 66.1193 21.6239 66.1747 21.3967 66.2514C21.1722 66.3253 20.9904 66.4375 20.8512 66.5881C20.7148 66.7358 20.6467 66.9375 20.6467 67.1932C20.6467 67.5426 20.7759 67.8068 21.0344 67.9858C21.2958 68.1619 21.6268 68.25 22.0273 68.25ZM26.7095 71.4545V62.4545H27.6811V63.4943H27.8004C27.8743 63.3807 27.9766 63.2358 28.1072 63.0597C28.2408 62.8807 28.4311 62.7216 28.6783 62.5824C28.9283 62.4403 29.2663 62.3693 29.6925 62.3693C30.2436 62.3693 30.7294 62.5071 31.1499 62.7827C31.5703 63.0582 31.8984 63.4489 32.1342 63.9545C32.37 64.4602 32.4879 65.0568 32.4879 65.7443C32.4879 66.4375 32.37 67.0384 32.1342 67.5469C31.8984 68.0526 31.5717 68.4446 31.1541 68.723C30.7365 68.9986 30.255 69.1364 29.7095 69.1364C29.2891 69.1364 28.9524 69.0668 28.6996 68.9276C28.4467 68.7855 28.2521 68.625 28.1158 68.446C27.9794 68.2642 27.8743 68.1136 27.8004 67.9943H27.7152V71.4545H26.7095ZM27.6982 65.7273C27.6982 66.2216 27.7706 66.6577 27.9155 67.0355C28.0604 67.4105 28.272 67.7045 28.5504 67.9176C28.8288 68.1278 29.1697 68.233 29.5732 68.233C29.9936 68.233 30.3445 68.1222 30.6257 67.9006C30.9098 67.6761 31.1229 67.375 31.2649 66.9972C31.4098 66.6165 31.4822 66.1932 31.4822 65.7273C31.4822 65.267 31.4112 64.8523 31.2692 64.483C31.13 64.1108 30.9183 63.8168 30.6342 63.6009C30.353 63.3821 29.9993 63.2727 29.5732 63.2727C29.1641 63.2727 28.8203 63.3764 28.5419 63.5838C28.2635 63.7884 28.0533 64.0753 27.9112 64.4446C27.7692 64.8111 27.6982 65.2386 27.6982 65.7273ZM36.7663 69.1364C36.1357 69.1364 35.5916 68.9972 35.1342 68.7188C34.6797 68.4375 34.3288 68.0455 34.0817 67.5426C33.8374 67.0369 33.7152 66.4489 33.7152 65.7784C33.7152 65.108 33.8374 64.517 34.0817 64.0057C34.3288 63.4915 34.6726 63.0909 35.1129 62.804C35.5561 62.5142 36.0732 62.3693 36.6641 62.3693C37.005 62.3693 37.3416 62.4261 37.674 62.5398C38.0064 62.6534 38.3089 62.8381 38.5817 63.0938C38.8544 63.3466 39.0717 63.6818 39.2337 64.0994C39.3956 64.517 39.4766 65.0312 39.4766 65.642V66.0682H34.4311V65.1989H38.4538C38.4538 64.8295 38.38 64.5 38.2322 64.2102C38.0874 63.9205 37.88 63.6918 37.6101 63.5241C37.343 63.3565 37.0277 63.2727 36.6641 63.2727C36.2635 63.2727 35.9169 63.3722 35.6243 63.571C35.3345 63.767 35.1115 64.0227 34.9553 64.3381C34.799 64.6534 34.7209 64.9915 34.7209 65.3523V65.9318C34.7209 66.4261 34.8061 66.8452 34.9766 67.1889C35.1499 67.5298 35.3899 67.7898 35.6967 67.9688C36.0036 68.1449 36.3601 68.233 36.7663 68.233C37.0305 68.233 37.2692 68.196 37.4822 68.1222C37.6982 68.0455 37.8842 67.9318 38.0405 67.7812C38.1967 67.6278 38.3175 67.4375 38.4027 67.2102L39.3743 67.483C39.272 67.8125 39.1001 68.1023 38.8587 68.3523C38.6172 68.5994 38.3189 68.7926 37.9638 68.9318C37.6087 69.0682 37.2095 69.1364 36.7663 69.1364ZM45.6428 63.9205L44.7393 64.1761C44.6825 64.0256 44.5987 63.8793 44.4879 63.7372C44.38 63.5923 44.2322 63.473 44.0447 63.3793C43.8572 63.2855 43.6172 63.2386 43.3246 63.2386C42.924 63.2386 42.5902 63.331 42.3232 63.5156C42.0589 63.6974 41.9268 63.929 41.9268 64.2102C41.9268 64.4602 42.0178 64.6577 42.1996 64.8026C42.3814 64.9474 42.6655 65.0682 43.0518 65.1648L44.0234 65.4034C44.6087 65.5455 45.0447 65.7628 45.3317 66.0554C45.6186 66.3452 45.7621 66.7187 45.7621 67.1761C45.7621 67.5511 45.6541 67.8864 45.4382 68.1818C45.2251 68.4773 44.9268 68.7102 44.5433 68.8807C44.1598 69.0511 43.7138 69.1364 43.2053 69.1364C42.5376 69.1364 41.9851 68.9915 41.5476 68.7017C41.1101 68.4119 40.8331 67.9886 40.7166 67.4318L41.6712 67.1932C41.7621 67.5455 41.9339 67.8097 42.1868 67.9858C42.4425 68.1619 42.7763 68.25 43.1882 68.25C43.657 68.25 44.0291 68.1506 44.3047 67.9517C44.5831 67.75 44.7223 67.5085 44.7223 67.2273C44.7223 67 44.6428 66.8097 44.4837 66.6562C44.3246 66.5 44.0803 66.3835 43.7507 66.3068L42.6598 66.0511C42.0604 65.9091 41.62 65.6889 41.3388 65.3906C41.0604 65.0895 40.9212 64.7131 40.9212 64.2614C40.9212 63.892 41.0249 63.5653 41.2322 63.2812C41.4425 62.9972 41.728 62.7741 42.0888 62.6122C42.4524 62.4503 42.8643 62.3693 43.3246 62.3693C43.9723 62.3693 44.4808 62.5114 44.8501 62.7955C45.2223 63.0795 45.4865 63.4545 45.6428 63.9205Z" fill="black"/>
</svg>
