<svg width="50" height="65" viewBox="0 0 50 65" fill="none" xmlns="http://www.w3.org/2000/svg">
<path d="M18.7503 10.4169C18.7358 9.38285 18.9781 8.36137 19.4555 7.444C19.9328 6.52664 20.6304 5.74206 21.4856 5.16061C22.3408 4.57915 23.3269 4.21898 24.3555 4.11239C25.3841 4.0058 26.4231 4.15612 27.3794 4.54987C28.3356 4.94361 29.1792 5.56849 29.8346 6.36848C30.4899 7.16847 30.9365 8.11857 31.1343 9.13361C31.3321 10.1487 31.275 11.1969 30.968 12.1845C30.661 13.172 30.1137 14.0679 29.3753 14.7919L26.2503 17.9169C25.4653 18.6862 25.016 19.7345 25.0003 20.8336V22.9169M25.0003 22.9169L6.04198 36.0419C5.26421 36.5233 4.66648 37.2474 4.34102 38.1022C4.01556 38.9571 3.98046 39.8953 4.24113 40.7721C4.50179 41.6489 5.04375 42.4156 5.78337 42.9538C6.523 43.492 7.41918 43.7719 8.33365 43.7502H41.667C42.5415 43.7502 43.3938 43.4751 44.1033 42.9637C44.8127 42.4524 45.3433 41.7308 45.6198 40.9012C45.8964 40.0715 45.9049 39.1759 45.6441 38.3412C45.3834 37.5065 44.8666 36.7749 44.167 36.2502L25.0003 22.9169Z" stroke="black" stroke-width="6" stroke-linecap="round" stroke-linejoin="round"/>
<path d="M5.34393 62V53.2727H6.40075V57.1591H11.0542V53.2727H12.111V62H11.0542V58.0966H6.40075V62H5.34393ZM16.0165 62.1534C15.6017 62.1534 15.2253 62.0753 14.8873 61.919C14.5492 61.7599 14.2807 61.5312 14.0819 61.233C13.883 60.9318 13.7836 60.5682 13.7836 60.142C13.7836 59.767 13.8574 59.4631 14.0051 59.2301C14.1529 58.9943 14.3503 58.8097 14.5975 58.6761C14.8446 58.5426 15.1174 58.4432 15.4157 58.3778C15.7168 58.3097 16.0194 58.2557 16.3233 58.2159C16.7211 58.1648 17.0435 58.1264 17.2907 58.1009C17.5407 58.0724 17.7225 58.0256 17.8361 57.9602C17.9526 57.8949 18.0108 57.7812 18.0108 57.6193V57.5852C18.0108 57.1648 17.8958 56.8381 17.6657 56.6051C17.4384 56.3722 17.0932 56.2557 16.6301 56.2557C16.15 56.2557 15.7736 56.3608 15.5009 56.571C15.2282 56.7812 15.0364 57.0057 14.9256 57.2443L13.9711 56.9034C14.1415 56.5057 14.3688 56.196 14.6529 55.9744C14.9398 55.75 15.2523 55.5937 15.5904 55.5057C15.9313 55.4148 16.2665 55.3693 16.5961 55.3693C16.8063 55.3693 17.0478 55.3949 17.3205 55.446C17.5961 55.4943 17.8617 55.5952 18.1174 55.7486C18.3759 55.902 18.5904 56.1335 18.7608 56.4432C18.9313 56.7528 19.0165 57.1676 19.0165 57.6875V62H18.0108V61.1136H17.9597C17.8915 61.2557 17.7779 61.4077 17.6188 61.5696C17.4597 61.7315 17.248 61.8693 16.9838 61.983C16.7196 62.0966 16.3972 62.1534 16.0165 62.1534ZM16.1699 61.25C16.5676 61.25 16.9029 61.1719 17.1756 61.0156C17.4512 60.8594 17.6586 60.6577 17.7978 60.4105C17.9398 60.1634 18.0108 59.9034 18.0108 59.6307V58.7102C17.9682 58.7614 17.8745 58.8082 17.7296 58.8509C17.5875 58.8906 17.4228 58.9261 17.2353 58.9574C17.0506 58.9858 16.8702 59.0114 16.6941 59.0341C16.5208 59.054 16.3801 59.071 16.2722 59.0852C16.0108 59.1193 15.7665 59.1747 15.5392 59.2514C15.3148 59.3253 15.133 59.4375 14.9938 59.5881C14.8574 59.7358 14.7892 59.9375 14.7892 60.1932C14.7892 60.5426 14.9185 60.8068 15.177 60.9858C15.4384 61.1619 15.7694 61.25 16.1699 61.25ZM21.8578 58.0625V62H20.8521V55.4545H21.8237V56.4773H21.9089C22.0623 56.1449 22.2953 55.8778 22.6078 55.6761C22.9203 55.4716 23.3237 55.3693 23.818 55.3693C24.2612 55.3693 24.649 55.4602 24.9814 55.642C25.3137 55.821 25.5723 56.0938 25.7569 56.4602C25.9416 56.8239 26.0339 57.2841 26.0339 57.8409V62H25.0282V57.9091C25.0282 57.3949 24.8947 56.9943 24.6277 56.7074C24.3606 56.4176 23.9941 56.2727 23.5282 56.2727C23.2072 56.2727 22.9203 56.3423 22.6674 56.4815C22.4174 56.6207 22.22 56.8239 22.0751 57.0909C21.9302 57.358 21.8578 57.6818 21.8578 58.0625ZM30.5137 64.5909C30.0279 64.5909 29.6103 64.5284 29.2608 64.4034C28.9114 64.2812 28.6202 64.1193 28.3873 63.9176C28.1571 63.7188 27.9739 63.5057 27.8375 63.2784L28.6387 62.7159C28.7296 62.8352 28.8446 62.9716 28.9838 63.125C29.123 63.2812 29.3134 63.4162 29.5549 63.5298C29.7992 63.6463 30.1188 63.7045 30.5137 63.7045C31.0421 63.7045 31.4782 63.5767 31.8219 63.321C32.1657 63.0653 32.3375 62.6648 32.3375 62.1193V60.7898H32.2523C32.1784 60.9091 32.0733 61.0568 31.937 61.233C31.8034 61.4062 31.6103 61.5611 31.3574 61.6974C31.1074 61.831 30.7694 61.8977 30.3432 61.8977C29.8148 61.8977 29.3404 61.7727 28.9199 61.5227C28.5023 61.2727 28.1713 60.9091 27.927 60.4318C27.6855 59.9545 27.5648 59.375 27.5648 58.6932C27.5648 58.0227 27.6827 57.4389 27.9185 56.9418C28.1543 56.4418 28.4824 56.0554 28.9029 55.7827C29.3233 55.5071 29.8091 55.3693 30.3603 55.3693C30.7864 55.3693 31.1245 55.4403 31.3745 55.5824C31.6273 55.7216 31.8205 55.8807 31.954 56.0597C32.0904 56.2358 32.1955 56.3807 32.2694 56.4943H32.3716V55.4545H33.3432V62.1875C33.3432 62.75 33.2154 63.2074 32.9597 63.5597C32.7069 63.9148 32.3659 64.1747 31.937 64.3395C31.5108 64.5071 31.0364 64.5909 30.5137 64.5909ZM30.4796 60.9943C30.883 60.9943 31.2239 60.902 31.5023 60.7173C31.7807 60.5327 31.9924 60.267 32.1373 59.9205C32.2821 59.5739 32.3546 59.1591 32.3546 58.6761C32.3546 58.2045 32.2836 57.7884 32.1415 57.4276C31.9995 57.0668 31.7892 56.7841 31.5108 56.5795C31.2324 56.375 30.8887 56.2727 30.4796 56.2727C30.0534 56.2727 29.6983 56.3807 29.4142 56.5966C29.133 56.8125 28.9213 57.1023 28.7793 57.4659C28.6401 57.8295 28.5705 58.233 28.5705 58.6761C28.5705 59.1307 28.6415 59.5327 28.7836 59.8821C28.9284 60.2287 29.1415 60.5014 29.4228 60.7003C29.7069 60.8963 30.0591 60.9943 30.4796 60.9943ZM37.9284 62.1364C37.2978 62.1364 36.7537 61.9972 36.2963 61.7188C35.8418 61.4375 35.4909 61.0455 35.2438 60.5426C34.9995 60.0369 34.8773 59.4489 34.8773 58.7784C34.8773 58.108 34.9995 57.517 35.2438 57.0057C35.4909 56.4915 35.8347 56.0909 36.275 55.804C36.7182 55.5142 37.2353 55.3693 37.8262 55.3693C38.1671 55.3693 38.5037 55.4261 38.8361 55.5398C39.1685 55.6534 39.4711 55.8381 39.7438 56.0938C40.0165 56.3466 40.2338 56.6818 40.3958 57.0994C40.5577 57.517 40.6387 58.0312 40.6387 58.642V59.0682H35.5932V58.1989H39.6159C39.6159 57.8295 39.5421 57.5 39.3944 57.2102C39.2495 56.9205 39.0421 56.6918 38.7722 56.5241C38.5051 56.3565 38.1898 56.2727 37.8262 56.2727C37.4256 56.2727 37.079 56.3722 36.7864 56.571C36.4966 56.767 36.2736 57.0227 36.1174 57.3381C35.9611 57.6534 35.883 57.9915 35.883 58.3523V58.9318C35.883 59.4261 35.9682 59.8452 36.1387 60.1889C36.312 60.5298 36.552 60.7898 36.8588 60.9688C37.1657 61.1449 37.5222 61.233 37.9284 61.233C38.1926 61.233 38.4313 61.196 38.6444 61.1222C38.8603 61.0455 39.0463 60.9318 39.2026 60.7812C39.3588 60.6278 39.4796 60.4375 39.5648 60.2102L40.5364 60.483C40.4341 60.8125 40.2623 61.1023 40.0208 61.3523C39.7793 61.5994 39.481 61.7926 39.1259 61.9318C38.7708 62.0682 38.3716 62.1364 37.9284 62.1364ZM42.1685 62V55.4545H43.1401V56.4432H43.2083C43.3276 56.1193 43.5435 55.8565 43.856 55.6548C44.1685 55.4531 44.5208 55.3523 44.9128 55.3523C44.9867 55.3523 45.079 55.3537 45.1898 55.3565C45.3006 55.3594 45.3844 55.3636 45.4412 55.3693V56.392C45.4071 56.3835 45.329 56.3707 45.2069 56.3537C45.0875 56.3338 44.9611 56.3239 44.8276 56.3239C44.5094 56.3239 44.2253 56.3906 43.9753 56.5241C43.7282 56.6548 43.5321 56.8366 43.3873 57.0696C43.2452 57.2997 43.1742 57.5625 43.1742 57.858V62H42.1685Z" fill="black"/>
</svg>
