<svg width="51" height="70" viewBox="0 0 51 70" fill="none" xmlns="http://www.w3.org/2000/svg">
<g clip-path="url(#clip0_607_739)">
<path d="M17.8121 44.622C22.8996 41.3658 25.1402 35.7814 22.8152 32.147C22.6132 31.8345 22.3861 31.546 22.134 31.2814L28.2027 27.4033L42.2652 36.3627C43.6184 37.097 45.2309 37.3658 46.8527 37.0095C48.3431 36.6838 49.6754 35.8538 50.6246 34.6595L51.0059 34.0595L34.3996 23.4408L51.0059 12.822L50.6246 12.222C49.6551 10.999 48.2849 10.1575 46.7555 9.84588C45.2262 9.5343 43.636 9.77265 42.2652 10.5189L28.2027 19.4783L22.134 15.6002C22.3861 15.3322 22.6141 15.0426 22.8152 14.7345C25.1402 11.1002 22.9027 5.51578 17.8121 2.25953C12.7215 -0.99672 6.71523 -0.69047 4.38711 2.9439C2.06211 6.57828 4.29961 12.1627 9.39024 15.4189L21.9809 23.4408L9.39023 31.4627C4.30273 34.7189 2.06211 40.3033 4.38711 43.9377C6.71211 47.572 12.7215 47.8783 17.8121 44.622ZM11.9152 11.4689C9.62461 10.0033 8.51211 8.12203 8.23086 6.85016C8.14024 6.43453 8.08398 5.85953 8.33398 5.46578C8.61211 5.03141 9.34648 4.74391 10.2996 4.69391C11.8434 4.61578 13.6621 5.16578 15.2809 6.20328C17.5715 7.66891 18.684 9.55016 18.9652 10.822C19.0559 11.2377 19.1121 11.8127 18.8621 12.2064C18.584 12.6408 17.8496 12.9283 16.8965 12.9783C15.3496 13.0564 13.534 12.5064 11.9152 11.4689ZM25.9996 23.4377C25.9996 23.0233 26.1642 22.6258 26.4573 22.3328C26.7503 22.0398 27.1477 21.8752 27.5621 21.8752C27.9765 21.8752 28.3739 22.0398 28.667 22.3328C28.96 22.6258 29.1246 23.0233 29.1246 23.4377C29.1246 23.8521 28.96 24.2495 28.667 24.5425C28.3739 24.8355 27.9765 25.0002 27.5621 25.0002C27.1477 25.0002 26.7503 24.8355 26.4573 24.5425C26.1642 24.2495 25.9996 23.8521 25.9996 23.4377ZM10.3027 42.1814C9.34961 42.1314 8.61523 41.8439 8.33711 41.4095C8.08711 41.0189 8.14336 40.4408 8.23398 40.0252C8.51211 38.7533 9.62773 36.872 11.9184 35.4064C13.5402 34.3689 15.3559 33.8189 16.8996 33.897C17.8527 33.947 18.5871 34.2345 18.8652 34.6689C19.1152 35.0595 19.059 35.6377 18.9684 36.0533C18.6902 37.3252 17.5746 39.2064 15.284 40.672C13.6621 41.7095 11.8465 42.2595 10.3027 42.1814Z" fill="black"/>
</g>
<path d="M7.51119 60.4545C7.46005 60.0227 7.25267 59.6875 6.88903 59.4489C6.52539 59.2102 6.07937 59.0909 5.55096 59.0909C5.1646 59.0909 4.82653 59.1534 4.53676 59.2784C4.24982 59.4034 4.02539 59.5753 3.86346 59.794C3.70437 60.0128 3.62482 60.2614 3.62482 60.5398C3.62482 60.7727 3.68022 60.973 3.79102 61.1406C3.90465 61.3054 4.04954 61.4432 4.22568 61.554C4.40181 61.6619 4.58647 61.7514 4.77965 61.8224C4.97284 61.8906 5.15039 61.946 5.31232 61.9886L6.19869 62.2273C6.42596 62.2869 6.6788 62.3693 6.95721 62.4744C7.23846 62.5795 7.50693 62.723 7.76261 62.9048C8.02113 63.0838 8.2342 63.3139 8.40181 63.5952C8.56943 63.8764 8.65323 64.2216 8.65323 64.6307C8.65323 65.1023 8.52965 65.5284 8.2825 65.9091C8.03818 66.2898 7.68022 66.5923 7.20863 66.8168C6.73988 67.0412 6.17028 67.1534 5.49982 67.1534C4.87482 67.1534 4.33363 67.0526 3.87624 66.8509C3.4217 66.6491 3.06374 66.3679 2.80238 66.0071C2.54386 65.6463 2.39755 65.2273 2.36346 64.75H3.45437C3.48278 65.0795 3.59357 65.3523 3.78676 65.5682C3.98278 65.7812 4.22994 65.9403 4.52823 66.0455C4.82937 66.1477 5.15323 66.1989 5.49982 66.1989C5.90323 66.1989 6.26545 66.1335 6.58647 66.0028C6.9075 65.8693 7.16176 65.6847 7.34926 65.4489C7.53676 65.2102 7.63051 64.9318 7.63051 64.6136C7.63051 64.3239 7.54954 64.0881 7.38761 63.9062C7.22568 63.7244 7.01261 63.5767 6.7484 63.4631C6.4842 63.3494 6.19869 63.25 5.89187 63.1648L4.81801 62.858C4.13619 62.6619 3.59642 62.3821 3.19869 62.0185C2.80096 61.6548 2.6021 61.179 2.6021 60.5909C2.6021 60.1023 2.7342 59.6761 2.9984 59.3125C3.26545 58.946 3.6234 58.6619 4.07227 58.4602C4.52397 58.2557 5.02823 58.1534 5.58505 58.1534C6.14755 58.1534 6.64755 58.2543 7.08505 58.456C7.52255 58.6548 7.86914 58.9276 8.12482 59.2741C8.38335 59.6207 8.51971 60.0142 8.53392 60.4545H7.51119ZM12.9135 67.1364C12.2999 67.1364 11.7715 66.9915 11.3283 66.7017C10.8851 66.4119 10.5442 66.0128 10.3056 65.5043C10.0669 64.9957 9.94762 64.4148 9.94762 63.7614C9.94762 63.0966 10.0698 62.5099 10.3141 62.0014C10.5613 61.4901 10.905 61.0909 11.3453 60.804C11.7885 60.5142 12.3056 60.3693 12.8965 60.3693C13.3567 60.3693 13.7715 60.4545 14.1408 60.625C14.5101 60.7955 14.8127 61.0341 15.0485 61.3409C15.2843 61.6477 15.4306 62.0057 15.4874 62.4148H14.4817C14.405 62.1165 14.2346 61.8523 13.9704 61.6222C13.709 61.3892 13.3567 61.2727 12.9135 61.2727C12.5215 61.2727 12.1777 61.375 11.8823 61.5795C11.5897 61.7812 11.361 62.0668 11.1962 62.4361C11.0343 62.8026 10.9533 63.233 10.9533 63.7273C10.9533 64.233 11.0328 64.6733 11.1919 65.0483C11.3539 65.4233 11.5811 65.7145 11.8738 65.9219C12.1692 66.1293 12.5158 66.233 12.9135 66.233C13.1749 66.233 13.4121 66.1875 13.6252 66.0966C13.8382 66.0057 14.0186 65.875 14.1664 65.7045C14.3141 65.5341 14.4192 65.3295 14.4817 65.0909H15.4874C15.4306 65.4773 15.29 65.8253 15.0655 66.1349C14.8439 66.4418 14.5499 66.6861 14.1834 66.8679C13.8198 67.0469 13.3965 67.1364 12.9135 67.1364ZM16.9576 67V60.4545H17.9632V67H16.9576ZM17.4689 59.3636C17.2729 59.3636 17.1039 59.2969 16.9618 59.1634C16.8226 59.0298 16.753 58.8693 16.753 58.6818C16.753 58.4943 16.8226 58.3338 16.9618 58.2003C17.1039 58.0668 17.2729 58 17.4689 58C17.665 58 17.8326 58.0668 17.9718 58.2003C18.1138 58.3338 18.1848 58.4943 18.1848 58.6818C18.1848 58.8693 18.1138 59.0298 17.9718 59.1634C17.8326 59.2969 17.665 59.3636 17.4689 59.3636ZM24.4416 61.9205L23.5382 62.1761C23.4814 62.0256 23.3976 61.8793 23.2868 61.7372C23.1788 61.5923 23.0311 61.473 22.8436 61.3793C22.6561 61.2855 22.416 61.2386 22.1234 61.2386C21.7228 61.2386 21.389 61.331 21.122 61.5156C20.8578 61.6974 20.7257 61.929 20.7257 62.2102C20.7257 62.4602 20.8166 62.6577 20.9984 62.8026C21.1802 62.9474 21.4643 63.0682 21.8507 63.1648L22.8223 63.4034C23.4075 63.5455 23.8436 63.7628 24.1305 64.0554C24.4174 64.3452 24.5609 64.7187 24.5609 65.1761C24.5609 65.5511 24.4529 65.8864 24.237 66.1818C24.024 66.4773 23.7257 66.7102 23.3422 66.8807C22.9586 67.0511 22.5126 67.1364 22.0041 67.1364C21.3365 67.1364 20.7839 66.9915 20.3464 66.7017C19.9089 66.4119 19.6319 65.9886 19.5154 65.4318L20.47 65.1932C20.5609 65.5455 20.7328 65.8097 20.9856 65.9858C21.2413 66.1619 21.5751 66.25 21.987 66.25C22.4558 66.25 22.8279 66.1506 23.1035 65.9517C23.3819 65.75 23.5211 65.5085 23.5211 65.2273C23.5211 65 23.4416 64.8097 23.2825 64.6562C23.1234 64.5 22.8791 64.3835 22.5495 64.3068L21.4586 64.0511C20.8592 63.9091 20.4189 63.6889 20.1376 63.3906C19.8592 63.0895 19.72 62.7131 19.72 62.2614C19.72 61.892 19.8237 61.5653 20.0311 61.2812C20.2413 60.9972 20.5268 60.7741 20.8876 60.6122C21.2512 60.4503 21.6632 60.3693 22.1234 60.3693C22.7711 60.3693 23.2797 60.5114 23.649 60.7955C24.0211 61.0795 24.2853 61.4545 24.4416 61.9205ZM30.7111 61.9205L29.8077 62.1761C29.7509 62.0256 29.6671 61.8793 29.5563 61.7372C29.4483 61.5923 29.3006 61.473 29.1131 61.3793C28.9256 61.2855 28.6855 61.2386 28.3929 61.2386C27.9924 61.2386 27.6586 61.331 27.3915 61.5156C27.1273 61.6974 26.9952 61.929 26.9952 62.2102C26.9952 62.4602 27.0861 62.6577 27.2679 62.8026C27.4498 62.9474 27.7338 63.0682 28.1202 63.1648L29.0918 63.4034C29.677 63.5455 30.1131 63.7628 30.4 64.0554C30.687 64.3452 30.8304 64.7187 30.8304 65.1761C30.8304 65.5511 30.7225 65.8864 30.5066 66.1818C30.2935 66.4773 29.9952 66.7102 29.6117 66.8807C29.2282 67.0511 28.7821 67.1364 28.2736 67.1364C27.606 67.1364 27.0534 66.9915 26.6159 66.7017C26.1784 66.4119 25.9015 65.9886 25.785 65.4318L26.7395 65.1932C26.8304 65.5455 27.0023 65.8097 27.2552 65.9858C27.5108 66.1619 27.8446 66.25 28.2566 66.25C28.7253 66.25 29.0975 66.1506 29.373 65.9517C29.6515 65.75 29.7907 65.5085 29.7907 65.2273C29.7907 65 29.7111 64.8097 29.552 64.6562C29.3929 64.5 29.1486 64.3835 28.8191 64.3068L27.7282 64.0511C27.1287 63.9091 26.6884 63.6889 26.4071 63.3906C26.1287 63.0895 25.9895 62.7131 25.9895 62.2614C25.9895 61.892 26.0932 61.5653 26.3006 61.2812C26.5108 60.9972 26.7963 60.7741 27.1571 60.6122C27.5208 60.4503 27.9327 60.3693 28.3929 60.3693C29.0407 60.3693 29.5492 60.5114 29.9185 60.7955C30.2907 61.0795 30.5549 61.4545 30.7111 61.9205ZM35.0034 67.1364C34.4125 67.1364 33.894 66.9957 33.448 66.7145C33.0048 66.4332 32.6582 66.0398 32.4082 65.5341C32.161 65.0284 32.0375 64.4375 32.0375 63.7614C32.0375 63.0795 32.161 62.4844 32.4082 61.9759C32.6582 61.4673 33.0048 61.0724 33.448 60.7912C33.894 60.5099 34.4125 60.3693 35.0034 60.3693C35.5943 60.3693 36.1113 60.5099 36.5545 60.7912C37.0005 61.0724 37.3471 61.4673 37.5943 61.9759C37.8443 62.4844 37.9693 63.0795 37.9693 63.7614C37.9693 64.4375 37.8443 65.0284 37.5943 65.5341C37.3471 66.0398 37.0005 66.4332 36.5545 66.7145C36.1113 66.9957 35.5943 67.1364 35.0034 67.1364ZM35.0034 66.233C35.4522 66.233 35.8216 66.1179 36.1113 65.8878C36.4011 65.6577 36.6156 65.3551 36.7548 64.9801C36.894 64.6051 36.9636 64.1989 36.9636 63.7614C36.9636 63.3239 36.894 62.9162 36.7548 62.5384C36.6156 62.1605 36.4011 61.8551 36.1113 61.6222C35.8216 61.3892 35.4522 61.2727 35.0034 61.2727C34.5545 61.2727 34.1852 61.3892 33.8954 61.6222C33.6056 61.8551 33.3912 62.1605 33.252 62.5384C33.1128 62.9162 33.0431 63.3239 33.0431 63.7614C33.0431 64.1989 33.1128 64.6051 33.252 64.9801C33.3912 65.3551 33.6056 65.6577 33.8954 65.8878C34.1852 66.1179 34.5545 66.233 35.0034 66.233ZM39.5044 67V60.4545H40.476V61.4432H40.5442C40.6635 61.1193 40.8794 60.8565 41.1919 60.6548C41.5044 60.4531 41.8567 60.3523 42.2488 60.3523C42.3226 60.3523 42.415 60.3537 42.5257 60.3565C42.6365 60.3594 42.7203 60.3636 42.7772 60.3693V61.392C42.7431 61.3835 42.665 61.3707 42.5428 61.3537C42.4235 61.3338 42.2971 61.3239 42.1635 61.3239C41.8453 61.3239 41.5613 61.3906 41.3113 61.5241C41.0641 61.6548 40.8681 61.8366 40.7232 62.0696C40.5811 62.2997 40.5101 62.5625 40.5101 62.858V67H39.5044ZM48.6056 61.9205L47.7022 62.1761C47.6454 62.0256 47.5616 61.8793 47.4508 61.7372C47.3429 61.5923 47.1951 61.473 47.0076 61.3793C46.8201 61.2855 46.5801 61.2386 46.2875 61.2386C45.8869 61.2386 45.5531 61.331 45.286 61.5156C45.0218 61.6974 44.8897 61.929 44.8897 62.2102C44.8897 62.4602 44.9806 62.6577 45.1625 62.8026C45.3443 62.9474 45.6284 63.0682 46.0147 63.1648L46.9863 63.4034C47.5716 63.5455 48.0076 63.7628 48.2946 64.0554C48.5815 64.3452 48.725 64.7187 48.725 65.1761C48.725 65.5511 48.617 65.8864 48.4011 66.1818C48.188 66.4773 47.8897 66.7102 47.5062 66.8807C47.1227 67.0511 46.6767 67.1364 46.1681 67.1364C45.5005 67.1364 44.948 66.9915 44.5105 66.7017C44.073 66.4119 43.796 65.9886 43.6795 65.4318L44.6341 65.1932C44.725 65.5455 44.8968 65.8097 45.1497 65.9858C45.4054 66.1619 45.7392 66.25 46.1511 66.25C46.6199 66.25 46.992 66.1506 47.2676 65.9517C47.546 65.75 47.6852 65.5085 47.6852 65.2273C47.6852 65 47.6056 64.8097 47.4466 64.6562C47.2875 64.5 47.0431 64.3835 46.7136 64.3068L45.6227 64.0511C45.0233 63.9091 44.5829 63.6889 44.3017 63.3906C44.0233 63.0895 43.8841 62.7131 43.8841 62.2614C43.8841 61.892 43.9877 61.5653 44.1951 61.2812C44.4054 60.9972 44.6909 60.7741 45.0517 60.6122C45.4153 60.4503 45.8272 60.3693 46.2875 60.3693C46.9352 60.3693 47.4437 60.5114 47.813 60.7955C48.1852 61.0795 48.4494 61.4545 48.6056 61.9205Z" fill="black"/>
<defs>
<clipPath id="clip0_607_739">
<rect width="50" height="50" fill="white" transform="translate(51) rotate(90)"/>
</clipPath>
</defs>
</svg>
