<svg width="50" height="65" viewBox="0 0 50 65" fill="none" xmlns="http://www.w3.org/2000/svg">
<path d="M36.4594 3.76025C36.4174 3.76113 34.6201 5.16367 34.6201 5.16367L31.7915 4.59805C31.7708 4.60391 29.4338 6.83066 29.4338 6.83066L26.9291 6.68037L25.4193 8.32334L22.6778 8.25283L20.8696 10.266L18.392 10.552L16.7198 12.3459L14.0621 13.2199L12.4936 15.4268L10.1771 16.0346L8.90723 18.0343L6.8416 19.1367L6.11885 21.2637L3.80752 22.626L3.50713 24.9599C4.94385 24.4388 6.28721 25.0287 7.31094 25.7802L9.82314 24.2206L13.2335 23.6786L16.1648 21.0336L20.5799 20.5169L23.7996 17.6158L26.9912 16.8172L28.9691 14.2207C29.9892 13.6504 31.4618 13.2451 32.7638 12.7014L33.7207 10.2702L36.4857 9.21846C36.5008 9.20205 36.517 9.18516 36.5319 9.16865L36.8329 7.33652L38.8335 5.8166C38.8381 5.80456 38.8426 5.79258 38.8471 5.78066L37.292 5.20029L36.4594 3.76025ZM25 20.2634L24.9312 20.2638C24.6512 20.4296 24.3703 20.5938 24.0884 20.7564C23.3073 21.2055 22.519 21.6418 21.7237 22.0652C22.8156 22.0358 23.9078 22.0211 25 22.0213C30.9982 22.0213 36.4311 22.4584 40.3135 23.1517C42.2548 23.4983 43.8129 23.9149 44.8141 24.3377C45.3147 24.549 45.6729 24.7665 45.8526 24.9234C45.9303 24.9911 45.9555 25.0252 45.9728 25.0485C45.9555 25.072 45.9303 25.106 45.8526 25.1736C45.673 25.3306 45.3147 25.548 44.8141 25.7594C43.8129 26.1821 42.2548 26.5987 40.3136 26.9454C36.4311 27.6388 30.9981 28.0759 25 28.0759C19.1226 28.0759 13.7919 27.6556 9.92676 26.9864C9.82305 27.0151 9.71699 27.046 9.61455 27.0733C8.15391 27.463 6.83105 27.7123 5.6625 27.7997C6.69941 28.1296 7.94219 28.4196 9.37744 28.676C13.4122 29.3964 18.917 29.8337 25 29.8337C31.083 29.8337 36.5878 29.3964 40.6226 28.676C42.6399 28.3156 44.2853 27.8907 45.4979 27.3787C46.1043 27.1229 46.6056 26.8496 47.0086 26.4979C47.4115 26.1463 47.7539 25.6507 47.7539 25.0486C47.7539 24.4464 47.4115 23.9508 47.0085 23.5991C46.6056 23.2476 46.1042 22.9743 45.4979 22.7183C44.2853 22.2063 42.6399 21.7813 40.6226 21.4212C36.5878 20.7007 31.083 20.2634 25 20.2634ZM46.875 28.1663C45.1283 29.0805 42.7444 29.6998 39.9557 30.2188C35.6327 31.0232 30.3209 31.4329 25.0061 31.4702C19.6913 31.5075 14.3811 31.1723 10.0626 30.4628C7.90342 30.108 5.99277 29.6612 4.43477 29.1054C3.9665 28.9382 3.5293 28.7636 3.125 28.5761V39.5619C8.46943 41.5012 16.7462 42.529 25 42.529C33.2538 42.529 41.5306 41.5012 46.875 39.5619V28.1663ZM2.28066 41.1266C2.25773 41.2345 2.24614 41.3445 2.24609 41.4548C2.24609 42.0569 2.58848 42.5524 2.9915 42.9042C3.39443 43.2559 3.8958 43.529 4.50215 43.7851C5.71475 44.297 7.36006 44.722 9.37744 45.0822C13.4122 45.8026 18.917 46.2399 25 46.2399C31.083 46.2399 36.5878 45.8026 40.6226 45.0822C42.6399 44.7219 44.2853 44.297 45.4979 43.785C46.1043 43.5291 46.6056 43.2559 47.0086 42.9041C47.4115 42.5525 47.7539 42.0569 47.7539 41.4549C47.7539 41.3416 47.7417 41.232 47.7193 41.1266C42.0038 43.2732 33.5152 44.2868 25 44.2868C16.4848 44.2868 7.99619 43.2731 2.28066 41.1266Z" fill="black"/>
<path d="M3.85298 54.2102V53.2727H10.3984V54.2102H7.65412V62H6.5973V54.2102H3.85298ZM11.8931 62V55.4545H12.8988V62H11.8931ZM12.4045 54.3636C12.2085 54.3636 12.0394 54.2969 11.8974 54.1634C11.7582 54.0298 11.6886 53.8693 11.6886 53.6818C11.6886 53.4943 11.7582 53.3338 11.8974 53.2003C12.0394 53.0668 12.2085 53 12.4045 53C12.6005 53 12.7681 53.0668 12.9073 53.2003C13.0494 53.3338 13.1204 53.4943 13.1204 53.6818C13.1204 53.8693 13.0494 54.0298 12.9073 54.1634C12.7681 54.2969 12.6005 54.3636 12.4045 54.3636ZM15.7464 58.0625V62H14.7408V55.4545H15.7124V56.4773H15.7976C15.951 56.1449 16.1839 55.8778 16.4964 55.6761C16.8089 55.4716 17.2124 55.3693 17.7067 55.3693C18.1499 55.3693 18.5376 55.4602 18.87 55.642C19.2024 55.821 19.4609 56.0938 19.6456 56.4602C19.8303 56.8239 19.9226 57.2841 19.9226 57.8409V62H18.9169V57.9091C18.9169 57.3949 18.7834 56.9943 18.5163 56.7074C18.2493 56.4176 17.8828 56.2727 17.4169 56.2727C17.0959 56.2727 16.8089 56.3423 16.5561 56.4815C16.3061 56.6207 16.1087 56.8239 15.9638 57.0909C15.8189 57.358 15.7464 57.6818 15.7464 58.0625ZM32.2944 56H31.2376C31.1751 55.696 31.0657 55.429 30.9094 55.1989C30.756 54.9688 30.5685 54.7756 30.3469 54.6193C30.1282 54.4602 29.8853 54.3409 29.6183 54.2614C29.3512 54.1818 29.0728 54.142 28.783 54.142C28.2546 54.142 27.7759 54.2756 27.3469 54.5426C26.9208 54.8097 26.5813 55.2031 26.3285 55.723C26.0785 56.2429 25.9535 56.8807 25.9535 57.6364C25.9535 58.392 26.0785 59.0298 26.3285 59.5497C26.5813 60.0696 26.9208 60.4631 27.3469 60.7301C27.7759 60.9972 28.2546 61.1307 28.783 61.1307C29.0728 61.1307 29.3512 61.0909 29.6183 61.0114C29.8853 60.9318 30.1282 60.8139 30.3469 60.6577C30.5685 60.4986 30.756 60.304 30.9094 60.0739C31.0657 59.8409 31.1751 59.5739 31.2376 59.2727H32.2944C32.2148 59.7187 32.07 60.1179 31.8597 60.4702C31.6495 60.8224 31.3881 61.1222 31.0756 61.3693C30.7631 61.6136 30.4123 61.7997 30.0231 61.9276C29.6367 62.0554 29.2234 62.1193 28.783 62.1193C28.0387 62.1193 27.3768 61.9375 26.7972 61.5739C26.2177 61.2102 25.7617 60.6932 25.4293 60.0227C25.0969 59.3523 24.9308 58.5568 24.9308 57.6364C24.9308 56.7159 25.0969 55.9205 25.4293 55.25C25.7617 54.5795 26.2177 54.0625 26.7972 53.6989C27.3768 53.3352 28.0387 53.1534 28.783 53.1534C29.2234 53.1534 29.6367 53.2173 30.0231 53.3452C30.4123 53.473 30.7631 53.6605 31.0756 53.9077C31.3881 54.152 31.6495 54.4503 31.8597 54.8026C32.07 55.152 32.2148 55.5511 32.2944 56ZM35.7919 62.1534C35.3771 62.1534 35.0007 62.0753 34.6626 61.919C34.3246 61.7599 34.0561 61.5312 33.8572 61.233C33.6584 60.9318 33.5589 60.5682 33.5589 60.142C33.5589 59.767 33.6328 59.4631 33.7805 59.2301C33.9283 58.9943 34.1257 58.8097 34.3729 58.6761C34.62 58.5426 34.8928 58.4432 35.1911 58.3778C35.4922 58.3097 35.7947 58.2557 36.0987 58.2159C36.4964 58.1648 36.8189 58.1264 37.0661 58.1009C37.3161 58.0724 37.4979 58.0256 37.6115 57.9602C37.728 57.8949 37.7862 57.7812 37.7862 57.6193V57.5852C37.7862 57.1648 37.6712 56.8381 37.4411 56.6051C37.2138 56.3722 36.8686 56.2557 36.4055 56.2557C35.9254 56.2557 35.549 56.3608 35.2763 56.571C35.0036 56.7812 34.8118 57.0057 34.701 57.2443L33.7464 56.9034C33.9169 56.5057 34.1442 56.196 34.4283 55.9744C34.7152 55.75 35.0277 55.5937 35.3658 55.5057C35.7067 55.4148 36.0419 55.3693 36.3714 55.3693C36.5817 55.3693 36.8232 55.3949 37.0959 55.446C37.3714 55.4943 37.6371 55.5952 37.8928 55.7486C38.1513 55.902 38.3658 56.1335 38.5362 56.4432C38.7067 56.7528 38.7919 57.1676 38.7919 57.6875V62H37.7862V61.1136H37.7351C37.6669 61.2557 37.5533 61.4077 37.3942 61.5696C37.2351 61.7315 37.0234 61.8693 36.7592 61.983C36.495 62.0966 36.1726 62.1534 35.7919 62.1534ZM35.9453 61.25C36.343 61.25 36.6783 61.1719 36.951 61.0156C37.2266 60.8594 37.4339 60.6577 37.5732 60.4105C37.7152 60.1634 37.7862 59.9034 37.7862 59.6307V58.7102C37.7436 58.7614 37.6499 58.8082 37.505 58.8509C37.3629 58.8906 37.1982 58.9261 37.0107 58.9574C36.826 58.9858 36.6456 59.0114 36.4695 59.0341C36.2962 59.054 36.1555 59.071 36.0476 59.0852C35.7862 59.1193 35.5419 59.1747 35.3146 59.2514C35.0902 59.3253 34.9084 59.4375 34.7692 59.5881C34.6328 59.7358 34.5646 59.9375 34.5646 60.1932C34.5646 60.5426 34.6939 60.8068 34.9524 60.9858C35.2138 61.1619 35.5447 61.25 35.9453 61.25ZM41.6332 58.0625V62H40.6275V55.4545H41.5991V56.4773H41.6843C41.8377 56.1449 42.0707 55.8778 42.3832 55.6761C42.6957 55.4716 43.0991 55.3693 43.5934 55.3693C44.0366 55.3693 44.4244 55.4602 44.7567 55.642C45.0891 55.821 45.3477 56.0938 45.5323 56.4602C45.717 56.8239 45.8093 57.2841 45.8093 57.8409V62H44.8036V57.9091C44.8036 57.3949 44.6701 56.9943 44.4031 56.7074C44.136 56.4176 43.7695 56.2727 43.3036 56.2727C42.9826 56.2727 42.6957 56.3423 42.4428 56.4815C42.1928 56.6207 41.9954 56.8239 41.8505 57.0909C41.7056 57.358 41.6332 57.6818 41.6332 58.0625Z" fill="black"/>
</svg>
