<svg width="50" height="67" viewBox="0 0 50 67" fill="none" xmlns="http://www.w3.org/2000/svg">
<path d="M29.6875 2.92969C26.5625 9.17969 27.5049 20.514 29.6875 23.2422C33.8287 28.4187 37.5 31.0547 37.5 35.7422C37.5 38.8672 35.9375 43.5547 32.8125 46.6797V48.2422H17.1875V46.6797C14.0623 43.5552 12.5 38.8672 12.5 35.7422C12.5 31.0547 16.1713 28.4187 20.3125 23.2422C22.4951 20.514 23.4375 9.17969 20.3125 2.92969C25 1.36719 25 1.36719 29.6875 2.92969Z" fill="black"/>
<path d="M12.657 55.2727L15.2479 62.6193H15.3501L17.9411 55.2727H19.049L15.8445 64H14.7536L11.549 55.2727H12.657ZM21.5888 64.1534C21.174 64.1534 20.7976 64.0753 20.4595 63.919C20.1214 63.7599 19.853 63.5312 19.6541 63.233C19.4553 62.9318 19.3558 62.5682 19.3558 62.142C19.3558 61.767 19.4297 61.4631 19.5774 61.2301C19.7251 60.9943 19.9226 60.8097 20.1697 60.6761C20.4169 60.5426 20.6896 60.4432 20.9879 60.3778C21.2891 60.3097 21.5916 60.2557 21.8956 60.2159C22.2933 60.1648 22.6158 60.1264 22.8629 60.1009C23.1129 60.0724 23.2947 60.0256 23.4084 59.9602C23.5249 59.8949 23.5831 59.7812 23.5831 59.6193V59.5852C23.5831 59.1648 23.468 58.8381 23.2379 58.6051C23.0107 58.3722 22.6655 58.2557 22.2024 58.2557C21.7223 58.2557 21.3459 58.3608 21.0732 58.571C20.8004 58.7812 20.6087 59.0057 20.4979 59.2443L19.5433 58.9034C19.7138 58.5057 19.9411 58.196 20.2251 57.9744C20.5121 57.75 20.8246 57.5937 21.1626 57.5057C21.5036 57.4148 21.8388 57.3693 22.1683 57.3693C22.3786 57.3693 22.62 57.3949 22.8928 57.446C23.1683 57.4943 23.4339 57.5952 23.6896 57.7486C23.9482 57.902 24.1626 58.1335 24.3331 58.4432C24.5036 58.7528 24.5888 59.1676 24.5888 59.6875V64H23.5831V63.1136H23.532C23.4638 63.2557 23.3501 63.4077 23.1911 63.5696C23.032 63.7315 22.8203 63.8693 22.5561 63.983C22.2919 64.0966 21.9695 64.1534 21.5888 64.1534ZM21.7422 63.25C22.1399 63.25 22.4751 63.1719 22.7479 63.0156C23.0234 62.8594 23.2308 62.6577 23.37 62.4105C23.5121 62.1634 23.5831 61.9034 23.5831 61.6307V60.7102C23.5405 60.7614 23.4467 60.8082 23.3018 60.8509C23.1598 60.8906 22.995 60.9261 22.8075 60.9574C22.6229 60.9858 22.4425 61.0114 22.2663 61.0341C22.093 61.054 21.9524 61.071 21.8445 61.0852C21.5831 61.1193 21.3388 61.1747 21.1115 61.2514C20.8871 61.3253 20.7053 61.4375 20.5661 61.5881C20.4297 61.7358 20.3615 61.9375 20.3615 62.1932C20.3615 62.5426 20.4908 62.8068 20.7493 62.9858C21.0107 63.1619 21.3416 63.25 21.7422 63.25ZM31.0607 58.9205L30.1573 59.1761C30.1005 59.0256 30.0167 58.8793 29.9059 58.7372C29.7979 58.5923 29.6502 58.473 29.4627 58.3793C29.2752 58.2855 29.0352 58.2386 28.7425 58.2386C28.342 58.2386 28.0082 58.331 27.7411 58.5156C27.4769 58.6974 27.3448 58.929 27.3448 59.2102C27.3448 59.4602 27.4357 59.6577 27.6175 59.8026C27.7994 59.9474 28.0835 60.0682 28.4698 60.1648L29.4414 60.4034C30.0266 60.5455 30.4627 60.7628 30.7496 61.0554C31.0366 61.3452 31.18 61.7187 31.18 62.1761C31.18 62.5511 31.0721 62.8864 30.8562 63.1818C30.6431 63.4773 30.3448 63.7102 29.9613 63.8807C29.5778 64.0511 29.1317 64.1364 28.6232 64.1364C27.9556 64.1364 27.4031 63.9915 26.9656 63.7017C26.5281 63.4119 26.2511 62.9886 26.1346 62.4318L27.0891 62.1932C27.18 62.5455 27.3519 62.8097 27.6048 62.9858C27.8604 63.1619 28.1942 63.25 28.6062 63.25C29.0749 63.25 29.4471 63.1506 29.7227 62.9517C30.0011 62.75 30.1403 62.5085 30.1403 62.2273C30.1403 62 30.0607 61.8097 29.9016 61.6562C29.7425 61.5 29.4982 61.3835 29.1687 61.3068L28.0778 61.0511C27.4783 60.9091 27.038 60.6889 26.7567 60.3906C26.4783 60.0895 26.3391 59.7131 26.3391 59.2614C26.3391 58.892 26.4428 58.5653 26.6502 58.2812C26.8604 57.9972 27.146 57.7741 27.5067 57.6122C27.8704 57.4503 28.2823 57.3693 28.7425 57.3693C29.3903 57.3693 29.8988 57.5114 30.2681 57.7955C30.6403 58.0795 30.9045 58.4545 31.0607 58.9205ZM35.4382 64.1364C34.8075 64.1364 34.2635 63.9972 33.8061 63.7188C33.3516 63.4375 33.0007 63.0455 32.7536 62.5426C32.5092 62.0369 32.3871 61.4489 32.3871 60.7784C32.3871 60.108 32.5092 59.517 32.7536 59.0057C33.0007 58.4915 33.3445 58.0909 33.7848 57.804C34.228 57.5142 34.745 57.3693 35.3359 57.3693C35.6768 57.3693 36.0135 57.4261 36.3459 57.5398C36.6783 57.6534 36.9808 57.8381 37.2536 58.0938C37.5263 58.3466 37.7436 58.6818 37.9055 59.0994C38.0675 59.517 38.1484 60.0312 38.1484 60.642V61.0682H33.103V60.1989H37.1257C37.1257 59.8295 37.0518 59.5 36.9041 59.2102C36.7592 58.9205 36.5518 58.6918 36.282 58.5241C36.0149 58.3565 35.6996 58.2727 35.3359 58.2727C34.9354 58.2727 34.5888 58.3722 34.2962 58.571C34.0064 58.767 33.7834 59.0227 33.6271 59.3381C33.4709 59.6534 33.3928 59.9915 33.3928 60.3523V60.9318C33.3928 61.4261 33.478 61.8452 33.6484 62.1889C33.8217 62.5298 34.0618 62.7898 34.3686 62.9688C34.6754 63.1449 35.032 63.233 35.4382 63.233C35.7024 63.233 35.9411 63.196 36.1541 63.1222C36.37 63.0455 36.5561 62.9318 36.7124 62.7812C36.8686 62.6278 36.9893 62.4375 37.0746 62.2102L38.0462 62.483C37.9439 62.8125 37.772 63.1023 37.5305 63.3523C37.2891 63.5994 36.9908 63.7926 36.6357 63.9318C36.2805 64.0682 35.8814 64.1364 35.4382 64.1364Z" fill="black"/>
</svg>
