<svg width="73" height="89" viewBox="0 0 73 89" fill="none" xmlns="http://www.w3.org/2000/svg">
<path d="M43.125 14.4165C43.6879 14.4171 44.2292 14.6327 44.6385 15.019C45.0478 15.4054 45.2941 15.9335 45.3271 16.4954C45.3601 17.0573 45.1773 17.6106 44.816 18.0422C44.4547 18.4738 43.9423 18.7512 43.3834 18.8177L43.125 18.8332C41.5946 18.8332 40.1879 20.3658 39.3907 22.2605C40.753 21.5672 42.2422 21.1584 43.7676 21.0592L44.3528 21.0415C50.9381 21.0415 56.375 27.7835 56.375 34.9982C56.375 42.8311 55.0368 47.9434 51.0242 53.9413C47.2877 58.9122 41.9877 60.0208 36.8688 56.6663C36.7649 56.6 36.645 56.5629 36.5218 56.559C36.3986 56.5551 36.2766 56.5846 36.1688 56.6443C31.0123 60.0186 25.7123 58.9122 21.9029 53.8397C17.9655 47.9478 16.625 42.8333 16.625 34.9982L16.6338 34.5079C16.8723 27.4832 22.2121 21.0415 28.6472 21.0415C30.723 21.0415 32.737 21.6841 34.5832 22.7905C35.5085 18.4843 38.5979 14.4165 43.125 14.4165ZM27.5916 28.0066C24.5883 29.9013 23.25 32.5558 23.25 36.4998C23.25 37.0855 23.4827 37.6472 23.8968 38.0614C24.3109 38.4755 24.8726 38.7082 25.4583 38.7082C26.044 38.7082 26.6057 38.4755 27.0199 38.0614C27.434 37.6472 27.6667 37.0855 27.6667 36.4998C27.6667 34.0155 28.285 32.7943 29.9501 31.7431C30.4456 31.4303 30.7965 30.9335 30.9257 30.362C31.055 29.7905 30.9518 29.1911 30.6391 28.6956C30.3263 28.2001 29.8295 27.8491 29.258 27.7199C28.6865 27.5907 28.0871 27.6938 27.5916 28.0066Z" fill="black"/>
<path d="M21.6316 76H20.5236L23.7282 67.2727H24.8191L28.0236 76H26.9157L24.3077 68.6534H24.2395L21.6316 76ZM22.0407 72.5909H26.5066V73.5284H22.0407V72.5909ZM29.2466 78.4545V69.4545H30.2182V70.4943H30.3375C30.4114 70.3807 30.5137 70.2358 30.6444 70.0597C30.7779 69.8807 30.9682 69.7216 31.2154 69.5824C31.4654 69.4403 31.8034 69.3693 32.2296 69.3693C32.7807 69.3693 33.2665 69.5071 33.687 69.7827C34.1074 70.0582 34.4355 70.4489 34.6713 70.9545C34.9071 71.4602 35.025 72.0568 35.025 72.7443C35.025 73.4375 34.9071 74.0384 34.6713 74.5469C34.4355 75.0526 34.1088 75.4446 33.6912 75.723C33.2736 75.9986 32.7921 76.1364 32.2466 76.1364C31.8262 76.1364 31.4895 76.0668 31.2367 75.9276C30.9838 75.7855 30.7892 75.625 30.6529 75.446C30.5165 75.2642 30.4114 75.1136 30.3375 74.9943H30.2523V78.4545H29.2466ZM30.2353 72.7273C30.2353 73.2216 30.3077 73.6577 30.4526 74.0355C30.5975 74.4105 30.8091 74.7045 31.0875 74.9176C31.3659 75.1278 31.7069 75.233 32.1103 75.233C32.5307 75.233 32.8816 75.1222 33.1628 74.9006C33.4469 74.6761 33.66 74.375 33.802 73.9972C33.9469 73.6165 34.0194 73.1932 34.0194 72.7273C34.0194 72.267 33.9483 71.8523 33.8063 71.483C33.6671 71.1108 33.4554 70.8168 33.1713 70.6009C32.8901 70.3821 32.5364 70.2727 32.1103 70.2727C31.7012 70.2727 31.3574 70.3764 31.079 70.5838C30.8006 70.7884 30.5904 71.0753 30.4483 71.4446C30.3063 71.8111 30.2353 72.2386 30.2353 72.7273ZM36.5591 78.4545V69.4545H37.5307V70.4943H37.65C37.7239 70.3807 37.8262 70.2358 37.9569 70.0597C38.0904 69.8807 38.2807 69.7216 38.5279 69.5824C38.7779 69.4403 39.1159 69.3693 39.5421 69.3693C40.0932 69.3693 40.579 69.5071 40.9995 69.7827C41.4199 70.0582 41.748 70.4489 41.9838 70.9545C42.2196 71.4602 42.3375 72.0568 42.3375 72.7443C42.3375 73.4375 42.2196 74.0384 41.9838 74.5469C41.748 75.0526 41.4213 75.4446 41.0037 75.723C40.5861 75.9986 40.1046 76.1364 39.5591 76.1364C39.1387 76.1364 38.802 76.0668 38.5492 75.9276C38.2963 75.7855 38.1017 75.625 37.9654 75.446C37.829 75.2642 37.7239 75.1136 37.65 74.9943H37.5648V78.4545H36.5591ZM37.5478 72.7273C37.5478 73.2216 37.6202 73.6577 37.7651 74.0355C37.91 74.4105 38.1216 74.7045 38.4 74.9176C38.6784 75.1278 39.0194 75.233 39.4228 75.233C39.8432 75.233 40.1941 75.1222 40.4753 74.9006C40.7594 74.6761 40.9725 74.375 41.1145 73.9972C41.2594 73.6165 41.3319 73.1932 41.3319 72.7273C41.3319 72.267 41.2608 71.8523 41.1188 71.483C40.9796 71.1108 40.7679 70.8168 40.4838 70.6009C40.2026 70.3821 39.8489 70.2727 39.4228 70.2727C39.0137 70.2727 38.6699 70.3764 38.3915 70.5838C38.1131 70.7884 37.9029 71.0753 37.7608 71.4446C37.6188 71.8111 37.5478 72.2386 37.5478 72.7273ZM44.8773 67.2727V76H43.8716V67.2727H44.8773ZM49.4636 76.1364C48.8329 76.1364 48.2889 75.9972 47.8315 75.7188C47.377 75.4375 47.0261 75.0455 46.7789 74.5426C46.5346 74.0369 46.4125 73.4489 46.4125 72.7784C46.4125 72.108 46.5346 71.517 46.7789 71.0057C47.0261 70.4915 47.3699 70.0909 47.8102 69.804C48.2534 69.5142 48.7704 69.3693 49.3613 69.3693C49.7022 69.3693 50.0389 69.4261 50.3713 69.5398C50.7037 69.6534 51.0062 69.8381 51.2789 70.0938C51.5517 70.3466 51.769 70.6818 51.9309 71.0994C52.0929 71.517 52.1738 72.0312 52.1738 72.642V73.0682H47.1284V72.1989H51.1511C51.1511 71.8295 51.0772 71.5 50.9295 71.2102C50.7846 70.9205 50.5772 70.6918 50.3074 70.5241C50.0403 70.3565 49.725 70.2727 49.3613 70.2727C48.9608 70.2727 48.6142 70.3722 48.3216 70.571C48.0318 70.767 47.8088 71.0227 47.6525 71.3381C47.4963 71.6534 47.4181 71.9915 47.4181 72.3523V72.9318C47.4181 73.4261 47.5034 73.8452 47.6738 74.1889C47.8471 74.5298 48.0872 74.7898 48.394 74.9688C48.7008 75.1449 49.0574 75.233 49.4636 75.233C49.7278 75.233 49.9664 75.196 50.1795 75.1222C50.3954 75.0455 50.5815 74.9318 50.7377 74.7812C50.894 74.6278 51.0147 74.4375 51.1 74.2102L52.0716 74.483C51.9693 74.8125 51.7974 75.1023 51.5559 75.3523C51.3145 75.5994 51.0162 75.7926 50.661 75.9318C50.3059 76.0682 49.9068 76.1364 49.4636 76.1364Z" fill="black"/>
</svg>
