<svg width="50" height="71" viewBox="0 0 50 71" fill="none" xmlns="http://www.w3.org/2000/svg">
<path d="M45.543 18.3727C46.4612 17.4635 47.1899 16.381 47.6868 15.1882C48.1836 13.9953 48.4388 12.7157 48.4375 11.4234C48.4375 6.00703 44.0398 1.61719 38.618 1.61641H38.6141C35.8953 1.61641 33.432 2.72109 31.6547 4.50547L37.4492 10.2906L36.1437 11.6102C32.882 9.3694 29.0166 8.17229 25.0594 8.17734C21.1022 8.17206 17.2368 9.3689 13.975 11.6094L12.5758 10.1945L18.2367 4.46953C17.3357 3.54884 16.2598 2.81742 15.0722 2.31822C13.8847 1.81901 12.6093 1.56208 11.3211 1.5625C5.93125 1.5625 1.5625 5.98047 1.5625 11.4305C1.5625 14.1648 2.66094 16.6391 4.43828 18.4258L10.1586 12.6406L11.3109 13.8055C9.42939 15.6467 7.93526 17.8457 6.91649 20.2732C5.89773 22.7006 5.37494 25.3073 5.37891 27.9398C5.37891 31.8625 6.52187 35.5156 8.48437 38.5906L6.83672 48.4375H8.29453C9.20547 48.4375 9.54219 47.368 10.1344 46.0375C10.6609 44.8434 11.1823 43.647 11.6984 42.4484C15.207 45.7109 19.9 47.7055 25.0594 47.7055C30.218 47.7055 34.9102 45.7094 38.4203 42.4484C38.9364 43.6472 39.458 44.8436 39.9852 46.0375C40.5781 47.368 40.9133 48.4375 41.8242 48.4375H43.282L41.6367 38.5883C43.6679 35.4088 44.7451 31.7136 44.7406 27.9406C44.7445 25.3082 44.2216 22.7016 43.2029 20.2744C42.1841 17.8471 40.69 15.6482 38.8086 13.807L39.8836 12.7211L45.543 18.3727ZM40.3672 27.9406C40.3672 36.4305 33.5133 43.3141 25.0594 43.3141C16.6055 43.3141 9.75234 36.4305 9.75234 27.9406C9.75234 19.4523 16.6047 12.5695 25.0594 12.5695C33.5125 12.5695 40.3672 19.4516 40.3672 27.9406Z" fill="black"/>
<path d="M26.5168 25.4205V16.9619H23.602V25.4205C23.1597 25.6766 22.7924 26.0441 22.5366 26.4865C22.2808 26.9289 22.1455 27.4306 22.1441 27.9416C22.1441 28.5908 22.3605 29.1861 22.716 29.6713L16.0879 36.3729L16.9941 37.2916L23.6949 30.5158C24.1027 30.7346 24.5637 30.8705 25.0598 30.8705C26.1363 30.8705 27.0652 30.2783 27.5715 29.4064H32.3488V26.4791H27.5715C27.3188 26.0399 26.9551 25.6748 26.5168 25.4205Z" fill="black"/>
<path d="M17.0952 62H16.0384C15.9759 61.696 15.8665 61.429 15.7102 61.1989C15.5568 60.9688 15.3693 60.7756 15.1477 60.6193C14.929 60.4602 14.6861 60.3409 14.419 60.2614C14.152 60.1818 13.8736 60.142 13.5838 60.142C13.0554 60.142 12.5767 60.2756 12.1477 60.5426C11.7216 60.8097 11.3821 61.2031 11.1293 61.723C10.8793 62.2429 10.7543 62.8807 10.7543 63.6364C10.7543 64.392 10.8793 65.0298 11.1293 65.5497C11.3821 66.0696 11.7216 66.4631 12.1477 66.7301C12.5767 66.9972 13.0554 67.1307 13.5838 67.1307C13.8736 67.1307 14.152 67.0909 14.419 67.0114C14.6861 66.9318 14.929 66.8139 15.1477 66.6577C15.3693 66.4986 15.5568 66.304 15.7102 66.0739C15.8665 65.8409 15.9759 65.5739 16.0384 65.2727H17.0952C17.0156 65.7187 16.8707 66.1179 16.6605 66.4702C16.4503 66.8224 16.1889 67.1222 15.8764 67.3693C15.5639 67.6136 15.2131 67.7997 14.8239 67.9276C14.4375 68.0554 14.0241 68.1193 13.5838 68.1193C12.8395 68.1193 12.1776 67.9375 11.598 67.5739C11.0185 67.2102 10.5625 66.6932 10.2301 66.0227C9.89773 65.3523 9.73153 64.5568 9.73153 63.6364C9.73153 62.7159 9.89773 61.9205 10.2301 61.25C10.5625 60.5795 11.0185 60.0625 11.598 59.6989C12.1776 59.3352 12.8395 59.1534 13.5838 59.1534C14.0241 59.1534 14.4375 59.2173 14.8239 59.3452C15.2131 59.473 15.5639 59.6605 15.8764 59.9077C16.1889 60.152 16.4503 60.4503 16.6605 60.8026C16.8707 61.152 17.0156 61.5511 17.0952 62ZM19.6722 59.2727V68H18.6665V59.2727H19.6722ZM24.1733 68.1364C23.5824 68.1364 23.0639 67.9957 22.6179 67.7145C22.1747 67.4332 21.8281 67.0398 21.5781 66.5341C21.331 66.0284 21.2074 65.4375 21.2074 64.7614C21.2074 64.0795 21.331 63.4844 21.5781 62.9759C21.8281 62.4673 22.1747 62.0724 22.6179 61.7912C23.0639 61.5099 23.5824 61.3693 24.1733 61.3693C24.7642 61.3693 25.2813 61.5099 25.7244 61.7912C26.1705 62.0724 26.517 62.4673 26.7642 62.9759C27.0142 63.4844 27.1392 64.0795 27.1392 64.7614C27.1392 65.4375 27.0142 66.0284 26.7642 66.5341C26.517 67.0398 26.1705 67.4332 25.7244 67.7145C25.2813 67.9957 24.7642 68.1364 24.1733 68.1364ZM24.1733 67.233C24.6222 67.233 24.9915 67.1179 25.2812 66.8878C25.571 66.6577 25.7855 66.3551 25.9247 65.9801C26.0639 65.6051 26.1335 65.1989 26.1335 64.7614C26.1335 64.3239 26.0639 63.9162 25.9247 63.5384C25.7855 63.1605 25.571 62.8551 25.2812 62.6222C24.9915 62.3892 24.6222 62.2727 24.1733 62.2727C23.7244 62.2727 23.3551 62.3892 23.0653 62.6222C22.7756 62.8551 22.5611 63.1605 22.4219 63.5384C22.2827 63.9162 22.2131 64.3239 22.2131 64.7614C22.2131 65.1989 22.2827 65.6051 22.4219 65.9801C22.5611 66.3551 22.7756 66.6577 23.0653 66.8878C23.3551 67.1179 23.7244 67.233 24.1733 67.233ZM31.3335 68.1364C30.7198 68.1364 30.1914 67.9915 29.7482 67.7017C29.305 67.4119 28.9641 67.0128 28.7255 66.5043C28.4869 65.9957 28.3675 65.4148 28.3675 64.7614C28.3675 64.0966 28.4897 63.5099 28.734 63.0014C28.9812 62.4901 29.3249 62.0909 29.7653 61.804C30.2085 61.5142 30.7255 61.3693 31.3164 61.3693C31.7766 61.3693 32.1914 61.4545 32.5607 61.625C32.93 61.7955 33.2326 62.0341 33.4684 62.3409C33.7042 62.6477 33.8505 63.0057 33.9073 63.4148H32.9016C32.8249 63.1165 32.6545 62.8523 32.3903 62.6222C32.1289 62.3892 31.7766 62.2727 31.3335 62.2727C30.9414 62.2727 30.5977 62.375 30.3022 62.5795C30.0096 62.7812 29.7809 63.0668 29.6161 63.4361C29.4542 63.8026 29.3732 64.233 29.3732 64.7273C29.3732 65.233 29.4528 65.6733 29.6119 66.0483C29.7738 66.4233 30.0011 66.7145 30.2937 66.9219C30.5891 67.1293 30.9357 67.233 31.3335 67.233C31.5948 67.233 31.832 67.1875 32.0451 67.0966C32.2582 67.0057 32.4386 66.875 32.5863 66.7045C32.734 66.5341 32.8391 66.3295 32.9016 66.0909H33.9073C33.8505 66.4773 33.7099 66.8253 33.4854 67.1349C33.2638 67.4418 32.9698 67.6861 32.6033 67.8679C32.2397 68.0469 31.8164 68.1364 31.3335 68.1364ZM36.315 65.6136L36.2979 64.3693H36.5025L39.3661 61.4545H40.6104L37.5593 64.5398H37.4741L36.315 65.6136ZM35.3775 68V59.2727H36.3832V68H35.3775ZM39.5366 68L36.9798 64.7614L37.6957 64.0625L40.815 68H39.5366Z" fill="black"/>
</svg>
