<svg width="102" height="79" viewBox="0 0 102 79" fill="none" xmlns="http://www.w3.org/2000/svg">
<path d="M67.4229 6.99986C66.1306 7.07093 64.8555 7.40047 63.7205 7.94324C60.6943 9.38632 58.1722 11.9429 56.2509 13.8663C56.0617 14.0177 55.9066 14.2072 55.7956 14.4226C55.6846 14.6379 55.6203 14.8743 55.6068 15.1162C55.5934 15.3581 55.6311 15.6001 55.7175 15.8264C55.8039 16.0528 55.9371 16.2583 56.1083 16.4297C56.2796 16.6011 56.485 16.7345 56.7113 16.8211C56.9375 16.9077 57.1795 16.9456 57.4214 16.9324C57.6634 16.9191 57.8998 16.855 58.1152 16.7442C58.3307 16.6334 58.5204 16.4785 58.6719 16.2894C60.5672 14.394 62.958 12.1755 65.2023 11.1051C66.3245 10.5709 67.3389 10.334 68.2974 10.4331C69.2559 10.5322 70.2423 10.8962 71.3279 11.9795C73.1565 13.8103 73.2599 15.3525 72.4694 17.4999C71.6832 19.6472 69.7189 22.206 67.3562 24.5666C65.0946 26.8282 63.406 28.9346 62.6435 31.1639C62.2541 32.2708 62.1866 33.4654 62.4489 34.6092C62.7112 35.7529 63.2925 36.7988 64.1254 37.6254C65.8959 39.3959 68.4568 39.8008 70.7872 38.9026C73.1199 38.0066 75.446 36.1306 78.0565 33.518C78.2455 33.3665 78.4005 33.1768 78.5113 32.9614C78.6221 32.7459 78.6862 32.5095 78.6994 32.2676C78.7127 32.0257 78.6748 31.7837 78.5882 31.5574C78.5015 31.3312 78.3682 31.1257 78.1968 30.9545C78.0254 30.7832 77.8198 30.6501 77.5935 30.5637C77.3672 30.4772 77.1251 30.4395 76.8832 30.453C76.6413 30.4665 76.405 30.5308 76.1896 30.6418C75.9743 30.7527 75.7847 30.9079 75.6334 31.0971C73.1802 33.5503 71.0672 35.0989 69.5768 35.6719C68.0863 36.2469 67.494 36.1479 66.5485 35.2023C65.5792 34.2331 65.4845 33.5826 65.9411 32.2408C66.3977 30.8989 67.7029 29.066 69.7792 26.9897C72.31 24.4611 74.6017 21.7128 75.7023 18.7103C76.8008 15.7122 76.4088 12.2165 73.7488 9.55647C72.2109 8.01647 70.4663 7.18078 68.7023 6.99986C68.2764 6.96815 67.8488 6.96815 67.4229 6.99986ZM44.4026 13.4614C40.9725 13.6632 37.7378 15.1252 35.3199 17.5666L33.0282 19.8583L41.7125 28.5405L44.0666 26.1842C43.7214 25.4956 43.6008 24.716 43.7217 23.9553C43.8426 23.1945 44.199 22.4908 44.7408 21.9432L47.0971 19.5891C47.6445 19.0478 48.3478 18.6917 49.1081 18.5708C49.8684 18.4498 50.6475 18.5702 51.3359 18.9149L53.8257 16.4251C51.1447 14.3366 47.8008 13.2844 44.4069 13.4614H44.4026ZM56.3845 18.9128L53.7589 21.5383C54.0161 22.1976 54.0766 22.9173 53.9333 23.6104C53.7899 24.3034 53.4488 24.94 52.9512 25.4432L50.5949 27.7974C50.0919 28.2946 49.4557 28.6354 48.7631 28.7788C48.0705 28.9221 47.3512 28.8618 46.6922 28.6051L44.2023 31.0949L52.9512 39.7792L55.2408 37.4897C60.3152 32.4152 60.6728 24.4395 56.3845 18.9128ZM49.7205 20.6639C49.314 20.6759 48.928 20.845 48.6435 21.1355L46.2872 23.4897C46.0057 23.7775 45.8481 24.164 45.8481 24.5666C45.8481 24.9692 46.0057 25.3558 46.2872 25.6435L46.8946 26.2488C47.1774 26.5421 47.5643 26.7123 47.9715 26.7226C48.3788 26.7123 48.7657 26.5421 49.0485 26.2488L51.4048 23.8946C51.6965 23.6111 51.8651 23.2244 51.8743 22.8177C51.8645 22.4107 51.6951 22.0239 51.4026 21.7408L50.7995 21.1355C50.661 20.9884 50.4942 20.8706 50.3092 20.7892C50.1242 20.7078 49.9247 20.6645 49.7226 20.6617L49.7205 20.6639ZM30.9411 21.9432L27.7103 25.1051C22.2072 30.6103 22.2072 39.5897 27.7103 45.0949C29.0184 46.4033 30.5714 47.4412 32.2806 48.1492C33.9898 48.8573 35.8218 49.2218 37.6719 49.2218C39.5219 49.2218 41.3539 48.8573 43.0631 48.1492C44.7723 47.4412 46.3253 46.4033 47.6334 45.0949L50.8642 41.8642L30.9411 21.9432Z" fill="black"/>
<path d="M10.1889 62H9.1321C9.0696 61.696 8.96023 61.429 8.80398 61.1989C8.65057 60.9688 8.46307 60.7756 8.24148 60.6193C8.02273 60.4602 7.77983 60.3409 7.51278 60.2614C7.24574 60.1818 6.96733 60.142 6.67756 60.142C6.14915 60.142 5.67045 60.2756 5.24148 60.5426C4.81534 60.8097 4.47585 61.2031 4.22301 61.723C3.97301 62.2429 3.84801 62.8807 3.84801 63.6364C3.84801 64.392 3.97301 65.0298 4.22301 65.5497C4.47585 66.0696 4.81534 66.4631 5.24148 66.7301C5.67045 66.9972 6.14915 67.1307 6.67756 67.1307C6.96733 67.1307 7.24574 67.0909 7.51278 67.0114C7.77983 66.9318 8.02273 66.8139 8.24148 66.6577C8.46307 66.4986 8.65057 66.304 8.80398 66.0739C8.96023 65.8409 9.0696 65.5739 9.1321 65.2727H10.1889C10.1094 65.7187 9.96449 66.1179 9.75426 66.4702C9.54403 66.8224 9.28267 67.1222 8.97017 67.3693C8.65767 67.6136 8.30682 67.7997 7.91761 67.9276C7.53125 68.0554 7.1179 68.1193 6.67756 68.1193C5.93324 68.1193 5.27131 67.9375 4.69176 67.5739C4.11222 67.2102 3.65625 66.6932 3.32386 66.0227C2.99148 65.3523 2.82528 64.5568 2.82528 63.6364C2.82528 62.7159 2.99148 61.9205 3.32386 61.25C3.65625 60.5795 4.11222 60.0625 4.69176 59.6989C5.27131 59.3352 5.93324 59.1534 6.67756 59.1534C7.1179 59.1534 7.53125 59.2173 7.91761 59.3452C8.30682 59.473 8.65767 59.6605 8.97017 59.9077C9.28267 60.152 9.54403 60.4503 9.75426 60.8026C9.96449 61.152 10.1094 61.5511 10.1889 62ZM14.4194 68.1364C13.8285 68.1364 13.31 67.9957 12.864 67.7145C12.4208 67.4332 12.0742 67.0398 11.8242 66.5341C11.5771 66.0284 11.4535 65.4375 11.4535 64.7614C11.4535 64.0795 11.5771 63.4844 11.8242 62.9759C12.0742 62.4673 12.4208 62.0724 12.864 61.7912C13.31 61.5099 13.8285 61.3693 14.4194 61.3693C15.0103 61.3693 15.5273 61.5099 15.9705 61.7912C16.4165 62.0724 16.7631 62.4673 17.0103 62.9759C17.2603 63.4844 17.3853 64.0795 17.3853 64.7614C17.3853 65.4375 17.2603 66.0284 17.0103 66.5341C16.7631 67.0398 16.4165 67.4332 15.9705 67.7145C15.5273 67.9957 15.0103 68.1364 14.4194 68.1364ZM14.4194 67.233C14.8683 67.233 15.2376 67.1179 15.5273 66.8878C15.8171 66.6577 16.0316 66.3551 16.1708 65.9801C16.31 65.6051 16.3796 65.1989 16.3796 64.7614C16.3796 64.3239 16.31 63.9162 16.1708 63.5384C16.0316 63.1605 15.8171 62.8551 15.5273 62.6222C15.2376 62.3892 14.8683 62.2727 14.4194 62.2727C13.9705 62.2727 13.6012 62.3892 13.3114 62.6222C13.0217 62.8551 12.8072 63.1605 12.668 63.5384C12.5288 63.9162 12.4592 64.3239 12.4592 64.7614C12.4592 65.1989 12.5288 65.6051 12.668 65.9801C12.8072 66.3551 13.0217 66.6577 13.3114 66.8878C13.6012 67.1179 13.9705 67.233 14.4194 67.233ZM18.9205 68V61.4545H19.892V62.4773H19.9773C20.1136 62.1278 20.3338 61.8565 20.6378 61.6634C20.9418 61.4673 21.3068 61.3693 21.733 61.3693C22.1648 61.3693 22.5241 61.4673 22.8111 61.6634C23.1009 61.8565 23.3267 62.1278 23.4886 62.4773H23.5568C23.7244 62.1392 23.9759 61.8707 24.3111 61.6719C24.6463 61.4702 25.0483 61.3693 25.517 61.3693C26.1023 61.3693 26.581 61.5526 26.9531 61.919C27.3253 62.2827 27.5114 62.8494 27.5114 63.6193V68H26.5057V63.6193C26.5057 63.1364 26.3736 62.7912 26.1094 62.5838C25.8452 62.3764 25.5341 62.2727 25.1761 62.2727C24.7159 62.2727 24.3594 62.4119 24.1065 62.6903C23.8537 62.9659 23.7273 63.3153 23.7273 63.7386V68H22.7045V63.517C22.7045 63.1449 22.5838 62.8452 22.3423 62.6179C22.1009 62.3878 21.7898 62.2727 21.4091 62.2727C21.1477 62.2727 20.9034 62.3423 20.6761 62.4815C20.4517 62.6207 20.2699 62.8139 20.1307 63.0611C19.9943 63.3054 19.9261 63.5881 19.9261 63.9091V68H18.9205ZM29.3501 70.4545V61.4545H30.3217V62.4943H30.4411C30.5149 62.3807 30.6172 62.2358 30.7479 62.0597C30.8814 61.8807 31.0717 61.7216 31.3189 61.5824C31.5689 61.4403 31.907 61.3693 32.3331 61.3693C32.8842 61.3693 33.37 61.5071 33.7905 61.7827C34.2109 62.0582 34.5391 62.4489 34.7749 62.9545C35.0107 63.4602 35.1286 64.0568 35.1286 64.7443C35.1286 65.4375 35.0107 66.0384 34.7749 66.5469C34.5391 67.0526 34.2124 67.4446 33.7947 67.723C33.3771 67.9986 32.8956 68.1364 32.3501 68.1364C31.9297 68.1364 31.593 68.0668 31.3402 67.9276C31.0874 67.7855 30.8928 67.625 30.7564 67.446C30.62 67.2642 30.5149 67.1136 30.4411 66.9943H30.3558V70.4545H29.3501ZM30.3388 64.7273C30.3388 65.2216 30.4112 65.6577 30.5561 66.0355C30.701 66.4105 30.9126 66.7045 31.1911 66.9176C31.4695 67.1278 31.8104 67.233 32.2138 67.233C32.6342 67.233 32.9851 67.1222 33.2663 66.9006C33.5504 66.6761 33.7635 66.375 33.9055 65.9972C34.0504 65.6165 34.1229 65.1932 34.1229 64.7273C34.1229 64.267 34.0518 63.8523 33.9098 63.483C33.7706 63.1108 33.5589 62.8168 33.2749 62.6009C32.9936 62.3821 32.6399 62.2727 32.2138 62.2727C31.8047 62.2727 31.4609 62.3764 31.1825 62.5838C30.9041 62.7884 30.6939 63.0753 30.5518 63.4446C30.4098 63.8111 30.3388 64.2386 30.3388 64.7273ZM40.7876 65.3239V61.4545H41.7933V68H40.7876V66.892H40.7195C40.5661 67.2244 40.3274 67.5071 40.0036 67.7401C39.6797 67.9702 39.2706 68.0852 38.7763 68.0852C38.3672 68.0852 38.0036 67.9957 37.6854 67.8168C37.3672 67.6349 37.1172 67.3622 36.9354 66.9986C36.7536 66.6321 36.6626 66.1705 36.6626 65.6136V61.4545H37.6683V65.5455C37.6683 66.0227 37.8018 66.4034 38.0689 66.6875C38.3388 66.9716 38.6825 67.1136 39.1001 67.1136C39.3501 67.1136 39.6044 67.0497 39.8629 66.9219C40.1243 66.794 40.343 66.598 40.5192 66.3338C40.6982 66.0696 40.7876 65.733 40.7876 65.3239ZM46.4819 61.4545V62.3068H43.0898V61.4545H46.4819ZM44.0785 59.8864H45.0842V66.125C45.0842 66.4091 45.1254 66.6222 45.2077 66.7642C45.293 66.9034 45.4009 66.9972 45.5316 67.0455C45.6651 67.0909 45.8058 67.1136 45.9535 67.1136C46.0643 67.1136 46.1552 67.108 46.2262 67.0966C46.2972 67.0824 46.354 67.071 46.3967 67.0625L46.6012 67.9659C46.533 67.9915 46.4379 68.017 46.3157 68.0426C46.1935 68.071 46.0387 68.0852 45.8512 68.0852C45.5671 68.0852 45.2887 68.0241 45.016 67.902C44.7461 67.7798 44.5217 67.5938 44.3427 67.3438C44.1665 67.0938 44.0785 66.7784 44.0785 66.3977V59.8864ZM50.6687 68.1364C50.038 68.1364 49.494 67.9972 49.0366 67.7188C48.582 67.4375 48.2312 67.0455 47.984 66.5426C47.7397 66.0369 47.6175 65.4489 47.6175 64.7784C47.6175 64.108 47.7397 63.517 47.984 63.0057C48.2312 62.4915 48.5749 62.0909 49.0153 61.804C49.4585 61.5142 49.9755 61.3693 50.5664 61.3693C50.9073 61.3693 51.244 61.4261 51.5763 61.5398C51.9087 61.6534 52.2113 61.8381 52.484 62.0938C52.7567 62.3466 52.9741 62.6818 53.136 63.0994C53.2979 63.517 53.3789 64.0312 53.3789 64.642V65.0682H48.3335V64.1989H52.3562C52.3562 63.8295 52.2823 63.5 52.1346 63.2102C51.9897 62.9205 51.7823 62.6918 51.5124 62.5241C51.2454 62.3565 50.93 62.2727 50.5664 62.2727C50.1658 62.2727 49.8192 62.3722 49.5266 62.571C49.2369 62.767 49.0138 63.0227 48.8576 63.3381C48.7013 63.6534 48.6232 63.9915 48.6232 64.3523V64.9318C48.6232 65.4261 48.7085 65.8452 48.8789 66.1889C49.0522 66.5298 49.2923 66.7898 49.5991 66.9688C49.9059 67.1449 50.2624 67.233 50.6687 67.233C50.9329 67.233 51.1715 67.196 51.3846 67.1222C51.6005 67.0455 51.7866 66.9318 51.9428 66.7812C52.0991 66.6278 52.2198 66.4375 52.305 66.2102L53.2766 66.483C53.1744 66.8125 53.0025 67.1023 52.761 67.3523C52.5195 67.5994 52.2212 67.7926 51.8661 67.9318C51.511 68.0682 51.1119 68.1364 50.6687 68.1364ZM54.9087 68V61.4545H55.8803V62.4432H55.9485C56.0678 62.1193 56.2837 61.8565 56.5962 61.6548C56.9087 61.4531 57.261 61.3523 57.6531 61.3523C57.7269 61.3523 57.8192 61.3537 57.93 61.3565C58.0408 61.3594 58.1246 61.3636 58.1815 61.3693V62.392C58.1474 62.3835 58.0692 62.3707 57.9471 62.3537C57.8278 62.3338 57.7013 62.3239 57.5678 62.3239C57.2496 62.3239 56.9656 62.3906 56.7156 62.5241C56.4684 62.6548 56.2724 62.8366 56.1275 63.0696C55.9854 63.2997 55.9144 63.5625 55.9144 63.858V68H54.9087ZM62.8849 59.2727H64.1463L67.1122 66.517H67.2145L70.1804 59.2727H71.4418V68H70.4531V61.3693H70.3679L67.6406 68H66.6861L63.9588 61.3693H63.8736V68H62.8849V59.2727ZM76.0835 68.1364C75.4925 68.1364 74.9741 67.9957 74.5281 67.7145C74.0849 67.4332 73.7383 67.0398 73.4883 66.5341C73.2411 66.0284 73.1175 65.4375 73.1175 64.7614C73.1175 64.0795 73.2411 63.4844 73.4883 62.9759C73.7383 62.4673 74.0849 62.0724 74.5281 61.7912C74.9741 61.5099 75.4925 61.3693 76.0835 61.3693C76.6744 61.3693 77.1914 61.5099 77.6346 61.7912C78.0806 62.0724 78.4272 62.4673 78.6744 62.9759C78.9244 63.4844 79.0494 64.0795 79.0494 64.7614C79.0494 65.4375 78.9244 66.0284 78.6744 66.5341C78.4272 67.0398 78.0806 67.4332 77.6346 67.7145C77.1914 67.9957 76.6744 68.1364 76.0835 68.1364ZM76.0835 67.233C76.5323 67.233 76.9016 67.1179 77.1914 66.8878C77.4812 66.6577 77.6957 66.3551 77.8349 65.9801C77.9741 65.6051 78.0437 65.1989 78.0437 64.7614C78.0437 64.3239 77.9741 63.9162 77.8349 63.5384C77.6957 63.1605 77.4812 62.8551 77.1914 62.6222C76.9016 62.3892 76.5323 62.2727 76.0835 62.2727C75.6346 62.2727 75.2653 62.3892 74.9755 62.6222C74.6857 62.8551 74.4712 63.1605 74.332 63.5384C74.1928 63.9162 74.1232 64.3239 74.1232 64.7614C74.1232 65.1989 74.1928 65.6051 74.332 65.9801C74.4712 66.3551 74.6857 66.6577 74.9755 66.8878C75.2653 67.1179 75.6346 67.233 76.0835 67.233ZM84.7095 65.3239V61.4545H85.7152V68H84.7095V66.892H84.6413C84.4879 67.2244 84.2493 67.5071 83.9254 67.7401C83.6016 67.9702 83.1925 68.0852 82.6982 68.0852C82.2891 68.0852 81.9254 67.9957 81.6072 67.8168C81.2891 67.6349 81.0391 67.3622 80.8572 66.9986C80.6754 66.6321 80.5845 66.1705 80.5845 65.6136V61.4545H81.5902V65.5455C81.5902 66.0227 81.7237 66.4034 81.9908 66.6875C82.2607 66.9716 82.6044 67.1136 83.022 67.1136C83.272 67.1136 83.5263 67.0497 83.7848 66.9219C84.0462 66.794 84.2649 66.598 84.4411 66.3338C84.62 66.0696 84.7095 65.733 84.7095 65.3239ZM92.1935 62.9205L91.2901 63.1761C91.2333 63.0256 91.1495 62.8793 91.0387 62.7372C90.9308 62.5923 90.783 62.473 90.5955 62.3793C90.408 62.2855 90.168 62.2386 89.8754 62.2386C89.4748 62.2386 89.141 62.331 88.8739 62.5156C88.6097 62.6974 88.4776 62.929 88.4776 63.2102C88.4776 63.4602 88.5685 63.6577 88.7504 63.8026C88.9322 63.9474 89.2163 64.0682 89.6026 64.1648L90.5742 64.4034C91.1594 64.5455 91.5955 64.7628 91.8825 65.0554C92.1694 65.3452 92.3129 65.7187 92.3129 66.1761C92.3129 66.5511 92.2049 66.8864 91.989 67.1818C91.7759 67.4773 91.4776 67.7102 91.0941 67.8807C90.7106 68.0511 90.2646 68.1364 89.756 68.1364C89.0884 68.1364 88.5359 67.9915 88.0984 67.7017C87.6609 67.4119 87.3839 66.9886 87.2674 66.4318L88.2219 66.1932C88.3129 66.5455 88.4847 66.8097 88.7376 66.9858C88.9933 67.1619 89.3271 67.25 89.739 67.25C90.2077 67.25 90.5799 67.1506 90.8555 66.9517C91.1339 66.75 91.2731 66.5085 91.2731 66.2273C91.2731 66 91.1935 65.8097 91.0344 65.6562C90.8754 65.5 90.631 65.3835 90.3015 65.3068L89.2106 65.0511C88.6112 64.9091 88.1708 64.6889 87.8896 64.3906C87.6112 64.0895 87.4719 63.7131 87.4719 63.2614C87.4719 62.892 87.5756 62.5653 87.783 62.2812C87.9933 61.9972 88.2788 61.7741 88.6396 61.6122C89.0032 61.4503 89.4151 61.3693 89.8754 61.3693C90.5231 61.3693 91.0316 61.5114 91.4009 61.7955C91.7731 62.0795 92.0373 62.4545 92.1935 62.9205ZM96.571 68.1364C95.9403 68.1364 95.3963 67.9972 94.9389 67.7188C94.4844 67.4375 94.1335 67.0455 93.8864 66.5426C93.642 66.0369 93.5199 65.4489 93.5199 64.7784C93.5199 64.108 93.642 63.517 93.8864 63.0057C94.1335 62.4915 94.4773 62.0909 94.9176 61.804C95.3608 61.5142 95.8778 61.3693 96.4688 61.3693C96.8097 61.3693 97.1463 61.4261 97.4787 61.5398C97.8111 61.6534 98.1136 61.8381 98.3864 62.0938C98.6591 62.3466 98.8764 62.6818 99.0384 63.0994C99.2003 63.517 99.2812 64.0312 99.2812 64.642V65.0682H94.2358V64.1989H98.2585C98.2585 63.8295 98.1847 63.5 98.0369 63.2102C97.892 62.9205 97.6847 62.6918 97.4148 62.5241C97.1477 62.3565 96.8324 62.2727 96.4688 62.2727C96.0682 62.2727 95.7216 62.3722 95.429 62.571C95.1392 62.767 94.9162 63.0227 94.7599 63.3381C94.6037 63.6534 94.5256 63.9915 94.5256 64.3523V64.9318C94.5256 65.4261 94.6108 65.8452 94.7812 66.1889C94.9545 66.5298 95.1946 66.7898 95.5014 66.9688C95.8082 67.1449 96.1648 67.233 96.571 67.233C96.8352 67.233 97.0739 67.196 97.2869 67.1222C97.5028 67.0455 97.6889 66.9318 97.8452 66.7812C98.0014 66.6278 98.1222 66.4375 98.2074 66.2102L99.179 66.483C99.0767 66.8125 98.9048 67.1023 98.6634 67.3523C98.4219 67.5994 98.1236 67.7926 97.7685 67.9318C97.4134 68.0682 97.0142 68.1364 96.571 68.1364Z" fill="black"/>
</svg>
