<svg width="72" height="64" viewBox="0 0 72 64" fill="none" xmlns="http://www.w3.org/2000/svg">
<path d="M36.0003 41.6667C33.1531 41.6667 30.4621 41.1194 27.9274 40.025C25.3927 38.9306 23.1795 37.4375 21.2878 35.5458C19.3962 33.6542 17.9031 31.441 16.8087 28.9063C15.7142 26.3715 15.167 23.6806 15.167 20.8333C15.167 17.9514 15.7316 15.2431 16.8607 12.7083C17.9899 10.1736 19.5177 7.96875 21.4441 6.09375C23.3705 4.21875 25.6184 2.73472 28.1878 1.64167C30.7573 0.548611 33.5003 0.00138889 36.417 0C39.1948 0 41.8163 0.477778 44.2816 1.43333C46.7469 2.38889 48.9087 3.70833 50.767 5.39167C52.6253 7.075 54.101 9.07153 55.1941 11.3813C56.2871 13.691 56.8337 16.1819 56.8337 18.8542C56.8337 22.8472 55.6184 25.9118 53.1878 28.0479C50.7573 30.184 47.8059 31.2514 44.3337 31.25H40.4795C40.167 31.25 39.9503 31.3368 39.8295 31.5104C39.7087 31.684 39.6475 31.875 39.6462 32.0833C39.6462 32.5 39.9066 33.0993 40.4274 33.8813C40.9482 34.6632 41.2087 35.5569 41.2087 36.5625C41.2087 38.2986 40.7316 39.5833 39.7774 40.4167C38.8232 41.25 37.5642 41.6667 36.0003 41.6667ZM24.542 22.9167C25.4448 22.9167 26.1913 22.6215 26.7816 22.0313C27.3719 21.441 27.667 20.6944 27.667 19.7917C27.667 18.8889 27.3719 18.1424 26.7816 17.5521C26.1913 16.9618 25.4448 16.6667 24.542 16.6667C23.6392 16.6667 22.8927 16.9618 22.3024 17.5521C21.7121 18.1424 21.417 18.8889 21.417 19.7917C21.417 20.6944 21.7121 21.441 22.3024 22.0313C22.8927 22.6215 23.6392 22.9167 24.542 22.9167ZM30.792 14.5833C31.6948 14.5833 32.4413 14.2882 33.0316 13.6979C33.6219 13.1076 33.917 12.3611 33.917 11.4583C33.917 10.5556 33.6219 9.80903 33.0316 9.21875C32.4413 8.62847 31.6948 8.33333 30.792 8.33333C29.8892 8.33333 29.1427 8.62847 28.5524 9.21875C27.9621 9.80903 27.667 10.5556 27.667 11.4583C27.667 12.3611 27.9621 13.1076 28.5524 13.6979C29.1427 14.2882 29.8892 14.5833 30.792 14.5833ZM41.2087 14.5833C42.1114 14.5833 42.858 14.2882 43.4482 13.6979C44.0385 13.1076 44.3337 12.3611 44.3337 11.4583C44.3337 10.5556 44.0385 9.80903 43.4482 9.21875C42.858 8.62847 42.1114 8.33333 41.2087 8.33333C40.3059 8.33333 39.5594 8.62847 38.9691 9.21875C38.3788 9.80903 38.0837 10.5556 38.0837 11.4583C38.0837 12.3611 38.3788 13.1076 38.9691 13.6979C39.5594 14.2882 40.3059 14.5833 41.2087 14.5833ZM47.4587 22.9167C48.3614 22.9167 49.108 22.6215 49.6982 22.0313C50.2885 21.441 50.5837 20.6944 50.5837 19.7917C50.5837 18.8889 50.2885 18.1424 49.6982 17.5521C49.108 16.9618 48.3614 16.6667 47.4587 16.6667C46.5559 16.6667 45.8094 16.9618 45.2191 17.5521C44.6288 18.1424 44.3337 18.8889 44.3337 19.7917C44.3337 20.6944 44.6288 21.441 45.2191 22.0313C45.8094 22.6215 46.5559 22.9167 47.4587 22.9167Z" fill="black"/>
<path d="M1.14471 60.6665V51.9392H4.09357C4.77823 51.9392 5.33789 52.0628 5.77255 52.31C6.21005 52.5543 6.53391 52.8853 6.74414 53.3029C6.95437 53.7205 7.05948 54.1864 7.05948 54.7006C7.05948 55.2148 6.95437 55.6821 6.74414 56.1026C6.53675 56.523 6.21573 56.8583 5.78107 57.1083C5.34641 57.3554 4.7896 57.479 4.11062 57.479H1.99698V56.5415H4.07653C4.54528 56.5415 4.9217 56.4605 5.20579 56.2986C5.48988 56.1367 5.69585 55.9179 5.82369 55.6424C5.95437 55.3639 6.01971 55.05 6.01971 54.7006C6.01971 54.3512 5.95437 54.0387 5.82369 53.7631C5.69585 53.4875 5.48846 53.2716 5.20153 53.1154C4.9146 52.9563 4.53391 52.8767 4.05948 52.8767H2.20153V60.6665H1.14471ZM10.5517 60.8199C10.1369 60.8199 9.76048 60.7418 9.42241 60.5855C9.08434 60.4264 8.81587 60.1978 8.61701 59.8995C8.41815 59.5983 8.31871 59.2347 8.31871 58.8085C8.31871 58.4335 8.39258 58.1296 8.54031 57.8966C8.68803 57.6608 8.88548 57.4762 9.13263 57.3426C9.37979 57.2091 9.65252 57.1097 9.95082 57.0443C10.252 56.9762 10.5545 56.9222 10.8585 56.8824C11.2562 56.8313 11.5787 56.7929 11.8258 56.7674C12.0758 56.7389 12.2576 56.6921 12.3713 56.6267C12.4877 56.5614 12.546 56.4478 12.546 56.2858V56.2517C12.546 55.8313 12.4309 55.5046 12.2008 55.2716C11.9735 55.0387 11.6284 54.9222 11.1653 54.9222C10.6852 54.9222 10.3088 55.0273 10.036 55.2375C9.76332 55.4478 9.57156 55.6722 9.46076 55.9108L8.50621 55.5699C8.67667 55.1722 8.90394 54.8625 9.18803 54.6409C9.47496 54.4165 9.78746 54.2603 10.1255 54.1722C10.4664 54.0813 10.8017 54.0358 11.1312 54.0358C11.3414 54.0358 11.5829 54.0614 11.8556 54.1125C12.1312 54.1608 12.3968 54.2617 12.6525 54.4151C12.911 54.5685 13.1255 54.8 13.296 55.1097C13.4664 55.4193 13.5517 55.8341 13.5517 56.354V60.6665H12.546V59.7801H12.4949C12.4267 59.9222 12.313 60.0742 12.1539 60.2361C11.9949 60.398 11.7832 60.5358 11.519 60.6495C11.2548 60.7631 10.9324 60.8199 10.5517 60.8199ZM10.7051 59.9165C11.1028 59.9165 11.438 59.8384 11.7108 59.6821C11.9863 59.5259 12.1937 59.3242 12.3329 59.077C12.475 58.8299 12.546 58.5699 12.546 58.2972V57.3767C12.5034 57.4279 12.4096 57.4747 12.2647 57.5174C12.1227 57.5571 11.9579 57.5926 11.7704 57.6239C11.5858 57.6523 11.4054 57.6779 11.2292 57.7006C11.0559 57.7205 10.9153 57.7375 10.8074 57.7517C10.546 57.7858 10.3017 57.8412 10.0744 57.9179C9.84996 57.9918 9.66815 58.104 9.52894 58.2546C9.39258 58.4023 9.3244 58.604 9.3244 58.8597C9.3244 59.2091 9.45366 59.4733 9.71218 59.6523C9.97354 59.8284 10.3045 59.9165 10.7051 59.9165ZM15.3873 60.6665V54.121H16.3929V60.6665H15.3873ZM15.8986 53.0301C15.7026 53.0301 15.5336 52.9634 15.3915 52.8299C15.2523 52.6963 15.1827 52.5358 15.1827 52.3483C15.1827 52.1608 15.2523 52.0003 15.3915 51.8668C15.5336 51.7333 15.7026 51.6665 15.8986 51.6665C16.0946 51.6665 16.2623 51.7333 16.4015 51.8668C16.5435 52.0003 16.6145 52.1608 16.6145 52.3483C16.6145 52.5358 16.5435 52.6963 16.4015 52.8299C16.2623 52.9634 16.0946 53.0301 15.8986 53.0301ZM19.2406 56.729V60.6665H18.2349V54.121H19.2065V55.1438H19.2917C19.4451 54.8114 19.6781 54.5443 19.9906 54.3426C20.3031 54.1381 20.7065 54.0358 21.2008 54.0358C21.644 54.0358 22.0318 54.1267 22.3642 54.3085C22.6966 54.4875 22.9551 54.7603 23.1397 55.1267C23.3244 55.4904 23.4167 55.9506 23.4167 56.5074V60.6665H22.411V56.5756C22.411 56.0614 22.2775 55.6608 22.0105 55.3739C21.7434 55.0841 21.377 54.9392 20.911 54.9392C20.59 54.9392 20.3031 55.0088 20.0502 55.148C19.8002 55.2872 19.6028 55.4904 19.4579 55.7574C19.313 56.0245 19.2406 56.3483 19.2406 56.729ZM28.101 54.121V54.9733H24.709V54.121H28.101ZM25.6976 52.5529H26.7033V58.7915C26.7033 59.0756 26.7445 59.2887 26.8269 59.4307C26.9121 59.5699 27.0201 59.6637 27.1507 59.712C27.2843 59.7574 27.4249 59.7801 27.5726 59.7801C27.6834 59.7801 27.7743 59.7745 27.8453 59.7631C27.9164 59.7489 27.9732 59.7375 28.0158 59.729L28.2203 60.6324C28.1522 60.658 28.057 60.6835 27.9348 60.7091C27.8127 60.7375 27.6578 60.7517 27.4703 60.7517C27.1863 60.7517 26.9078 60.6907 26.6351 60.5685C26.3652 60.4463 26.1408 60.2603 25.9618 60.0103C25.7857 59.7603 25.6976 59.4449 25.6976 59.0642V52.5529ZM33.1252 60.6665V51.9392H36.074C36.7587 51.9392 37.3184 52.0628 37.753 52.31C38.1905 52.5543 38.5144 52.8853 38.7246 53.3029C38.9348 53.7205 39.04 54.1864 39.04 54.7006C39.04 55.2148 38.9348 55.6821 38.7246 56.1026C38.5172 56.523 38.1962 56.8583 37.7615 57.1083C37.3269 57.3554 36.7701 57.479 36.0911 57.479H33.9775V56.5415H36.057C36.5257 56.5415 36.9022 56.4605 37.1863 56.2986C37.4703 56.1367 37.6763 55.9179 37.8042 55.6424C37.9348 55.3639 38.0002 55.05 38.0002 54.7006C38.0002 54.3512 37.9348 54.0387 37.8042 53.7631C37.6763 53.4875 37.4689 53.2716 37.182 53.1154C36.8951 52.9563 36.5144 52.8767 36.04 52.8767H34.182V60.6665H33.1252ZM42.5321 60.8199C42.1174 60.8199 41.7409 60.7418 41.4029 60.5855C41.0648 60.4264 40.7963 60.1978 40.5975 59.8995C40.3986 59.5983 40.2992 59.2347 40.2992 58.8085C40.2992 58.4335 40.373 58.1296 40.5208 57.8966C40.6685 57.6608 40.8659 57.4762 41.1131 57.3426C41.3603 57.2091 41.633 57.1097 41.9313 57.0443C42.2324 56.9762 42.535 56.9222 42.839 56.8824C43.2367 56.8313 43.5591 56.7929 43.8063 56.7674C44.0563 56.7389 44.2381 56.6921 44.3517 56.6267C44.4682 56.5614 44.5265 56.4478 44.5265 56.2858V56.2517C44.5265 55.8313 44.4114 55.5046 44.1813 55.2716C43.954 55.0387 43.6088 54.9222 43.1458 54.9222C42.6657 54.9222 42.2892 55.0273 42.0165 55.2375C41.7438 55.4478 41.552 55.6722 41.4412 55.9108L40.4867 55.5699C40.6571 55.1722 40.8844 54.8625 41.1685 54.6409C41.4554 54.4165 41.7679 54.2603 42.106 54.1722C42.4469 54.0813 42.7821 54.0358 43.1117 54.0358C43.3219 54.0358 43.5634 54.0614 43.8361 54.1125C44.1117 54.1608 44.3773 54.2617 44.633 54.4151C44.8915 54.5685 45.106 54.8 45.2765 55.1097C45.4469 55.4193 45.5321 55.8341 45.5321 56.354V60.6665H44.5265V59.7801H44.4753C44.4071 59.9222 44.2935 60.0742 44.1344 60.2361C43.9753 60.398 43.7637 60.5358 43.4995 60.6495C43.2353 60.7631 42.9128 60.8199 42.5321 60.8199ZM42.6855 59.9165C43.0833 59.9165 43.4185 59.8384 43.6912 59.6821C43.9668 59.5259 44.1742 59.3242 44.3134 59.077C44.4554 58.8299 44.5265 58.5699 44.5265 58.2972V57.3767C44.4838 57.4279 44.3901 57.4747 44.2452 57.5174C44.1032 57.5571 43.9384 57.5926 43.7509 57.6239C43.5662 57.6523 43.3858 57.6779 43.2097 57.7006C43.0364 57.7205 42.8958 57.7375 42.7878 57.7517C42.5265 57.7858 42.2821 57.8412 42.0549 57.9179C41.8304 57.9918 41.6486 58.104 41.5094 58.2546C41.373 58.4023 41.3049 58.604 41.3049 58.8597C41.3049 59.2091 41.4341 59.4733 41.6926 59.6523C41.954 59.8284 42.285 59.9165 42.6855 59.9165ZM48.3734 51.9392V60.6665H47.3677V51.9392H48.3734ZM52.9597 60.8029C52.329 60.8029 51.785 60.6637 51.3276 60.3853C50.873 60.104 50.5222 59.712 50.275 59.2091C50.0307 58.7034 49.9086 58.1154 49.9086 57.4449C49.9086 56.7745 50.0307 56.1835 50.275 55.6722C50.5222 55.158 50.8659 54.7574 51.3063 54.4705C51.7495 54.1807 52.2665 54.0358 52.8574 54.0358C53.1983 54.0358 53.535 54.0926 53.8674 54.2063C54.1998 54.3199 54.5023 54.5046 54.775 54.7603C55.0478 55.0131 55.2651 55.3483 55.427 55.7659C55.589 56.1835 55.6699 56.6978 55.6699 57.3085V57.7347H50.6245V56.8654H54.6472C54.6472 56.496 54.5733 56.1665 54.4256 55.8767C54.2807 55.587 54.0733 55.3583 53.8034 55.1907C53.5364 55.023 53.2211 54.9392 52.8574 54.9392C52.4569 54.9392 52.1103 55.0387 51.8176 55.2375C51.5279 55.4335 51.3049 55.6892 51.1486 56.0046C50.9924 56.3199 50.9142 56.658 50.9142 57.0188V57.5983C50.9142 58.0926 50.9995 58.5117 51.1699 58.8554C51.3432 59.1963 51.5833 59.4563 51.8901 59.6353C52.1969 59.8114 52.5534 59.8995 52.9597 59.8995C53.2239 59.8995 53.4625 59.8625 53.6756 59.7887C53.8915 59.712 54.0776 59.5983 54.2338 59.4478C54.3901 59.2943 54.5108 59.104 54.5961 58.8767L55.5676 59.1495C55.4654 59.479 55.2935 59.7688 55.052 60.0188C54.8105 60.2659 54.5123 60.4591 54.1571 60.5983C53.802 60.7347 53.4029 60.8029 52.9597 60.8029ZM60.0463 54.121V54.9733H56.6543V54.121H60.0463ZM57.6429 52.5529H58.6486V58.7915C58.6486 59.0756 58.6898 59.2887 58.7722 59.4307C58.8574 59.5699 58.9654 59.6637 59.0961 59.712C59.2296 59.7574 59.3702 59.7801 59.5179 59.7801C59.6287 59.7801 59.7196 59.7745 59.7907 59.7631C59.8617 59.7489 59.9185 59.7375 59.9611 59.729L60.1657 60.6324C60.0975 60.658 60.0023 60.6835 59.8801 60.7091C59.758 60.7375 59.6032 60.7517 59.4157 60.7517C59.1316 60.7517 58.8532 60.6907 58.5804 60.5685C58.3105 60.4463 58.0861 60.2603 57.9071 60.0103C57.731 59.7603 57.6429 59.4449 57.6429 59.0642V52.5529ZM64.4057 54.121V54.9733H61.0137V54.121H64.4057ZM62.0023 52.5529H63.008V58.7915C63.008 59.0756 63.0492 59.2887 63.1316 59.4307C63.2168 59.5699 63.3248 59.6637 63.4554 59.712C63.589 59.7574 63.7296 59.7801 63.8773 59.7801C63.9881 59.7801 64.079 59.7745 64.15 59.7631C64.2211 59.7489 64.2779 59.7375 64.3205 59.729L64.525 60.6324C64.4569 60.658 64.3617 60.6835 64.2395 60.7091C64.1174 60.7375 63.9625 60.7517 63.775 60.7517C63.4909 60.7517 63.2125 60.6907 62.9398 60.5685C62.6699 60.4463 62.4455 60.2603 62.2665 60.0103C62.0904 59.7603 62.0023 59.4449 62.0023 59.0642V52.5529ZM68.5925 60.8029C67.9618 60.8029 67.4178 60.6637 66.9604 60.3853C66.5059 60.104 66.155 59.712 65.9078 59.2091C65.6635 58.7034 65.5414 58.1154 65.5414 57.4449C65.5414 56.7745 65.6635 56.1835 65.9078 55.6722C66.155 55.158 66.4988 54.7574 66.9391 54.4705C67.3823 54.1807 67.8993 54.0358 68.4902 54.0358C68.8311 54.0358 69.1678 54.0926 69.5002 54.2063C69.8326 54.3199 70.1351 54.5046 70.4078 54.7603C70.6806 55.0131 70.8979 55.3483 71.0598 55.7659C71.2218 56.1835 71.3027 56.6978 71.3027 57.3085V57.7347H66.2573V56.8654H70.28C70.28 56.496 70.2061 56.1665 70.0584 55.8767C69.9135 55.587 69.7061 55.3583 69.4363 55.1907C69.1692 55.023 68.8539 54.9392 68.4902 54.9392C68.0897 54.9392 67.7431 55.0387 67.4505 55.2375C67.1607 55.4335 66.9377 55.6892 66.7814 56.0046C66.6252 56.3199 66.5471 56.658 66.5471 57.0188V57.5983C66.5471 58.0926 66.6323 58.5117 66.8027 58.8554C66.976 59.1963 67.2161 59.4563 67.5229 59.6353C67.8297 59.8114 68.1863 59.8995 68.5925 59.8995C68.8567 59.8995 69.0953 59.8625 69.3084 59.7887C69.5243 59.712 69.7104 59.5983 69.8667 59.4478C70.0229 59.2943 70.1436 59.104 70.2289 58.8767L71.2005 59.1495C71.0982 59.479 70.9263 59.7688 70.6848 60.0188C70.4434 60.2659 70.1451 60.4591 69.79 60.5983C69.4348 60.7347 69.0357 60.8029 68.5925 60.8029Z" fill="black"/>
</svg>
