<svg width="70" height="68" viewBox="0 0 70 68" fill="none" xmlns="http://www.w3.org/2000/svg">
<path d="M43.7605 40.625C47.7952 36.6504 50.2938 31.123 50.2938 25C50.2938 12.9199 40.5424 3.125 28.5161 3.125C16.4897 3.125 6.73828 12.9199 6.73828 25C6.73828 37.0801 16.4897 46.875 28.5161 46.875H59.6272C61.348 46.875 62.7383 45.4785 62.7383 43.75C62.7383 42.0215 61.348 40.625 59.6272 40.625H43.7605ZM28.5161 15.625C30.9914 15.625 33.3654 16.6127 35.1157 18.3709C36.8661 20.129 37.8494 22.5136 37.8494 25C37.8494 27.4864 36.8661 29.871 35.1157 31.6291C33.3654 33.3873 30.9914 34.375 28.5161 34.375C26.0407 34.375 23.6667 33.3873 21.9164 31.6291C20.1661 29.871 19.1827 27.4864 19.1827 25C19.1827 22.5136 20.1661 20.129 21.9164 18.3709C23.6667 16.6127 26.0407 15.625 28.5161 15.625ZM34.7383 25C34.7383 23.3424 34.0827 21.7527 32.9158 20.5806C31.7489 19.4085 30.1663 18.75 28.5161 18.75C26.8658 18.75 25.2832 19.4085 24.1163 20.5806C22.9494 21.7527 22.2938 23.3424 22.2938 25C22.2938 26.6576 22.9494 28.2473 24.1163 29.4194C25.2832 30.5915 26.8658 31.25 28.5161 31.25C30.1663 31.25 31.7489 30.5915 32.9158 29.4194C34.0827 28.2473 34.7383 26.6576 34.7383 25Z" fill="black"/>
<path d="M5.1479 58.4545C5.09677 58.0227 4.88938 57.6875 4.52575 57.4489C4.16211 57.2102 3.71609 57.0909 3.18768 57.0909C2.80131 57.0909 2.46325 57.1534 2.17347 57.2784C1.88654 57.4034 1.66211 57.5753 1.50018 57.794C1.34109 58.0128 1.26154 58.2614 1.26154 58.5398C1.26154 58.7727 1.31694 58.973 1.42773 59.1406C1.54137 59.3054 1.68626 59.4432 1.86239 59.554C2.03853 59.6619 2.22319 59.7514 2.41637 59.8224C2.60955 59.8906 2.78711 59.946 2.94904 59.9886L3.8354 60.2273C4.06268 60.2869 4.31552 60.3693 4.59393 60.4744C4.87518 60.5795 5.14364 60.723 5.39933 60.9048C5.65785 61.0838 5.87092 61.3139 6.03853 61.5952C6.20614 61.8764 6.28995 62.2216 6.28995 62.6307C6.28995 63.1023 6.16637 63.5284 5.91921 63.9091C5.67489 64.2898 5.31694 64.5923 4.84535 64.8168C4.3766 65.0412 3.807 65.1534 3.13654 65.1534C2.51154 65.1534 1.97035 65.0526 1.51296 64.8509C1.05842 64.6491 0.700462 64.3679 0.439098 64.0071C0.180575 63.6463 0.0342685 63.2273 0.000177577 62.75H1.09109C1.1195 63.0795 1.23029 63.3523 1.42347 63.5682C1.6195 63.7812 1.86665 63.9403 2.16495 64.0455C2.46609 64.1477 2.78995 64.1989 3.13654 64.1989C3.53995 64.1989 3.90217 64.1335 4.22319 64.0028C4.54421 63.8693 4.79847 63.6847 4.98597 63.4489C5.17347 63.2102 5.26722 62.9318 5.26722 62.6136C5.26722 62.3239 5.18626 62.0881 5.02433 61.9062C4.86239 61.7244 4.64933 61.5767 4.38512 61.4631C4.12092 61.3494 3.8354 61.25 3.52859 61.1648L2.45472 60.858C1.7729 60.6619 1.23313 60.3821 0.835405 60.0185C0.437678 59.6548 0.238814 59.179 0.238814 58.5909C0.238814 58.1023 0.370916 57.6761 0.635121 57.3125C0.902166 56.946 1.26012 56.6619 1.70898 56.4602C2.16069 56.2557 2.66495 56.1534 3.22177 56.1534C3.78427 56.1534 4.28427 56.2543 4.72177 56.456C5.15927 56.6548 5.50586 56.9276 5.76154 57.2741C6.02006 57.6207 6.15643 58.0142 6.17063 58.4545H5.1479ZM10.5502 65.1364C9.93661 65.1364 9.4082 64.9915 8.96502 64.7017C8.52184 64.4119 8.18093 64.0128 7.94229 63.5043C7.70366 62.9957 7.58434 62.4148 7.58434 61.7614C7.58434 61.0966 7.7065 60.5099 7.95082 60.0014C8.19798 59.4901 8.54173 59.0909 8.98207 58.804C9.42525 58.5142 9.94229 58.3693 10.5332 58.3693C10.9934 58.3693 11.4082 58.4545 11.7775 58.625C12.1468 58.7955 12.4494 59.0341 12.6852 59.3409C12.921 59.6477 13.0673 60.0057 13.1241 60.4148H12.1184C12.0417 60.1165 11.8713 59.8523 11.6071 59.6222C11.3457 59.3892 10.9934 59.2727 10.5502 59.2727C10.1582 59.2727 9.81445 59.375 9.519 59.5795C9.22638 59.7812 8.99769 60.0668 8.83292 60.4361C8.67099 60.8026 8.59002 61.233 8.59002 61.7273C8.59002 62.233 8.66957 62.6733 8.82866 63.0483C8.99059 63.4233 9.21786 63.7145 9.51048 63.9219C9.80593 64.1293 10.1525 64.233 10.5502 64.233C10.8116 64.233 11.0488 64.1875 11.2619 64.0966C11.475 64.0057 11.6554 63.875 11.8031 63.7045C11.9508 63.5341 12.0559 63.3295 12.1184 63.0909H13.1241C13.0673 63.4773 12.9267 63.8253 12.7022 64.1349C12.4806 64.4418 12.1866 64.6861 11.8201 64.8679C11.4565 65.0469 11.0332 65.1364 10.5502 65.1364ZM17.2534 65.1364C16.6625 65.1364 16.144 64.9957 15.698 64.7145C15.2548 64.4332 14.9082 64.0398 14.6582 63.5341C14.411 63.0284 14.2875 62.4375 14.2875 61.7614C14.2875 61.0795 14.411 60.4844 14.6582 59.9759C14.9082 59.4673 15.2548 59.0724 15.698 58.7912C16.144 58.5099 16.6625 58.3693 17.2534 58.3693C17.8443 58.3693 18.3613 58.5099 18.8045 58.7912C19.2505 59.0724 19.5971 59.4673 19.8443 59.9759C20.0943 60.4844 20.2193 61.0795 20.2193 61.7614C20.2193 62.4375 20.0943 63.0284 19.8443 63.5341C19.5971 64.0398 19.2505 64.4332 18.8045 64.7145C18.3613 64.9957 17.8443 65.1364 17.2534 65.1364ZM17.2534 64.233C17.7022 64.233 18.0716 64.1179 18.3613 63.8878C18.6511 63.6577 18.8656 63.3551 19.0048 62.9801C19.144 62.6051 19.2136 62.1989 19.2136 61.7614C19.2136 61.3239 19.144 60.9162 19.0048 60.5384C18.8656 60.1605 18.6511 59.8551 18.3613 59.6222C18.0716 59.3892 17.7022 59.2727 17.2534 59.2727C16.8045 59.2727 16.4352 59.3892 16.1454 59.6222C15.8556 59.8551 15.6412 60.1605 15.502 60.5384C15.3627 60.9162 15.2931 61.3239 15.2931 61.7614C15.2931 62.1989 15.3627 62.6051 15.502 62.9801C15.6412 63.3551 15.8556 63.6577 16.1454 63.8878C16.4352 64.1179 16.8045 64.233 17.2534 64.233ZM24.601 58.4545V59.3068H21.209V58.4545H24.601ZM22.1976 56.8864H23.2033V63.125C23.2033 63.4091 23.2445 63.6222 23.3269 63.7642C23.4121 63.9034 23.5201 63.9972 23.6507 64.0455C23.7843 64.0909 23.9249 64.1136 24.0726 64.1136C24.1834 64.1136 24.2743 64.108 24.3453 64.0966C24.4164 64.0824 24.4732 64.071 24.5158 64.0625L24.7203 64.9659C24.6522 64.9915 24.557 65.017 24.4348 65.0426C24.3127 65.071 24.1578 65.0852 23.9703 65.0852C23.6863 65.0852 23.4078 65.0241 23.1351 64.902C22.8652 64.7798 22.6408 64.5938 22.4618 64.3438C22.2857 64.0938 22.1976 63.7784 22.1976 63.3977V56.8864ZM28.7026 65.1364C28.089 65.1364 27.5605 64.9915 27.1174 64.7017C26.6742 64.4119 26.3333 64.0128 26.0946 63.5043C25.856 62.9957 25.7367 62.4148 25.7367 61.7614C25.7367 61.0966 25.8588 60.5099 26.1032 60.0014C26.3503 59.4901 26.6941 59.0909 27.1344 58.804C27.5776 58.5142 28.0946 58.3693 28.6855 58.3693C29.1458 58.3693 29.5605 58.4545 29.9299 58.625C30.2992 58.7955 30.6017 59.0341 30.8375 59.3409C31.0733 59.6477 31.2196 60.0057 31.2765 60.4148H30.2708C30.1941 60.1165 30.0236 59.8523 29.7594 59.6222C29.498 59.3892 29.1458 59.2727 28.7026 59.2727C28.3105 59.2727 27.9668 59.375 27.6713 59.5795C27.3787 59.7812 27.15 60.0668 26.9853 60.4361C26.8233 60.8026 26.7424 61.233 26.7424 61.7273C26.7424 62.233 26.8219 62.6733 26.981 63.0483C27.1429 63.4233 27.3702 63.7145 27.6628 63.9219C27.9583 64.1293 28.3049 64.233 28.7026 64.233C28.964 64.233 29.2012 64.1875 29.4142 64.0966C29.6273 64.0057 29.8077 63.875 29.9554 63.7045C30.1032 63.5341 30.2083 63.3295 30.2708 63.0909H31.2765C31.2196 63.4773 31.079 63.8253 30.8546 64.1349C30.633 64.4418 30.339 64.6861 29.9725 64.8679C29.6088 65.0469 29.1855 65.1364 28.7026 65.1364ZM33.7523 61.0625V65H32.7466V56.2727H33.7523V59.4773H33.8375C33.9909 59.1392 34.2211 58.8707 34.5279 58.6719C34.8375 58.4702 35.2495 58.3693 35.7637 58.3693C36.2097 58.3693 36.6003 58.4588 36.9355 58.6378C37.2708 58.8139 37.5307 59.0852 37.7154 59.4517C37.9029 59.8153 37.9966 60.2784 37.9966 60.8409V65H36.9909V60.9091C36.9909 60.3892 36.856 59.9872 36.5861 59.7031C36.3191 59.4162 35.9483 59.2727 35.4739 59.2727C35.1444 59.2727 34.8489 59.3423 34.5875 59.4815C34.329 59.6207 34.1245 59.8239 33.9739 60.0909C33.8262 60.358 33.7523 60.6818 33.7523 61.0625ZM42.8706 57.2102V56.2727H49.416V57.2102H46.6717V65H45.6149V57.2102H42.8706ZM51.9462 65.1534C51.5314 65.1534 51.155 65.0753 50.8169 64.919C50.4789 64.7599 50.2104 64.5312 50.0115 64.233C49.8127 63.9318 49.7132 63.5682 49.7132 63.142C49.7132 62.767 49.7871 62.4631 49.9348 62.2301C50.0826 61.9943 50.28 61.8097 50.5272 61.6761C50.7743 61.5426 51.0471 61.4432 51.3453 61.3778C51.6465 61.3097 51.949 61.2557 52.253 61.2159C52.6507 61.1648 52.9732 61.1264 53.2203 61.1009C53.4703 61.0724 53.6522 61.0256 53.7658 60.9602C53.8823 60.8949 53.9405 60.7812 53.9405 60.6193V60.5852C53.9405 60.1648 53.8255 59.8381 53.5953 59.6051C53.3681 59.3722 53.0229 59.2557 52.5598 59.2557C52.0797 59.2557 51.7033 59.3608 51.4306 59.571C51.1578 59.7812 50.9661 60.0057 50.8553 60.2443L49.9007 59.9034C50.0712 59.5057 50.2985 59.196 50.5826 58.9744C50.8695 58.75 51.182 58.5937 51.5201 58.5057C51.861 58.4148 52.1962 58.3693 52.5257 58.3693C52.736 58.3693 52.9775 58.3949 53.2502 58.446C53.5257 58.4943 53.7914 58.5952 54.0471 58.7486C54.3056 58.902 54.5201 59.1335 54.6905 59.4432C54.861 59.7528 54.9462 60.1676 54.9462 60.6875V65H53.9405V64.1136H53.8894C53.8212 64.2557 53.7076 64.4077 53.5485 64.5696C53.3894 64.7315 53.1777 64.8693 52.9135 64.983C52.6493 65.0966 52.3269 65.1534 51.9462 65.1534ZM52.0996 64.25C52.4973 64.25 52.8326 64.1719 53.1053 64.0156C53.3809 63.8594 53.5882 63.6577 53.7275 63.4105C53.8695 63.1634 53.9405 62.9034 53.9405 62.6307V61.7102C53.8979 61.7614 53.8042 61.8082 53.6593 61.8509C53.5172 61.8906 53.3525 61.9261 53.165 61.9574C52.9803 61.9858 52.7999 62.0114 52.6238 62.0341C52.4505 62.054 52.3098 62.071 52.2019 62.0852C51.9405 62.1193 51.6962 62.1747 51.4689 62.2514C51.2445 62.3253 51.0627 62.4375 50.9235 62.5881C50.7871 62.7358 50.7189 62.9375 50.7189 63.1932C50.7189 63.5426 50.8482 63.8068 51.1067 63.9858C51.3681 64.1619 51.699 64.25 52.0996 64.25ZM56.7818 67.4545V58.4545H57.7534V59.4943H57.8727C57.9466 59.3807 58.0488 59.2358 58.1795 59.0597C58.313 58.8807 58.5034 58.7216 58.7505 58.5824C59.0005 58.4403 59.3386 58.3693 59.7647 58.3693C60.3159 58.3693 60.8017 58.5071 61.2221 58.7827C61.6426 59.0582 61.9707 59.4489 62.2065 59.9545C62.4423 60.4602 62.5602 61.0568 62.5602 61.7443C62.5602 62.4375 62.4423 63.0384 62.2065 63.5469C61.9707 64.0526 61.644 64.4446 61.2264 64.723C60.8088 64.9986 60.3272 65.1364 59.7818 65.1364C59.3613 65.1364 59.0247 65.0668 58.7718 64.9276C58.519 64.7855 58.3244 64.625 58.188 64.446C58.0517 64.2642 57.9466 64.1136 57.8727 63.9943H57.7875V67.4545H56.7818ZM57.7704 61.7273C57.7704 62.2216 57.8429 62.6577 57.9877 63.0355C58.1326 63.4105 58.3443 63.7045 58.6227 63.9176C58.9011 64.1278 59.242 64.233 59.6454 64.233C60.0659 64.233 60.4167 64.1222 60.698 63.9006C60.9821 63.6761 61.1951 63.375 61.3372 62.9972C61.4821 62.6165 61.5545 62.1932 61.5545 61.7273C61.5545 61.267 61.4835 60.8523 61.3414 60.483C61.2022 60.1108 60.9906 59.8168 60.7065 59.6009C60.4252 59.3821 60.0716 59.2727 59.6454 59.2727C59.2363 59.2727 58.8926 59.3764 58.6142 59.5838C58.3358 59.7884 58.1255 60.0753 57.9835 60.4446C57.8414 60.8111 57.7704 61.2386 57.7704 61.7273ZM66.8386 65.1364C66.2079 65.1364 65.6639 64.9972 65.2065 64.7188C64.752 64.4375 64.4011 64.0455 64.1539 63.5426C63.9096 63.0369 63.7875 62.4489 63.7875 61.7784C63.7875 61.108 63.9096 60.517 64.1539 60.0057C64.4011 59.4915 64.7449 59.0909 65.1852 58.804C65.6284 58.5142 66.1454 58.3693 66.7363 58.3693C67.0772 58.3693 67.4139 58.4261 67.7463 58.5398C68.0787 58.6534 68.3812 58.8381 68.6539 59.0938C68.9267 59.3466 69.144 59.6818 69.3059 60.0994C69.4679 60.517 69.5488 61.0312 69.5488 61.642V62.0682H64.5034V61.1989H68.5261C68.5261 60.8295 68.4522 60.5 68.3045 60.2102C68.1596 59.9205 67.9522 59.6918 67.6824 59.5241C67.4153 59.3565 67.1 59.2727 66.7363 59.2727C66.3358 59.2727 65.9892 59.3722 65.6966 59.571C65.4068 59.767 65.1838 60.0227 65.0275 60.3381C64.8713 60.6534 64.7931 60.9915 64.7931 61.3523V61.9318C64.7931 62.4261 64.8784 62.8452 65.0488 63.1889C65.2221 63.5298 65.4622 63.7898 65.769 63.9688C66.0758 64.1449 66.4324 64.233 66.8386 64.233C67.1028 64.233 67.3414 64.196 67.5545 64.1222C67.7704 64.0455 67.9565 63.9318 68.1127 63.7812C68.269 63.6278 68.3897 63.4375 68.475 63.2102L69.4466 63.483C69.3443 63.8125 69.1724 64.1023 68.9309 64.3523C68.6895 64.5994 68.3912 64.7926 68.036 64.9318C67.6809 65.0682 67.2818 65.1364 66.8386 65.1364Z" fill="black"/>
</svg>
