<svg width="85" height="67" viewBox="0 0 85 67" fill="none" xmlns="http://www.w3.org/2000/svg">
<path d="M14.5428 1.9834C10.4169 2.02344 6.78404 7.68848 12.6053 9.0332C22.746 11.377 30.6561 17.4414 36.8182 26.9141C37.619 28.5059 38.2245 30.0879 37.9217 31.6797C37.492 33.2324 37.4042 34.8047 37.6092 36.1621C38.0096 38.6035 39.2206 41.2598 41.3006 43.5254C43.3709 45.791 45.8807 47.2168 48.2733 47.8223C50.6659 48.418 53.0584 48.2422 54.66 46.7773C56.2713 45.3027 56.4764 43.0469 55.9198 40.752C55.3631 38.457 53.9667 35.9863 51.9159 33.75C49.8651 31.5039 47.5311 29.8926 45.2948 29.1309C44.494 28.8574 43.6834 28.6816 42.912 28.6426C41.5838 28.1055 40.6073 26.9727 39.7284 25.6641C34.2987 15.1074 26.2323 8.20703 16.828 2.60352C16.0838 2.2334 15.2518 1.9834 14.5428 1.9834ZM39.4647 32.793C41.867 38.8281 46.6229 43.6133 51.9256 46.2207C51.1053 46.3672 50.0799 46.3281 48.9667 46.0547C46.9159 45.5371 44.621 44.2676 42.7362 42.2168C40.8514 40.1562 39.7381 37.6855 39.3963 35.5859C39.2987 34.6387 39.2694 33.623 39.4647 32.793Z" fill="black"/>
<path d="M6.90962 57.4545C6.85849 57.0227 6.6511 56.6875 6.28746 56.4489C5.92383 56.2102 5.47781 56.0909 4.9494 56.0909C4.56303 56.0909 4.22496 56.1534 3.93519 56.2784C3.64826 56.4034 3.42383 56.5753 3.2619 56.794C3.10281 57.0128 3.02326 57.2614 3.02326 57.5398C3.02326 57.7727 3.07866 57.973 3.18945 58.1406C3.30309 58.3054 3.44798 58.4432 3.62411 58.554C3.80025 58.6619 3.98491 58.7514 4.17809 58.8224C4.37127 58.8906 4.54883 58.946 4.71076 58.9886L5.59712 59.2273C5.8244 59.2869 6.07724 59.3693 6.35565 59.4744C6.6369 59.5795 6.90536 59.723 7.16104 59.9048C7.41957 60.0838 7.63264 60.3139 7.80025 60.5952C7.96786 60.8764 8.05167 61.2216 8.05167 61.6307C8.05167 62.1023 7.92809 62.5284 7.68093 62.9091C7.43661 63.2898 7.07866 63.5923 6.60707 63.8168C6.13832 64.0412 5.56871 64.1534 4.89826 64.1534C4.27326 64.1534 3.73207 64.0526 3.27468 63.8509C2.82013 63.6491 2.46218 63.3679 2.20082 63.0071C1.94229 62.6463 1.79599 62.2273 1.7619 61.75H2.85281C2.88121 62.0795 2.99201 62.3523 3.18519 62.5682C3.38121 62.7812 3.62837 62.9403 3.92667 63.0455C4.22781 63.1477 4.55167 63.1989 4.89826 63.1989C5.30167 63.1989 5.66389 63.1335 5.98491 63.0028C6.30593 62.8693 6.56019 62.6847 6.74769 62.4489C6.93519 62.2102 7.02894 61.9318 7.02894 61.6136C7.02894 61.3239 6.94798 61.0881 6.78604 60.9062C6.62411 60.7244 6.41104 60.5767 6.14684 60.4631C5.88264 60.3494 5.59712 60.25 5.29031 60.1648L4.21644 59.858C3.53462 59.6619 2.99485 59.3821 2.59712 59.0185C2.1994 58.6548 2.00053 58.179 2.00053 57.5909C2.00053 57.1023 2.13263 56.6761 2.39684 56.3125C2.66388 55.946 3.02184 55.6619 3.4707 55.4602C3.92241 55.2557 4.42667 55.1534 4.98349 55.1534C5.54599 55.1534 6.04599 55.2543 6.48349 55.456C6.92099 55.6548 7.26758 55.9276 7.52326 56.2741C7.78178 56.6207 7.91815 57.0142 7.93235 57.4545H6.90962ZM12.3972 64.1364C11.7665 64.1364 11.2225 63.9972 10.7651 63.7188C10.3105 63.4375 9.95969 63.0455 9.71254 62.5426C9.46822 62.0369 9.34606 61.4489 9.34606 60.7784C9.34606 60.108 9.46822 59.517 9.71254 59.0057C9.95969 58.4915 10.3034 58.0909 10.7438 57.804C11.187 57.5142 11.704 57.3693 12.2949 57.3693C12.6358 57.3693 12.9725 57.4261 13.3049 57.5398C13.6373 57.6534 13.9398 57.8381 14.2125 58.0938C14.4853 58.3466 14.7026 58.6818 14.8645 59.0994C15.0265 59.517 15.1074 60.0312 15.1074 60.642V61.0682H10.062V60.1989H14.0847C14.0847 59.8295 14.0108 59.5 13.8631 59.2102C13.7182 58.9205 13.5108 58.6918 13.2409 58.5241C12.9739 58.3565 12.6586 58.2727 12.2949 58.2727C11.8944 58.2727 11.5478 58.3722 11.2551 58.571C10.9654 58.767 10.7424 59.0227 10.5861 59.3381C10.4299 59.6534 10.3517 59.9915 10.3517 60.3523V60.9318C10.3517 61.4261 10.437 61.8452 10.6074 62.1889C10.7807 62.5298 11.0208 62.7898 11.3276 62.9688C11.6344 63.1449 11.9909 63.233 12.3972 63.233C12.6614 63.233 12.9 63.196 13.1131 63.1222C13.329 63.0455 13.5151 62.9318 13.6713 62.7812C13.8276 62.6278 13.9483 62.4375 14.0336 62.2102L15.0051 62.483C14.9029 62.8125 14.731 63.1023 14.4895 63.3523C14.248 63.5994 13.9498 63.7926 13.5946 63.9318C13.2395 64.0682 12.8404 64.1364 12.3972 64.1364ZM16.6373 64V57.4545H17.6088V58.4432H17.677C17.7963 58.1193 18.0123 57.8565 18.3248 57.6548C18.6373 57.4531 18.9895 57.3523 19.3816 57.3523C19.4554 57.3523 19.5478 57.3537 19.6586 57.3565C19.7694 57.3594 19.8532 57.3636 19.91 57.3693V58.392C19.8759 58.3835 19.7978 58.3707 19.6756 58.3537C19.5563 58.3338 19.4299 58.3239 19.2963 58.3239C18.9782 58.3239 18.6941 58.3906 18.4441 58.5241C18.1969 58.6548 18.0009 58.8366 17.856 59.0696C17.714 59.2997 17.6429 59.5625 17.6429 59.858V64H16.6373ZM26.6536 57.4545L24.2331 64H23.2104L20.79 57.4545H21.8809L23.6877 62.6705H23.7559L25.5627 57.4545H26.6536ZM27.981 64V57.4545H28.9867V64H27.981ZM28.4924 56.3636C28.2963 56.3636 28.1273 56.2969 27.9853 56.1634C27.8461 56.0298 27.7765 55.8693 27.7765 55.6818C27.7765 55.4943 27.8461 55.3338 27.9853 55.2003C28.1273 55.0668 28.2963 55 28.4924 55C28.6884 55 28.856 55.0668 28.9952 55.2003C29.1373 55.3338 29.2083 55.4943 29.2083 55.6818C29.2083 55.8693 29.1373 56.0298 28.9952 56.1634C28.856 56.2969 28.6884 56.3636 28.4924 56.3636ZM31.8343 60.0625V64H30.8287V57.4545H31.8002V58.4773H31.8855C32.0389 58.1449 32.2718 57.8778 32.5843 57.6761C32.8968 57.4716 33.3002 57.3693 33.7946 57.3693C34.2377 57.3693 34.6255 57.4602 34.9579 57.642C35.2903 57.821 35.5488 58.0938 35.7335 58.4602C35.9181 58.8239 36.0105 59.2841 36.0105 59.8409V64H35.0048V59.9091C35.0048 59.3949 34.8713 58.9943 34.6042 58.7074C34.3372 58.4176 33.9707 58.2727 33.5048 58.2727C33.1838 58.2727 32.8968 58.3423 32.644 58.4815C32.394 58.6207 32.1966 58.8239 32.0517 59.0909C31.9068 59.358 31.8343 59.6818 31.8343 60.0625ZM40.4902 66.5909C40.0044 66.5909 39.5868 66.5284 39.2374 66.4034C38.888 66.2812 38.5968 66.1193 38.3638 65.9176C38.1337 65.7188 37.9505 65.5057 37.8141 65.2784L38.6152 64.7159C38.7061 64.8352 38.8212 64.9716 38.9604 65.125C39.0996 65.2812 39.29 65.4162 39.5314 65.5298C39.7757 65.6463 40.0953 65.7045 40.4902 65.7045C41.0186 65.7045 41.4547 65.5767 41.7985 65.321C42.1422 65.0653 42.3141 64.6648 42.3141 64.1193V62.7898H42.2289C42.155 62.9091 42.0499 63.0568 41.9135 63.233C41.78 63.4062 41.5868 63.5611 41.334 63.6974C41.084 63.831 40.7459 63.8977 40.3198 63.8977C39.7914 63.8977 39.3169 63.7727 38.8965 63.5227C38.4789 63.2727 38.1479 62.9091 37.9036 62.4318C37.6621 61.9545 37.5414 61.375 37.5414 60.6932C37.5414 60.0227 37.6593 59.4389 37.8951 58.9418C38.1309 58.4418 38.459 58.0554 38.8794 57.7827C39.2999 57.5071 39.7857 57.3693 40.3368 57.3693C40.763 57.3693 41.101 57.4403 41.351 57.5824C41.6039 57.7216 41.7971 57.8807 41.9306 58.0597C42.0669 58.2358 42.1721 58.3807 42.2459 58.4943H42.3482V57.4545H43.3198V64.1875C43.3198 64.75 43.1919 65.2074 42.9363 65.5597C42.6834 65.9148 42.3425 66.1747 41.9135 66.3395C41.4874 66.5071 41.013 66.5909 40.4902 66.5909ZM40.4561 62.9943C40.8596 62.9943 41.2005 62.902 41.4789 62.7173C41.7573 62.5327 41.9689 62.267 42.1138 61.9205C42.2587 61.5739 42.3311 61.1591 42.3311 60.6761C42.3311 60.2045 42.2601 59.7884 42.1181 59.4276C41.976 59.0668 41.7658 58.7841 41.4874 58.5795C41.209 58.375 40.8652 58.2727 40.4561 58.2727C40.03 58.2727 39.6749 58.3807 39.3908 58.5966C39.1096 58.8125 38.8979 59.1023 38.7559 59.4659C38.6167 59.8295 38.5471 60.233 38.5471 60.6761C38.5471 61.1307 38.6181 61.5327 38.7601 61.8821C38.905 62.2287 39.1181 62.5014 39.3993 62.7003C39.6834 62.8963 40.0357 62.9943 40.4561 62.9943ZM53.4448 57.4545C53.3936 57.0227 53.1863 56.6875 52.8226 56.4489C52.459 56.2102 52.013 56.0909 51.4846 56.0909C51.0982 56.0909 50.7601 56.1534 50.4703 56.2784C50.1834 56.4034 49.959 56.5753 49.7971 56.794C49.638 57.0128 49.5584 57.2614 49.5584 57.5398C49.5584 57.7727 49.6138 57.973 49.7246 58.1406C49.8382 58.3054 49.9831 58.4432 50.1593 58.554C50.3354 58.6619 50.5201 58.7514 50.7132 58.8224C50.9064 58.8906 51.084 58.946 51.2459 58.9886L52.1323 59.2273C52.3596 59.2869 52.6124 59.3693 52.8908 59.4744C53.1721 59.5795 53.4405 59.723 53.6962 59.9048C53.9547 60.0838 54.1678 60.3139 54.3354 60.5952C54.503 60.8764 54.5868 61.2216 54.5868 61.6307C54.5868 62.1023 54.4632 62.5284 54.2161 62.9091C53.9718 63.2898 53.6138 63.5923 53.1422 63.8168C52.6735 64.0412 52.1039 64.1534 51.4334 64.1534C50.8084 64.1534 50.2672 64.0526 49.8098 63.8509C49.3553 63.6491 48.9973 63.3679 48.736 63.0071C48.4775 62.6463 48.3311 62.2273 48.2971 61.75H49.388C49.4164 62.0795 49.5272 62.3523 49.7203 62.5682C49.9164 62.7812 50.1635 62.9403 50.4618 63.0455C50.763 63.1477 51.0868 63.1989 51.4334 63.1989C51.8368 63.1989 52.199 63.1335 52.5201 63.0028C52.8411 62.8693 53.0953 62.6847 53.2828 62.4489C53.4703 62.2102 53.5641 61.9318 53.5641 61.6136C53.5641 61.3239 53.4831 61.0881 53.3212 60.9062C53.1593 60.7244 52.9462 60.5767 52.682 60.4631C52.4178 60.3494 52.1323 60.25 51.8255 60.1648L50.7516 59.858C50.0698 59.6619 49.53 59.3821 49.1323 59.0185C48.7346 58.6548 48.5357 58.179 48.5357 57.5909C48.5357 57.1023 48.6678 56.6761 48.932 56.3125C49.199 55.946 49.557 55.6619 50.0059 55.4602C50.4576 55.2557 50.9618 55.1534 51.5186 55.1534C52.0811 55.1534 52.5811 55.2543 53.0186 55.456C53.4561 55.6548 53.8027 55.9276 54.0584 56.2741C54.3169 56.6207 54.4533 57.0142 54.4675 57.4545H53.4448ZM56.188 66.4545V57.4545H57.1596V58.4943H57.2789C57.3528 58.3807 57.4551 58.2358 57.5858 58.0597C57.7193 57.8807 57.9096 57.7216 58.1568 57.5824C58.4068 57.4403 58.7449 57.3693 59.171 57.3693C59.7221 57.3693 60.2079 57.5071 60.6284 57.7827C61.0488 58.0582 61.377 58.4489 61.6127 58.9545C61.8485 59.4602 61.9664 60.0568 61.9664 60.7443C61.9664 61.4375 61.8485 62.0384 61.6127 62.5469C61.377 63.0526 61.0502 63.4446 60.6326 63.723C60.215 63.9986 59.7335 64.1364 59.188 64.1364C58.7676 64.1364 58.4309 64.0668 58.1781 63.9276C57.9252 63.7855 57.7306 63.625 57.5943 63.446C57.4579 63.2642 57.3528 63.1136 57.2789 62.9943H57.1937V66.4545H56.188ZM57.1767 60.7273C57.1767 61.2216 57.2491 61.6577 57.394 62.0355C57.5389 62.4105 57.7505 62.7045 58.0289 62.9176C58.3074 63.1278 58.6483 63.233 59.0517 63.233C59.4721 63.233 59.823 63.1222 60.1042 62.9006C60.3883 62.6761 60.6014 62.375 60.7434 61.9972C60.8883 61.6165 60.9608 61.1932 60.9608 60.7273C60.9608 60.267 60.8897 59.8523 60.7477 59.483C60.6085 59.1108 60.3968 58.8168 60.1127 58.6009C59.8315 58.3821 59.4778 58.2727 59.0517 58.2727C58.6426 58.2727 58.2988 58.3764 58.0204 58.5838C57.742 58.7884 57.5318 59.0753 57.3897 59.4446C57.2477 59.8111 57.1767 60.2386 57.1767 60.7273ZM66.1596 64.1364C65.5687 64.1364 65.0502 63.9957 64.6042 63.7145C64.161 63.4332 63.8145 63.0398 63.5645 62.5341C63.3173 62.0284 63.1937 61.4375 63.1937 60.7614C63.1937 60.0795 63.3173 59.4844 63.5645 58.9759C63.8145 58.4673 64.161 58.0724 64.6042 57.7912C65.0502 57.5099 65.5687 57.3693 66.1596 57.3693C66.7505 57.3693 67.2676 57.5099 67.7108 57.7912C68.1568 58.0724 68.5034 58.4673 68.7505 58.9759C69.0005 59.4844 69.1255 60.0795 69.1255 60.7614C69.1255 61.4375 69.0005 62.0284 68.7505 62.5341C68.5034 63.0398 68.1568 63.4332 67.7108 63.7145C67.2676 63.9957 66.7505 64.1364 66.1596 64.1364ZM66.1596 63.233C66.6085 63.233 66.9778 63.1179 67.2676 62.8878C67.5574 62.6577 67.7718 62.3551 67.911 61.9801C68.0502 61.6051 68.1199 61.1989 68.1199 60.7614C68.1199 60.3239 68.0502 59.9162 67.911 59.5384C67.7718 59.1605 67.5574 58.8551 67.2676 58.6222C66.9778 58.3892 66.6085 58.2727 66.1596 58.2727C65.7108 58.2727 65.3414 58.3892 65.0517 58.6222C64.7619 58.8551 64.5474 59.1605 64.4082 59.5384C64.269 59.9162 64.1994 60.3239 64.1994 60.7614C64.1994 61.1989 64.269 61.6051 64.4082 61.9801C64.5474 62.3551 64.7619 62.6577 65.0517 62.8878C65.3414 63.1179 65.7108 63.233 66.1596 63.233ZM73.3198 64.1364C72.7289 64.1364 72.2104 63.9957 71.7644 63.7145C71.3212 63.4332 70.9746 63.0398 70.7246 62.5341C70.4775 62.0284 70.3539 61.4375 70.3539 60.7614C70.3539 60.0795 70.4775 59.4844 70.7246 58.9759C70.9746 58.4673 71.3212 58.0724 71.7644 57.7912C72.2104 57.5099 72.7289 57.3693 73.3198 57.3693C73.9107 57.3693 74.4277 57.5099 74.8709 57.7912C75.3169 58.0724 75.6635 58.4673 75.9107 58.9759C76.1607 59.4844 76.2857 60.0795 76.2857 60.7614C76.2857 61.4375 76.1607 62.0284 75.9107 62.5341C75.6635 63.0398 75.3169 63.4332 74.8709 63.7145C74.4277 63.9957 73.9107 64.1364 73.3198 64.1364ZM73.3198 63.233C73.7686 63.233 74.138 63.1179 74.4277 62.8878C74.7175 62.6577 74.932 62.3551 75.0712 61.9801C75.2104 61.6051 75.28 61.1989 75.28 60.7614C75.28 60.3239 75.2104 59.9162 75.0712 59.5384C74.932 59.1605 74.7175 58.8551 74.4277 58.6222C74.138 58.3892 73.7686 58.2727 73.3198 58.2727C72.8709 58.2727 72.5016 58.3892 72.2118 58.6222C71.9221 58.8551 71.7076 59.1605 71.5684 59.5384C71.4292 59.9162 71.3596 60.3239 71.3596 60.7614C71.3596 61.1989 71.4292 61.6051 71.5684 61.9801C71.7076 62.3551 71.9221 62.6577 72.2118 62.8878C72.5016 63.1179 72.8709 63.233 73.3198 63.233ZM78.8265 60.0625V64H77.8208V57.4545H78.7924V58.4773H78.8777C79.0311 58.1449 79.264 57.8778 79.5765 57.6761C79.889 57.4716 80.2924 57.3693 80.7868 57.3693C81.2299 57.3693 81.6177 57.4602 81.9501 57.642C82.2825 57.821 82.541 58.0938 82.7257 58.4602C82.9103 58.8239 83.0027 59.2841 83.0027 59.8409V64H81.997V59.9091C81.997 59.3949 81.8635 58.9943 81.5964 58.7074C81.3294 58.4176 80.9629 58.2727 80.497 58.2727C80.176 58.2727 79.889 58.3423 79.6362 58.4815C79.3862 58.6207 79.1887 58.8239 79.0439 59.0909C78.899 59.358 78.8265 59.6818 78.8265 60.0625Z" fill="black"/>
</svg>
