<svg width="67" height="68" viewBox="0 0 67 68" fill="none" xmlns="http://www.w3.org/2000/svg">
<path d="M14.5361 3.05938L10.583 7.00626C9.65055 6.41026 8.54116 6.15385 7.44174 6.28021C6.34231 6.40658 5.32002 6.908 4.54708 7.70001C3.63507 8.61919 3.12383 9.86191 3.125 11.1568C3.12617 12.4516 3.63966 13.6934 4.55333 14.6109L14.0127 24.1641L14.4611 24.6328L36.1799 46.5813C36.7587 47.1693 37.4488 47.6363 38.2099 47.955C38.971 48.2738 39.7879 48.4378 40.613 48.4377C41.4382 48.4375 42.255 48.2732 43.016 47.9542C43.777 47.6352 44.4669 47.168 45.0455 46.5797C47.483 44.1172 47.4893 40.125 45.0424 37.6719L45.0393 37.6688L33.4877 25.9703C31.6095 24.0777 29.3847 22.5643 26.9346 21.5125C25.5482 20.9174 24.2438 20.1471 23.0533 19.2203L26.8783 15.3953L26.8846 15.3891C27.2084 15.0604 27.4313 14.6458 27.527 14.1944C27.6226 13.743 27.587 13.2737 27.4242 12.8419C27.2615 12.4101 26.9785 12.034 26.6088 11.7579C26.239 11.4819 25.7979 11.3176 25.3377 11.2844C25.3012 10.7036 25.0541 10.1561 24.6428 9.74442C24.2315 9.33279 23.6841 9.08533 23.1033 9.04844C23.0602 8.47295 22.8129 7.93179 22.4062 7.52243C21.9994 7.11307 21.4598 6.86242 20.8846 6.81563C20.8424 6.23647 20.5895 5.69284 20.1736 5.28751C19.7656 4.88136 19.2246 4.63613 18.6502 4.59688C18.611 4.01332 18.3579 3.46474 17.9393 3.05626C17.7171 2.83035 17.4522 2.65099 17.1599 2.52866C16.8676 2.40632 16.5539 2.34346 16.2371 2.34375C15.9202 2.34404 15.6066 2.40748 15.3146 2.53035C15.0225 2.65322 14.7579 2.83307 14.5361 3.05938ZM16.8283 4.15469L16.844 4.17032C16.9769 4.30208 17.0622 4.47428 17.0865 4.65983C17.1108 4.84538 17.0728 5.03376 16.9783 5.19532L16.9455 5.26094L12.9205 9.19376L11.769 8.02969L15.644 4.16251L15.6502 4.15469C15.7268 4.07574 15.8185 4.01297 15.9198 3.9701C16.0211 3.92724 16.13 3.90515 16.2401 3.90515C16.3501 3.90515 16.459 3.92724 16.5603 3.9701C16.6616 4.01297 16.7517 4.07574 16.8283 4.15469ZM18.2361 6.18594C18.3819 6.14406 18.5362 6.14151 18.6833 6.17856C18.8304 6.21561 18.9651 6.29093 19.0736 6.39688L19.0815 6.40313C19.2149 6.53237 19.3005 6.70316 19.324 6.88743C19.3476 7.07171 19.3078 7.25853 19.2111 7.41719L15.119 11.4141L14.0205 10.3047L18.2361 6.18594ZM20.4268 8.41251C20.572 8.36462 20.7274 8.35658 20.8768 8.38919C21.0261 8.42181 21.164 8.49391 21.2761 8.59796C21.3881 8.70201 21.4702 8.83421 21.5137 8.98078C21.5573 9.12735 21.5607 9.28291 21.5236 9.43126L17.2721 13.5875L16.2205 12.525L20.4268 8.41251ZM22.3752 10.7813L22.4971 10.725C22.66 10.6282 22.8504 10.5879 23.0387 10.6105C23.2269 10.6331 23.4023 10.7173 23.5377 10.85C23.6415 10.9564 23.716 11.0879 23.7538 11.2317C23.7916 11.3755 23.7914 11.5266 23.7533 11.6703L19.494 15.8328L18.369 14.6969L22.3752 10.7813ZM24.6283 13L24.7268 12.9531C24.8894 12.8594 25.0783 12.8214 25.2645 12.8451C25.4507 12.8688 25.6241 12.9529 25.758 13.0844L25.7643 13.0906C26.0924 13.4109 26.1049 13.95 25.769 14.2938L21.8596 18.2031C21.694 18.049 21.5315 17.8912 21.3721 17.7297L20.594 16.9438L24.6283 13ZM9.2174 9.89532L19.1518 19.9281C21.0296 21.82 23.2539 23.3329 25.7033 24.3844C27.7829 25.2777 29.6714 26.5624 31.2658 28.1688L42.8221 39.8703L42.8283 39.8766C44.0549 41.1047 44.0627 43.1328 42.8236 44.3828L42.819 44.3875C42.5306 44.6811 42.1866 44.9141 41.8071 45.0731C41.4275 45.2321 41.0201 45.3137 40.6086 45.3133C40.1971 45.3128 39.7899 45.2303 39.4107 45.0706C39.0315 44.9108 38.6879 44.677 38.4002 44.3828L16.7002 22.4531L16.2518 21.9844L6.77208 12.4094L6.76427 12.4016C6.43403 12.0676 6.24945 11.6165 6.25092 11.1468C6.25238 10.6772 6.43976 10.2272 6.77208 9.89532L6.77833 9.88907C6.93707 9.72637 7.12684 9.59718 7.33642 9.50917C7.54599 9.42116 7.7711 9.37611 7.99841 9.37669C8.22571 9.37727 8.45059 9.42348 8.65971 9.51256C8.86883 9.60165 9.05794 9.73181 9.21583 9.89532" fill="black"/>
<path d="M14.5361 3.05938L10.583 7.00626C9.65055 6.41026 8.54116 6.15385 7.44174 6.28021C6.34231 6.40658 5.32002 6.908 4.54708 7.70001C3.63507 8.61919 3.12383 9.86191 3.125 11.1568C3.12617 12.4516 3.63966 13.6934 4.55333 14.6109L14.0127 24.1641L14.4611 24.6328L36.1799 46.5813C36.7587 47.1693 37.4488 47.6363 38.2099 47.955C38.971 48.2738 39.7879 48.4378 40.613 48.4377C41.4382 48.4375 42.255 48.2732 43.016 47.9542C43.777 47.6352 44.4669 47.168 45.0455 46.5797C47.483 44.1172 47.4893 40.125 45.0424 37.6719L45.0393 37.6688L33.4877 25.9703C31.6095 24.0777 29.3847 22.5643 26.9346 21.5125C25.5482 20.9174 24.2438 20.1471 23.0533 19.2203L26.8783 15.3953L26.8846 15.3891C27.2084 15.0604 27.4313 14.6458 27.527 14.1944C27.6226 13.743 27.587 13.2737 27.4242 12.8419C27.2615 12.4101 26.9785 12.034 26.6088 11.7579C26.239 11.4819 25.7979 11.3176 25.3377 11.2844C25.3012 10.7036 25.0541 10.1561 24.6428 9.74442C24.2315 9.33279 23.6841 9.08533 23.1033 9.04844C23.0602 8.47295 22.8129 7.93179 22.4062 7.52243C21.9994 7.11307 21.4598 6.86242 20.8846 6.81563C20.8424 6.23647 20.5895 5.69284 20.1736 5.28751C19.7656 4.88136 19.2246 4.63613 18.6502 4.59688C18.611 4.01332 18.3579 3.46474 17.9393 3.05626C17.7171 2.83035 17.4522 2.65099 17.1599 2.52866C16.8676 2.40632 16.5539 2.34346 16.2371 2.34375C15.9202 2.34404 15.6066 2.40748 15.3146 2.53035C15.0225 2.65322 14.7579 2.83307 14.5361 3.05938ZM16.8283 4.15469L16.844 4.17032C16.9769 4.30208 17.0622 4.47428 17.0865 4.65983C17.1108 4.84538 17.0728 5.03376 16.9783 5.19532L16.9455 5.26094L12.9205 9.19376L11.769 8.02969L15.644 4.16251L15.6502 4.15469C15.7268 4.07574 15.8185 4.01297 15.9198 3.9701C16.0211 3.92724 16.13 3.90515 16.2401 3.90515C16.3501 3.90515 16.459 3.92724 16.5603 3.9701C16.6616 4.01297 16.7517 4.07574 16.8283 4.15469ZM18.2361 6.18594C18.3819 6.14406 18.5362 6.14151 18.6833 6.17856C18.8304 6.21561 18.9651 6.29093 19.0736 6.39688L19.0815 6.40313C19.2149 6.53237 19.3005 6.70316 19.324 6.88743C19.3476 7.07171 19.3078 7.25853 19.2111 7.41719L15.119 11.4141L14.0205 10.3047L18.2361 6.18594ZM20.4268 8.41251C20.572 8.36462 20.7274 8.35658 20.8768 8.38919C21.0261 8.42181 21.164 8.49391 21.2761 8.59796C21.3881 8.70201 21.4702 8.83421 21.5137 8.98078C21.5573 9.12735 21.5607 9.28291 21.5236 9.43126L17.2721 13.5875L16.2205 12.525L20.4268 8.41251ZM22.3752 10.7813L22.4971 10.725C22.66 10.6282 22.8504 10.5879 23.0387 10.6105C23.2269 10.6331 23.4023 10.7173 23.5377 10.85C23.6415 10.9564 23.716 11.0879 23.7538 11.2317C23.7916 11.3755 23.7914 11.5266 23.7533 11.6703L19.494 15.8328L18.369 14.6969L22.3752 10.7813ZM24.6283 13L24.7268 12.9531C24.8894 12.8594 25.0783 12.8214 25.2645 12.8451C25.4507 12.8688 25.6241 12.9529 25.758 13.0844L25.7643 13.0906C26.0924 13.4109 26.1049 13.95 25.769 14.2938L21.8596 18.2031C21.694 18.049 21.5315 17.8912 21.3721 17.7297L20.594 16.9438L24.6283 13ZM9.2174 9.89532L19.1518 19.9281C21.0296 21.82 23.2539 23.3329 25.7033 24.3844C27.7829 25.2777 29.6714 26.5624 31.2658 28.1688L42.8221 39.8703L42.8283 39.8766C44.0549 41.1047 44.0627 43.1328 42.8236 44.3828L42.819 44.3875C42.5306 44.6811 42.1866 44.9141 41.8071 45.0731C41.4275 45.2321 41.0201 45.3137 40.6086 45.3133C40.1971 45.3128 39.7899 45.2303 39.4107 45.0706C39.0315 44.9108 38.6879 44.677 38.4002 44.3828L16.7002 22.4531L16.2518 21.9844L6.77208 12.4094L6.76427 12.4016C6.43403 12.0676 6.24945 11.6165 6.25092 11.1468C6.25238 10.6772 6.43976 10.2272 6.77208 9.89532L6.77833 9.88907C6.93707 9.72637 7.12684 9.59718 7.33642 9.50917C7.54599 9.42116 7.7711 9.37611 7.99841 9.37669C8.22571 9.37727 8.45059 9.42348 8.65971 9.51256C8.86883 9.60165 9.05794 9.73181 9.21583 9.89532" fill="black" fill-opacity="0.2"/>
<path d="M42.5 35.5L42 36" stroke="black"/>
<path d="M43.5 38.5L39 32.5H38.5L32 26.5L25 23L19.5 18L9.5 8L6 8.5L4.5 12L36.5 46L43 46.5L45.5 43L43.5 38.5Z" fill="black" stroke="black"/>
<path d="M0.579545 57.2102V56.2727H7.125V57.2102H4.38068V65H3.32386V57.2102H0.579545ZM10.3295 65.1364C9.73864 65.1364 9.22017 64.9957 8.77415 64.7145C8.33097 64.4332 7.98438 64.0398 7.73438 63.5341C7.48722 63.0284 7.36364 62.4375 7.36364 61.7614C7.36364 61.0795 7.48722 60.4844 7.73438 59.9759C7.98438 59.4673 8.33097 59.0724 8.77415 58.7912C9.22017 58.5099 9.73864 58.3693 10.3295 58.3693C10.9205 58.3693 11.4375 58.5099 11.8807 58.7912C12.3267 59.0724 12.6733 59.4673 12.9205 59.9759C13.1705 60.4844 13.2955 61.0795 13.2955 61.7614C13.2955 62.4375 13.1705 63.0284 12.9205 63.5341C12.6733 64.0398 12.3267 64.4332 11.8807 64.7145C11.4375 64.9957 10.9205 65.1364 10.3295 65.1364ZM10.3295 64.233C10.7784 64.233 11.1477 64.1179 11.4375 63.8878C11.7273 63.6577 11.9418 63.3551 12.081 62.9801C12.2202 62.6051 12.2898 62.1989 12.2898 61.7614C12.2898 61.3239 12.2202 60.9162 12.081 60.5384C11.9418 60.1605 11.7273 59.8551 11.4375 59.6222C11.1477 59.3892 10.7784 59.2727 10.3295 59.2727C9.88068 59.2727 9.51136 59.3892 9.22159 59.6222C8.93182 59.8551 8.71733 60.1605 8.57812 60.5384C8.43892 60.9162 8.36932 61.3239 8.36932 61.7614C8.36932 62.1989 8.43892 62.6051 8.57812 62.9801C8.71733 63.3551 8.93182 63.6577 9.22159 63.8878C9.51136 64.1179 9.88068 64.233 10.3295 64.233ZM17.4897 65.1364C16.8988 65.1364 16.3803 64.9957 15.9343 64.7145C15.4911 64.4332 15.1445 64.0398 14.8945 63.5341C14.6474 63.0284 14.5238 62.4375 14.5238 61.7614C14.5238 61.0795 14.6474 60.4844 14.8945 59.9759C15.1445 59.4673 15.4911 59.0724 15.9343 58.7912C16.3803 58.5099 16.8988 58.3693 17.4897 58.3693C18.0806 58.3693 18.5977 58.5099 19.0408 58.7912C19.4869 59.0724 19.8335 59.4673 20.0806 59.9759C20.3306 60.4844 20.4556 61.0795 20.4556 61.7614C20.4556 62.4375 20.3306 63.0284 20.0806 63.5341C19.8335 64.0398 19.4869 64.4332 19.0408 64.7145C18.5977 64.9957 18.0806 65.1364 17.4897 65.1364ZM17.4897 64.233C17.9386 64.233 18.3079 64.1179 18.5977 63.8878C18.8874 63.6577 19.1019 63.3551 19.2411 62.9801C19.3803 62.6051 19.4499 62.1989 19.4499 61.7614C19.4499 61.3239 19.3803 60.9162 19.2411 60.5384C19.1019 60.1605 18.8874 59.8551 18.5977 59.6222C18.3079 59.3892 17.9386 59.2727 17.4897 59.2727C17.0408 59.2727 16.6715 59.3892 16.3817 59.6222C16.092 59.8551 15.8775 60.1605 15.7383 60.5384C15.5991 60.9162 15.5295 61.3239 15.5295 61.7614C15.5295 62.1989 15.5991 62.6051 15.7383 62.9801C15.8775 63.3551 16.092 63.6577 16.3817 63.8878C16.6715 64.1179 17.0408 64.233 17.4897 64.233ZM24.8374 58.4545V59.3068H21.4453V58.4545H24.8374ZM22.4339 56.8864H23.4396V63.125C23.4396 63.4091 23.4808 63.6222 23.5632 63.7642C23.6484 63.9034 23.7564 63.9972 23.8871 64.0455C24.0206 64.0909 24.1612 64.1136 24.3089 64.1136C24.4197 64.1136 24.5107 64.108 24.5817 64.0966C24.6527 64.0824 24.7095 64.071 24.7521 64.0625L24.9567 64.9659C24.8885 64.9915 24.7933 65.017 24.6712 65.0426C24.549 65.071 24.3942 65.0852 24.2067 65.0852C23.9226 65.0852 23.6442 65.0241 23.3714 64.902C23.1016 64.7798 22.8771 64.5938 22.6982 64.3438C22.522 64.0938 22.4339 63.7784 22.4339 63.3977V56.8864ZM27.4964 61.0625V65H26.4908V56.2727H27.4964V59.4773H27.5817C27.7351 59.1392 27.9652 58.8707 28.272 58.6719C28.5817 58.4702 28.9936 58.3693 29.5078 58.3693C29.9538 58.3693 30.3445 58.4588 30.6797 58.6378C31.0149 58.8139 31.2749 59.0852 31.4595 59.4517C31.647 59.8153 31.7408 60.2784 31.7408 60.8409V65H30.7351V60.9091C30.7351 60.3892 30.6001 59.9872 30.3303 59.7031C30.0632 59.4162 29.6925 59.2727 29.218 59.2727C28.8885 59.2727 28.593 59.3423 28.3317 59.4815C28.0732 59.6207 27.8686 59.8239 27.718 60.0909C27.5703 60.358 27.4964 60.6818 27.4964 61.0625ZM33.717 65V56.2727H34.7227V59.4943H34.8079C34.8817 59.3807 34.984 59.2358 35.1147 59.0597C35.2482 58.8807 35.4386 58.7216 35.6857 58.5824C35.9357 58.4403 36.2738 58.3693 36.6999 58.3693C37.2511 58.3693 37.7369 58.5071 38.1573 58.7827C38.5778 59.0582 38.9059 59.4489 39.1417 59.9545C39.3775 60.4602 39.4954 61.0568 39.4954 61.7443C39.4954 62.4375 39.3775 63.0384 39.1417 63.5469C38.9059 64.0526 38.5792 64.4446 38.1616 64.723C37.744 64.9986 37.2624 65.1364 36.717 65.1364C36.2965 65.1364 35.9599 65.0668 35.707 64.9276C35.4542 64.7855 35.2596 64.625 35.1232 64.446C34.9869 64.2642 34.8817 64.1136 34.8079 63.9943H34.6886V65H33.717ZM34.7056 61.7273C34.7056 62.2216 34.7781 62.6577 34.9229 63.0355C35.0678 63.4105 35.2795 63.7045 35.5579 63.9176C35.8363 64.1278 36.1772 64.233 36.5806 64.233C37.0011 64.233 37.3519 64.1222 37.6332 63.9006C37.9173 63.6761 38.1303 63.375 38.2724 62.9972C38.4173 62.6165 38.4897 62.1932 38.4897 61.7273C38.4897 61.267 38.4187 60.8523 38.2766 60.483C38.1374 60.1108 37.9258 59.8168 37.6417 59.6009C37.3604 59.3821 37.0067 59.2727 36.5806 59.2727C36.1715 59.2727 35.8278 59.3764 35.5494 59.5838C35.271 59.7884 35.0607 60.0753 34.9187 60.4446C34.7766 60.8111 34.7056 61.2386 34.7056 61.7273ZM41.0337 65V58.4545H42.0053V59.4432H42.0735C42.1928 59.1193 42.4087 58.8565 42.7212 58.6548C43.0337 58.4531 43.386 58.3523 43.7781 58.3523C43.8519 58.3523 43.9442 58.3537 44.055 58.3565C44.1658 58.3594 44.2496 58.3636 44.3065 58.3693V59.392C44.2724 59.3835 44.1942 59.3707 44.0721 59.3537C43.9528 59.3338 43.8263 59.3239 43.6928 59.3239C43.3746 59.3239 43.0906 59.3906 42.8406 59.5241C42.5934 59.6548 42.3974 59.8366 42.2525 60.0696C42.1104 60.2997 42.0394 60.5625 42.0394 60.858V65H41.0337ZM49.6236 62.3239V58.4545H50.6293V65H49.6236V63.892H49.5554C49.402 64.2244 49.1634 64.5071 48.8395 64.7401C48.5156 64.9702 48.1065 65.0852 47.6122 65.0852C47.2031 65.0852 46.8395 64.9957 46.5213 64.8168C46.2031 64.6349 45.9531 64.3622 45.7713 63.9986C45.5895 63.6321 45.4986 63.1705 45.4986 62.6136V58.4545H46.5043V62.5455C46.5043 63.0227 46.6378 63.4034 46.9048 63.6875C47.1747 63.9716 47.5185 64.1136 47.9361 64.1136C48.1861 64.1136 48.4403 64.0497 48.6989 63.9219C48.9602 63.794 49.179 63.598 49.3551 63.3338C49.5341 63.0696 49.6236 62.733 49.6236 62.3239ZM57.1076 59.9205L56.2042 60.1761C56.1474 60.0256 56.0636 59.8793 55.9528 59.7372C55.8448 59.5923 55.6971 59.473 55.5096 59.3793C55.3221 59.2855 55.082 59.2386 54.7894 59.2386C54.3888 59.2386 54.055 59.331 53.788 59.5156C53.5238 59.6974 53.3917 59.929 53.3917 60.2102C53.3917 60.4602 53.4826 60.6577 53.6644 60.8026C53.8462 60.9474 54.1303 61.0682 54.5167 61.1648L55.4883 61.4034C56.0735 61.5455 56.5096 61.7628 56.7965 62.0554C57.0835 62.3452 57.2269 62.7187 57.2269 63.1761C57.2269 63.5511 57.119 63.8864 56.9031 64.1818C56.69 64.4773 56.3917 64.7102 56.0082 64.8807C55.6246 65.0511 55.1786 65.1364 54.6701 65.1364C54.0025 65.1364 53.4499 64.9915 53.0124 64.7017C52.5749 64.4119 52.2979 63.9886 52.1815 63.4318L53.136 63.1932C53.2269 63.5455 53.3988 63.8097 53.6516 63.9858C53.9073 64.1619 54.2411 64.25 54.6531 64.25C55.1218 64.25 55.494 64.1506 55.7695 63.9517C56.0479 63.75 56.1871 63.5085 56.1871 63.2273C56.1871 63 56.1076 62.8097 55.9485 62.6562C55.7894 62.5 55.5451 62.3835 55.2156 62.3068L54.1246 62.0511C53.5252 61.9091 53.0849 61.6889 52.8036 61.3906C52.5252 61.0895 52.386 60.7131 52.386 60.2614C52.386 59.892 52.4897 59.5653 52.6971 59.2812C52.9073 58.9972 53.1928 58.7741 53.5536 58.6122C53.9173 58.4503 54.3292 58.3693 54.7894 58.3693C55.4371 58.3693 55.9457 58.5114 56.315 58.7955C56.6871 59.0795 56.9513 59.4545 57.1076 59.9205ZM59.7464 61.0625V65H58.7408V56.2727H59.7464V59.4773H59.8317C59.9851 59.1392 60.2152 58.8707 60.522 58.6719C60.8317 58.4702 61.2436 58.3693 61.7578 58.3693C62.2038 58.3693 62.5945 58.4588 62.9297 58.6378C63.2649 58.8139 63.5249 59.0852 63.7095 59.4517C63.897 59.8153 63.9908 60.2784 63.9908 60.8409V65H62.9851V60.9091C62.9851 60.3892 62.8501 59.9872 62.5803 59.7031C62.3132 59.4162 61.9425 59.2727 61.468 59.2727C61.1385 59.2727 60.843 59.3423 60.5817 59.4815C60.3232 59.6207 60.1186 59.8239 59.968 60.0909C59.8203 60.358 59.7464 60.6818 59.7464 61.0625Z" fill="black"/>
</svg>
