<svg width="50" height="67" viewBox="0 0 50 67" fill="none" xmlns="http://www.w3.org/2000/svg">
<path d="M12.5516 2.39404L4.02904 7.73633C3.61527 7.99561 3.25873 8.53945 3.11713 9.15674C2.97553 9.77402 3.05951 10.4187 3.31889 10.8325L12.4475 25.3953C12.7068 25.809 13.2504 26.1656 13.8677 26.3072C14.485 26.4488 15.1297 26.3649 15.5435 26.1056L24.0663 20.7633L12.5516 2.39404ZM42.529 2.4126C45.6863 10.7937 32.7742 8.98369 34.3852 13.8059L36.8059 14.6343C40.634 14.0015 42.7153 12.111 39.5153 10.8163C42.9957 10.059 44.4023 13.2947 42.0034 15.5409C41.7457 15.7822 41.4904 15.9833 41.2383 16.1508L42.7934 16.683C49.2377 15.6265 47.4299 6.74717 42.529 2.4126ZM33.4684 15.3501L33.0259 16.6437L35.151 17.3707L34.5819 19.0339L32.4567 18.3068L31.5084 21.0788L40.1937 24.0505L40.6362 22.7568L38.5112 22.0298L39.0802 20.3666L41.2053 21.0938L42.1537 18.3219L33.4684 15.3501ZM27.5284 17.4903C27.018 17.4754 26.5117 17.5857 26.0538 17.8116C25.5959 18.0375 25.2004 18.3722 24.9018 18.7864L25.7558 20.1487L27.4682 19.6964L29.8452 20.5097L30.2632 19.2876C30.0182 18.7644 29.6329 18.3194 29.1501 18.0021C28.6672 17.6848 28.1059 17.5076 27.5284 17.4903ZM43.2769 20.4696L41.8905 24.5212C42.0773 24.6583 42.284 24.7661 42.5035 24.8408C43.6871 25.2458 44.9509 24.6263 45.356 23.4428C45.7609 22.2592 45.1413 20.9955 43.9579 20.5905C43.7384 20.5158 43.5087 20.475 43.2769 20.4696ZM27.4029 21.5317L25.02 22.1614L44.6588 28.8812L43.1612 26.9236L27.4028 21.5317H27.4029ZM24.014 23.6753L18.7345 39.1056C18.5764 39.5675 18.6417 40.2144 18.9205 40.783C19.1992 41.3517 19.6705 41.7996 20.1324 41.9578L36.3943 47.5221C36.8562 47.6802 37.5031 47.6146 38.0717 47.3359C38.6404 47.0572 39.0884 46.5859 39.2465 46.124L44.5262 30.6938L24.014 23.6753Z" fill="black"/>
<path d="M6.18768 64V55.2727H7.2445V63.0625H11.3013V64H6.18768ZM12.8013 64V57.4545H13.807V64H12.8013ZM13.3127 56.3636C13.1167 56.3636 12.9476 56.2969 12.8056 56.1634C12.6664 56.0298 12.5968 55.8693 12.5968 55.6818C12.5968 55.4943 12.6664 55.3338 12.8056 55.2003C12.9476 55.0668 13.1167 55 13.3127 55C13.5087 55 13.6763 55.0668 13.8155 55.2003C13.9576 55.3338 14.0286 55.4943 14.0286 55.6818C14.0286 55.8693 13.9576 56.0298 13.8155 56.1634C13.6763 56.2969 13.5087 56.3636 13.3127 56.3636ZM18.291 66.5909C17.8052 66.5909 17.3876 66.5284 17.0382 66.4034C16.6887 66.2812 16.3975 66.1193 16.1646 65.9176C15.9345 65.7188 15.7512 65.5057 15.6149 65.2784L16.416 64.7159C16.5069 64.8352 16.622 64.9716 16.7612 65.125C16.9004 65.2812 17.0907 65.4162 17.3322 65.5298C17.5765 65.6463 17.8961 65.7045 18.291 65.7045C18.8194 65.7045 19.2555 65.5767 19.5993 65.321C19.943 65.0653 20.1149 64.6648 20.1149 64.1193V62.7898H20.0297C19.9558 62.9091 19.8507 63.0568 19.7143 63.233C19.5808 63.4062 19.3876 63.5611 19.1348 63.6974C18.8848 63.831 18.5467 63.8977 18.1206 63.8977C17.5922 63.8977 17.1177 63.7727 16.6973 63.5227C16.2797 63.2727 15.9487 62.9091 15.7044 62.4318C15.4629 61.9545 15.3422 61.375 15.3422 60.6932C15.3422 60.0227 15.46 59.4389 15.6958 58.9418C15.9316 58.4418 16.2598 58.0554 16.6802 57.7827C17.1007 57.5071 17.5865 57.3693 18.1376 57.3693C18.5637 57.3693 18.9018 57.4403 19.1518 57.5824C19.4047 57.7216 19.5978 57.8807 19.7314 58.0597C19.8677 58.2358 19.9728 58.3807 20.0467 58.4943H20.149V57.4545H21.1206V64.1875C21.1206 64.75 20.9927 65.2074 20.737 65.5597C20.4842 65.9148 20.1433 66.1747 19.7143 66.3395C19.2882 66.5071 18.8137 66.5909 18.291 66.5909ZM18.2569 62.9943C18.6603 62.9943 19.0012 62.902 19.2797 62.7173C19.5581 62.5327 19.7697 62.267 19.9146 61.9205C20.0595 61.5739 20.1319 61.1591 20.1319 60.6761C20.1319 60.2045 20.0609 59.7884 19.9189 59.4276C19.7768 59.0668 19.5666 58.7841 19.2882 58.5795C19.0098 58.375 18.666 58.2727 18.2569 58.2727C17.8308 58.2727 17.4757 58.3807 17.1916 58.5966C16.9103 58.8125 16.6987 59.1023 16.5566 59.4659C16.4174 59.8295 16.3478 60.233 16.3478 60.6761C16.3478 61.1307 16.4189 61.5327 16.5609 61.8821C16.7058 62.2287 16.9189 62.5014 17.2001 62.7003C17.4842 62.8963 17.8365 62.9943 18.2569 62.9943ZM23.9672 60.0625V64H22.9615V55.2727H23.9672V58.4773H24.0524C24.2058 58.1392 24.4359 57.8707 24.7427 57.6719C25.0524 57.4702 25.4643 57.3693 25.9785 57.3693C26.4245 57.3693 26.8152 57.4588 27.1504 57.6378C27.4856 57.8139 27.7456 58.0852 27.9302 58.4517C28.1177 58.8153 28.2115 59.2784 28.2115 59.8409V64H27.2058V59.9091C27.2058 59.3892 27.0708 58.9872 26.801 58.7031C26.5339 58.4162 26.1632 58.2727 25.6887 58.2727C25.3592 58.2727 25.0637 58.3423 24.8024 58.4815C24.5439 58.6207 24.3393 58.8239 24.1887 59.0909C24.041 59.358 23.9672 59.6818 23.9672 60.0625ZM32.8979 57.4545V58.3068H29.5059V57.4545H32.8979ZM30.4945 55.8864H31.5002V62.125C31.5002 62.4091 31.5414 62.6222 31.6238 62.7642C31.709 62.9034 31.8169 62.9972 31.9476 63.0455C32.0811 63.0909 32.2218 63.1136 32.3695 63.1136C32.4803 63.1136 32.5712 63.108 32.6422 63.0966C32.7132 63.0824 32.7701 63.071 32.8127 63.0625L33.0172 63.9659C32.949 63.9915 32.8539 64.017 32.7317 64.0426C32.6096 64.071 32.4547 64.0852 32.2672 64.0852C31.9831 64.0852 31.7047 64.0241 31.432 63.902C31.1621 63.7798 30.9377 63.5938 30.7587 63.3438C30.5826 63.0938 30.4945 62.7784 30.4945 62.3977V55.8864ZM37.0847 64.1364C36.454 64.1364 35.91 63.9972 35.4526 63.7188C34.998 63.4375 34.6472 63.0455 34.4 62.5426C34.1557 62.0369 34.0336 61.4489 34.0336 60.7784C34.0336 60.108 34.1557 59.517 34.4 59.0057C34.6472 58.4915 34.9909 58.0909 35.4313 57.804C35.8745 57.5142 36.3915 57.3693 36.9824 57.3693C37.3233 57.3693 37.66 57.4261 37.9924 57.5398C38.3248 57.6534 38.6273 57.8381 38.9 58.0938C39.1728 58.3466 39.3901 58.6818 39.552 59.0994C39.714 59.517 39.7949 60.0312 39.7949 60.642V61.0682H34.7495V60.1989H38.7722C38.7722 59.8295 38.6983 59.5 38.5506 59.2102C38.4057 58.9205 38.1983 58.6918 37.9284 58.5241C37.6614 58.3565 37.3461 58.2727 36.9824 58.2727C36.5819 58.2727 36.2353 58.3722 35.9426 58.571C35.6529 58.767 35.4299 59.0227 35.2736 59.3381C35.1174 59.6534 35.0392 59.9915 35.0392 60.3523V60.9318C35.0392 61.4261 35.1245 61.8452 35.2949 62.1889C35.4682 62.5298 35.7083 62.7898 36.0151 62.9688C36.3219 63.1449 36.6784 63.233 37.0847 63.233C37.3489 63.233 37.5875 63.196 37.8006 63.1222C38.0165 63.0455 38.2026 62.9318 38.3588 62.7812C38.5151 62.6278 38.6358 62.4375 38.7211 62.2102L39.6926 62.483C39.5904 62.8125 39.4185 63.1023 39.177 63.3523C38.9355 63.5994 38.6373 63.7926 38.2821 63.9318C37.927 64.0682 37.5279 64.1364 37.0847 64.1364ZM41.3248 64V57.4545H42.2963V58.4432H42.3645C42.4838 58.1193 42.6998 57.8565 43.0123 57.6548C43.3248 57.4531 43.677 57.3523 44.0691 57.3523C44.1429 57.3523 44.2353 57.3537 44.3461 57.3565C44.4569 57.3594 44.5407 57.3636 44.5975 57.3693V58.392C44.5634 58.3835 44.4853 58.3707 44.3631 58.3537C44.2438 58.3338 44.1174 58.3239 43.9838 58.3239C43.6657 58.3239 43.3816 58.3906 43.1316 58.5241C42.8844 58.6548 42.6884 58.8366 42.5435 59.0696C42.4015 59.2997 42.3304 59.5625 42.3304 59.858V64H41.3248Z" fill="black"/>
</svg>
