<svg width="81" height="52" viewBox="0 0 81 52" fill="none" xmlns="http://www.w3.org/2000/svg">
<path d="M75.3214 2.63606H73.4967C72.6514 2.14478 71.7529 1.748 70.8181 1.45313C67.8717 0.494263 63.981 0 59.25 0C54.519 0 50.6283 0.494263 47.6886 1.45313C45.3348 2.22583 44.2985 3.07761 43.9637 3.40876C42.8828 2.90011 41.6998 2.6361 40.5017 2.6361C39.3035 2.6361 38.1206 2.90011 37.0396 3.40876C36.7048 3.07925 35.6685 2.22583 33.3147 1.45313C30.3717 0.494263 26.481 0 21.75 0C17.019 0 13.1283 0.494263 10.1886 1.45313C9.25377 1.748 8.35533 2.14478 7.51004 2.63606H5.67857C4.96817 2.63606 4.28686 2.91379 3.78454 3.40815C3.28221 3.90251 3 4.573 3 5.27213C3 5.97126 3.28221 6.64175 3.78454 7.13611C4.28686 7.63047 4.96817 7.90819 5.67857 7.90819H5.70703C5.87444 15.3979 6.78516 19.899 8.73884 23.1035C9.96269 25.1723 11.8388 26.792 14.0826 27.7166C16.13 28.5799 18.6395 29 21.75 29C25.793 29 31.5402 28.3888 34.7612 23.1068C36.3817 20.4476 37.2874 16.8972 37.6423 11.4883C37.7602 11.1871 37.821 10.8671 37.8214 10.5443C37.8214 9.84513 38.1036 9.17464 38.606 8.68028C39.1083 8.18592 39.7896 7.90819 40.5 7.90819C41.2104 7.90819 41.8917 8.18592 42.394 8.68028C42.8964 9.17464 43.1786 9.84513 43.1786 10.5443C43.1795 10.866 43.2402 11.1848 43.3577 11.485C43.7126 16.8939 44.6183 20.4443 46.2388 23.1035C47.4627 25.1723 49.3388 26.792 51.5826 27.7166C53.63 28.5799 56.1395 29 59.25 29C63.293 29 69.0402 28.3888 72.2612 23.1068C74.2148 19.9023 75.1289 15.4012 75.293 7.91149H75.3214C76.0318 7.91149 76.7131 7.63376 77.2155 7.1394C77.7178 6.64504 78 5.97455 78 5.27542C78 4.5763 77.7178 3.9058 77.2155 3.41145C76.7131 2.91709 76.0318 2.63936 75.3214 2.63936V2.63606Z" fill="black"/>
<path d="M14.1499 42.4545C14.0987 42.0227 13.8913 41.6875 13.5277 41.4489C13.1641 41.2102 12.718 41.0909 12.1896 41.0909C11.8033 41.0909 11.4652 41.1534 11.1754 41.2784C10.8885 41.4034 10.6641 41.5753 10.5021 41.794C10.343 42.0128 10.2635 42.2614 10.2635 42.5398C10.2635 42.7727 10.3189 42.973 10.4297 43.1406C10.5433 43.3054 10.6882 43.4432 10.8643 43.554C11.0405 43.6619 11.2251 43.7514 11.4183 43.8224C11.6115 43.8906 11.7891 43.946 11.951 43.9886L12.8374 44.2273C13.0646 44.2869 13.3175 44.3693 13.5959 44.4744C13.8771 44.5795 14.1456 44.723 14.4013 44.9048C14.6598 45.0838 14.8729 45.3139 15.0405 45.5952C15.2081 45.8764 15.2919 46.2216 15.2919 46.6307C15.2919 47.1023 15.1683 47.5284 14.9212 47.9091C14.6768 48.2898 14.3189 48.5923 13.8473 48.8168C13.3786 49.0412 12.8089 49.1534 12.1385 49.1534C11.5135 49.1534 10.9723 49.0526 10.5149 48.8509C10.0604 48.6491 9.70241 48.3679 9.44105 48.0071C9.18253 47.6463 9.03622 47.2273 9.00213 46.75H10.093C10.1214 47.0795 10.2322 47.3523 10.4254 47.5682C10.6214 47.7812 10.8686 47.9403 11.1669 48.0455C11.468 48.1477 11.7919 48.1989 12.1385 48.1989C12.5419 48.1989 12.9041 48.1335 13.2251 48.0028C13.5462 47.8693 13.8004 47.6847 13.9879 47.4489C14.1754 47.2102 14.2692 46.9318 14.2692 46.6136C14.2692 46.3239 14.1882 46.0881 14.0263 45.9062C13.8643 45.7244 13.6513 45.5767 13.3871 45.4631C13.1229 45.3494 12.8374 45.25 12.5305 45.1648L11.4567 44.858C10.7749 44.6619 10.2351 44.3821 9.83736 44.0185C9.43963 43.6548 9.24077 43.179 9.24077 42.5909C9.24077 42.1023 9.37287 41.6761 9.63707 41.3125C9.90412 40.946 10.2621 40.6619 10.7109 40.4602C11.1626 40.2557 11.6669 40.1534 12.2237 40.1534C12.7862 40.1534 13.2862 40.2543 13.7237 40.456C14.1612 40.6548 14.5078 40.9276 14.7635 41.2741C15.022 41.6207 15.1584 42.0142 15.1726 42.4545H14.1499ZM21.0181 46.3239V42.4545H22.0238V49H21.0181V47.892H20.9499C20.7965 48.2244 20.5579 48.5071 20.234 48.7401C19.9102 48.9702 19.5011 49.0852 19.0067 49.0852C18.5977 49.0852 18.234 48.9957 17.9158 48.8168C17.5977 48.6349 17.3477 48.3622 17.1658 47.9986C16.984 47.6321 16.8931 47.1705 16.8931 46.6136V42.4545H17.8988V46.5455C17.8988 47.0227 18.0323 47.4034 18.2994 47.6875C18.5692 47.9716 18.913 48.1136 19.3306 48.1136C19.5806 48.1136 19.8349 48.0497 20.0934 47.9219C20.3548 47.794 20.5735 47.598 20.7496 47.3338C20.9286 47.0696 21.0181 46.733 21.0181 46.3239ZM24.8714 45.0625V49H23.8658V42.4545H24.8374V43.4773H24.9226C25.076 43.1449 25.3089 42.8778 25.6214 42.6761C25.9339 42.4716 26.3374 42.3693 26.8317 42.3693C27.2749 42.3693 27.6626 42.4602 27.995 42.642C28.3274 42.821 28.5859 43.0938 28.7706 43.4602C28.9553 43.8239 29.0476 44.2841 29.0476 44.8409V49H28.0419V44.9091C28.0419 44.3949 27.9084 43.9943 27.6413 43.7074C27.3743 43.4176 27.0078 43.2727 26.5419 43.2727C26.2209 43.2727 25.9339 43.3423 25.6811 43.4815C25.4311 43.6207 25.2337 43.8239 25.0888 44.0909C24.9439 44.358 24.8714 44.6818 24.8714 45.0625ZM33.5273 51.5909C33.0415 51.5909 32.6239 51.5284 32.2745 51.4034C31.9251 51.2812 31.6339 51.1193 31.4009 50.9176C31.1708 50.7188 30.9876 50.5057 30.8512 50.2784L31.6523 49.7159C31.7433 49.8352 31.8583 49.9716 31.9975 50.125C32.1367 50.2812 32.3271 50.4162 32.5685 50.5298C32.8129 50.6463 33.1325 50.7045 33.5273 50.7045C34.0558 50.7045 34.4918 50.5767 34.8356 50.321C35.1793 50.0653 35.3512 49.6648 35.3512 49.1193V47.7898H35.266C35.1921 47.9091 35.087 48.0568 34.9506 48.233C34.8171 48.4062 34.6239 48.5611 34.3711 48.6974C34.1211 48.831 33.783 48.8977 33.3569 48.8977C32.8285 48.8977 32.354 48.7727 31.9336 48.5227C31.516 48.2727 31.185 47.9091 30.9407 47.4318C30.6992 46.9545 30.5785 46.375 30.5785 45.6932C30.5785 45.0227 30.6964 44.4389 30.9322 43.9418C31.168 43.4418 31.4961 43.0554 31.9165 42.7827C32.337 42.5071 32.8228 42.3693 33.3739 42.3693C33.8001 42.3693 34.1381 42.4403 34.3881 42.5824C34.641 42.7216 34.8342 42.8807 34.9677 43.0597C35.104 43.2358 35.2092 43.3807 35.283 43.4943H35.3853V42.4545H36.3569V49.1875C36.3569 49.75 36.229 50.2074 35.9734 50.5597C35.7205 50.9148 35.3796 51.1747 34.9506 51.3395C34.5245 51.5071 34.0501 51.5909 33.5273 51.5909ZM33.4933 47.9943C33.8967 47.9943 34.2376 47.902 34.516 47.7173C34.7944 47.5327 35.006 47.267 35.1509 46.9205C35.2958 46.5739 35.3683 46.1591 35.3683 45.6761C35.3683 45.2045 35.2972 44.7884 35.1552 44.4276C35.0131 44.0668 34.8029 43.7841 34.5245 43.5795C34.2461 43.375 33.9023 43.2727 33.4933 43.2727C33.0671 43.2727 32.712 43.3807 32.4279 43.5966C32.1467 43.8125 31.935 44.1023 31.793 44.4659C31.6538 44.8295 31.5842 45.233 31.5842 45.6761C31.5842 46.1307 31.6552 46.5327 31.7972 46.8821C31.9421 47.2287 32.1552 47.5014 32.4364 47.7003C32.7205 47.8963 33.0728 47.9943 33.4933 47.9943ZM39.2035 40.2727V49H38.1978V40.2727H39.2035ZM42.9716 49.1534C42.5568 49.1534 42.1804 49.0753 41.8423 48.919C41.5043 48.7599 41.2358 48.5312 41.0369 48.233C40.8381 47.9318 40.7386 47.5682 40.7386 47.142C40.7386 46.767 40.8125 46.4631 40.9602 46.2301C41.108 45.9943 41.3054 45.8097 41.5526 45.6761C41.7997 45.5426 42.0724 45.4432 42.3707 45.3778C42.6719 45.3097 42.9744 45.2557 43.2784 45.2159C43.6761 45.1648 43.9986 45.1264 44.2457 45.1009C44.4957 45.0724 44.6776 45.0256 44.7912 44.9602C44.9077 44.8949 44.9659 44.7812 44.9659 44.6193V44.5852C44.9659 44.1648 44.8509 43.8381 44.6207 43.6051C44.3935 43.3722 44.0483 43.2557 43.5852 43.2557C43.1051 43.2557 42.7287 43.3608 42.456 43.571C42.1832 43.7812 41.9915 44.0057 41.8807 44.2443L40.9261 43.9034C41.0966 43.5057 41.3239 43.196 41.608 42.9744C41.8949 42.75 42.2074 42.5937 42.5455 42.5057C42.8864 42.4148 43.2216 42.3693 43.5511 42.3693C43.7614 42.3693 44.0028 42.3949 44.2756 42.446C44.5511 42.4943 44.8168 42.5952 45.0724 42.7486C45.331 42.902 45.5455 43.1335 45.7159 43.4432C45.8864 43.7528 45.9716 44.1676 45.9716 44.6875V49H44.9659V48.1136H44.9148C44.8466 48.2557 44.733 48.4077 44.5739 48.5696C44.4148 48.7315 44.2031 48.8693 43.9389 48.983C43.6747 49.0966 43.3523 49.1534 42.9716 49.1534ZM43.125 48.25C43.5227 48.25 43.858 48.1719 44.1307 48.0156C44.4063 47.8594 44.6136 47.6577 44.7528 47.4105C44.8949 47.1634 44.9659 46.9034 44.9659 46.6307V45.7102C44.9233 45.7614 44.8295 45.8082 44.6847 45.8509C44.5426 45.8906 44.3778 45.9261 44.1903 45.9574C44.0057 45.9858 43.8253 46.0114 43.6491 46.0341C43.4759 46.054 43.3352 46.071 43.2273 46.0852C42.9659 46.1193 42.7216 46.1747 42.4943 46.2514C42.2699 46.3253 42.0881 46.4375 41.9489 46.5881C41.8125 46.7358 41.7443 46.9375 41.7443 47.1932C41.7443 47.5426 41.8736 47.8068 42.1321 47.9858C42.3935 48.1619 42.7244 48.25 43.125 48.25ZM52.4435 43.9205L51.5401 44.1761C51.4833 44.0256 51.3995 43.8793 51.2887 43.7372C51.1808 43.5923 51.033 43.473 50.8455 43.3793C50.658 43.2855 50.418 43.2386 50.1254 43.2386C49.7248 43.2386 49.391 43.331 49.1239 43.5156C48.8597 43.6974 48.7276 43.929 48.7276 44.2102C48.7276 44.4602 48.8185 44.6577 49.0004 44.8026C49.1822 44.9474 49.4663 45.0682 49.8526 45.1648L50.8242 45.4034C51.4094 45.5455 51.8455 45.7628 52.1325 46.0554C52.4194 46.3452 52.5629 46.7187 52.5629 47.1761C52.5629 47.5511 52.4549 47.8864 52.239 48.1818C52.0259 48.4773 51.7276 48.7102 51.3441 48.8807C50.9606 49.0511 50.5146 49.1364 50.006 49.1364C49.3384 49.1364 48.7859 48.9915 48.3484 48.7017C47.9109 48.4119 47.6339 47.9886 47.5174 47.4318L48.4719 47.1932C48.5629 47.5455 48.7347 47.8097 48.9876 47.9858C49.2433 48.1619 49.5771 48.25 49.989 48.25C50.4577 48.25 50.8299 48.1506 51.1055 47.9517C51.3839 47.75 51.5231 47.5085 51.5231 47.2273C51.5231 47 51.4435 46.8097 51.2844 46.6562C51.1254 46.5 50.881 46.3835 50.5515 46.3068L49.4606 46.0511C48.8612 45.9091 48.4208 45.6889 48.1396 45.3906C47.8612 45.0895 47.7219 44.7131 47.7219 44.2614C47.7219 43.892 47.8256 43.5653 48.033 43.2812C48.2433 42.9972 48.5288 42.7741 48.8896 42.6122C49.2532 42.4503 49.6651 42.3693 50.1254 42.3693C50.7731 42.3693 51.2816 42.5114 51.6509 42.7955C52.0231 43.0795 52.2873 43.4545 52.4435 43.9205ZM58.7131 43.9205L57.8097 44.1761C57.7528 44.0256 57.669 43.8793 57.5582 43.7372C57.4503 43.5923 57.3026 43.473 57.1151 43.3793C56.9276 43.2855 56.6875 43.2386 56.3949 43.2386C55.9943 43.2386 55.6605 43.331 55.3935 43.5156C55.1293 43.6974 54.9972 43.929 54.9972 44.2102C54.9972 44.4602 55.0881 44.6577 55.2699 44.8026C55.4517 44.9474 55.7358 45.0682 56.1222 45.1648L57.0938 45.4034C57.679 45.5455 58.1151 45.7628 58.402 46.0554C58.6889 46.3452 58.8324 46.7187 58.8324 47.1761C58.8324 47.5511 58.7244 47.8864 58.5085 48.1818C58.2955 48.4773 57.9972 48.7102 57.6136 48.8807C57.2301 49.0511 56.7841 49.1364 56.2756 49.1364C55.608 49.1364 55.0554 48.9915 54.6179 48.7017C54.1804 48.4119 53.9034 47.9886 53.7869 47.4318L54.7415 47.1932C54.8324 47.5455 55.0043 47.8097 55.2571 47.9858C55.5128 48.1619 55.8466 48.25 56.2585 48.25C56.7273 48.25 57.0994 48.1506 57.375 47.9517C57.6534 47.75 57.7926 47.5085 57.7926 47.2273C57.7926 47 57.7131 46.8097 57.554 46.6562C57.3949 46.5 57.1506 46.3835 56.821 46.3068L55.7301 46.0511C55.1307 45.9091 54.6903 45.6889 54.4091 45.3906C54.1307 45.0895 53.9915 44.7131 53.9915 44.2614C53.9915 43.892 54.0952 43.5653 54.3026 43.2812C54.5128 42.9972 54.7983 42.7741 55.1591 42.6122C55.5227 42.4503 55.9347 42.3693 56.3949 42.3693C57.0426 42.3693 57.5511 42.5114 57.9205 42.7955C58.2926 43.0795 58.5568 43.4545 58.7131 43.9205ZM63.0906 49.1364C62.4599 49.1364 61.9158 48.9972 61.4585 48.7188C61.0039 48.4375 60.6531 48.0455 60.4059 47.5426C60.1616 47.0369 60.0394 46.4489 60.0394 45.7784C60.0394 45.108 60.1616 44.517 60.4059 44.0057C60.6531 43.4915 60.9968 43.0909 61.4371 42.804C61.8803 42.5142 62.3974 42.3693 62.9883 42.3693C63.3292 42.3693 63.6658 42.4261 63.9982 42.5398C64.3306 42.6534 64.6332 42.8381 64.9059 43.0938C65.1786 43.3466 65.396 43.6818 65.5579 44.0994C65.7198 44.517 65.8008 45.0312 65.8008 45.642V46.0682H60.7553V45.1989H64.7781C64.7781 44.8295 64.7042 44.5 64.5565 44.2102C64.4116 43.9205 64.2042 43.6918 63.9343 43.5241C63.6673 43.3565 63.3519 43.2727 62.9883 43.2727C62.5877 43.2727 62.2411 43.3722 61.9485 43.571C61.6587 43.767 61.4357 44.0227 61.2795 44.3381C61.1232 44.6534 61.0451 44.9915 61.0451 45.3523V45.9318C61.0451 46.4261 61.1303 46.8452 61.3008 47.1889C61.4741 47.5298 61.7141 47.7898 62.021 47.9688C62.3278 48.1449 62.6843 48.233 63.0906 48.233C63.3548 48.233 63.5934 48.196 63.8065 48.1222C64.0224 48.0455 64.2085 47.9318 64.3647 47.7812C64.521 47.6278 64.6417 47.4375 64.7269 47.2102L65.6985 47.483C65.5962 47.8125 65.4244 48.1023 65.1829 48.3523C64.9414 48.5994 64.6431 48.7926 64.288 48.9318C63.9329 49.0682 63.5337 49.1364 63.0906 49.1364ZM71.967 43.9205L71.0636 44.1761C71.0067 44.0256 70.9229 43.8793 70.8121 43.7372C70.7042 43.5923 70.5565 43.473 70.369 43.3793C70.1815 43.2855 69.9414 43.2386 69.6488 43.2386C69.2482 43.2386 68.9144 43.331 68.6474 43.5156C68.3832 43.6974 68.2511 43.929 68.2511 44.2102C68.2511 44.4602 68.342 44.6577 68.5238 44.8026C68.7056 44.9474 68.9897 45.0682 69.3761 45.1648L70.3477 45.4034C70.9329 45.5455 71.369 45.7628 71.6559 46.0554C71.9428 46.3452 72.0863 46.7187 72.0863 47.1761C72.0863 47.5511 71.9783 47.8864 71.7624 48.1818C71.5494 48.4773 71.2511 48.7102 70.8675 48.8807C70.484 49.0511 70.038 49.1364 69.5295 49.1364C68.8619 49.1364 68.3093 48.9915 67.8718 48.7017C67.4343 48.4119 67.1573 47.9886 67.0408 47.4318L67.9954 47.1932C68.0863 47.5455 68.2582 47.8097 68.511 47.9858C68.7667 48.1619 69.1005 48.25 69.5124 48.25C69.9812 48.25 70.3533 48.1506 70.6289 47.9517C70.9073 47.75 71.0465 47.5085 71.0465 47.2273C71.0465 47 70.967 46.8097 70.8079 46.6562C70.6488 46.5 70.4045 46.3835 70.0749 46.3068L68.984 46.0511C68.3846 45.9091 67.9442 45.6889 67.663 45.3906C67.3846 45.0895 67.2454 44.7131 67.2454 44.2614C67.2454 43.892 67.3491 43.5653 67.5565 43.2812C67.7667 42.9972 68.0522 42.7741 68.413 42.6122C68.7766 42.4503 69.1886 42.3693 69.6488 42.3693C70.2965 42.3693 70.805 42.5114 71.1744 42.7955C71.5465 43.0795 71.8107 43.4545 71.967 43.9205Z" fill="black"/>
</svg>
