<svg width="68" height="62" viewBox="0 0 68 62" fill="none" xmlns="http://www.w3.org/2000/svg">
<path d="M32.9375 43.75C33.0897 43.0133 33.1947 42.2677 33.252 41.5176C33.2861 41.0674 33.3037 40.6084 33.3037 40.1504C33.3037 30.3848 25.3604 22.4434 15.5967 22.4434C14.3883 22.4439 13.1832 22.568 12 22.8135C12.2349 28.291 14.5162 33.481 18.393 37.3577C22.2698 41.2343 27.46 43.5154 32.9375 43.75Z" fill="black"/>
<path d="M36.6709 19.0791C34.632 17.0504 33.0157 14.6374 31.9156 11.9798C30.8154 9.32229 30.2533 6.47293 30.2617 3.59668C30.2616 2.47137 30.3471 1.34768 30.5176 0.235352C25.926 0.950199 21.6804 3.10608 18.3942 6.39161C15.108 9.67713 12.9512 13.9222 12.2354 18.5137C13.3478 18.3445 14.4715 18.2603 15.5967 18.2617C18.4732 18.2538 21.3227 18.8165 23.9803 19.9174C26.6379 21.0182 29.0507 22.6352 31.0791 24.6748C33.1175 26.7031 34.7336 29.1154 35.8337 31.7723C36.9338 34.4291 37.4962 37.2777 37.4883 40.1533C37.4883 40.7139 37.4668 41.2803 37.4248 41.8359C37.3828 42.3916 37.3164 42.96 37.2295 43.5156C41.8217 42.8011 46.0679 40.6453 49.3547 37.3596C52.6415 34.0739 54.7987 29.8283 55.5146 25.2363C54.4022 25.4055 53.2785 25.4897 52.1533 25.4883C49.2771 25.4967 46.4277 24.9346 43.7702 23.8344C41.1126 22.7343 38.6996 21.118 36.6709 19.0791Z" fill="black"/>
<path d="M52.1533 21.3037C53.3616 21.3041 54.5667 21.1811 55.75 20.9365C55.5151 15.4592 53.234 10.2693 49.3573 6.39266C45.4807 2.51604 40.2908 0.234851 34.8135 0C34.5689 1.18326 34.4459 2.38841 34.4463 3.59668C34.4463 13.3604 42.3896 21.3037 52.1533 21.3037Z" fill="black"/>
<path d="M4.31587 50.9602V50.0227H10.8613V50.9602H8.11701V58.75H7.06019V50.9602H4.31587ZM14.1511 58.8864C13.5204 58.8864 12.9764 58.7472 12.519 58.4688C12.0645 58.1875 11.7136 57.7955 11.4664 57.2926C11.2221 56.7869 11.1 56.1989 11.1 55.5284C11.1 54.858 11.2221 54.267 11.4664 53.7557C11.7136 53.2415 12.0574 52.8409 12.4977 52.554C12.9409 52.2642 13.4579 52.1193 14.0488 52.1193C14.3897 52.1193 14.7264 52.1761 15.0588 52.2898C15.3912 52.4034 15.6937 52.5881 15.9664 52.8438C16.2392 53.0966 16.4565 53.4318 16.6184 53.8494C16.7804 54.267 16.8613 54.7812 16.8613 55.392V55.8182H11.8159V54.9489H15.8386C15.8386 54.5795 15.7647 54.25 15.617 53.9602C15.4721 53.6705 15.2647 53.4418 14.9949 53.2741C14.7278 53.1065 14.4125 53.0227 14.0488 53.0227C13.6483 53.0227 13.3017 53.1222 13.0091 53.321C12.7193 53.517 12.4963 53.7727 12.34 54.0881C12.1838 54.4034 12.1056 54.7415 12.1056 55.1023V55.6818C12.1056 56.1761 12.1909 56.5952 12.3613 56.9389C12.5346 57.2798 12.7747 57.5398 13.0815 57.7188C13.3883 57.8949 13.7449 57.983 14.1511 57.983C14.4153 57.983 14.6539 57.946 14.867 57.8722C15.0829 57.7955 15.269 57.6818 15.4252 57.5312C15.5815 57.3778 15.7022 57.1875 15.7875 56.9602L16.7591 57.233C16.6568 57.5625 16.4849 57.8523 16.2434 58.1023C16.002 58.3494 15.7037 58.5426 15.3485 58.6818C14.9934 58.8182 14.5943 58.8864 14.1511 58.8864ZM19.3968 54.8125V58.75H18.3912V52.2045H19.3627V53.2273H19.448C19.6014 52.8949 19.8343 52.6278 20.1468 52.4261C20.4593 52.2216 20.8627 52.1193 21.3571 52.1193C21.8002 52.1193 22.188 52.2102 22.5204 52.392C22.8528 52.571 23.1113 52.8438 23.296 53.2102C23.4806 53.5739 23.573 54.0341 23.573 54.5909V58.75H22.5673V54.6591C22.5673 54.1449 22.4338 53.7443 22.1667 53.4574C21.8997 53.1676 21.5332 53.0227 21.0673 53.0227C20.7463 53.0227 20.4593 53.0923 20.2065 53.2315C19.9565 53.3707 19.7591 53.5739 19.6142 53.8409C19.4693 54.108 19.3968 54.4318 19.3968 54.8125ZM26.4164 54.8125V58.75H25.4107V52.2045H26.3823V53.2273H26.4675C26.6209 52.8949 26.8539 52.6278 27.1664 52.4261C27.4789 52.2216 27.8823 52.1193 28.3766 52.1193C28.8198 52.1193 29.2076 52.2102 29.54 52.392C29.8723 52.571 30.1309 52.8438 30.3155 53.2102C30.5002 53.5739 30.5925 54.0341 30.5925 54.5909V58.75H29.5868V54.6591C29.5868 54.1449 29.4533 53.7443 29.1863 53.4574C28.9192 53.1676 28.5527 53.0227 28.0868 53.0227C27.7658 53.0227 27.4789 53.0923 27.226 53.2315C26.976 53.3707 26.7786 53.5739 26.6337 53.8409C26.4888 54.108 26.4164 54.4318 26.4164 54.8125ZM32.4302 58.75V52.2045H33.4359V58.75H32.4302ZM32.9416 51.1136C32.7456 51.1136 32.5765 51.0469 32.4345 50.9134C32.2953 50.7798 32.2257 50.6193 32.2257 50.4318C32.2257 50.2443 32.2953 50.0838 32.4345 49.9503C32.5765 49.8168 32.7456 49.75 32.9416 49.75C33.1376 49.75 33.3052 49.8168 33.4444 49.9503C33.5865 50.0838 33.6575 50.2443 33.6575 50.4318C33.6575 50.6193 33.5865 50.7798 33.4444 50.9134C33.3052 51.0469 33.1376 51.1136 32.9416 51.1136ZM39.9142 53.6705L39.0108 53.9261C38.954 53.7756 38.8702 53.6293 38.7594 53.4872C38.6515 53.3423 38.5037 53.223 38.3162 53.1293C38.1287 53.0355 37.8887 52.9886 37.5961 52.9886C37.1955 52.9886 36.8617 53.081 36.5946 53.2656C36.3304 53.4474 36.1983 53.679 36.1983 53.9602C36.1983 54.2102 36.2892 54.4077 36.4711 54.5526C36.6529 54.6974 36.937 54.8182 37.3233 54.9148L38.2949 55.1534C38.8801 55.2955 39.3162 55.5128 39.6032 55.8054C39.8901 56.0952 40.0336 56.4687 40.0336 56.9261C40.0336 57.3011 39.9256 57.6364 39.7097 57.9318C39.4966 58.2273 39.1983 58.4602 38.8148 58.6307C38.4313 58.8011 37.9853 58.8864 37.4767 58.8864C36.8091 58.8864 36.2566 58.7415 35.8191 58.4517C35.3816 58.1619 35.1046 57.7386 34.9881 57.1818L35.9426 56.9432C36.0336 57.2955 36.2054 57.5597 36.4583 57.7358C36.714 57.9119 37.0478 58 37.4597 58C37.9284 58 38.3006 57.9006 38.5762 57.7017C38.8546 57.5 38.9938 57.2585 38.9938 56.9773C38.9938 56.75 38.9142 56.5597 38.7551 56.4062C38.5961 56.25 38.3517 56.1335 38.0222 56.0568L36.9313 55.8011C36.3319 55.6591 35.8915 55.4389 35.6103 55.1406C35.3319 54.8395 35.1926 54.4631 35.1926 54.0114C35.1926 53.642 35.2963 53.3153 35.5037 53.0312C35.714 52.7472 35.9995 52.5241 36.3603 52.3622C36.7239 52.2003 37.1358 52.1193 37.5961 52.1193C38.2438 52.1193 38.7523 52.2614 39.1216 52.5455C39.4938 52.8295 39.758 53.2045 39.9142 53.6705ZM45.0588 58.75V50.0227H48.1099C48.7179 50.0227 49.2193 50.1278 49.6142 50.3381C50.0091 50.5455 50.3031 50.8253 50.4963 51.1776C50.6895 51.527 50.786 51.9148 50.786 52.3409C50.786 52.7159 50.7193 53.0256 50.5858 53.2699C50.4551 53.5142 50.2818 53.7074 50.0659 53.8494C49.8528 53.9915 49.6213 54.0966 49.3713 54.1648V54.25C49.6383 54.267 49.9068 54.3608 50.1767 54.5312C50.4466 54.7017 50.6724 54.946 50.8542 55.2642C51.036 55.5824 51.127 55.9716 51.127 56.4318C51.127 56.8693 51.0275 57.2628 50.8287 57.6122C50.6298 57.9616 50.3159 58.2386 49.8869 58.4432C49.4579 58.6477 48.8997 58.75 48.2122 58.75H45.0588ZM46.1156 57.8125H48.2122C48.9025 57.8125 49.3926 57.679 49.6824 57.4119C49.975 57.142 50.1213 56.8153 50.1213 56.4318C50.1213 56.1364 50.046 55.8636 49.8954 55.6136C49.7449 55.3608 49.5304 55.1591 49.252 55.0085C48.9735 54.8551 48.644 54.7784 48.2633 54.7784H46.1156V57.8125ZM46.1156 53.858H48.0758C48.394 53.858 48.6809 53.7955 48.9366 53.6705C49.1951 53.5455 49.3997 53.3693 49.5502 53.142C49.7037 52.9148 49.7804 52.6477 49.7804 52.3409C49.7804 51.9574 49.6468 51.6321 49.3798 51.3651C49.1127 51.0952 48.6895 50.9602 48.1099 50.9602H46.1156V53.858ZM54.6532 58.9034C54.2385 58.9034 53.862 58.8253 53.524 58.669C53.1859 58.5099 52.9174 58.2812 52.7186 57.983C52.5197 57.6818 52.4203 57.3182 52.4203 56.892C52.4203 56.517 52.4941 56.2131 52.6419 55.9801C52.7896 55.7443 52.987 55.5597 53.2342 55.4261C53.4814 55.2926 53.7541 55.1932 54.0524 55.1278C54.3535 55.0597 54.6561 55.0057 54.96 54.9659C55.3578 54.9148 55.6802 54.8764 55.9274 54.8509C56.1774 54.8224 56.3592 54.7756 56.4728 54.7102C56.5893 54.6449 56.6475 54.5312 56.6475 54.3693V54.3352C56.6475 53.9148 56.5325 53.5881 56.3024 53.3551C56.0751 53.1222 55.7299 53.0057 55.2669 53.0057C54.7868 53.0057 54.4103 53.1108 54.1376 53.321C53.8649 53.5312 53.6731 53.7557 53.5623 53.9943L52.6078 53.6534C52.7782 53.2557 53.0055 52.946 53.2896 52.7244C53.5765 52.5 53.889 52.3437 54.2271 52.2557C54.568 52.1648 54.9032 52.1193 55.2328 52.1193C55.443 52.1193 55.6845 52.1449 55.9572 52.196C56.2328 52.2443 56.4984 52.3452 56.7541 52.4986C57.0126 52.652 57.2271 52.8835 57.3975 53.1932C57.568 53.5028 57.6532 53.9176 57.6532 54.4375V58.75H56.6475V57.8636H56.5964C56.5282 58.0057 56.4146 58.1577 56.2555 58.3196C56.0964 58.4815 55.8848 58.6193 55.6206 58.733C55.3564 58.8466 55.0339 58.9034 54.6532 58.9034ZM54.8066 58C55.2044 58 55.5396 57.9219 55.8123 57.7656C56.0879 57.6094 56.2953 57.4077 56.4345 57.1605C56.5765 56.9134 56.6475 56.6534 56.6475 56.3807V55.4602C56.6049 55.5114 56.5112 55.5582 56.3663 55.6009C56.2243 55.6406 56.0595 55.6761 55.872 55.7074C55.6873 55.7358 55.5069 55.7614 55.3308 55.7841C55.1575 55.804 55.0169 55.821 54.9089 55.8352C54.6475 55.8693 54.4032 55.9247 54.176 56.0014C53.9515 56.0753 53.7697 56.1875 53.6305 56.3381C53.4941 56.4858 53.426 56.6875 53.426 56.9432C53.426 57.2926 53.5552 57.5568 53.8137 57.7358C54.0751 57.9119 54.4061 58 54.8066 58ZM60.4945 50.0227V58.75H59.4888V50.0227H60.4945ZM63.3422 50.0227V58.75H62.3365V50.0227H63.3422Z" fill="black"/>
</svg>
