<svg width="54" height="69" viewBox="0 0 54 69" fill="none" xmlns="http://www.w3.org/2000/svg">
<path fill-rule="evenodd" clip-rule="evenodd" d="M35.5117 19.6931C38.34 18.3364 38.8125 17.01 38.8125 16.0312C38.8125 15.1132 38.3974 13.8915 36.0112 12.6225L35.5084 12.3694C32.6261 10.9856 28.188 10.125 22.7812 10.125C17.3745 10.125 12.9397 10.989 10.0507 12.3694C7.2225 13.7261 6.75 15.0525 6.75 16.0312C6.75 17.01 7.2225 18.3364 10.0507 19.6931C12.9397 21.0769 17.3779 21.9375 22.7812 21.9375C28.1846 21.9375 32.6227 21.0735 35.5084 19.6931M22.7812 27C29.133 27 34.83 25.9132 38.6944 23.7397C38.4953 28.296 37.9654 32.4979 36.5546 35.9437C35.532 38.4412 34.1246 40.3076 32.1806 41.5935C30.2265 42.8861 27.3071 43.875 22.7812 43.875C18.2588 43.875 15.336 42.8861 13.3819 41.5935C11.4412 40.3076 10.0339 38.4412 9.00787 35.9437C7.59712 32.4979 7.06725 28.2926 6.86813 23.7397C10.7325 25.9132 16.4295 27 22.7812 27ZM43.8615 15.5655C43.47 8.56238 34.182 5.0625 22.7812 5.0625C11.1308 5.0625 1.6875 8.71762 1.6875 16.0312C1.6875 30.375 1.6875 48.9375 22.7812 48.9375C34.1213 48.9375 39.3626 43.5746 41.7892 36.3859C42.732 36.0934 43.6522 35.7638 44.55 35.397C46.6256 34.533 48.8295 33.3281 50.5912 31.644C52.3935 29.9194 54 27.405 54 24.1583C54 22.6834 53.6726 21.1545 52.8356 19.7572C52.0585 18.477 50.9416 17.4372 49.6091 16.7535C47.709 15.7646 45.603 15.5452 43.8615 15.5655ZM43.8514 20.628C43.8008 23.9018 43.6489 27.2666 43.1662 30.483C46.4164 29.025 48.9375 26.919 48.9375 24.1583C48.9375 21.4313 46.7235 20.5841 43.8514 20.628Z" fill="black"/>
<path d="M3.5 31L5 20.5L16.5 24L33.5 23L41 21L40 31L36 43.5L21 46.5L10 43.5L3.5 31Z" fill="black" stroke="black"/>
<path d="M23.5717 60H22.5149C22.4524 59.696 22.343 59.429 22.1868 59.1989C22.0334 58.9688 21.8459 58.7756 21.6243 58.6193C21.4055 58.4602 21.1626 58.3409 20.8956 58.2614C20.6286 58.1818 20.3501 58.142 20.0604 58.142C19.532 58.142 19.0533 58.2756 18.6243 58.5426C18.1982 58.8097 17.8587 59.2031 17.6058 59.723C17.3558 60.2429 17.2308 60.8807 17.2308 61.6364C17.2308 62.392 17.3558 63.0298 17.6058 63.5497C17.8587 64.0696 18.1982 64.4631 18.6243 64.7301C19.0533 64.9972 19.532 65.1307 20.0604 65.1307C20.3501 65.1307 20.6286 65.0909 20.8956 65.0114C21.1626 64.9318 21.4055 64.8139 21.6243 64.6577C21.8459 64.4986 22.0334 64.304 22.1868 64.0739C22.343 63.8409 22.4524 63.5739 22.5149 63.2727H23.5717C23.4922 63.7187 23.3473 64.1179 23.1371 64.4702C22.9268 64.8224 22.6655 65.1222 22.353 65.3693C22.0405 65.6136 21.6896 65.7997 21.3004 65.9276C20.9141 66.0554 20.5007 66.1193 20.0604 66.1193C19.3161 66.1193 18.6541 65.9375 18.0746 65.5739C17.495 65.2102 17.0391 64.6932 16.7067 64.0227C16.3743 63.3523 16.2081 62.5568 16.2081 61.6364C16.2081 60.7159 16.3743 59.9205 16.7067 59.25C17.0391 58.5795 17.495 58.0625 18.0746 57.6989C18.6541 57.3352 19.3161 57.1534 20.0604 57.1534C20.5007 57.1534 20.9141 57.2173 21.3004 57.3452C21.6896 57.473 22.0405 57.6605 22.353 57.9077C22.6655 58.152 22.9268 58.4503 23.1371 58.8026C23.3473 59.152 23.4922 59.5511 23.5717 60ZM29.2681 63.3239V59.4545H30.2738V66H29.2681V64.892H29.1999C29.0465 65.2244 28.8079 65.5071 28.484 65.7401C28.1602 65.9702 27.7511 66.0852 27.2567 66.0852C26.8477 66.0852 26.484 65.9957 26.1658 65.8168C25.8477 65.6349 25.5977 65.3622 25.4158 64.9986C25.234 64.6321 25.1431 64.1705 25.1431 63.6136V59.4545H26.1488V63.5455C26.1488 64.0227 26.2823 64.4034 26.5494 64.6875C26.8192 64.9716 27.163 65.1136 27.5806 65.1136C27.8306 65.1136 28.0849 65.0497 28.3434 64.9219C28.6048 64.794 28.8235 64.598 28.9996 64.3338C29.1786 64.0696 29.2681 63.733 29.2681 63.3239ZM32.1158 68.4545V59.4545H33.0874V60.4943H33.2067C33.2805 60.3807 33.3828 60.2358 33.5135 60.0597C33.647 59.8807 33.8374 59.7216 34.0845 59.5824C34.3345 59.4403 34.6726 59.3693 35.0987 59.3693C35.6499 59.3693 36.1357 59.5071 36.5561 59.7827C36.9766 60.0582 37.3047 60.4489 37.5405 60.9545C37.7763 61.4602 37.8942 62.0568 37.8942 62.7443C37.8942 63.4375 37.7763 64.0384 37.5405 64.5469C37.3047 65.0526 36.978 65.4446 36.5604 65.723C36.1428 65.9986 35.6612 66.1364 35.1158 66.1364C34.6953 66.1364 34.3587 66.0668 34.1058 65.9276C33.853 65.7855 33.6584 65.625 33.522 65.446C33.3857 65.2642 33.2805 65.1136 33.2067 64.9943H33.1214V68.4545H32.1158ZM33.1044 62.7273C33.1044 63.2216 33.1768 63.6577 33.3217 64.0355C33.4666 64.4105 33.6783 64.7045 33.9567 64.9176C34.2351 65.1278 34.576 65.233 34.9794 65.233C35.3999 65.233 35.7507 65.1222 36.032 64.9006C36.3161 64.6761 36.5291 64.375 36.6712 63.9972C36.8161 63.6165 36.8885 63.1932 36.8885 62.7273C36.8885 62.267 36.8175 61.8523 36.6754 61.483C36.5362 61.1108 36.3246 60.8168 36.0405 60.6009C35.7592 60.3821 35.4055 60.2727 34.9794 60.2727C34.5703 60.2727 34.2266 60.3764 33.9482 60.5838C33.6697 60.7884 33.4595 61.0753 33.3175 61.4446C33.1754 61.8111 33.1044 62.2386 33.1044 62.7273Z" fill="black"/>
</svg>
