<svg width="60" height="70" viewBox="0 0 60 70" fill="none" xmlns="http://www.w3.org/2000/svg">
<g clip-path="url(#clip0_607_701)">
<path d="M30.0006 42.0713V49.6155M30.0006 42.0713L16.1534 37.1751M30.0006 42.0713L21.443 29.2537M30.0006 42.0713V26.2285M30.0006 42.0713L38.5568 29.2537M30.0006 42.0713L43.8464 37.1751M16.1534 37.1751L2.30762 32.2805C4.20752 25.9163 7.91017 20.37 12.8848 16.4366C17.8595 12.5033 23.8508 10.3848 29.9999 10.3848C36.1491 10.3848 42.1403 12.5033 47.115 16.4366C52.0897 20.37 55.7923 25.9163 57.6922 32.2805L43.8464 37.1751M16.1534 37.1751H43.8464M16.1534 37.1751C17.1037 33.9931 18.9554 31.2201 21.443 29.2537M16.1534 37.1751L21.443 29.2537M43.8464 37.1751C42.8961 33.9931 41.0445 31.2201 38.5568 29.2537M43.8464 37.1751L38.5568 29.2537M21.443 29.2537C23.9304 27.2873 26.9261 26.2283 30.0006 26.2285M21.443 29.2537L30.0006 26.2285M30.0006 26.2285C33.0747 26.2286 36.0698 27.2876 38.5568 29.2537M30.0006 26.2285L38.5568 29.2537" stroke="black" stroke-width="3" stroke-linecap="round" stroke-linejoin="round"/>
<path d="M16.5 36.5L2.5 32.5V30.5L5.5 25L10.5 18L20 12.5L29.5 10.5L37 11.5L47 16.5L55 25L57.5 32L43 36.5L41 32L37.5 28L31 26L25.5 27L20.5 30L16.5 36.5Z" fill="black"/>
</g>
<path d="M20.6447 67V58.2727H25.8777V59.2102H21.7015V62.1591H25.4856V63.0966H21.7015V67H20.6447ZM29.4775 67.1534C29.0627 67.1534 28.6863 67.0753 28.3482 66.919C28.0101 66.7599 27.7417 66.5312 27.5428 66.233C27.3439 65.9318 27.2445 65.5682 27.2445 65.142C27.2445 64.767 27.3184 64.4631 27.4661 64.2301C27.6138 63.9943 27.8113 63.8097 28.0584 63.6761C28.3056 63.5426 28.5783 63.4432 28.8766 63.3778C29.1777 63.3097 29.4803 63.2557 29.7843 63.2159C30.182 63.1648 30.5044 63.1264 30.7516 63.1009C31.0016 63.0724 31.1834 63.0256 31.2971 62.9602C31.4135 62.8949 31.4718 62.7812 31.4718 62.6193V62.5852C31.4718 62.1648 31.3567 61.8381 31.1266 61.6051C30.8993 61.3722 30.5542 61.2557 30.0911 61.2557C29.611 61.2557 29.2346 61.3608 28.9618 61.571C28.6891 61.7812 28.4973 62.0057 28.3865 62.2443L27.432 61.9034C27.6025 61.5057 27.8297 61.196 28.1138 60.9744C28.4007 60.75 28.7132 60.5937 29.0513 60.5057C29.3922 60.4148 29.7275 60.3693 30.057 60.3693C30.2672 60.3693 30.5087 60.3949 30.7814 60.446C31.057 60.4943 31.3226 60.5952 31.5783 60.7486C31.8368 60.902 32.0513 61.1335 32.2218 61.4432C32.3922 61.7528 32.4775 62.1676 32.4775 62.6875V67H31.4718V66.1136H31.4206C31.3525 66.2557 31.2388 66.4077 31.0797 66.5696C30.9206 66.7315 30.709 66.8693 30.4448 66.983C30.1806 67.0966 29.8581 67.1534 29.4775 67.1534ZM29.6309 66.25C30.0286 66.25 30.3638 66.1719 30.6365 66.0156C30.9121 65.8594 31.1195 65.6577 31.2587 65.4105C31.4007 65.1634 31.4718 64.9034 31.4718 64.6307V63.7102C31.4292 63.7614 31.3354 63.8082 31.1905 63.8509C31.0485 63.8906 30.8837 63.9261 30.6962 63.9574C30.5115 63.9858 30.3311 64.0114 30.155 64.0341C29.9817 64.054 29.8411 64.071 29.7331 64.0852C29.4718 64.1193 29.2275 64.1747 29.0002 64.2514C28.7757 64.3253 28.5939 64.4375 28.4547 64.5881C28.3184 64.7358 28.2502 64.9375 28.2502 65.1932C28.2502 65.5426 28.3794 65.8068 28.638 65.9858C28.8993 66.1619 29.2303 66.25 29.6309 66.25ZM35.3187 63.0625V67H34.313V60.4545H35.2846V61.4773H35.3699C35.5233 61.1449 35.7562 60.8778 36.0687 60.6761C36.3812 60.4716 36.7846 60.3693 37.2789 60.3693C37.7221 60.3693 38.1099 60.4602 38.4423 60.642C38.7747 60.821 39.0332 61.0938 39.2179 61.4602C39.4025 61.8239 39.4949 62.2841 39.4949 62.8409V67H38.4892V62.9091C38.4892 62.3949 38.3556 61.9943 38.0886 61.7074C37.8216 61.4176 37.4551 61.2727 36.9892 61.2727C36.6681 61.2727 36.3812 61.3423 36.1284 61.4815C35.8784 61.6207 35.6809 61.8239 35.536 62.0909C35.3912 62.358 35.3187 62.6818 35.3187 63.0625Z" fill="black"/>
<defs>
<clipPath id="clip0_607_701">
<rect width="60" height="60" fill="white"/>
</clipPath>
</defs>
</svg>
