<svg width="57" height="68" viewBox="0 0 57 68" fill="none" xmlns="http://www.w3.org/2000/svg">
<path d="M35.8061 4.16064C36.1836 4.16066 36.5484 4.2974 36.833 4.54558C37.1176 4.79375 37.3026 5.13657 37.354 5.51064L37.3686 5.72314V14.8606C38.2186 15.1673 38.9619 15.7131 39.5089 16.4324C40.0559 17.1517 40.3834 18.0137 40.4519 18.9148L40.4665 19.269V41.144C40.4671 42.3321 40.0166 43.4762 39.206 44.3448C38.3954 45.2134 37.2851 45.7418 36.0998 45.8231L35.779 45.8336H22.2373C21.0495 45.8337 19.906 45.3829 19.0378 44.5724C18.1696 43.7618 17.6415 42.6519 17.5602 41.4669L17.5498 41.1461V19.2711C17.5493 18.2964 17.8526 17.3458 18.4176 16.5516C18.9825 15.7574 19.781 15.1591 20.7019 14.8398V5.72314C20.7019 5.34557 20.8386 4.98077 21.0868 4.69621C21.335 4.41165 21.6778 4.22658 22.0519 4.17523L22.2623 4.16064H35.8061ZM34.2436 7.28564H23.8248V14.5815H34.2436V7.28564Z" fill="black"/>
<path d="M7.6044 56.2727H8.66122V62.0511C8.66122 62.6477 8.5206 63.1804 8.23935 63.6491C7.96094 64.1151 7.56747 64.483 7.05895 64.7528C6.55043 65.0199 5.95384 65.1534 5.26918 65.1534C4.58452 65.1534 3.98793 65.0199 3.4794 64.7528C2.97088 64.483 2.57599 64.1151 2.29474 63.6491C2.01634 63.1804 1.87713 62.6477 1.87713 62.0511V56.2727H2.93395V61.9659C2.93395 62.392 3.0277 62.7713 3.2152 63.1037C3.4027 63.4332 3.66974 63.6932 4.01634 63.8835C4.36577 64.071 4.78338 64.1648 5.26918 64.1648C5.75497 64.1648 6.17259 64.071 6.52202 63.8835C6.87145 63.6932 7.13849 63.4332 7.32315 63.1037C7.51065 62.7713 7.6044 62.392 7.6044 61.9659V56.2727ZM15.2717 59.9205L14.3683 60.1761C14.3114 60.0256 14.2276 59.8793 14.1168 59.7372C14.0089 59.5923 13.8612 59.473 13.6737 59.3793C13.4862 59.2855 13.2461 59.2386 12.9535 59.2386C12.5529 59.2386 12.2191 59.331 11.9521 59.5156C11.6879 59.6974 11.5558 59.929 11.5558 60.2102C11.5558 60.4602 11.6467 60.6577 11.8285 60.8026C12.0103 60.9474 12.2944 61.0682 12.6808 61.1648L13.6523 61.4034C14.2376 61.5455 14.6737 61.7628 14.9606 62.0554C15.2475 62.3452 15.391 62.7187 15.391 63.1761C15.391 63.5511 15.283 63.8864 15.0671 64.1818C14.854 64.4773 14.5558 64.7102 14.1722 64.8807C13.7887 65.0511 13.3427 65.1364 12.8342 65.1364C12.1665 65.1364 11.614 64.9915 11.1765 64.7017C10.739 64.4119 10.462 63.9886 10.3455 63.4318L11.3001 63.1932C11.391 63.5455 11.5629 63.8097 11.8157 63.9858C12.0714 64.1619 12.4052 64.25 12.8171 64.25C13.2859 64.25 13.658 64.1506 13.9336 63.9517C14.212 63.75 14.3512 63.5085 14.3512 63.2273C14.3512 63 14.2717 62.8097 14.1126 62.6562C13.9535 62.5 13.7092 62.3835 13.3796 62.3068L12.2887 62.0511C11.6893 61.9091 11.2489 61.6889 10.9677 61.3906C10.6893 61.0895 10.5501 60.7131 10.5501 60.2614C10.5501 59.892 10.6538 59.5653 10.8612 59.2812C11.0714 58.9972 11.3569 58.7741 11.7177 58.6122C12.0813 58.4503 12.4933 58.3693 12.9535 58.3693C13.6012 58.3693 14.1097 58.5114 14.479 58.7955C14.8512 59.0795 15.1154 59.4545 15.2717 59.9205ZM17.0412 65V56.2727H18.0469V59.4943H18.1321C18.206 59.3807 18.3082 59.2358 18.4389 59.0597C18.5724 58.8807 18.7628 58.7216 19.0099 58.5824C19.2599 58.4403 19.598 58.3693 20.0241 58.3693C20.5753 58.3693 21.0611 58.5071 21.4815 58.7827C21.902 59.0582 22.2301 59.4489 22.4659 59.9545C22.7017 60.4602 22.8196 61.0568 22.8196 61.7443C22.8196 62.4375 22.7017 63.0384 22.4659 63.5469C22.2301 64.0526 21.9034 64.4446 21.4858 64.723C21.0682 64.9986 20.5866 65.1364 20.0412 65.1364C19.6207 65.1364 19.2841 65.0668 19.0312 64.9276C18.7784 64.7855 18.5838 64.625 18.4474 64.446C18.3111 64.2642 18.206 64.1136 18.1321 63.9943H18.0128V65H17.0412ZM18.0298 61.7273C18.0298 62.2216 18.1023 62.6577 18.2472 63.0355C18.392 63.4105 18.6037 63.7045 18.8821 63.9176C19.1605 64.1278 19.5014 64.233 19.9048 64.233C20.3253 64.233 20.6761 64.1222 20.9574 63.9006C21.2415 63.6761 21.4545 63.375 21.5966 62.9972C21.7415 62.6165 21.8139 62.1932 21.8139 61.7273C21.8139 61.267 21.7429 60.8523 21.6009 60.483C21.4616 60.1108 21.25 59.8168 20.9659 59.6009C20.6847 59.3821 20.331 59.2727 19.9048 59.2727C19.4957 59.2727 19.152 59.3764 18.8736 59.5838C18.5952 59.7884 18.3849 60.0753 18.2429 60.4446C18.1009 60.8111 18.0298 61.2386 18.0298 61.7273ZM30.5625 65H27.8693V56.2727H30.6818C31.5284 56.2727 32.2528 56.4474 32.8551 56.7969C33.4574 57.1435 33.919 57.642 34.2401 58.2926C34.5611 58.9403 34.7216 59.7159 34.7216 60.6193C34.7216 61.5284 34.5597 62.3111 34.2358 62.9673C33.9119 63.6207 33.4403 64.1236 32.821 64.4759C32.2017 64.8253 31.4489 65 30.5625 65ZM28.9261 64.0625H30.4943C31.2159 64.0625 31.8139 63.9233 32.2884 63.6449C32.7628 63.3665 33.1165 62.9702 33.3494 62.456C33.5824 61.9418 33.6989 61.3295 33.6989 60.6193C33.6989 59.9148 33.5838 59.3082 33.3537 58.7997C33.1236 58.2884 32.7798 57.8963 32.3224 57.6236C31.8651 57.348 31.2955 57.2102 30.6136 57.2102H28.9261V64.0625ZM36.358 65V58.4545H37.3295V59.4432H37.3977C37.517 59.1193 37.733 58.8565 38.0455 58.6548C38.358 58.4531 38.7102 58.3523 39.1023 58.3523C39.1761 58.3523 39.2685 58.3537 39.3793 58.3565C39.4901 58.3594 39.5739 58.3636 39.6307 58.3693V59.392C39.5966 59.3835 39.5185 59.3707 39.3963 59.3537C39.277 59.3338 39.1506 59.3239 39.017 59.3239C38.6989 59.3239 38.4148 59.3906 38.1648 59.5241C37.9176 59.6548 37.7216 59.8366 37.5767 60.0696C37.4347 60.2997 37.3636 60.5625 37.3636 60.858V65H36.358ZM40.8228 65V58.4545H41.8285V65H40.8228ZM41.3342 57.3636C41.1381 57.3636 40.9691 57.2969 40.8271 57.1634C40.6879 57.0298 40.6183 56.8693 40.6183 56.6818C40.6183 56.4943 40.6879 56.3338 40.8271 56.2003C40.9691 56.0668 41.1381 56 41.3342 56C41.5302 56 41.6978 56.0668 41.837 56.2003C41.979 56.3338 42.0501 56.4943 42.0501 56.6818C42.0501 56.8693 41.979 57.0298 41.837 57.1634C41.6978 57.2969 41.5302 57.3636 41.3342 57.3636ZM49.0227 58.4545L46.6023 65H45.5795L43.1591 58.4545H44.25L46.0568 63.6705H46.125L47.9318 58.4545H49.0227ZM52.8601 65.1364C52.2294 65.1364 51.6854 64.9972 51.228 64.7188C50.7734 64.4375 50.4226 64.0455 50.1754 63.5426C49.9311 63.0369 49.8089 62.4489 49.8089 61.7784C49.8089 61.108 49.9311 60.517 50.1754 60.0057C50.4226 59.4915 50.7663 59.0909 51.2067 58.804C51.6499 58.5142 52.1669 58.3693 52.7578 58.3693C53.0987 58.3693 53.4354 58.4261 53.7678 58.5398C54.1001 58.6534 54.4027 58.8381 54.6754 59.0938C54.9482 59.3466 55.1655 59.6818 55.3274 60.0994C55.4893 60.517 55.5703 61.0312 55.5703 61.642V62.0682H50.5249V61.1989H54.5476C54.5476 60.8295 54.4737 60.5 54.326 60.2102C54.1811 59.9205 53.9737 59.6918 53.7038 59.5241C53.4368 59.3565 53.1214 59.2727 52.7578 59.2727C52.3572 59.2727 52.0107 59.3722 51.718 59.571C51.4283 59.767 51.2053 60.0227 51.049 60.3381C50.8928 60.6534 50.8146 60.9915 50.8146 61.3523V61.9318C50.8146 62.4261 50.8999 62.8452 51.0703 63.1889C51.2436 63.5298 51.4837 63.7898 51.7905 63.9688C52.0973 64.1449 52.4538 64.233 52.8601 64.233C53.1243 64.233 53.3629 64.196 53.576 64.1222C53.7919 64.0455 53.978 63.9318 54.1342 63.7812C54.2905 63.6278 54.4112 63.4375 54.4964 63.2102L55.468 63.483C55.3658 63.8125 55.1939 64.1023 54.9524 64.3523C54.7109 64.5994 54.4126 64.7926 54.0575 64.9318C53.7024 65.0682 53.3033 65.1364 52.8601 65.1364Z" fill="black"/>
</svg>
