<svg width="50" height="70" viewBox="0 0 50 70" fill="none" xmlns="http://www.w3.org/2000/svg">
<path d="M38.0858 2.74512C38.0858 3.38281 38.0761 4.00684 38.0468 4.62109C38.1835 4.61133 38.3105 4.60742 38.4276 4.60547C39.3749 4.58887 40.2245 4.72168 41.0351 4.89844C41.1816 4.3457 41.3769 3.76074 41.6405 3.13477C40.4003 3.20898 39.2187 3.06348 38.0858 2.74512ZM38.4765 6.36035C38.3105 6.36035 38.1347 6.375 37.9491 6.3916C37.4218 13.5156 35.3515 18.9355 32.412 23.1152C28.8476 28.1934 24.0624 31.4355 19.453 33.8184C14.8534 36.2207 10.4003 37.793 7.50577 39.4629C6.06143 40.3027 5.03604 41.1621 4.52237 42.0312C4.2001 42.5781 4.03604 43.1348 4.07901 43.8184L6.41592 44.6094C12.373 43.4277 20.5956 40.4297 27.4218 35.9082C31.3964 33.2813 34.9023 30.1465 37.2362 26.6113C39.5702 23.0664 40.7616 19.1504 40.1855 14.8145L41.9335 14.5898C42.5585 19.375 41.2108 23.7598 38.7011 27.5781C36.1815 31.3867 32.5097 34.6582 28.3886 37.3828C21.5136 41.9336 13.4081 44.9609 7.22452 46.25L6.65323 47.3242C7.08292 47.5098 7.56924 47.6563 8.11417 47.7734C10.1464 48.2031 12.9003 48.125 15.9569 47.4902C22.0898 46.2402 29.4433 42.8613 35.2148 37.627C40.4882 32.8613 44.2284 27.2949 45.4589 22.2949C46.6991 17.2852 45.5858 12.9492 41.0448 9.94141L40.664 9.69629L40.6444 9.25586C40.6054 8.45605 40.5858 7.59375 40.6933 6.62402C39.9706 6.46094 39.248 6.34668 38.4765 6.36035Z" fill="black"/>
<path d="M4.99237 67V58.2727H8.0435C8.65146 58.2727 9.15288 58.3778 9.54776 58.5881C9.94265 58.7955 10.2367 59.0753 10.4299 59.4276C10.623 59.777 10.7196 60.1648 10.7196 60.5909C10.7196 60.9659 10.6529 61.2756 10.5194 61.5199C10.3887 61.7642 10.2154 61.9574 9.99947 62.0994C9.7864 62.2415 9.55487 62.3466 9.30487 62.4148V62.5C9.57191 62.517 9.84038 62.6108 10.1103 62.7812C10.3801 62.9517 10.606 63.196 10.7878 63.5142C10.9696 63.8324 11.0605 64.2216 11.0605 64.6818C11.0605 65.1193 10.9611 65.5128 10.7623 65.8622C10.5634 66.2116 10.2495 66.4886 9.82049 66.6932C9.39151 66.8977 8.83327 67 8.14577 67H4.99237ZM6.04918 66.0625H8.14577C8.83612 66.0625 9.32617 65.929 9.61594 65.6619C9.90856 65.392 10.0549 65.0653 10.0549 64.6818C10.0549 64.3864 9.97958 64.1136 9.82901 63.8636C9.67844 63.6108 9.46396 63.4091 9.18555 63.2585C8.90714 63.1051 8.57759 63.0284 8.19691 63.0284H6.04918V66.0625ZM6.04918 62.108H8.00941C8.32759 62.108 8.61452 62.0455 8.87021 61.9205C9.12873 61.7955 9.33327 61.6193 9.48384 61.392C9.63725 61.1648 9.71396 60.8977 9.71396 60.5909C9.71396 60.2074 9.58043 59.8821 9.31339 59.6151C9.04634 59.3452 8.62305 59.2102 8.0435 59.2102H6.04918V62.108ZM14.5868 67.1534C14.1721 67.1534 13.7956 67.0753 13.4576 66.919C13.1195 66.7599 12.851 66.5312 12.6522 66.233C12.4533 65.9318 12.3539 65.5682 12.3539 65.142C12.3539 64.767 12.4277 64.4631 12.5755 64.2301C12.7232 63.9943 12.9206 63.8097 13.1678 63.6761C13.415 63.5426 13.6877 63.4432 13.986 63.3778C14.2871 63.3097 14.5897 63.2557 14.8936 63.2159C15.2914 63.1648 15.6138 63.1264 15.861 63.1009C16.111 63.0724 16.2928 63.0256 16.4064 62.9602C16.5229 62.8949 16.5811 62.7812 16.5811 62.6193V62.5852C16.5811 62.1648 16.4661 61.8381 16.236 61.6051C16.0087 61.3722 15.6635 61.2557 15.2005 61.2557C14.7203 61.2557 14.3439 61.3608 14.0712 61.571C13.7985 61.7812 13.6067 62.0057 13.4959 62.2443L12.5414 61.9034C12.7118 61.5057 12.9391 61.196 13.2232 60.9744C13.5101 60.75 13.8226 60.5937 14.1607 60.5057C14.5016 60.4148 14.8368 60.3693 15.1664 60.3693C15.3766 60.3693 15.6181 60.3949 15.8908 60.446C16.1664 60.4943 16.432 60.5952 16.6877 60.7486C16.9462 60.902 17.1607 61.1335 17.3311 61.4432C17.5016 61.7528 17.5868 62.1676 17.5868 62.6875V67H16.5811V66.1136H16.53C16.4618 66.2557 16.3482 66.4077 16.1891 66.5696C16.03 66.7315 15.8184 66.8693 15.5542 66.983C15.29 67.0966 14.9675 67.1534 14.5868 67.1534ZM14.7402 66.25C15.138 66.25 15.4732 66.1719 15.7459 66.0156C16.0215 65.8594 16.2289 65.6577 16.3681 65.4105C16.5101 65.1634 16.5811 64.9034 16.5811 64.6307V63.7102C16.5385 63.7614 16.4448 63.8082 16.2999 63.8509C16.1578 63.8906 15.9931 63.9261 15.8056 63.9574C15.6209 63.9858 15.4405 64.0114 15.2644 64.0341C15.0911 64.054 14.9505 64.071 14.8425 64.0852C14.5811 64.1193 14.3368 64.1747 14.1096 64.2514C13.8851 64.3253 13.7033 64.4375 13.5641 64.5881C13.4277 64.7358 13.3596 64.9375 13.3596 65.1932C13.3596 65.5426 13.4888 65.8068 13.7473 65.9858C14.0087 66.1619 14.3397 66.25 14.7402 66.25ZM20.4281 63.0625V67H19.4224V60.4545H20.394V61.4773H20.4792C20.6326 61.1449 20.8656 60.8778 21.1781 60.6761C21.4906 60.4716 21.894 60.3693 22.3883 60.3693C22.8315 60.3693 23.2193 60.4602 23.5517 60.642C23.8841 60.821 24.1426 61.0938 24.3272 61.4602C24.5119 61.8239 24.6042 62.2841 24.6042 62.8409V67H23.5985V62.9091C23.5985 62.3949 23.465 61.9943 23.198 61.7074C22.9309 61.4176 22.5645 61.2727 22.0985 61.2727C21.7775 61.2727 21.4906 61.3423 21.2377 61.4815C20.9877 61.6207 20.7903 61.8239 20.6454 62.0909C20.5005 62.358 20.4281 62.6818 20.4281 63.0625ZM28.3681 67.1534C27.9533 67.1534 27.5769 67.0753 27.2388 66.919C26.9007 66.7599 26.6323 66.5312 26.4334 66.233C26.2346 65.9318 26.1351 65.5682 26.1351 65.142C26.1351 64.767 26.209 64.4631 26.3567 64.2301C26.5044 63.9943 26.7019 63.8097 26.949 63.6761C27.1962 63.5426 27.4689 63.4432 27.7672 63.3778C28.0684 63.3097 28.3709 63.2557 28.6749 63.2159C29.0726 63.1648 29.3951 63.1264 29.6422 63.1009C29.8922 63.0724 30.074 63.0256 30.1877 62.9602C30.3042 62.8949 30.3624 62.7812 30.3624 62.6193V62.5852C30.3624 62.1648 30.2473 61.8381 30.0172 61.6051C29.79 61.3722 29.4448 61.2557 28.9817 61.2557C28.5016 61.2557 28.1252 61.3608 27.8525 61.571C27.5797 61.7812 27.388 62.0057 27.2772 62.2443L26.3226 61.9034C26.4931 61.5057 26.7203 61.196 27.0044 60.9744C27.2914 60.75 27.6039 60.5937 27.9419 60.5057C28.2828 60.4148 28.6181 60.3693 28.9476 60.3693C29.1578 60.3693 29.3993 60.3949 29.6721 60.446C29.9476 60.4943 30.2132 60.5952 30.4689 60.7486C30.7275 60.902 30.9419 61.1335 31.1124 61.4432C31.2828 61.7528 31.3681 62.1676 31.3681 62.6875V67H30.3624V66.1136H30.3113C30.2431 66.2557 30.1294 66.4077 29.9703 66.5696C29.8113 66.7315 29.5996 66.8693 29.3354 66.983C29.0712 67.0966 28.7488 67.1534 28.3681 67.1534ZM28.5215 66.25C28.9192 66.25 29.2544 66.1719 29.5272 66.0156C29.8027 65.8594 30.0101 65.6577 30.1493 65.4105C30.2914 65.1634 30.3624 64.9034 30.3624 64.6307V63.7102C30.3198 63.7614 30.226 63.8082 30.0811 63.8509C29.9391 63.8906 29.7743 63.9261 29.5868 63.9574C29.4022 63.9858 29.2218 64.0114 29.0456 64.0341C28.8723 64.054 28.7317 64.071 28.6238 64.0852C28.3624 64.1193 28.1181 64.1747 27.8908 64.2514C27.6664 64.3253 27.4846 64.4375 27.3453 64.5881C27.209 64.7358 27.1408 64.9375 27.1408 65.1932C27.1408 65.5426 27.2701 65.8068 27.5286 65.9858C27.79 66.1619 28.1209 66.25 28.5215 66.25ZM34.2093 63.0625V67H33.2037V60.4545H34.1752V61.4773H34.2605C34.4139 61.1449 34.6468 60.8778 34.9593 60.6761C35.2718 60.4716 35.6752 60.3693 36.1696 60.3693C36.6127 60.3693 37.0005 60.4602 37.3329 60.642C37.6653 60.821 37.9238 61.0938 38.1085 61.4602C38.2931 61.8239 38.3855 62.2841 38.3855 62.8409V67H37.3798V62.9091C37.3798 62.3949 37.2463 61.9943 36.9792 61.7074C36.7122 61.4176 36.3457 61.2727 35.8798 61.2727C35.5588 61.2727 35.2718 61.3423 35.019 61.4815C34.769 61.6207 34.5716 61.8239 34.4267 62.0909C34.2818 62.358 34.2093 62.6818 34.2093 63.0625ZM42.1493 67.1534C41.7346 67.1534 41.3581 67.0753 41.0201 66.919C40.682 66.7599 40.4135 66.5312 40.2147 66.233C40.0158 65.9318 39.9164 65.5682 39.9164 65.142C39.9164 64.767 39.9902 64.4631 40.138 64.2301C40.2857 63.9943 40.4831 63.8097 40.7303 63.6761C40.9775 63.5426 41.2502 63.4432 41.5485 63.3778C41.8496 63.3097 42.1522 63.2557 42.4561 63.2159C42.8539 63.1648 43.1763 63.1264 43.4235 63.1009C43.6735 63.0724 43.8553 63.0256 43.9689 62.9602C44.0854 62.8949 44.1436 62.7812 44.1436 62.6193V62.5852C44.1436 62.1648 44.0286 61.8381 43.7985 61.6051C43.5712 61.3722 43.226 61.2557 42.763 61.2557C42.2828 61.2557 41.9064 61.3608 41.6337 61.571C41.361 61.7812 41.1692 62.0057 41.0584 62.2443L40.1039 61.9034C40.2743 61.5057 40.5016 61.196 40.7857 60.9744C41.0726 60.75 41.3851 60.5937 41.7232 60.5057C42.0641 60.4148 42.3993 60.3693 42.7289 60.3693C42.9391 60.3693 43.1806 60.3949 43.4533 60.446C43.7289 60.4943 43.9945 60.5952 44.2502 60.7486C44.5087 60.902 44.7232 61.1335 44.8936 61.4432C45.0641 61.7528 45.1493 62.1676 45.1493 62.6875V67H44.1436V66.1136H44.0925C44.0243 66.2557 43.9107 66.4077 43.7516 66.5696C43.5925 66.7315 43.3809 66.8693 43.1167 66.983C42.8525 67.0966 42.53 67.1534 42.1493 67.1534ZM42.3027 66.25C42.7005 66.25 43.0357 66.1719 43.3084 66.0156C43.584 65.8594 43.7914 65.6577 43.9306 65.4105C44.0726 65.1634 44.1436 64.9034 44.1436 64.6307V63.7102C44.101 63.7614 44.0073 63.8082 43.8624 63.8509C43.7203 63.8906 43.5556 63.9261 43.3681 63.9574C43.1834 63.9858 43.003 64.0114 42.8269 64.0341C42.6536 64.054 42.513 64.071 42.405 64.0852C42.1436 64.1193 41.8993 64.1747 41.6721 64.2514C41.4476 64.3253 41.2658 64.4375 41.1266 64.5881C40.9902 64.7358 40.9221 64.9375 40.9221 65.1932C40.9221 65.5426 41.0513 65.8068 41.3098 65.9858C41.5712 66.1619 41.9022 66.25 42.3027 66.25Z" fill="black"/>
</svg>
