<svg width="60" height="71" viewBox="0 0 60 71" fill="none" xmlns="http://www.w3.org/2000/svg">
<path d="M27.4187 40.6146L23.4021 45.4021L8.46875 43.75L17.8438 32.5792L27.4187 40.6146ZM31.6937 38.7605L18.925 28.048L36.3333 7.30213C37.7539 5.60888 39.7889 4.54931 41.9907 4.3565C44.1925 4.16369 46.3807 4.85343 48.074 6.274C49.7672 7.69457 50.8268 9.72959 51.0196 11.9314C51.2124 14.1332 50.5226 16.3214 49.1021 18.0146L31.6937 38.7625V38.7605ZM44.0187 12.4688C43.8091 12.293 43.5668 12.1602 43.3058 12.078C43.0448 11.9958 42.7701 11.9659 42.4975 11.9899C42.2249 12.0139 41.9597 12.0913 41.7171 12.2178C41.4744 12.3443 41.2591 12.5174 41.0833 12.7271L39.7437 14.323C39.3885 14.7462 39.2159 15.2932 39.2639 15.8437C39.312 16.3942 39.5768 16.9031 40 17.2584C40.4232 17.6137 40.9703 17.7863 41.5208 17.7382C42.0713 17.6901 42.5801 17.4254 42.9354 17.0021L44.275 15.4063C44.4513 15.1967 44.5845 14.9544 44.667 14.6932C44.7495 14.4321 44.7797 14.1572 44.7559 13.8844C44.7321 13.6116 44.6548 13.3461 44.5283 13.1032C44.4018 12.8603 44.2286 12.6447 44.0187 12.4688Z" fill="black"/>
<path d="M0.000177622 68V59.2727H3.05131C3.65927 59.2727 4.16069 59.3778 4.55558 59.5881C4.95046 59.7955 5.2445 60.0753 5.43768 60.4276C5.63086 60.777 5.72745 61.1648 5.72745 61.5909C5.72745 61.9659 5.66069 62.2756 5.52717 62.5199C5.39648 62.7642 5.22319 62.9574 5.00728 63.0994C4.79421 63.2415 4.56268 63.3466 4.31268 63.4148V63.5C4.57972 63.517 4.84819 63.6108 5.11808 63.7812C5.38796 63.9517 5.61381 64.196 5.79563 64.5142C5.97745 64.8324 6.06836 65.2216 6.06836 65.6818C6.06836 66.1193 5.96893 66.5128 5.77006 66.8622C5.5712 67.2116 5.25728 67.4886 4.8283 67.6932C4.39933 67.8977 3.84109 68 3.15359 68H0.000177622ZM1.057 67.0625H3.15359C3.84393 67.0625 4.33398 66.929 4.62376 66.6619C4.91637 66.392 5.06268 66.0653 5.06268 65.6818C5.06268 65.3864 4.98739 65.1136 4.83683 64.8636C4.68626 64.6108 4.47177 64.4091 4.19336 64.2585C3.91495 64.1051 3.5854 64.0284 3.20472 64.0284H1.057V67.0625ZM1.057 63.108H3.01722C3.3354 63.108 3.62234 63.0455 3.87802 62.9205C4.13654 62.7955 4.34109 62.6193 4.49165 62.392C4.64506 62.1648 4.72177 61.8977 4.72177 61.5909C4.72177 61.2074 4.58825 60.8821 4.3212 60.6151C4.05416 60.3452 3.63086 60.2102 3.05131 60.2102H1.057V63.108ZM10.3276 68.1364C9.73668 68.1364 9.21822 67.9957 8.77219 67.7145C8.32901 67.4332 7.98242 67.0398 7.73242 66.5341C7.48526 66.0284 7.36168 65.4375 7.36168 64.7614C7.36168 64.0795 7.48526 63.4844 7.73242 62.9759C7.98242 62.4673 8.32901 62.0724 8.77219 61.7912C9.21822 61.5099 9.73668 61.3693 10.3276 61.3693C10.9185 61.3693 11.4355 61.5099 11.8787 61.7912C12.3248 62.0724 12.6713 62.4673 12.9185 62.9759C13.1685 63.4844 13.2935 64.0795 13.2935 64.7614C13.2935 65.4375 13.1685 66.0284 12.9185 66.5341C12.6713 67.0398 12.3248 67.4332 11.8787 67.7145C11.4355 67.9957 10.9185 68.1364 10.3276 68.1364ZM10.3276 67.233C10.7765 67.233 11.1458 67.1179 11.4355 66.8878C11.7253 66.6577 11.9398 66.3551 12.079 65.9801C12.2182 65.6051 12.2878 65.1989 12.2878 64.7614C12.2878 64.3239 12.2182 63.9162 12.079 63.5384C11.9398 63.1605 11.7253 62.8551 11.4355 62.6222C11.1458 62.3892 10.7765 62.2727 10.3276 62.2727C9.87873 62.2727 9.50941 62.3892 9.21964 62.6222C8.92987 62.8551 8.71538 63.1605 8.57617 63.5384C8.43697 63.9162 8.36737 64.3239 8.36737 64.7614C8.36737 65.1989 8.43697 65.6051 8.57617 65.9801C8.71538 66.3551 8.92987 66.6577 9.21964 66.8878C9.50941 67.1179 9.87873 67.233 10.3276 67.233ZM15.3091 61.4545L16.8773 64.1307L18.4455 61.4545H19.6046L17.4909 64.7273L19.6046 68H18.4455L16.8773 65.4602L15.3091 68H14.15L16.2296 64.7273L14.15 61.4545H15.3091ZM31.5737 62H30.5169C30.4544 61.696 30.345 61.429 30.1887 61.1989C30.0353 60.9688 29.8478 60.7756 29.6262 60.6193C29.4075 60.4602 29.1646 60.3409 28.8975 60.2614C28.6305 60.1818 28.3521 60.142 28.0623 60.142C27.5339 60.142 27.0552 60.2756 26.6262 60.5426C26.2001 60.8097 25.8606 61.2031 25.6078 61.723C25.3578 62.2429 25.2328 62.8807 25.2328 63.6364C25.2328 64.392 25.3578 65.0298 25.6078 65.5497C25.8606 66.0696 26.2001 66.4631 26.6262 66.7301C27.0552 66.9972 27.5339 67.1307 28.0623 67.1307C28.3521 67.1307 28.6305 67.0909 28.8975 67.0114C29.1646 66.9318 29.4075 66.8139 29.6262 66.6577C29.8478 66.4986 30.0353 66.304 30.1887 66.0739C30.345 65.8409 30.4544 65.5739 30.5169 65.2727H31.5737C31.4941 65.7187 31.3493 66.1179 31.139 66.4702C30.9288 66.8224 30.6674 67.1222 30.3549 67.3693C30.0424 67.6136 29.6916 67.7997 29.3024 67.9276C28.916 68.0554 28.5027 68.1193 28.0623 68.1193C27.318 68.1193 26.6561 67.9375 26.0765 67.5739C25.497 67.2102 25.041 66.6932 24.7086 66.0227C24.3762 65.3523 24.21 64.5568 24.21 63.6364C24.21 62.7159 24.3762 61.9205 24.7086 61.25C25.041 60.5795 25.497 60.0625 26.0765 59.6989C26.6561 59.3352 27.318 59.1534 28.0623 59.1534C28.5027 59.1534 28.916 59.2173 29.3024 59.3452C29.6916 59.473 30.0424 59.6605 30.3549 59.9077C30.6674 60.152 30.9288 60.4503 31.139 60.8026C31.3493 61.152 31.4941 61.5511 31.5737 62ZM37.2701 65.3239V61.4545H38.2757V68H37.2701V66.892H37.2019C37.0485 67.2244 36.8098 67.5071 36.486 67.7401C36.1621 67.9702 35.753 68.0852 35.2587 68.0852C34.8496 68.0852 34.486 67.9957 34.1678 67.8168C33.8496 67.6349 33.5996 67.3622 33.4178 66.9986C33.236 66.6321 33.1451 66.1705 33.1451 65.6136V61.4545H34.1507V65.5455C34.1507 66.0227 34.2843 66.4034 34.5513 66.6875C34.8212 66.9716 35.165 67.1136 35.5826 67.1136C35.8326 67.1136 36.0868 67.0497 36.3453 66.9219C36.6067 66.794 36.8255 66.598 37.0016 66.3338C37.1806 66.0696 37.2701 65.733 37.2701 65.3239ZM42.9643 61.4545V62.3068H39.5723V61.4545H42.9643ZM40.5609 59.8864H41.5666V66.125C41.5666 66.4091 41.6078 66.6222 41.6902 66.7642C41.7754 66.9034 41.8833 66.9972 42.014 67.0455C42.1475 67.0909 42.2882 67.1136 42.4359 67.1136C42.5467 67.1136 42.6376 67.108 42.7086 67.0966C42.7797 67.0824 42.8365 67.071 42.8791 67.0625L43.0836 67.9659C43.0154 67.9915 42.9203 68.017 42.7981 68.0426C42.676 68.071 42.5211 68.0852 42.3336 68.0852C42.0495 68.0852 41.7711 68.0241 41.4984 67.902C41.2285 67.7798 41.0041 67.5938 40.8251 67.3438C40.649 67.0938 40.5609 66.7784 40.5609 66.3977V59.8864ZM47.3237 61.4545V62.3068H43.9316V61.4545H47.3237ZM44.9203 59.8864H45.926V66.125C45.926 66.4091 45.9672 66.6222 46.0495 66.7642C46.1348 66.9034 46.2427 66.9972 46.3734 67.0455C46.5069 67.0909 46.6475 67.1136 46.7953 67.1136C46.9061 67.1136 46.997 67.108 47.068 67.0966C47.139 67.0824 47.1958 67.071 47.2385 67.0625L47.443 67.9659C47.3748 67.9915 47.2797 68.017 47.1575 68.0426C47.0353 68.071 46.8805 68.0852 46.693 68.0852C46.4089 68.0852 46.1305 68.0241 45.8578 67.902C45.5879 67.7798 45.3635 67.5938 45.1845 67.3438C45.0083 67.0938 44.9203 66.7784 44.9203 66.3977V59.8864ZM51.5105 68.1364C50.8798 68.1364 50.3358 67.9972 49.8784 67.7188C49.4238 67.4375 49.073 67.0455 48.8258 66.5426C48.5815 66.0369 48.4593 65.4489 48.4593 64.7784C48.4593 64.108 48.5815 63.517 48.8258 63.0057C49.073 62.4915 49.4167 62.0909 49.8571 61.804C50.3002 61.5142 50.8173 61.3693 51.4082 61.3693C51.7491 61.3693 52.0858 61.4261 52.4181 61.5398C52.7505 61.6534 53.0531 61.8381 53.3258 62.0938C53.5985 62.3466 53.8159 62.6818 53.9778 63.0994C54.1397 63.517 54.2207 64.0312 54.2207 64.642V65.0682H49.1752V64.1989H53.198C53.198 63.8295 53.1241 63.5 52.9764 63.2102C52.8315 62.9205 52.6241 62.6918 52.3542 62.5241C52.0872 62.3565 51.7718 62.2727 51.4082 62.2727C51.0076 62.2727 50.661 62.3722 50.3684 62.571C50.0787 62.767 49.8556 63.0227 49.6994 63.3381C49.5431 63.6534 49.465 63.9915 49.465 64.3523V64.9318C49.465 65.4261 49.5502 65.8452 49.7207 66.1889C49.894 66.5298 50.1341 66.7898 50.4409 66.9688C50.7477 67.1449 51.1042 67.233 51.5105 67.233C51.7747 67.233 52.0133 67.196 52.2264 67.1222C52.4423 67.0455 52.6284 66.9318 52.7846 66.7812C52.9409 66.6278 53.0616 66.4375 53.1468 66.2102L54.1184 66.483C54.0162 66.8125 53.8443 67.1023 53.6028 67.3523C53.3613 67.5994 53.063 67.7926 52.7079 67.9318C52.3528 68.0682 51.9537 68.1364 51.5105 68.1364ZM55.7505 68V61.4545H56.7221V62.4432H56.7903C56.9096 62.1193 57.1255 61.8565 57.438 61.6548C57.7505 61.4531 58.1028 61.3523 58.4949 61.3523C58.5687 61.3523 58.661 61.3537 58.7718 61.3565C58.8826 61.3594 58.9664 61.3636 59.0233 61.3693V62.392C58.9892 62.3835 58.911 62.3707 58.7889 62.3537C58.6696 62.3338 58.5431 62.3239 58.4096 62.3239C58.0914 62.3239 57.8074 62.3906 57.5574 62.5241C57.3102 62.6548 57.1142 62.8366 56.9693 63.0696C56.8272 63.2997 56.7562 63.5625 56.7562 63.858V68H55.7505Z" fill="black"/>
</svg>
