<svg width="50" height="73" viewBox="0 0 50 73" fill="none" xmlns="http://www.w3.org/2000/svg">
<g clip-path="url(#clip0_607_740)">
<path d="M42.1817 2.4845L42.6473 2.01888C42.9977 1.66862 43.4138 1.39082 43.8716 1.20134C44.3294 1.01186 44.8201 0.914406 45.3156 0.914551C45.8111 0.914696 46.3017 1.01243 46.7594 1.20218C47.2171 1.39193 47.633 1.66998 47.9832 2.02044C48.3335 2.37091 48.6113 2.78693 48.8008 3.24476C48.9902 3.70258 49.0877 4.19325 49.0875 4.68873C49.0874 5.18422 48.9897 5.67483 48.7999 6.13254C48.6102 6.59026 48.3321 7.00612 47.9817 7.35638L47.516 7.81888C48.3125 8.7122 48.7372 9.87636 48.7029 11.0727C48.6686 12.2691 48.178 13.407 47.3316 14.2533L15.1692 46.4189C14.9681 46.6189 14.7164 46.7604 14.441 46.8283L1.94103 49.9533C1.67944 50.0184 1.40545 50.0147 1.14569 49.9427C0.885932 49.8706 0.64924 49.7325 0.458622 49.5419C0.268004 49.3513 0.129946 49.1146 0.0578664 48.8548C-0.014213 48.5951 -0.0178612 48.3211 0.0472767 48.0595L3.17228 35.5595C3.24065 35.2853 3.38213 35.0347 3.58165 34.8345L33.7129 4.70325C33.4116 4.49116 33.0449 4.3924 32.6778 4.42442C32.3107 4.45644 31.9667 4.61719 31.7067 4.87825L21.4192 15.1689C21.2739 15.3142 21.1014 15.4294 20.9116 15.508C20.7218 15.5866 20.5184 15.6271 20.3129 15.6271C20.1075 15.6271 19.904 15.5866 19.7142 15.508C19.5244 15.4294 19.3519 15.3142 19.2067 15.1689C19.0614 15.0236 18.9461 14.8511 18.8675 14.6613C18.7889 14.4715 18.7484 14.2681 18.7484 14.0626C18.7484 13.8572 18.7889 13.6537 18.8675 13.4639C18.9461 13.2741 19.0614 13.1017 19.2067 12.9564L29.5004 2.66888C30.3472 1.82205 31.486 1.33144 32.6831 1.29774C33.8802 1.26403 35.0448 1.68979 35.9379 2.48763C36.7965 1.72025 37.9076 1.29579 39.0592 1.29521C40.2108 1.29464 41.3223 1.71798 42.1817 2.4845Z" fill="black"/>
</g>
<path d="M15.2814 70V61.2727H18.2303C18.915 61.2727 19.4746 61.3963 19.9093 61.6435C20.3468 61.8878 20.6706 62.2188 20.8809 62.6364C21.0911 63.054 21.1962 63.5199 21.1962 64.0341C21.1962 64.5483 21.0911 65.0156 20.8809 65.4361C20.6735 65.8565 20.3525 66.1918 19.9178 66.4418C19.4831 66.6889 18.9263 66.8125 18.2473 66.8125H16.1337V65.875H18.2132C18.682 65.875 19.0584 65.794 19.3425 65.6321C19.6266 65.4702 19.8326 65.2514 19.9604 64.9759C20.0911 64.6974 20.1564 64.3835 20.1564 64.0341C20.1564 63.6847 20.0911 63.3722 19.9604 63.0966C19.8326 62.821 19.6252 62.6051 19.3382 62.4489C19.0513 62.2898 18.6706 62.2102 18.1962 62.2102H16.3382V70H15.2814ZM25.4363 70.1364C24.8056 70.1364 24.2615 69.9972 23.8042 69.7188C23.3496 69.4375 22.9988 69.0455 22.7516 68.5426C22.5073 68.0369 22.3851 67.4489 22.3851 66.7784C22.3851 66.108 22.5073 65.517 22.7516 65.0057C22.9988 64.4915 23.3425 64.0909 23.7828 63.804C24.226 63.5142 24.7431 63.3693 25.334 63.3693C25.6749 63.3693 26.0115 63.4261 26.3439 63.5398C26.6763 63.6534 26.9789 63.8381 27.2516 64.0938C27.5243 64.3466 27.7417 64.6818 27.9036 65.0994C28.0655 65.517 28.1465 66.0312 28.1465 66.642V67.0682H23.101V66.1989H27.1238C27.1238 65.8295 27.0499 65.5 26.9022 65.2102C26.7573 64.9205 26.5499 64.6918 26.28 64.5241C26.013 64.3565 25.6976 64.2727 25.334 64.2727C24.9334 64.2727 24.5868 64.3722 24.2942 64.571C24.0044 64.767 23.7814 65.0227 23.6252 65.3381C23.4689 65.6534 23.3908 65.9915 23.3908 66.3523V66.9318C23.3908 67.4261 23.476 67.8452 23.6465 68.1889C23.8198 68.5298 24.0598 68.7898 24.3667 68.9688C24.6735 69.1449 25.03 69.233 25.4363 69.233C25.7005 69.233 25.9391 69.196 26.1522 69.1222C26.3681 69.0455 26.5542 68.9318 26.7104 68.7812C26.8667 68.6278 26.9874 68.4375 27.0726 68.2102L28.0442 68.483C27.9419 68.8125 27.7701 69.1023 27.5286 69.3523C27.2871 69.5994 26.9888 69.7926 26.6337 69.9318C26.2786 70.0682 25.8794 70.1364 25.4363 70.1364ZM30.682 66.0625V70H29.6763V63.4545H30.6479V64.4773H30.7331C30.8865 64.1449 31.1195 63.8778 31.432 63.6761C31.7445 63.4716 32.1479 63.3693 32.6422 63.3693C33.0854 63.3693 33.4732 63.4602 33.8056 63.642C34.138 63.821 34.3965 64.0938 34.5811 64.4602C34.7658 64.8239 34.8581 65.2841 34.8581 65.8409V70H33.8525V65.9091C33.8525 65.3949 33.7189 64.9943 33.4519 64.7074C33.1848 64.4176 32.8184 64.2727 32.3525 64.2727C32.0314 64.2727 31.7445 64.3423 31.4917 64.4815C31.2417 64.6207 31.0442 64.8239 30.8993 65.0909C30.7544 65.358 30.682 65.6818 30.682 66.0625Z" fill="black"/>
<defs>
<clipPath id="clip0_607_740">
<rect width="50" height="50" fill="white"/>
</clipPath>
</defs>
</svg>
